%TF.GenerationSoftware,KiCad,Pcbnew,7.0.1*%
%TF.CreationDate,2023-05-13T15:10:29+02:00*%
%TF.ProjectId,Lab1_SDHD,4c616231-5f53-4444-9844-2e6b69636164,v 1.4*%
%TF.SameCoordinates,Original*%
%TF.FileFunction,Legend,Top*%
%TF.FilePolarity,Positive*%
%FSLAX46Y46*%
G04 Gerber Fmt 4.6, Leading zero omitted, Abs format (unit mm)*
G04 Created by KiCad (PCBNEW 7.0.1) date 2023-05-13 15:10:29*
%MOMM*%
%LPD*%
G01*
G04 APERTURE LIST*
%ADD10C,0.125000*%
%ADD11C,0.200000*%
%ADD12C,0.150000*%
%ADD13C,0.120000*%
G04 APERTURE END LIST*
D10*
X155498952Y-77296190D02*
X155451333Y-77258095D01*
X155451333Y-77258095D02*
X155379904Y-77258095D01*
X155379904Y-77258095D02*
X155308476Y-77296190D01*
X155308476Y-77296190D02*
X155260857Y-77372380D01*
X155260857Y-77372380D02*
X155237047Y-77448571D01*
X155237047Y-77448571D02*
X155213238Y-77600952D01*
X155213238Y-77600952D02*
X155213238Y-77715238D01*
X155213238Y-77715238D02*
X155237047Y-77867619D01*
X155237047Y-77867619D02*
X155260857Y-77943809D01*
X155260857Y-77943809D02*
X155308476Y-78020000D01*
X155308476Y-78020000D02*
X155379904Y-78058095D01*
X155379904Y-78058095D02*
X155427523Y-78058095D01*
X155427523Y-78058095D02*
X155498952Y-78020000D01*
X155498952Y-78020000D02*
X155522761Y-77981904D01*
X155522761Y-77981904D02*
X155522761Y-77715238D01*
X155522761Y-77715238D02*
X155427523Y-77715238D01*
X155737047Y-78058095D02*
X155737047Y-77258095D01*
X155737047Y-77258095D02*
X156022761Y-78058095D01*
X156022761Y-78058095D02*
X156022761Y-77258095D01*
X156260857Y-78058095D02*
X156260857Y-77258095D01*
X156260857Y-77258095D02*
X156379905Y-77258095D01*
X156379905Y-77258095D02*
X156451333Y-77296190D01*
X156451333Y-77296190D02*
X156498952Y-77372380D01*
X156498952Y-77372380D02*
X156522762Y-77448571D01*
X156522762Y-77448571D02*
X156546571Y-77600952D01*
X156546571Y-77600952D02*
X156546571Y-77715238D01*
X156546571Y-77715238D02*
X156522762Y-77867619D01*
X156522762Y-77867619D02*
X156498952Y-77943809D01*
X156498952Y-77943809D02*
X156451333Y-78020000D01*
X156451333Y-78020000D02*
X156379905Y-78058095D01*
X156379905Y-78058095D02*
X156260857Y-78058095D01*
X155745047Y-71403333D02*
X156126000Y-71403333D01*
X155935523Y-71708095D02*
X155935523Y-71098571D01*
X156602190Y-70908095D02*
X156364095Y-70908095D01*
X156364095Y-70908095D02*
X156340286Y-71289047D01*
X156340286Y-71289047D02*
X156364095Y-71250952D01*
X156364095Y-71250952D02*
X156411714Y-71212857D01*
X156411714Y-71212857D02*
X156530762Y-71212857D01*
X156530762Y-71212857D02*
X156578381Y-71250952D01*
X156578381Y-71250952D02*
X156602190Y-71289047D01*
X156602190Y-71289047D02*
X156626000Y-71365238D01*
X156626000Y-71365238D02*
X156626000Y-71555714D01*
X156626000Y-71555714D02*
X156602190Y-71631904D01*
X156602190Y-71631904D02*
X156578381Y-71670000D01*
X156578381Y-71670000D02*
X156530762Y-71708095D01*
X156530762Y-71708095D02*
X156411714Y-71708095D01*
X156411714Y-71708095D02*
X156364095Y-71670000D01*
X156364095Y-71670000D02*
X156340286Y-71631904D01*
X156768857Y-70908095D02*
X156935523Y-71708095D01*
X156935523Y-71708095D02*
X157102190Y-70908095D01*
D11*
X127670095Y-53011619D02*
X127670095Y-52011619D01*
X127670095Y-52011619D02*
X128003428Y-52725904D01*
X128003428Y-52725904D02*
X128336761Y-52011619D01*
X128336761Y-52011619D02*
X128336761Y-53011619D01*
X128955809Y-53011619D02*
X128860571Y-52964000D01*
X128860571Y-52964000D02*
X128812952Y-52916380D01*
X128812952Y-52916380D02*
X128765333Y-52821142D01*
X128765333Y-52821142D02*
X128765333Y-52535428D01*
X128765333Y-52535428D02*
X128812952Y-52440190D01*
X128812952Y-52440190D02*
X128860571Y-52392571D01*
X128860571Y-52392571D02*
X128955809Y-52344952D01*
X128955809Y-52344952D02*
X129098666Y-52344952D01*
X129098666Y-52344952D02*
X129193904Y-52392571D01*
X129193904Y-52392571D02*
X129241523Y-52440190D01*
X129241523Y-52440190D02*
X129289142Y-52535428D01*
X129289142Y-52535428D02*
X129289142Y-52821142D01*
X129289142Y-52821142D02*
X129241523Y-52916380D01*
X129241523Y-52916380D02*
X129193904Y-52964000D01*
X129193904Y-52964000D02*
X129098666Y-53011619D01*
X129098666Y-53011619D02*
X128955809Y-53011619D01*
X129622476Y-52344952D02*
X129860571Y-53011619D01*
X129860571Y-53011619D02*
X130098666Y-52344952D01*
X130860571Y-52964000D02*
X130765333Y-53011619D01*
X130765333Y-53011619D02*
X130574857Y-53011619D01*
X130574857Y-53011619D02*
X130479619Y-52964000D01*
X130479619Y-52964000D02*
X130432000Y-52868761D01*
X130432000Y-52868761D02*
X130432000Y-52487809D01*
X130432000Y-52487809D02*
X130479619Y-52392571D01*
X130479619Y-52392571D02*
X130574857Y-52344952D01*
X130574857Y-52344952D02*
X130765333Y-52344952D01*
X130765333Y-52344952D02*
X130860571Y-52392571D01*
X130860571Y-52392571D02*
X130908190Y-52487809D01*
X130908190Y-52487809D02*
X130908190Y-52583047D01*
X130908190Y-52583047D02*
X130432000Y-52678285D01*
X131336762Y-53011619D02*
X131336762Y-52344952D01*
X131336762Y-52440190D02*
X131384381Y-52392571D01*
X131384381Y-52392571D02*
X131479619Y-52344952D01*
X131479619Y-52344952D02*
X131622476Y-52344952D01*
X131622476Y-52344952D02*
X131717714Y-52392571D01*
X131717714Y-52392571D02*
X131765333Y-52487809D01*
X131765333Y-52487809D02*
X131765333Y-53011619D01*
X131765333Y-52487809D02*
X131812952Y-52392571D01*
X131812952Y-52392571D02*
X131908190Y-52344952D01*
X131908190Y-52344952D02*
X132051047Y-52344952D01*
X132051047Y-52344952D02*
X132146286Y-52392571D01*
X132146286Y-52392571D02*
X132193905Y-52487809D01*
X132193905Y-52487809D02*
X132193905Y-53011619D01*
X133051047Y-52964000D02*
X132955809Y-53011619D01*
X132955809Y-53011619D02*
X132765333Y-53011619D01*
X132765333Y-53011619D02*
X132670095Y-52964000D01*
X132670095Y-52964000D02*
X132622476Y-52868761D01*
X132622476Y-52868761D02*
X132622476Y-52487809D01*
X132622476Y-52487809D02*
X132670095Y-52392571D01*
X132670095Y-52392571D02*
X132765333Y-52344952D01*
X132765333Y-52344952D02*
X132955809Y-52344952D01*
X132955809Y-52344952D02*
X133051047Y-52392571D01*
X133051047Y-52392571D02*
X133098666Y-52487809D01*
X133098666Y-52487809D02*
X133098666Y-52583047D01*
X133098666Y-52583047D02*
X132622476Y-52678285D01*
X133527238Y-52344952D02*
X133527238Y-53011619D01*
X133527238Y-52440190D02*
X133574857Y-52392571D01*
X133574857Y-52392571D02*
X133670095Y-52344952D01*
X133670095Y-52344952D02*
X133812952Y-52344952D01*
X133812952Y-52344952D02*
X133908190Y-52392571D01*
X133908190Y-52392571D02*
X133955809Y-52487809D01*
X133955809Y-52487809D02*
X133955809Y-53011619D01*
X134289143Y-52344952D02*
X134670095Y-52344952D01*
X134432000Y-52011619D02*
X134432000Y-52868761D01*
X134432000Y-52868761D02*
X134479619Y-52964000D01*
X134479619Y-52964000D02*
X134574857Y-53011619D01*
X134574857Y-53011619D02*
X134670095Y-53011619D01*
X135765334Y-53011619D02*
X135765334Y-52011619D01*
X135765334Y-52011619D02*
X136003429Y-52011619D01*
X136003429Y-52011619D02*
X136146286Y-52059238D01*
X136146286Y-52059238D02*
X136241524Y-52154476D01*
X136241524Y-52154476D02*
X136289143Y-52249714D01*
X136289143Y-52249714D02*
X136336762Y-52440190D01*
X136336762Y-52440190D02*
X136336762Y-52583047D01*
X136336762Y-52583047D02*
X136289143Y-52773523D01*
X136289143Y-52773523D02*
X136241524Y-52868761D01*
X136241524Y-52868761D02*
X136146286Y-52964000D01*
X136146286Y-52964000D02*
X136003429Y-53011619D01*
X136003429Y-53011619D02*
X135765334Y-53011619D01*
X137146286Y-52964000D02*
X137051048Y-53011619D01*
X137051048Y-53011619D02*
X136860572Y-53011619D01*
X136860572Y-53011619D02*
X136765334Y-52964000D01*
X136765334Y-52964000D02*
X136717715Y-52868761D01*
X136717715Y-52868761D02*
X136717715Y-52487809D01*
X136717715Y-52487809D02*
X136765334Y-52392571D01*
X136765334Y-52392571D02*
X136860572Y-52344952D01*
X136860572Y-52344952D02*
X137051048Y-52344952D01*
X137051048Y-52344952D02*
X137146286Y-52392571D01*
X137146286Y-52392571D02*
X137193905Y-52487809D01*
X137193905Y-52487809D02*
X137193905Y-52583047D01*
X137193905Y-52583047D02*
X136717715Y-52678285D01*
X137479620Y-52344952D02*
X137860572Y-52344952D01*
X137622477Y-52011619D02*
X137622477Y-52868761D01*
X137622477Y-52868761D02*
X137670096Y-52964000D01*
X137670096Y-52964000D02*
X137765334Y-53011619D01*
X137765334Y-53011619D02*
X137860572Y-53011619D01*
X138574858Y-52964000D02*
X138479620Y-53011619D01*
X138479620Y-53011619D02*
X138289144Y-53011619D01*
X138289144Y-53011619D02*
X138193906Y-52964000D01*
X138193906Y-52964000D02*
X138146287Y-52868761D01*
X138146287Y-52868761D02*
X138146287Y-52487809D01*
X138146287Y-52487809D02*
X138193906Y-52392571D01*
X138193906Y-52392571D02*
X138289144Y-52344952D01*
X138289144Y-52344952D02*
X138479620Y-52344952D01*
X138479620Y-52344952D02*
X138574858Y-52392571D01*
X138574858Y-52392571D02*
X138622477Y-52487809D01*
X138622477Y-52487809D02*
X138622477Y-52583047D01*
X138622477Y-52583047D02*
X138146287Y-52678285D01*
X139479620Y-52964000D02*
X139384382Y-53011619D01*
X139384382Y-53011619D02*
X139193906Y-53011619D01*
X139193906Y-53011619D02*
X139098668Y-52964000D01*
X139098668Y-52964000D02*
X139051049Y-52916380D01*
X139051049Y-52916380D02*
X139003430Y-52821142D01*
X139003430Y-52821142D02*
X139003430Y-52535428D01*
X139003430Y-52535428D02*
X139051049Y-52440190D01*
X139051049Y-52440190D02*
X139098668Y-52392571D01*
X139098668Y-52392571D02*
X139193906Y-52344952D01*
X139193906Y-52344952D02*
X139384382Y-52344952D01*
X139384382Y-52344952D02*
X139479620Y-52392571D01*
X139765335Y-52344952D02*
X140146287Y-52344952D01*
X139908192Y-52011619D02*
X139908192Y-52868761D01*
X139908192Y-52868761D02*
X139955811Y-52964000D01*
X139955811Y-52964000D02*
X140051049Y-53011619D01*
X140051049Y-53011619D02*
X140146287Y-53011619D01*
X140622478Y-53011619D02*
X140527240Y-52964000D01*
X140527240Y-52964000D02*
X140479621Y-52916380D01*
X140479621Y-52916380D02*
X140432002Y-52821142D01*
X140432002Y-52821142D02*
X140432002Y-52535428D01*
X140432002Y-52535428D02*
X140479621Y-52440190D01*
X140479621Y-52440190D02*
X140527240Y-52392571D01*
X140527240Y-52392571D02*
X140622478Y-52344952D01*
X140622478Y-52344952D02*
X140765335Y-52344952D01*
X140765335Y-52344952D02*
X140860573Y-52392571D01*
X140860573Y-52392571D02*
X140908192Y-52440190D01*
X140908192Y-52440190D02*
X140955811Y-52535428D01*
X140955811Y-52535428D02*
X140955811Y-52821142D01*
X140955811Y-52821142D02*
X140908192Y-52916380D01*
X140908192Y-52916380D02*
X140860573Y-52964000D01*
X140860573Y-52964000D02*
X140765335Y-53011619D01*
X140765335Y-53011619D02*
X140622478Y-53011619D01*
X141384383Y-53011619D02*
X141384383Y-52344952D01*
X141384383Y-52535428D02*
X141432002Y-52440190D01*
X141432002Y-52440190D02*
X141479621Y-52392571D01*
X141479621Y-52392571D02*
X141574859Y-52344952D01*
X141574859Y-52344952D02*
X141670097Y-52344952D01*
X127622476Y-54584000D02*
X127765333Y-54631619D01*
X127765333Y-54631619D02*
X128003428Y-54631619D01*
X128003428Y-54631619D02*
X128098666Y-54584000D01*
X128098666Y-54584000D02*
X128146285Y-54536380D01*
X128146285Y-54536380D02*
X128193904Y-54441142D01*
X128193904Y-54441142D02*
X128193904Y-54345904D01*
X128193904Y-54345904D02*
X128146285Y-54250666D01*
X128146285Y-54250666D02*
X128098666Y-54203047D01*
X128098666Y-54203047D02*
X128003428Y-54155428D01*
X128003428Y-54155428D02*
X127812952Y-54107809D01*
X127812952Y-54107809D02*
X127717714Y-54060190D01*
X127717714Y-54060190D02*
X127670095Y-54012571D01*
X127670095Y-54012571D02*
X127622476Y-53917333D01*
X127622476Y-53917333D02*
X127622476Y-53822095D01*
X127622476Y-53822095D02*
X127670095Y-53726857D01*
X127670095Y-53726857D02*
X127717714Y-53679238D01*
X127717714Y-53679238D02*
X127812952Y-53631619D01*
X127812952Y-53631619D02*
X128051047Y-53631619D01*
X128051047Y-53631619D02*
X128193904Y-53679238D01*
X128622476Y-54631619D02*
X128622476Y-53631619D01*
X128622476Y-53631619D02*
X128860571Y-53631619D01*
X128860571Y-53631619D02*
X129003428Y-53679238D01*
X129003428Y-53679238D02*
X129098666Y-53774476D01*
X129098666Y-53774476D02*
X129146285Y-53869714D01*
X129146285Y-53869714D02*
X129193904Y-54060190D01*
X129193904Y-54060190D02*
X129193904Y-54203047D01*
X129193904Y-54203047D02*
X129146285Y-54393523D01*
X129146285Y-54393523D02*
X129098666Y-54488761D01*
X129098666Y-54488761D02*
X129003428Y-54584000D01*
X129003428Y-54584000D02*
X128860571Y-54631619D01*
X128860571Y-54631619D02*
X128622476Y-54631619D01*
X129622476Y-54631619D02*
X129622476Y-53631619D01*
X129622476Y-54107809D02*
X130193904Y-54107809D01*
X130193904Y-54631619D02*
X130193904Y-53631619D01*
X130670095Y-54631619D02*
X130670095Y-53631619D01*
X130670095Y-53631619D02*
X130908190Y-53631619D01*
X130908190Y-53631619D02*
X131051047Y-53679238D01*
X131051047Y-53679238D02*
X131146285Y-53774476D01*
X131146285Y-53774476D02*
X131193904Y-53869714D01*
X131193904Y-53869714D02*
X131241523Y-54060190D01*
X131241523Y-54060190D02*
X131241523Y-54203047D01*
X131241523Y-54203047D02*
X131193904Y-54393523D01*
X131193904Y-54393523D02*
X131146285Y-54488761D01*
X131146285Y-54488761D02*
X131051047Y-54584000D01*
X131051047Y-54584000D02*
X130908190Y-54631619D01*
X130908190Y-54631619D02*
X130670095Y-54631619D01*
X131432000Y-54726857D02*
X132193904Y-54726857D01*
X132384381Y-54584000D02*
X132527238Y-54631619D01*
X132527238Y-54631619D02*
X132765333Y-54631619D01*
X132765333Y-54631619D02*
X132860571Y-54584000D01*
X132860571Y-54584000D02*
X132908190Y-54536380D01*
X132908190Y-54536380D02*
X132955809Y-54441142D01*
X132955809Y-54441142D02*
X132955809Y-54345904D01*
X132955809Y-54345904D02*
X132908190Y-54250666D01*
X132908190Y-54250666D02*
X132860571Y-54203047D01*
X132860571Y-54203047D02*
X132765333Y-54155428D01*
X132765333Y-54155428D02*
X132574857Y-54107809D01*
X132574857Y-54107809D02*
X132479619Y-54060190D01*
X132479619Y-54060190D02*
X132432000Y-54012571D01*
X132432000Y-54012571D02*
X132384381Y-53917333D01*
X132384381Y-53917333D02*
X132384381Y-53822095D01*
X132384381Y-53822095D02*
X132432000Y-53726857D01*
X132432000Y-53726857D02*
X132479619Y-53679238D01*
X132479619Y-53679238D02*
X132574857Y-53631619D01*
X132574857Y-53631619D02*
X132812952Y-53631619D01*
X132812952Y-53631619D02*
X132955809Y-53679238D01*
X133527238Y-54631619D02*
X133432000Y-54584000D01*
X133432000Y-54584000D02*
X133384381Y-54536380D01*
X133384381Y-54536380D02*
X133336762Y-54441142D01*
X133336762Y-54441142D02*
X133336762Y-54155428D01*
X133336762Y-54155428D02*
X133384381Y-54060190D01*
X133384381Y-54060190D02*
X133432000Y-54012571D01*
X133432000Y-54012571D02*
X133527238Y-53964952D01*
X133527238Y-53964952D02*
X133670095Y-53964952D01*
X133670095Y-53964952D02*
X133765333Y-54012571D01*
X133765333Y-54012571D02*
X133812952Y-54060190D01*
X133812952Y-54060190D02*
X133860571Y-54155428D01*
X133860571Y-54155428D02*
X133860571Y-54441142D01*
X133860571Y-54441142D02*
X133812952Y-54536380D01*
X133812952Y-54536380D02*
X133765333Y-54584000D01*
X133765333Y-54584000D02*
X133670095Y-54631619D01*
X133670095Y-54631619D02*
X133527238Y-54631619D01*
X134241524Y-54584000D02*
X134384381Y-54631619D01*
X134384381Y-54631619D02*
X134622476Y-54631619D01*
X134622476Y-54631619D02*
X134717714Y-54584000D01*
X134717714Y-54584000D02*
X134765333Y-54536380D01*
X134765333Y-54536380D02*
X134812952Y-54441142D01*
X134812952Y-54441142D02*
X134812952Y-54345904D01*
X134812952Y-54345904D02*
X134765333Y-54250666D01*
X134765333Y-54250666D02*
X134717714Y-54203047D01*
X134717714Y-54203047D02*
X134622476Y-54155428D01*
X134622476Y-54155428D02*
X134432000Y-54107809D01*
X134432000Y-54107809D02*
X134336762Y-54060190D01*
X134336762Y-54060190D02*
X134289143Y-54012571D01*
X134289143Y-54012571D02*
X134241524Y-53917333D01*
X134241524Y-53917333D02*
X134241524Y-53822095D01*
X134241524Y-53822095D02*
X134289143Y-53726857D01*
X134289143Y-53726857D02*
X134336762Y-53679238D01*
X134336762Y-53679238D02*
X134432000Y-53631619D01*
X134432000Y-53631619D02*
X134670095Y-53631619D01*
X134670095Y-53631619D02*
X134812952Y-53679238D01*
X135622476Y-54584000D02*
X135527238Y-54631619D01*
X135527238Y-54631619D02*
X135336762Y-54631619D01*
X135336762Y-54631619D02*
X135241524Y-54584000D01*
X135241524Y-54584000D02*
X135193905Y-54488761D01*
X135193905Y-54488761D02*
X135193905Y-54107809D01*
X135193905Y-54107809D02*
X135241524Y-54012571D01*
X135241524Y-54012571D02*
X135336762Y-53964952D01*
X135336762Y-53964952D02*
X135527238Y-53964952D01*
X135527238Y-53964952D02*
X135622476Y-54012571D01*
X135622476Y-54012571D02*
X135670095Y-54107809D01*
X135670095Y-54107809D02*
X135670095Y-54203047D01*
X135670095Y-54203047D02*
X135193905Y-54298285D01*
X136051048Y-53726857D02*
X136098667Y-53679238D01*
X136098667Y-53679238D02*
X136193905Y-53631619D01*
X136193905Y-53631619D02*
X136432000Y-53631619D01*
X136432000Y-53631619D02*
X136527238Y-53679238D01*
X136527238Y-53679238D02*
X136574857Y-53726857D01*
X136574857Y-53726857D02*
X136622476Y-53822095D01*
X136622476Y-53822095D02*
X136622476Y-53917333D01*
X136622476Y-53917333D02*
X136574857Y-54060190D01*
X136574857Y-54060190D02*
X136003429Y-54631619D01*
X136003429Y-54631619D02*
X136622476Y-54631619D01*
X136955810Y-53631619D02*
X137574857Y-53631619D01*
X137574857Y-53631619D02*
X137241524Y-54012571D01*
X137241524Y-54012571D02*
X137384381Y-54012571D01*
X137384381Y-54012571D02*
X137479619Y-54060190D01*
X137479619Y-54060190D02*
X137527238Y-54107809D01*
X137527238Y-54107809D02*
X137574857Y-54203047D01*
X137574857Y-54203047D02*
X137574857Y-54441142D01*
X137574857Y-54441142D02*
X137527238Y-54536380D01*
X137527238Y-54536380D02*
X137479619Y-54584000D01*
X137479619Y-54584000D02*
X137384381Y-54631619D01*
X137384381Y-54631619D02*
X137098667Y-54631619D01*
X137098667Y-54631619D02*
X137003429Y-54584000D01*
X137003429Y-54584000D02*
X136955810Y-54536380D01*
X128193904Y-55299238D02*
X128098666Y-55251619D01*
X128098666Y-55251619D02*
X127955809Y-55251619D01*
X127955809Y-55251619D02*
X127812952Y-55299238D01*
X127812952Y-55299238D02*
X127717714Y-55394476D01*
X127717714Y-55394476D02*
X127670095Y-55489714D01*
X127670095Y-55489714D02*
X127622476Y-55680190D01*
X127622476Y-55680190D02*
X127622476Y-55823047D01*
X127622476Y-55823047D02*
X127670095Y-56013523D01*
X127670095Y-56013523D02*
X127717714Y-56108761D01*
X127717714Y-56108761D02*
X127812952Y-56204000D01*
X127812952Y-56204000D02*
X127955809Y-56251619D01*
X127955809Y-56251619D02*
X128051047Y-56251619D01*
X128051047Y-56251619D02*
X128193904Y-56204000D01*
X128193904Y-56204000D02*
X128241523Y-56156380D01*
X128241523Y-56156380D02*
X128241523Y-55823047D01*
X128241523Y-55823047D02*
X128051047Y-55823047D01*
X128670095Y-56251619D02*
X128670095Y-55584952D01*
X128670095Y-55775428D02*
X128717714Y-55680190D01*
X128717714Y-55680190D02*
X128765333Y-55632571D01*
X128765333Y-55632571D02*
X128860571Y-55584952D01*
X128860571Y-55584952D02*
X128955809Y-55584952D01*
X129432000Y-56251619D02*
X129336762Y-56204000D01*
X129336762Y-56204000D02*
X129289143Y-56156380D01*
X129289143Y-56156380D02*
X129241524Y-56061142D01*
X129241524Y-56061142D02*
X129241524Y-55775428D01*
X129241524Y-55775428D02*
X129289143Y-55680190D01*
X129289143Y-55680190D02*
X129336762Y-55632571D01*
X129336762Y-55632571D02*
X129432000Y-55584952D01*
X129432000Y-55584952D02*
X129574857Y-55584952D01*
X129574857Y-55584952D02*
X129670095Y-55632571D01*
X129670095Y-55632571D02*
X129717714Y-55680190D01*
X129717714Y-55680190D02*
X129765333Y-55775428D01*
X129765333Y-55775428D02*
X129765333Y-56061142D01*
X129765333Y-56061142D02*
X129717714Y-56156380D01*
X129717714Y-56156380D02*
X129670095Y-56204000D01*
X129670095Y-56204000D02*
X129574857Y-56251619D01*
X129574857Y-56251619D02*
X129432000Y-56251619D01*
X130622476Y-55584952D02*
X130622476Y-56251619D01*
X130193905Y-55584952D02*
X130193905Y-56108761D01*
X130193905Y-56108761D02*
X130241524Y-56204000D01*
X130241524Y-56204000D02*
X130336762Y-56251619D01*
X130336762Y-56251619D02*
X130479619Y-56251619D01*
X130479619Y-56251619D02*
X130574857Y-56204000D01*
X130574857Y-56204000D02*
X130622476Y-56156380D01*
X131098667Y-55584952D02*
X131098667Y-56584952D01*
X131098667Y-55632571D02*
X131193905Y-55584952D01*
X131193905Y-55584952D02*
X131384381Y-55584952D01*
X131384381Y-55584952D02*
X131479619Y-55632571D01*
X131479619Y-55632571D02*
X131527238Y-55680190D01*
X131527238Y-55680190D02*
X131574857Y-55775428D01*
X131574857Y-55775428D02*
X131574857Y-56061142D01*
X131574857Y-56061142D02*
X131527238Y-56156380D01*
X131527238Y-56156380D02*
X131479619Y-56204000D01*
X131479619Y-56204000D02*
X131384381Y-56251619D01*
X131384381Y-56251619D02*
X131193905Y-56251619D01*
X131193905Y-56251619D02*
X131098667Y-56204000D01*
X131765334Y-56346857D02*
X132527238Y-56346857D01*
X132765334Y-56251619D02*
X132765334Y-55251619D01*
X132765334Y-55251619D02*
X133003429Y-55251619D01*
X133003429Y-55251619D02*
X133146286Y-55299238D01*
X133146286Y-55299238D02*
X133241524Y-55394476D01*
X133241524Y-55394476D02*
X133289143Y-55489714D01*
X133289143Y-55489714D02*
X133336762Y-55680190D01*
X133336762Y-55680190D02*
X133336762Y-55823047D01*
X133336762Y-55823047D02*
X133289143Y-56013523D01*
X133289143Y-56013523D02*
X133241524Y-56108761D01*
X133241524Y-56108761D02*
X133146286Y-56204000D01*
X133146286Y-56204000D02*
X133003429Y-56251619D01*
X133003429Y-56251619D02*
X132765334Y-56251619D01*
X133670096Y-55251619D02*
X134289143Y-55251619D01*
X134289143Y-55251619D02*
X133955810Y-55632571D01*
X133955810Y-55632571D02*
X134098667Y-55632571D01*
X134098667Y-55632571D02*
X134193905Y-55680190D01*
X134193905Y-55680190D02*
X134241524Y-55727809D01*
X134241524Y-55727809D02*
X134289143Y-55823047D01*
X134289143Y-55823047D02*
X134289143Y-56061142D01*
X134289143Y-56061142D02*
X134241524Y-56156380D01*
X134241524Y-56156380D02*
X134193905Y-56204000D01*
X134193905Y-56204000D02*
X134098667Y-56251619D01*
X134098667Y-56251619D02*
X133812953Y-56251619D01*
X133812953Y-56251619D02*
X133717715Y-56204000D01*
X133717715Y-56204000D02*
X133670096Y-56156380D01*
X128193904Y-57871619D02*
X127622476Y-57871619D01*
X127908190Y-57871619D02*
X127908190Y-56871619D01*
X127908190Y-56871619D02*
X127812952Y-57014476D01*
X127812952Y-57014476D02*
X127717714Y-57109714D01*
X127717714Y-57109714D02*
X127622476Y-57157333D01*
X129051047Y-57204952D02*
X129051047Y-57871619D01*
X128812952Y-56824000D02*
X128574857Y-57538285D01*
X128574857Y-57538285D02*
X129193904Y-57538285D01*
X130289142Y-56824000D02*
X129432000Y-58109714D01*
X130812952Y-56871619D02*
X130908190Y-56871619D01*
X130908190Y-56871619D02*
X131003428Y-56919238D01*
X131003428Y-56919238D02*
X131051047Y-56966857D01*
X131051047Y-56966857D02*
X131098666Y-57062095D01*
X131098666Y-57062095D02*
X131146285Y-57252571D01*
X131146285Y-57252571D02*
X131146285Y-57490666D01*
X131146285Y-57490666D02*
X131098666Y-57681142D01*
X131098666Y-57681142D02*
X131051047Y-57776380D01*
X131051047Y-57776380D02*
X131003428Y-57824000D01*
X131003428Y-57824000D02*
X130908190Y-57871619D01*
X130908190Y-57871619D02*
X130812952Y-57871619D01*
X130812952Y-57871619D02*
X130717714Y-57824000D01*
X130717714Y-57824000D02*
X130670095Y-57776380D01*
X130670095Y-57776380D02*
X130622476Y-57681142D01*
X130622476Y-57681142D02*
X130574857Y-57490666D01*
X130574857Y-57490666D02*
X130574857Y-57252571D01*
X130574857Y-57252571D02*
X130622476Y-57062095D01*
X130622476Y-57062095D02*
X130670095Y-56966857D01*
X130670095Y-56966857D02*
X130717714Y-56919238D01*
X130717714Y-56919238D02*
X130812952Y-56871619D01*
X132051047Y-56871619D02*
X131574857Y-56871619D01*
X131574857Y-56871619D02*
X131527238Y-57347809D01*
X131527238Y-57347809D02*
X131574857Y-57300190D01*
X131574857Y-57300190D02*
X131670095Y-57252571D01*
X131670095Y-57252571D02*
X131908190Y-57252571D01*
X131908190Y-57252571D02*
X132003428Y-57300190D01*
X132003428Y-57300190D02*
X132051047Y-57347809D01*
X132051047Y-57347809D02*
X132098666Y-57443047D01*
X132098666Y-57443047D02*
X132098666Y-57681142D01*
X132098666Y-57681142D02*
X132051047Y-57776380D01*
X132051047Y-57776380D02*
X132003428Y-57824000D01*
X132003428Y-57824000D02*
X131908190Y-57871619D01*
X131908190Y-57871619D02*
X131670095Y-57871619D01*
X131670095Y-57871619D02*
X131574857Y-57824000D01*
X131574857Y-57824000D02*
X131527238Y-57776380D01*
X133241523Y-56824000D02*
X132384381Y-58109714D01*
X133527238Y-56966857D02*
X133574857Y-56919238D01*
X133574857Y-56919238D02*
X133670095Y-56871619D01*
X133670095Y-56871619D02*
X133908190Y-56871619D01*
X133908190Y-56871619D02*
X134003428Y-56919238D01*
X134003428Y-56919238D02*
X134051047Y-56966857D01*
X134051047Y-56966857D02*
X134098666Y-57062095D01*
X134098666Y-57062095D02*
X134098666Y-57157333D01*
X134098666Y-57157333D02*
X134051047Y-57300190D01*
X134051047Y-57300190D02*
X133479619Y-57871619D01*
X133479619Y-57871619D02*
X134098666Y-57871619D01*
X134717714Y-56871619D02*
X134812952Y-56871619D01*
X134812952Y-56871619D02*
X134908190Y-56919238D01*
X134908190Y-56919238D02*
X134955809Y-56966857D01*
X134955809Y-56966857D02*
X135003428Y-57062095D01*
X135003428Y-57062095D02*
X135051047Y-57252571D01*
X135051047Y-57252571D02*
X135051047Y-57490666D01*
X135051047Y-57490666D02*
X135003428Y-57681142D01*
X135003428Y-57681142D02*
X134955809Y-57776380D01*
X134955809Y-57776380D02*
X134908190Y-57824000D01*
X134908190Y-57824000D02*
X134812952Y-57871619D01*
X134812952Y-57871619D02*
X134717714Y-57871619D01*
X134717714Y-57871619D02*
X134622476Y-57824000D01*
X134622476Y-57824000D02*
X134574857Y-57776380D01*
X134574857Y-57776380D02*
X134527238Y-57681142D01*
X134527238Y-57681142D02*
X134479619Y-57490666D01*
X134479619Y-57490666D02*
X134479619Y-57252571D01*
X134479619Y-57252571D02*
X134527238Y-57062095D01*
X134527238Y-57062095D02*
X134574857Y-56966857D01*
X134574857Y-56966857D02*
X134622476Y-56919238D01*
X134622476Y-56919238D02*
X134717714Y-56871619D01*
X135432000Y-56966857D02*
X135479619Y-56919238D01*
X135479619Y-56919238D02*
X135574857Y-56871619D01*
X135574857Y-56871619D02*
X135812952Y-56871619D01*
X135812952Y-56871619D02*
X135908190Y-56919238D01*
X135908190Y-56919238D02*
X135955809Y-56966857D01*
X135955809Y-56966857D02*
X136003428Y-57062095D01*
X136003428Y-57062095D02*
X136003428Y-57157333D01*
X136003428Y-57157333D02*
X135955809Y-57300190D01*
X135955809Y-57300190D02*
X135384381Y-57871619D01*
X135384381Y-57871619D02*
X136003428Y-57871619D01*
X136336762Y-56871619D02*
X136955809Y-56871619D01*
X136955809Y-56871619D02*
X136622476Y-57252571D01*
X136622476Y-57252571D02*
X136765333Y-57252571D01*
X136765333Y-57252571D02*
X136860571Y-57300190D01*
X136860571Y-57300190D02*
X136908190Y-57347809D01*
X136908190Y-57347809D02*
X136955809Y-57443047D01*
X136955809Y-57443047D02*
X136955809Y-57681142D01*
X136955809Y-57681142D02*
X136908190Y-57776380D01*
X136908190Y-57776380D02*
X136860571Y-57824000D01*
X136860571Y-57824000D02*
X136765333Y-57871619D01*
X136765333Y-57871619D02*
X136479619Y-57871619D01*
X136479619Y-57871619D02*
X136384381Y-57824000D01*
X136384381Y-57824000D02*
X136336762Y-57776380D01*
X128241523Y-59491619D02*
X127908190Y-59015428D01*
X127670095Y-59491619D02*
X127670095Y-58491619D01*
X127670095Y-58491619D02*
X128051047Y-58491619D01*
X128051047Y-58491619D02*
X128146285Y-58539238D01*
X128146285Y-58539238D02*
X128193904Y-58586857D01*
X128193904Y-58586857D02*
X128241523Y-58682095D01*
X128241523Y-58682095D02*
X128241523Y-58824952D01*
X128241523Y-58824952D02*
X128193904Y-58920190D01*
X128193904Y-58920190D02*
X128146285Y-58967809D01*
X128146285Y-58967809D02*
X128051047Y-59015428D01*
X128051047Y-59015428D02*
X127670095Y-59015428D01*
X129051047Y-59444000D02*
X128955809Y-59491619D01*
X128955809Y-59491619D02*
X128765333Y-59491619D01*
X128765333Y-59491619D02*
X128670095Y-59444000D01*
X128670095Y-59444000D02*
X128622476Y-59348761D01*
X128622476Y-59348761D02*
X128622476Y-58967809D01*
X128622476Y-58967809D02*
X128670095Y-58872571D01*
X128670095Y-58872571D02*
X128765333Y-58824952D01*
X128765333Y-58824952D02*
X128955809Y-58824952D01*
X128955809Y-58824952D02*
X129051047Y-58872571D01*
X129051047Y-58872571D02*
X129098666Y-58967809D01*
X129098666Y-58967809D02*
X129098666Y-59063047D01*
X129098666Y-59063047D02*
X128622476Y-59158285D01*
X129432000Y-58824952D02*
X129670095Y-59491619D01*
X129670095Y-59491619D02*
X129908190Y-58824952D01*
X130812952Y-59491619D02*
X130241524Y-59491619D01*
X130527238Y-59491619D02*
X130527238Y-58491619D01*
X130527238Y-58491619D02*
X130432000Y-58634476D01*
X130432000Y-58634476D02*
X130336762Y-58729714D01*
X130336762Y-58729714D02*
X130241524Y-58777333D01*
X131241524Y-59396380D02*
X131289143Y-59444000D01*
X131289143Y-59444000D02*
X131241524Y-59491619D01*
X131241524Y-59491619D02*
X131193905Y-59444000D01*
X131193905Y-59444000D02*
X131241524Y-59396380D01*
X131241524Y-59396380D02*
X131241524Y-59491619D01*
X132146285Y-58824952D02*
X132146285Y-59491619D01*
X131908190Y-58444000D02*
X131670095Y-59158285D01*
X131670095Y-59158285D02*
X132289142Y-59158285D01*
X141401904Y-54537238D02*
X141306666Y-54489619D01*
X141306666Y-54489619D02*
X141163809Y-54489619D01*
X141163809Y-54489619D02*
X141020952Y-54537238D01*
X141020952Y-54537238D02*
X140925714Y-54632476D01*
X140925714Y-54632476D02*
X140878095Y-54727714D01*
X140878095Y-54727714D02*
X140830476Y-54918190D01*
X140830476Y-54918190D02*
X140830476Y-55061047D01*
X140830476Y-55061047D02*
X140878095Y-55251523D01*
X140878095Y-55251523D02*
X140925714Y-55346761D01*
X140925714Y-55346761D02*
X141020952Y-55442000D01*
X141020952Y-55442000D02*
X141163809Y-55489619D01*
X141163809Y-55489619D02*
X141259047Y-55489619D01*
X141259047Y-55489619D02*
X141401904Y-55442000D01*
X141401904Y-55442000D02*
X141449523Y-55394380D01*
X141449523Y-55394380D02*
X141449523Y-55061047D01*
X141449523Y-55061047D02*
X141259047Y-55061047D01*
X141878095Y-55489619D02*
X141878095Y-54822952D01*
X141878095Y-54489619D02*
X141830476Y-54537238D01*
X141830476Y-54537238D02*
X141878095Y-54584857D01*
X141878095Y-54584857D02*
X141925714Y-54537238D01*
X141925714Y-54537238D02*
X141878095Y-54489619D01*
X141878095Y-54489619D02*
X141878095Y-54584857D01*
X142354285Y-55489619D02*
X142354285Y-54822952D01*
X142354285Y-55013428D02*
X142401904Y-54918190D01*
X142401904Y-54918190D02*
X142449523Y-54870571D01*
X142449523Y-54870571D02*
X142544761Y-54822952D01*
X142544761Y-54822952D02*
X142639999Y-54822952D01*
X142973333Y-55489619D02*
X142973333Y-54822952D01*
X142973333Y-54489619D02*
X142925714Y-54537238D01*
X142925714Y-54537238D02*
X142973333Y-54584857D01*
X142973333Y-54584857D02*
X143020952Y-54537238D01*
X143020952Y-54537238D02*
X142973333Y-54489619D01*
X142973333Y-54489619D02*
X142973333Y-54584857D01*
X143401904Y-55442000D02*
X143497142Y-55489619D01*
X143497142Y-55489619D02*
X143687618Y-55489619D01*
X143687618Y-55489619D02*
X143782856Y-55442000D01*
X143782856Y-55442000D02*
X143830475Y-55346761D01*
X143830475Y-55346761D02*
X143830475Y-55299142D01*
X143830475Y-55299142D02*
X143782856Y-55203904D01*
X143782856Y-55203904D02*
X143687618Y-55156285D01*
X143687618Y-55156285D02*
X143544761Y-55156285D01*
X143544761Y-55156285D02*
X143449523Y-55108666D01*
X143449523Y-55108666D02*
X143401904Y-55013428D01*
X143401904Y-55013428D02*
X143401904Y-54965809D01*
X143401904Y-54965809D02*
X143449523Y-54870571D01*
X143449523Y-54870571D02*
X143544761Y-54822952D01*
X143544761Y-54822952D02*
X143687618Y-54822952D01*
X143687618Y-54822952D02*
X143782856Y-54870571D01*
X144259047Y-55489619D02*
X144259047Y-54489619D01*
X144687618Y-55489619D02*
X144687618Y-54965809D01*
X144687618Y-54965809D02*
X144639999Y-54870571D01*
X144639999Y-54870571D02*
X144544761Y-54822952D01*
X144544761Y-54822952D02*
X144401904Y-54822952D01*
X144401904Y-54822952D02*
X144306666Y-54870571D01*
X144306666Y-54870571D02*
X144259047Y-54918190D01*
X145782857Y-54489619D02*
X146354285Y-54489619D01*
X146068571Y-55489619D02*
X146068571Y-54489619D01*
X147116190Y-55489619D02*
X147116190Y-54965809D01*
X147116190Y-54965809D02*
X147068571Y-54870571D01*
X147068571Y-54870571D02*
X146973333Y-54822952D01*
X146973333Y-54822952D02*
X146782857Y-54822952D01*
X146782857Y-54822952D02*
X146687619Y-54870571D01*
X147116190Y-55442000D02*
X147020952Y-55489619D01*
X147020952Y-55489619D02*
X146782857Y-55489619D01*
X146782857Y-55489619D02*
X146687619Y-55442000D01*
X146687619Y-55442000D02*
X146640000Y-55346761D01*
X146640000Y-55346761D02*
X146640000Y-55251523D01*
X146640000Y-55251523D02*
X146687619Y-55156285D01*
X146687619Y-55156285D02*
X146782857Y-55108666D01*
X146782857Y-55108666D02*
X147020952Y-55108666D01*
X147020952Y-55108666D02*
X147116190Y-55061047D01*
X147592381Y-55489619D02*
X147592381Y-54489619D01*
X147592381Y-54870571D02*
X147687619Y-54822952D01*
X147687619Y-54822952D02*
X147878095Y-54822952D01*
X147878095Y-54822952D02*
X147973333Y-54870571D01*
X147973333Y-54870571D02*
X148020952Y-54918190D01*
X148020952Y-54918190D02*
X148068571Y-55013428D01*
X148068571Y-55013428D02*
X148068571Y-55299142D01*
X148068571Y-55299142D02*
X148020952Y-55394380D01*
X148020952Y-55394380D02*
X147973333Y-55442000D01*
X147973333Y-55442000D02*
X147878095Y-55489619D01*
X147878095Y-55489619D02*
X147687619Y-55489619D01*
X147687619Y-55489619D02*
X147592381Y-55442000D01*
X148925714Y-55489619D02*
X148925714Y-54965809D01*
X148925714Y-54965809D02*
X148878095Y-54870571D01*
X148878095Y-54870571D02*
X148782857Y-54822952D01*
X148782857Y-54822952D02*
X148592381Y-54822952D01*
X148592381Y-54822952D02*
X148497143Y-54870571D01*
X148925714Y-55442000D02*
X148830476Y-55489619D01*
X148830476Y-55489619D02*
X148592381Y-55489619D01*
X148592381Y-55489619D02*
X148497143Y-55442000D01*
X148497143Y-55442000D02*
X148449524Y-55346761D01*
X148449524Y-55346761D02*
X148449524Y-55251523D01*
X148449524Y-55251523D02*
X148497143Y-55156285D01*
X148497143Y-55156285D02*
X148592381Y-55108666D01*
X148592381Y-55108666D02*
X148830476Y-55108666D01*
X148830476Y-55108666D02*
X148925714Y-55061047D01*
X149401905Y-55489619D02*
X149401905Y-54822952D01*
X149401905Y-55013428D02*
X149449524Y-54918190D01*
X149449524Y-54918190D02*
X149497143Y-54870571D01*
X149497143Y-54870571D02*
X149592381Y-54822952D01*
X149592381Y-54822952D02*
X149687619Y-54822952D01*
X150449524Y-55489619D02*
X150449524Y-54965809D01*
X150449524Y-54965809D02*
X150401905Y-54870571D01*
X150401905Y-54870571D02*
X150306667Y-54822952D01*
X150306667Y-54822952D02*
X150116191Y-54822952D01*
X150116191Y-54822952D02*
X150020953Y-54870571D01*
X150449524Y-55442000D02*
X150354286Y-55489619D01*
X150354286Y-55489619D02*
X150116191Y-55489619D01*
X150116191Y-55489619D02*
X150020953Y-55442000D01*
X150020953Y-55442000D02*
X149973334Y-55346761D01*
X149973334Y-55346761D02*
X149973334Y-55251523D01*
X149973334Y-55251523D02*
X150020953Y-55156285D01*
X150020953Y-55156285D02*
X150116191Y-55108666D01*
X150116191Y-55108666D02*
X150354286Y-55108666D01*
X150354286Y-55108666D02*
X150449524Y-55061047D01*
X151354286Y-55489619D02*
X151354286Y-54489619D01*
X151354286Y-55442000D02*
X151259048Y-55489619D01*
X151259048Y-55489619D02*
X151068572Y-55489619D01*
X151068572Y-55489619D02*
X150973334Y-55442000D01*
X150973334Y-55442000D02*
X150925715Y-55394380D01*
X150925715Y-55394380D02*
X150878096Y-55299142D01*
X150878096Y-55299142D02*
X150878096Y-55013428D01*
X150878096Y-55013428D02*
X150925715Y-54918190D01*
X150925715Y-54918190D02*
X150973334Y-54870571D01*
X150973334Y-54870571D02*
X151068572Y-54822952D01*
X151068572Y-54822952D02*
X151259048Y-54822952D01*
X151259048Y-54822952D02*
X151354286Y-54870571D01*
X152259048Y-55489619D02*
X152259048Y-54489619D01*
X152259048Y-55442000D02*
X152163810Y-55489619D01*
X152163810Y-55489619D02*
X151973334Y-55489619D01*
X151973334Y-55489619D02*
X151878096Y-55442000D01*
X151878096Y-55442000D02*
X151830477Y-55394380D01*
X151830477Y-55394380D02*
X151782858Y-55299142D01*
X151782858Y-55299142D02*
X151782858Y-55013428D01*
X151782858Y-55013428D02*
X151830477Y-54918190D01*
X151830477Y-54918190D02*
X151878096Y-54870571D01*
X151878096Y-54870571D02*
X151973334Y-54822952D01*
X151973334Y-54822952D02*
X152163810Y-54822952D01*
X152163810Y-54822952D02*
X152259048Y-54870571D01*
X152735239Y-55489619D02*
X152735239Y-54822952D01*
X152735239Y-54489619D02*
X152687620Y-54537238D01*
X152687620Y-54537238D02*
X152735239Y-54584857D01*
X152735239Y-54584857D02*
X152782858Y-54537238D01*
X152782858Y-54537238D02*
X152735239Y-54489619D01*
X152735239Y-54489619D02*
X152735239Y-54584857D01*
X140878095Y-57109619D02*
X140878095Y-56109619D01*
X140878095Y-56109619D02*
X141116190Y-56109619D01*
X141116190Y-56109619D02*
X141259047Y-56157238D01*
X141259047Y-56157238D02*
X141354285Y-56252476D01*
X141354285Y-56252476D02*
X141401904Y-56347714D01*
X141401904Y-56347714D02*
X141449523Y-56538190D01*
X141449523Y-56538190D02*
X141449523Y-56681047D01*
X141449523Y-56681047D02*
X141401904Y-56871523D01*
X141401904Y-56871523D02*
X141354285Y-56966761D01*
X141354285Y-56966761D02*
X141259047Y-57062000D01*
X141259047Y-57062000D02*
X141116190Y-57109619D01*
X141116190Y-57109619D02*
X140878095Y-57109619D01*
X141878095Y-57109619D02*
X141878095Y-56442952D01*
X141878095Y-56633428D02*
X141925714Y-56538190D01*
X141925714Y-56538190D02*
X141973333Y-56490571D01*
X141973333Y-56490571D02*
X142068571Y-56442952D01*
X142068571Y-56442952D02*
X142163809Y-56442952D01*
X142925714Y-57109619D02*
X142925714Y-56585809D01*
X142925714Y-56585809D02*
X142878095Y-56490571D01*
X142878095Y-56490571D02*
X142782857Y-56442952D01*
X142782857Y-56442952D02*
X142592381Y-56442952D01*
X142592381Y-56442952D02*
X142497143Y-56490571D01*
X142925714Y-57062000D02*
X142830476Y-57109619D01*
X142830476Y-57109619D02*
X142592381Y-57109619D01*
X142592381Y-57109619D02*
X142497143Y-57062000D01*
X142497143Y-57062000D02*
X142449524Y-56966761D01*
X142449524Y-56966761D02*
X142449524Y-56871523D01*
X142449524Y-56871523D02*
X142497143Y-56776285D01*
X142497143Y-56776285D02*
X142592381Y-56728666D01*
X142592381Y-56728666D02*
X142830476Y-56728666D01*
X142830476Y-56728666D02*
X142925714Y-56681047D01*
X143354286Y-57062000D02*
X143449524Y-57109619D01*
X143449524Y-57109619D02*
X143640000Y-57109619D01*
X143640000Y-57109619D02*
X143735238Y-57062000D01*
X143735238Y-57062000D02*
X143782857Y-56966761D01*
X143782857Y-56966761D02*
X143782857Y-56919142D01*
X143782857Y-56919142D02*
X143735238Y-56823904D01*
X143735238Y-56823904D02*
X143640000Y-56776285D01*
X143640000Y-56776285D02*
X143497143Y-56776285D01*
X143497143Y-56776285D02*
X143401905Y-56728666D01*
X143401905Y-56728666D02*
X143354286Y-56633428D01*
X143354286Y-56633428D02*
X143354286Y-56585809D01*
X143354286Y-56585809D02*
X143401905Y-56490571D01*
X143401905Y-56490571D02*
X143497143Y-56442952D01*
X143497143Y-56442952D02*
X143640000Y-56442952D01*
X143640000Y-56442952D02*
X143735238Y-56490571D01*
X144211429Y-57109619D02*
X144211429Y-56109619D01*
X144640000Y-57109619D02*
X144640000Y-56585809D01*
X144640000Y-56585809D02*
X144592381Y-56490571D01*
X144592381Y-56490571D02*
X144497143Y-56442952D01*
X144497143Y-56442952D02*
X144354286Y-56442952D01*
X144354286Y-56442952D02*
X144259048Y-56490571D01*
X144259048Y-56490571D02*
X144211429Y-56538190D01*
X144973334Y-56442952D02*
X145354286Y-56442952D01*
X145116191Y-56109619D02*
X145116191Y-56966761D01*
X145116191Y-56966761D02*
X145163810Y-57062000D01*
X145163810Y-57062000D02*
X145259048Y-57109619D01*
X145259048Y-57109619D02*
X145354286Y-57109619D01*
X145687620Y-57109619D02*
X145687620Y-56442952D01*
X145687620Y-56109619D02*
X145640001Y-56157238D01*
X145640001Y-56157238D02*
X145687620Y-56204857D01*
X145687620Y-56204857D02*
X145735239Y-56157238D01*
X145735239Y-56157238D02*
X145687620Y-56109619D01*
X145687620Y-56109619D02*
X145687620Y-56204857D01*
X146878096Y-57062000D02*
X147020953Y-57109619D01*
X147020953Y-57109619D02*
X147259048Y-57109619D01*
X147259048Y-57109619D02*
X147354286Y-57062000D01*
X147354286Y-57062000D02*
X147401905Y-57014380D01*
X147401905Y-57014380D02*
X147449524Y-56919142D01*
X147449524Y-56919142D02*
X147449524Y-56823904D01*
X147449524Y-56823904D02*
X147401905Y-56728666D01*
X147401905Y-56728666D02*
X147354286Y-56681047D01*
X147354286Y-56681047D02*
X147259048Y-56633428D01*
X147259048Y-56633428D02*
X147068572Y-56585809D01*
X147068572Y-56585809D02*
X146973334Y-56538190D01*
X146973334Y-56538190D02*
X146925715Y-56490571D01*
X146925715Y-56490571D02*
X146878096Y-56395333D01*
X146878096Y-56395333D02*
X146878096Y-56300095D01*
X146878096Y-56300095D02*
X146925715Y-56204857D01*
X146925715Y-56204857D02*
X146973334Y-56157238D01*
X146973334Y-56157238D02*
X147068572Y-56109619D01*
X147068572Y-56109619D02*
X147306667Y-56109619D01*
X147306667Y-56109619D02*
X147449524Y-56157238D01*
X147878096Y-57109619D02*
X147878096Y-56109619D01*
X148306667Y-57109619D02*
X148306667Y-56585809D01*
X148306667Y-56585809D02*
X148259048Y-56490571D01*
X148259048Y-56490571D02*
X148163810Y-56442952D01*
X148163810Y-56442952D02*
X148020953Y-56442952D01*
X148020953Y-56442952D02*
X147925715Y-56490571D01*
X147925715Y-56490571D02*
X147878096Y-56538190D01*
X149211429Y-57109619D02*
X149211429Y-56585809D01*
X149211429Y-56585809D02*
X149163810Y-56490571D01*
X149163810Y-56490571D02*
X149068572Y-56442952D01*
X149068572Y-56442952D02*
X148878096Y-56442952D01*
X148878096Y-56442952D02*
X148782858Y-56490571D01*
X149211429Y-57062000D02*
X149116191Y-57109619D01*
X149116191Y-57109619D02*
X148878096Y-57109619D01*
X148878096Y-57109619D02*
X148782858Y-57062000D01*
X148782858Y-57062000D02*
X148735239Y-56966761D01*
X148735239Y-56966761D02*
X148735239Y-56871523D01*
X148735239Y-56871523D02*
X148782858Y-56776285D01*
X148782858Y-56776285D02*
X148878096Y-56728666D01*
X148878096Y-56728666D02*
X149116191Y-56728666D01*
X149116191Y-56728666D02*
X149211429Y-56681047D01*
X149687620Y-57109619D02*
X149687620Y-56109619D01*
X150116191Y-57109619D02*
X150116191Y-56585809D01*
X150116191Y-56585809D02*
X150068572Y-56490571D01*
X150068572Y-56490571D02*
X149973334Y-56442952D01*
X149973334Y-56442952D02*
X149830477Y-56442952D01*
X149830477Y-56442952D02*
X149735239Y-56490571D01*
X149735239Y-56490571D02*
X149687620Y-56538190D01*
X140830476Y-58443904D02*
X141306666Y-58443904D01*
X140735238Y-58729619D02*
X141068571Y-57729619D01*
X141068571Y-57729619D02*
X141401904Y-58729619D01*
X141735238Y-58062952D02*
X141735238Y-58729619D01*
X141735238Y-58158190D02*
X141782857Y-58110571D01*
X141782857Y-58110571D02*
X141878095Y-58062952D01*
X141878095Y-58062952D02*
X142020952Y-58062952D01*
X142020952Y-58062952D02*
X142116190Y-58110571D01*
X142116190Y-58110571D02*
X142163809Y-58205809D01*
X142163809Y-58205809D02*
X142163809Y-58729619D01*
X143068571Y-58729619D02*
X143068571Y-58205809D01*
X143068571Y-58205809D02*
X143020952Y-58110571D01*
X143020952Y-58110571D02*
X142925714Y-58062952D01*
X142925714Y-58062952D02*
X142735238Y-58062952D01*
X142735238Y-58062952D02*
X142640000Y-58110571D01*
X143068571Y-58682000D02*
X142973333Y-58729619D01*
X142973333Y-58729619D02*
X142735238Y-58729619D01*
X142735238Y-58729619D02*
X142640000Y-58682000D01*
X142640000Y-58682000D02*
X142592381Y-58586761D01*
X142592381Y-58586761D02*
X142592381Y-58491523D01*
X142592381Y-58491523D02*
X142640000Y-58396285D01*
X142640000Y-58396285D02*
X142735238Y-58348666D01*
X142735238Y-58348666D02*
X142973333Y-58348666D01*
X142973333Y-58348666D02*
X143068571Y-58301047D01*
X143544762Y-58062952D02*
X143544762Y-58729619D01*
X143544762Y-58158190D02*
X143592381Y-58110571D01*
X143592381Y-58110571D02*
X143687619Y-58062952D01*
X143687619Y-58062952D02*
X143830476Y-58062952D01*
X143830476Y-58062952D02*
X143925714Y-58110571D01*
X143925714Y-58110571D02*
X143973333Y-58205809D01*
X143973333Y-58205809D02*
X143973333Y-58729619D01*
X144354286Y-58062952D02*
X144592381Y-58729619D01*
X144830476Y-58062952D02*
X144592381Y-58729619D01*
X144592381Y-58729619D02*
X144497143Y-58967714D01*
X144497143Y-58967714D02*
X144449524Y-59015333D01*
X144449524Y-59015333D02*
X144354286Y-59062952D01*
X145640000Y-58729619D02*
X145640000Y-58205809D01*
X145640000Y-58205809D02*
X145592381Y-58110571D01*
X145592381Y-58110571D02*
X145497143Y-58062952D01*
X145497143Y-58062952D02*
X145306667Y-58062952D01*
X145306667Y-58062952D02*
X145211429Y-58110571D01*
X145640000Y-58682000D02*
X145544762Y-58729619D01*
X145544762Y-58729619D02*
X145306667Y-58729619D01*
X145306667Y-58729619D02*
X145211429Y-58682000D01*
X145211429Y-58682000D02*
X145163810Y-58586761D01*
X145163810Y-58586761D02*
X145163810Y-58491523D01*
X145163810Y-58491523D02*
X145211429Y-58396285D01*
X145211429Y-58396285D02*
X145306667Y-58348666D01*
X145306667Y-58348666D02*
X145544762Y-58348666D01*
X145544762Y-58348666D02*
X145640000Y-58301047D01*
X146878096Y-58729619D02*
X146878096Y-57729619D01*
X146878096Y-58205809D02*
X147449524Y-58205809D01*
X147449524Y-58729619D02*
X147449524Y-57729619D01*
X148354286Y-58729619D02*
X148354286Y-58205809D01*
X148354286Y-58205809D02*
X148306667Y-58110571D01*
X148306667Y-58110571D02*
X148211429Y-58062952D01*
X148211429Y-58062952D02*
X148020953Y-58062952D01*
X148020953Y-58062952D02*
X147925715Y-58110571D01*
X148354286Y-58682000D02*
X148259048Y-58729619D01*
X148259048Y-58729619D02*
X148020953Y-58729619D01*
X148020953Y-58729619D02*
X147925715Y-58682000D01*
X147925715Y-58682000D02*
X147878096Y-58586761D01*
X147878096Y-58586761D02*
X147878096Y-58491523D01*
X147878096Y-58491523D02*
X147925715Y-58396285D01*
X147925715Y-58396285D02*
X148020953Y-58348666D01*
X148020953Y-58348666D02*
X148259048Y-58348666D01*
X148259048Y-58348666D02*
X148354286Y-58301047D01*
X148830477Y-58729619D02*
X148830477Y-58062952D01*
X148830477Y-58253428D02*
X148878096Y-58158190D01*
X148878096Y-58158190D02*
X148925715Y-58110571D01*
X148925715Y-58110571D02*
X149020953Y-58062952D01*
X149020953Y-58062952D02*
X149116191Y-58062952D01*
X149449525Y-58729619D02*
X149449525Y-58062952D01*
X149449525Y-57729619D02*
X149401906Y-57777238D01*
X149401906Y-57777238D02*
X149449525Y-57824857D01*
X149449525Y-57824857D02*
X149497144Y-57777238D01*
X149497144Y-57777238D02*
X149449525Y-57729619D01*
X149449525Y-57729619D02*
X149449525Y-57824857D01*
X149878096Y-58682000D02*
X149973334Y-58729619D01*
X149973334Y-58729619D02*
X150163810Y-58729619D01*
X150163810Y-58729619D02*
X150259048Y-58682000D01*
X150259048Y-58682000D02*
X150306667Y-58586761D01*
X150306667Y-58586761D02*
X150306667Y-58539142D01*
X150306667Y-58539142D02*
X150259048Y-58443904D01*
X150259048Y-58443904D02*
X150163810Y-58396285D01*
X150163810Y-58396285D02*
X150020953Y-58396285D01*
X150020953Y-58396285D02*
X149925715Y-58348666D01*
X149925715Y-58348666D02*
X149878096Y-58253428D01*
X149878096Y-58253428D02*
X149878096Y-58205809D01*
X149878096Y-58205809D02*
X149925715Y-58110571D01*
X149925715Y-58110571D02*
X150020953Y-58062952D01*
X150020953Y-58062952D02*
X150163810Y-58062952D01*
X150163810Y-58062952D02*
X150259048Y-58110571D01*
X150735239Y-58729619D02*
X150735239Y-57729619D01*
X151163810Y-58729619D02*
X151163810Y-58205809D01*
X151163810Y-58205809D02*
X151116191Y-58110571D01*
X151116191Y-58110571D02*
X151020953Y-58062952D01*
X151020953Y-58062952D02*
X150878096Y-58062952D01*
X150878096Y-58062952D02*
X150782858Y-58110571D01*
X150782858Y-58110571D02*
X150735239Y-58158190D01*
D12*
X101190666Y-93620619D02*
X101190666Y-94334904D01*
X101190666Y-94334904D02*
X101143047Y-94477761D01*
X101143047Y-94477761D02*
X101047809Y-94573000D01*
X101047809Y-94573000D02*
X100904952Y-94620619D01*
X100904952Y-94620619D02*
X100809714Y-94620619D01*
X102190666Y-94620619D02*
X101619238Y-94620619D01*
X101904952Y-94620619D02*
X101904952Y-93620619D01*
X101904952Y-93620619D02*
X101809714Y-93763476D01*
X101809714Y-93763476D02*
X101714476Y-93858714D01*
X101714476Y-93858714D02*
X101619238Y-93906333D01*
X100984666Y-96414619D02*
X101317999Y-97414619D01*
X101317999Y-97414619D02*
X101651332Y-96414619D01*
X101984666Y-97414619D02*
X101984666Y-96414619D01*
X101984666Y-96414619D02*
X102222761Y-96414619D01*
X102222761Y-96414619D02*
X102365618Y-96462238D01*
X102365618Y-96462238D02*
X102460856Y-96557476D01*
X102460856Y-96557476D02*
X102508475Y-96652714D01*
X102508475Y-96652714D02*
X102556094Y-96843190D01*
X102556094Y-96843190D02*
X102556094Y-96986047D01*
X102556094Y-96986047D02*
X102508475Y-97176523D01*
X102508475Y-97176523D02*
X102460856Y-97271761D01*
X102460856Y-97271761D02*
X102365618Y-97367000D01*
X102365618Y-97367000D02*
X102222761Y-97414619D01*
X102222761Y-97414619D02*
X101984666Y-97414619D01*
X102746571Y-97509857D02*
X103508475Y-97509857D01*
X103746571Y-97414619D02*
X103746571Y-96414619D01*
X103984666Y-97509857D02*
X104746570Y-97509857D01*
X104841809Y-96414619D02*
X105413237Y-96414619D01*
X105127523Y-97414619D02*
X105127523Y-96414619D01*
X106127523Y-97367000D02*
X106032285Y-97414619D01*
X106032285Y-97414619D02*
X105841809Y-97414619D01*
X105841809Y-97414619D02*
X105746571Y-97367000D01*
X105746571Y-97367000D02*
X105698952Y-97271761D01*
X105698952Y-97271761D02*
X105698952Y-96890809D01*
X105698952Y-96890809D02*
X105746571Y-96795571D01*
X105746571Y-96795571D02*
X105841809Y-96747952D01*
X105841809Y-96747952D02*
X106032285Y-96747952D01*
X106032285Y-96747952D02*
X106127523Y-96795571D01*
X106127523Y-96795571D02*
X106175142Y-96890809D01*
X106175142Y-96890809D02*
X106175142Y-96986047D01*
X106175142Y-96986047D02*
X105698952Y-97081285D01*
X106556095Y-97367000D02*
X106651333Y-97414619D01*
X106651333Y-97414619D02*
X106841809Y-97414619D01*
X106841809Y-97414619D02*
X106937047Y-97367000D01*
X106937047Y-97367000D02*
X106984666Y-97271761D01*
X106984666Y-97271761D02*
X106984666Y-97224142D01*
X106984666Y-97224142D02*
X106937047Y-97128904D01*
X106937047Y-97128904D02*
X106841809Y-97081285D01*
X106841809Y-97081285D02*
X106698952Y-97081285D01*
X106698952Y-97081285D02*
X106603714Y-97033666D01*
X106603714Y-97033666D02*
X106556095Y-96938428D01*
X106556095Y-96938428D02*
X106556095Y-96890809D01*
X106556095Y-96890809D02*
X106603714Y-96795571D01*
X106603714Y-96795571D02*
X106698952Y-96747952D01*
X106698952Y-96747952D02*
X106841809Y-96747952D01*
X106841809Y-96747952D02*
X106937047Y-96795571D01*
X107270381Y-96747952D02*
X107651333Y-96747952D01*
X107413238Y-96414619D02*
X107413238Y-97271761D01*
X107413238Y-97271761D02*
X107460857Y-97367000D01*
X107460857Y-97367000D02*
X107556095Y-97414619D01*
X107556095Y-97414619D02*
X107651333Y-97414619D01*
X130567333Y-74967380D02*
X130519714Y-75015000D01*
X130519714Y-75015000D02*
X130376857Y-75062619D01*
X130376857Y-75062619D02*
X130281619Y-75062619D01*
X130281619Y-75062619D02*
X130138762Y-75015000D01*
X130138762Y-75015000D02*
X130043524Y-74919761D01*
X130043524Y-74919761D02*
X129995905Y-74824523D01*
X129995905Y-74824523D02*
X129948286Y-74634047D01*
X129948286Y-74634047D02*
X129948286Y-74491190D01*
X129948286Y-74491190D02*
X129995905Y-74300714D01*
X129995905Y-74300714D02*
X130043524Y-74205476D01*
X130043524Y-74205476D02*
X130138762Y-74110238D01*
X130138762Y-74110238D02*
X130281619Y-74062619D01*
X130281619Y-74062619D02*
X130376857Y-74062619D01*
X130376857Y-74062619D02*
X130519714Y-74110238D01*
X130519714Y-74110238D02*
X130567333Y-74157857D01*
X131472095Y-74062619D02*
X130995905Y-74062619D01*
X130995905Y-74062619D02*
X130948286Y-74538809D01*
X130948286Y-74538809D02*
X130995905Y-74491190D01*
X130995905Y-74491190D02*
X131091143Y-74443571D01*
X131091143Y-74443571D02*
X131329238Y-74443571D01*
X131329238Y-74443571D02*
X131424476Y-74491190D01*
X131424476Y-74491190D02*
X131472095Y-74538809D01*
X131472095Y-74538809D02*
X131519714Y-74634047D01*
X131519714Y-74634047D02*
X131519714Y-74872142D01*
X131519714Y-74872142D02*
X131472095Y-74967380D01*
X131472095Y-74967380D02*
X131424476Y-75015000D01*
X131424476Y-75015000D02*
X131329238Y-75062619D01*
X131329238Y-75062619D02*
X131091143Y-75062619D01*
X131091143Y-75062619D02*
X130995905Y-75015000D01*
X130995905Y-75015000D02*
X130948286Y-74967380D01*
X137076189Y-67537952D02*
X137076189Y-68204619D01*
X136838094Y-67157000D02*
X136599999Y-67871285D01*
X136599999Y-67871285D02*
X137219046Y-67871285D01*
X137599999Y-68109380D02*
X137647618Y-68157000D01*
X137647618Y-68157000D02*
X137599999Y-68204619D01*
X137599999Y-68204619D02*
X137552380Y-68157000D01*
X137552380Y-68157000D02*
X137599999Y-68109380D01*
X137599999Y-68109380D02*
X137599999Y-68204619D01*
X137980951Y-67204619D02*
X138647617Y-67204619D01*
X138647617Y-67204619D02*
X138219046Y-68204619D01*
X139457141Y-67537952D02*
X139457141Y-68204619D01*
X139028570Y-67537952D02*
X139028570Y-68061761D01*
X139028570Y-68061761D02*
X139076189Y-68157000D01*
X139076189Y-68157000D02*
X139171427Y-68204619D01*
X139171427Y-68204619D02*
X139314284Y-68204619D01*
X139314284Y-68204619D02*
X139409522Y-68157000D01*
X139409522Y-68157000D02*
X139457141Y-68109380D01*
X101357333Y-84619380D02*
X101309714Y-84667000D01*
X101309714Y-84667000D02*
X101166857Y-84714619D01*
X101166857Y-84714619D02*
X101071619Y-84714619D01*
X101071619Y-84714619D02*
X100928762Y-84667000D01*
X100928762Y-84667000D02*
X100833524Y-84571761D01*
X100833524Y-84571761D02*
X100785905Y-84476523D01*
X100785905Y-84476523D02*
X100738286Y-84286047D01*
X100738286Y-84286047D02*
X100738286Y-84143190D01*
X100738286Y-84143190D02*
X100785905Y-83952714D01*
X100785905Y-83952714D02*
X100833524Y-83857476D01*
X100833524Y-83857476D02*
X100928762Y-83762238D01*
X100928762Y-83762238D02*
X101071619Y-83714619D01*
X101071619Y-83714619D02*
X101166857Y-83714619D01*
X101166857Y-83714619D02*
X101309714Y-83762238D01*
X101309714Y-83762238D02*
X101357333Y-83809857D01*
X102214476Y-84047952D02*
X102214476Y-84714619D01*
X101976381Y-83667000D02*
X101738286Y-84381285D01*
X101738286Y-84381285D02*
X102357333Y-84381285D01*
X103706952Y-82428619D02*
X103135524Y-82428619D01*
X103421238Y-82428619D02*
X103421238Y-81428619D01*
X103421238Y-81428619D02*
X103326000Y-81571476D01*
X103326000Y-81571476D02*
X103230762Y-81666714D01*
X103230762Y-81666714D02*
X103135524Y-81714333D01*
X104326000Y-81428619D02*
X104421238Y-81428619D01*
X104421238Y-81428619D02*
X104516476Y-81476238D01*
X104516476Y-81476238D02*
X104564095Y-81523857D01*
X104564095Y-81523857D02*
X104611714Y-81619095D01*
X104611714Y-81619095D02*
X104659333Y-81809571D01*
X104659333Y-81809571D02*
X104659333Y-82047666D01*
X104659333Y-82047666D02*
X104611714Y-82238142D01*
X104611714Y-82238142D02*
X104564095Y-82333380D01*
X104564095Y-82333380D02*
X104516476Y-82381000D01*
X104516476Y-82381000D02*
X104421238Y-82428619D01*
X104421238Y-82428619D02*
X104326000Y-82428619D01*
X104326000Y-82428619D02*
X104230762Y-82381000D01*
X104230762Y-82381000D02*
X104183143Y-82333380D01*
X104183143Y-82333380D02*
X104135524Y-82238142D01*
X104135524Y-82238142D02*
X104087905Y-82047666D01*
X104087905Y-82047666D02*
X104087905Y-81809571D01*
X104087905Y-81809571D02*
X104135524Y-81619095D01*
X104135524Y-81619095D02*
X104183143Y-81523857D01*
X104183143Y-81523857D02*
X104230762Y-81476238D01*
X104230762Y-81476238D02*
X104326000Y-81428619D01*
X105278381Y-81428619D02*
X105373619Y-81428619D01*
X105373619Y-81428619D02*
X105468857Y-81476238D01*
X105468857Y-81476238D02*
X105516476Y-81523857D01*
X105516476Y-81523857D02*
X105564095Y-81619095D01*
X105564095Y-81619095D02*
X105611714Y-81809571D01*
X105611714Y-81809571D02*
X105611714Y-82047666D01*
X105611714Y-82047666D02*
X105564095Y-82238142D01*
X105564095Y-82238142D02*
X105516476Y-82333380D01*
X105516476Y-82333380D02*
X105468857Y-82381000D01*
X105468857Y-82381000D02*
X105373619Y-82428619D01*
X105373619Y-82428619D02*
X105278381Y-82428619D01*
X105278381Y-82428619D02*
X105183143Y-82381000D01*
X105183143Y-82381000D02*
X105135524Y-82333380D01*
X105135524Y-82333380D02*
X105087905Y-82238142D01*
X105087905Y-82238142D02*
X105040286Y-82047666D01*
X105040286Y-82047666D02*
X105040286Y-81809571D01*
X105040286Y-81809571D02*
X105087905Y-81619095D01*
X105087905Y-81619095D02*
X105135524Y-81523857D01*
X105135524Y-81523857D02*
X105183143Y-81476238D01*
X105183143Y-81476238D02*
X105278381Y-81428619D01*
X106040286Y-81761952D02*
X106040286Y-82428619D01*
X106040286Y-81857190D02*
X106087905Y-81809571D01*
X106087905Y-81809571D02*
X106183143Y-81761952D01*
X106183143Y-81761952D02*
X106326000Y-81761952D01*
X106326000Y-81761952D02*
X106421238Y-81809571D01*
X106421238Y-81809571D02*
X106468857Y-81904809D01*
X106468857Y-81904809D02*
X106468857Y-82428619D01*
X141997333Y-64902619D02*
X141664000Y-64426428D01*
X141425905Y-64902619D02*
X141425905Y-63902619D01*
X141425905Y-63902619D02*
X141806857Y-63902619D01*
X141806857Y-63902619D02*
X141902095Y-63950238D01*
X141902095Y-63950238D02*
X141949714Y-63997857D01*
X141949714Y-63997857D02*
X141997333Y-64093095D01*
X141997333Y-64093095D02*
X141997333Y-64235952D01*
X141997333Y-64235952D02*
X141949714Y-64331190D01*
X141949714Y-64331190D02*
X141902095Y-64378809D01*
X141902095Y-64378809D02*
X141806857Y-64426428D01*
X141806857Y-64426428D02*
X141425905Y-64426428D01*
X142854476Y-64235952D02*
X142854476Y-64902619D01*
X142616381Y-63855000D02*
X142378286Y-64569285D01*
X142378286Y-64569285D02*
X142997333Y-64569285D01*
X140521143Y-77713857D02*
X140568762Y-77666238D01*
X140568762Y-77666238D02*
X140664000Y-77618619D01*
X140664000Y-77618619D02*
X140902095Y-77618619D01*
X140902095Y-77618619D02*
X140997333Y-77666238D01*
X140997333Y-77666238D02*
X141044952Y-77713857D01*
X141044952Y-77713857D02*
X141092571Y-77809095D01*
X141092571Y-77809095D02*
X141092571Y-77904333D01*
X141092571Y-77904333D02*
X141044952Y-78047190D01*
X141044952Y-78047190D02*
X140473524Y-78618619D01*
X140473524Y-78618619D02*
X141092571Y-78618619D01*
X141473524Y-77713857D02*
X141521143Y-77666238D01*
X141521143Y-77666238D02*
X141616381Y-77618619D01*
X141616381Y-77618619D02*
X141854476Y-77618619D01*
X141854476Y-77618619D02*
X141949714Y-77666238D01*
X141949714Y-77666238D02*
X141997333Y-77713857D01*
X141997333Y-77713857D02*
X142044952Y-77809095D01*
X142044952Y-77809095D02*
X142044952Y-77904333D01*
X142044952Y-77904333D02*
X141997333Y-78047190D01*
X141997333Y-78047190D02*
X141425905Y-78618619D01*
X141425905Y-78618619D02*
X142044952Y-78618619D01*
X142664000Y-77618619D02*
X142759238Y-77618619D01*
X142759238Y-77618619D02*
X142854476Y-77666238D01*
X142854476Y-77666238D02*
X142902095Y-77713857D01*
X142902095Y-77713857D02*
X142949714Y-77809095D01*
X142949714Y-77809095D02*
X142997333Y-77999571D01*
X142997333Y-77999571D02*
X142997333Y-78237666D01*
X142997333Y-78237666D02*
X142949714Y-78428142D01*
X142949714Y-78428142D02*
X142902095Y-78523380D01*
X142902095Y-78523380D02*
X142854476Y-78571000D01*
X142854476Y-78571000D02*
X142759238Y-78618619D01*
X142759238Y-78618619D02*
X142664000Y-78618619D01*
X142664000Y-78618619D02*
X142568762Y-78571000D01*
X142568762Y-78571000D02*
X142521143Y-78523380D01*
X142521143Y-78523380D02*
X142473524Y-78428142D01*
X142473524Y-78428142D02*
X142425905Y-78237666D01*
X142425905Y-78237666D02*
X142425905Y-77999571D01*
X142425905Y-77999571D02*
X142473524Y-77809095D01*
X142473524Y-77809095D02*
X142521143Y-77713857D01*
X142521143Y-77713857D02*
X142568762Y-77666238D01*
X142568762Y-77666238D02*
X142664000Y-77618619D01*
X143425905Y-78618619D02*
X143425905Y-77618619D01*
X143521143Y-78237666D02*
X143806857Y-78618619D01*
X143806857Y-77951952D02*
X143425905Y-78332904D01*
X111638619Y-75750857D02*
X111162428Y-76084190D01*
X111638619Y-76322285D02*
X110638619Y-76322285D01*
X110638619Y-76322285D02*
X110638619Y-75941333D01*
X110638619Y-75941333D02*
X110686238Y-75846095D01*
X110686238Y-75846095D02*
X110733857Y-75798476D01*
X110733857Y-75798476D02*
X110829095Y-75750857D01*
X110829095Y-75750857D02*
X110971952Y-75750857D01*
X110971952Y-75750857D02*
X111067190Y-75798476D01*
X111067190Y-75798476D02*
X111114809Y-75846095D01*
X111114809Y-75846095D02*
X111162428Y-75941333D01*
X111162428Y-75941333D02*
X111162428Y-76322285D01*
X111638619Y-74798476D02*
X111638619Y-75369904D01*
X111638619Y-75084190D02*
X110638619Y-75084190D01*
X110638619Y-75084190D02*
X110781476Y-75179428D01*
X110781476Y-75179428D02*
X110876714Y-75274666D01*
X110876714Y-75274666D02*
X110924333Y-75369904D01*
X110638619Y-74179428D02*
X110638619Y-74084190D01*
X110638619Y-74084190D02*
X110686238Y-73988952D01*
X110686238Y-73988952D02*
X110733857Y-73941333D01*
X110733857Y-73941333D02*
X110829095Y-73893714D01*
X110829095Y-73893714D02*
X111019571Y-73846095D01*
X111019571Y-73846095D02*
X111257666Y-73846095D01*
X111257666Y-73846095D02*
X111448142Y-73893714D01*
X111448142Y-73893714D02*
X111543380Y-73941333D01*
X111543380Y-73941333D02*
X111591000Y-73988952D01*
X111591000Y-73988952D02*
X111638619Y-74084190D01*
X111638619Y-74084190D02*
X111638619Y-74179428D01*
X111638619Y-74179428D02*
X111591000Y-74274666D01*
X111591000Y-74274666D02*
X111543380Y-74322285D01*
X111543380Y-74322285D02*
X111448142Y-74369904D01*
X111448142Y-74369904D02*
X111257666Y-74417523D01*
X111257666Y-74417523D02*
X111019571Y-74417523D01*
X111019571Y-74417523D02*
X110829095Y-74369904D01*
X110829095Y-74369904D02*
X110733857Y-74322285D01*
X110733857Y-74322285D02*
X110686238Y-74274666D01*
X110686238Y-74274666D02*
X110638619Y-74179428D01*
X110971952Y-65709904D02*
X111638619Y-65709904D01*
X110591000Y-65947999D02*
X111305285Y-66186094D01*
X111305285Y-66186094D02*
X111305285Y-65567047D01*
X110638619Y-65281332D02*
X110638619Y-64614666D01*
X110638619Y-64614666D02*
X111638619Y-65043237D01*
X110638619Y-64043237D02*
X110638619Y-63947999D01*
X110638619Y-63947999D02*
X110686238Y-63852761D01*
X110686238Y-63852761D02*
X110733857Y-63805142D01*
X110733857Y-63805142D02*
X110829095Y-63757523D01*
X110829095Y-63757523D02*
X111019571Y-63709904D01*
X111019571Y-63709904D02*
X111257666Y-63709904D01*
X111257666Y-63709904D02*
X111448142Y-63757523D01*
X111448142Y-63757523D02*
X111543380Y-63805142D01*
X111543380Y-63805142D02*
X111591000Y-63852761D01*
X111591000Y-63852761D02*
X111638619Y-63947999D01*
X111638619Y-63947999D02*
X111638619Y-64043237D01*
X111638619Y-64043237D02*
X111591000Y-64138475D01*
X111591000Y-64138475D02*
X111543380Y-64186094D01*
X111543380Y-64186094D02*
X111448142Y-64233713D01*
X111448142Y-64233713D02*
X111257666Y-64281332D01*
X111257666Y-64281332D02*
X111019571Y-64281332D01*
X111019571Y-64281332D02*
X110829095Y-64233713D01*
X110829095Y-64233713D02*
X110733857Y-64186094D01*
X110733857Y-64186094D02*
X110686238Y-64138475D01*
X110686238Y-64138475D02*
X110638619Y-64043237D01*
X109860619Y-51335047D02*
X109860619Y-51811237D01*
X109860619Y-51811237D02*
X108860619Y-51811237D01*
X109336809Y-51001713D02*
X109336809Y-50668380D01*
X109860619Y-50525523D02*
X109860619Y-51001713D01*
X109860619Y-51001713D02*
X108860619Y-51001713D01*
X108860619Y-51001713D02*
X108860619Y-50525523D01*
X109860619Y-50096951D02*
X108860619Y-50096951D01*
X108860619Y-50096951D02*
X108860619Y-49858856D01*
X108860619Y-49858856D02*
X108908238Y-49715999D01*
X108908238Y-49715999D02*
X109003476Y-49620761D01*
X109003476Y-49620761D02*
X109098714Y-49573142D01*
X109098714Y-49573142D02*
X109289190Y-49525523D01*
X109289190Y-49525523D02*
X109432047Y-49525523D01*
X109432047Y-49525523D02*
X109622523Y-49573142D01*
X109622523Y-49573142D02*
X109717761Y-49620761D01*
X109717761Y-49620761D02*
X109813000Y-49715999D01*
X109813000Y-49715999D02*
X109860619Y-49858856D01*
X109860619Y-49858856D02*
X109860619Y-50096951D01*
X109860619Y-48573142D02*
X109860619Y-49144570D01*
X109860619Y-48858856D02*
X108860619Y-48858856D01*
X108860619Y-48858856D02*
X109003476Y-48954094D01*
X109003476Y-48954094D02*
X109098714Y-49049332D01*
X109098714Y-49049332D02*
X109146333Y-49144570D01*
X101483619Y-55128857D02*
X100483619Y-55128857D01*
X100483619Y-55128857D02*
X100483619Y-54747905D01*
X100483619Y-54747905D02*
X100531238Y-54652667D01*
X100531238Y-54652667D02*
X100578857Y-54605048D01*
X100578857Y-54605048D02*
X100674095Y-54557429D01*
X100674095Y-54557429D02*
X100816952Y-54557429D01*
X100816952Y-54557429D02*
X100912190Y-54605048D01*
X100912190Y-54605048D02*
X100959809Y-54652667D01*
X100959809Y-54652667D02*
X101007428Y-54747905D01*
X101007428Y-54747905D02*
X101007428Y-55128857D01*
X101483619Y-53986000D02*
X101436000Y-54081238D01*
X101436000Y-54081238D02*
X101388380Y-54128857D01*
X101388380Y-54128857D02*
X101293142Y-54176476D01*
X101293142Y-54176476D02*
X101007428Y-54176476D01*
X101007428Y-54176476D02*
X100912190Y-54128857D01*
X100912190Y-54128857D02*
X100864571Y-54081238D01*
X100864571Y-54081238D02*
X100816952Y-53986000D01*
X100816952Y-53986000D02*
X100816952Y-53843143D01*
X100816952Y-53843143D02*
X100864571Y-53747905D01*
X100864571Y-53747905D02*
X100912190Y-53700286D01*
X100912190Y-53700286D02*
X101007428Y-53652667D01*
X101007428Y-53652667D02*
X101293142Y-53652667D01*
X101293142Y-53652667D02*
X101388380Y-53700286D01*
X101388380Y-53700286D02*
X101436000Y-53747905D01*
X101436000Y-53747905D02*
X101483619Y-53843143D01*
X101483619Y-53843143D02*
X101483619Y-53986000D01*
X100816952Y-53319333D02*
X101483619Y-53128857D01*
X101483619Y-53128857D02*
X101007428Y-52938381D01*
X101007428Y-52938381D02*
X101483619Y-52747905D01*
X101483619Y-52747905D02*
X100816952Y-52557429D01*
X101436000Y-51795524D02*
X101483619Y-51890762D01*
X101483619Y-51890762D02*
X101483619Y-52081238D01*
X101483619Y-52081238D02*
X101436000Y-52176476D01*
X101436000Y-52176476D02*
X101340761Y-52224095D01*
X101340761Y-52224095D02*
X100959809Y-52224095D01*
X100959809Y-52224095D02*
X100864571Y-52176476D01*
X100864571Y-52176476D02*
X100816952Y-52081238D01*
X100816952Y-52081238D02*
X100816952Y-51890762D01*
X100816952Y-51890762D02*
X100864571Y-51795524D01*
X100864571Y-51795524D02*
X100959809Y-51747905D01*
X100959809Y-51747905D02*
X101055047Y-51747905D01*
X101055047Y-51747905D02*
X101150285Y-52224095D01*
X101483619Y-51319333D02*
X100816952Y-51319333D01*
X101007428Y-51319333D02*
X100912190Y-51271714D01*
X100912190Y-51271714D02*
X100864571Y-51224095D01*
X100864571Y-51224095D02*
X100816952Y-51128857D01*
X100816952Y-51128857D02*
X100816952Y-51033619D01*
X101578857Y-50938381D02*
X101578857Y-50176476D01*
X101483619Y-49462190D02*
X101483619Y-49938380D01*
X101483619Y-49938380D02*
X100483619Y-49938380D01*
X101436000Y-48747904D02*
X101483619Y-48843142D01*
X101483619Y-48843142D02*
X101483619Y-49033618D01*
X101483619Y-49033618D02*
X101436000Y-49128856D01*
X101436000Y-49128856D02*
X101340761Y-49176475D01*
X101340761Y-49176475D02*
X100959809Y-49176475D01*
X100959809Y-49176475D02*
X100864571Y-49128856D01*
X100864571Y-49128856D02*
X100816952Y-49033618D01*
X100816952Y-49033618D02*
X100816952Y-48843142D01*
X100816952Y-48843142D02*
X100864571Y-48747904D01*
X100864571Y-48747904D02*
X100959809Y-48700285D01*
X100959809Y-48700285D02*
X101055047Y-48700285D01*
X101055047Y-48700285D02*
X101150285Y-49176475D01*
X101483619Y-47843142D02*
X100483619Y-47843142D01*
X101436000Y-47843142D02*
X101483619Y-47938380D01*
X101483619Y-47938380D02*
X101483619Y-48128856D01*
X101483619Y-48128856D02*
X101436000Y-48224094D01*
X101436000Y-48224094D02*
X101388380Y-48271713D01*
X101388380Y-48271713D02*
X101293142Y-48319332D01*
X101293142Y-48319332D02*
X101007428Y-48319332D01*
X101007428Y-48319332D02*
X100912190Y-48271713D01*
X100912190Y-48271713D02*
X100864571Y-48224094D01*
X100864571Y-48224094D02*
X100816952Y-48128856D01*
X100816952Y-48128856D02*
X100816952Y-47938380D01*
X100816952Y-47938380D02*
X100864571Y-47843142D01*
X158594666Y-62334619D02*
X158594666Y-63048904D01*
X158594666Y-63048904D02*
X158547047Y-63191761D01*
X158547047Y-63191761D02*
X158451809Y-63287000D01*
X158451809Y-63287000D02*
X158308952Y-63334619D01*
X158308952Y-63334619D02*
X158213714Y-63334619D01*
X159118476Y-63334619D02*
X159308952Y-63334619D01*
X159308952Y-63334619D02*
X159404190Y-63287000D01*
X159404190Y-63287000D02*
X159451809Y-63239380D01*
X159451809Y-63239380D02*
X159547047Y-63096523D01*
X159547047Y-63096523D02*
X159594666Y-62906047D01*
X159594666Y-62906047D02*
X159594666Y-62525095D01*
X159594666Y-62525095D02*
X159547047Y-62429857D01*
X159547047Y-62429857D02*
X159499428Y-62382238D01*
X159499428Y-62382238D02*
X159404190Y-62334619D01*
X159404190Y-62334619D02*
X159213714Y-62334619D01*
X159213714Y-62334619D02*
X159118476Y-62382238D01*
X159118476Y-62382238D02*
X159070857Y-62429857D01*
X159070857Y-62429857D02*
X159023238Y-62525095D01*
X159023238Y-62525095D02*
X159023238Y-62763190D01*
X159023238Y-62763190D02*
X159070857Y-62858428D01*
X159070857Y-62858428D02*
X159118476Y-62906047D01*
X159118476Y-62906047D02*
X159213714Y-62953666D01*
X159213714Y-62953666D02*
X159404190Y-62953666D01*
X159404190Y-62953666D02*
X159499428Y-62906047D01*
X159499428Y-62906047D02*
X159547047Y-62858428D01*
X159547047Y-62858428D02*
X159594666Y-62763190D01*
X155015142Y-67252238D02*
X154919904Y-67204619D01*
X154919904Y-67204619D02*
X154777047Y-67204619D01*
X154777047Y-67204619D02*
X154634190Y-67252238D01*
X154634190Y-67252238D02*
X154538952Y-67347476D01*
X154538952Y-67347476D02*
X154491333Y-67442714D01*
X154491333Y-67442714D02*
X154443714Y-67633190D01*
X154443714Y-67633190D02*
X154443714Y-67776047D01*
X154443714Y-67776047D02*
X154491333Y-67966523D01*
X154491333Y-67966523D02*
X154538952Y-68061761D01*
X154538952Y-68061761D02*
X154634190Y-68157000D01*
X154634190Y-68157000D02*
X154777047Y-68204619D01*
X154777047Y-68204619D02*
X154872285Y-68204619D01*
X154872285Y-68204619D02*
X155015142Y-68157000D01*
X155015142Y-68157000D02*
X155062761Y-68109380D01*
X155062761Y-68109380D02*
X155062761Y-67776047D01*
X155062761Y-67776047D02*
X154872285Y-67776047D01*
X155491333Y-68204619D02*
X155491333Y-67204619D01*
X155491333Y-67204619D02*
X156062761Y-68204619D01*
X156062761Y-68204619D02*
X156062761Y-67204619D01*
X156538952Y-68204619D02*
X156538952Y-67204619D01*
X156538952Y-67204619D02*
X156777047Y-67204619D01*
X156777047Y-67204619D02*
X156919904Y-67252238D01*
X156919904Y-67252238D02*
X157015142Y-67347476D01*
X157015142Y-67347476D02*
X157062761Y-67442714D01*
X157062761Y-67442714D02*
X157110380Y-67633190D01*
X157110380Y-67633190D02*
X157110380Y-67776047D01*
X157110380Y-67776047D02*
X157062761Y-67966523D01*
X157062761Y-67966523D02*
X157015142Y-68061761D01*
X157015142Y-68061761D02*
X156919904Y-68157000D01*
X156919904Y-68157000D02*
X156777047Y-68204619D01*
X156777047Y-68204619D02*
X156538952Y-68204619D01*
X157300857Y-68299857D02*
X158062761Y-68299857D01*
X158158000Y-67204619D02*
X158729428Y-67204619D01*
X158443714Y-68204619D02*
X158443714Y-67204619D01*
X159443714Y-68157000D02*
X159348476Y-68204619D01*
X159348476Y-68204619D02*
X159158000Y-68204619D01*
X159158000Y-68204619D02*
X159062762Y-68157000D01*
X159062762Y-68157000D02*
X159015143Y-68061761D01*
X159015143Y-68061761D02*
X159015143Y-67680809D01*
X159015143Y-67680809D02*
X159062762Y-67585571D01*
X159062762Y-67585571D02*
X159158000Y-67537952D01*
X159158000Y-67537952D02*
X159348476Y-67537952D01*
X159348476Y-67537952D02*
X159443714Y-67585571D01*
X159443714Y-67585571D02*
X159491333Y-67680809D01*
X159491333Y-67680809D02*
X159491333Y-67776047D01*
X159491333Y-67776047D02*
X159015143Y-67871285D01*
X159872286Y-68157000D02*
X159967524Y-68204619D01*
X159967524Y-68204619D02*
X160158000Y-68204619D01*
X160158000Y-68204619D02*
X160253238Y-68157000D01*
X160253238Y-68157000D02*
X160300857Y-68061761D01*
X160300857Y-68061761D02*
X160300857Y-68014142D01*
X160300857Y-68014142D02*
X160253238Y-67918904D01*
X160253238Y-67918904D02*
X160158000Y-67871285D01*
X160158000Y-67871285D02*
X160015143Y-67871285D01*
X160015143Y-67871285D02*
X159919905Y-67823666D01*
X159919905Y-67823666D02*
X159872286Y-67728428D01*
X159872286Y-67728428D02*
X159872286Y-67680809D01*
X159872286Y-67680809D02*
X159919905Y-67585571D01*
X159919905Y-67585571D02*
X160015143Y-67537952D01*
X160015143Y-67537952D02*
X160158000Y-67537952D01*
X160158000Y-67537952D02*
X160253238Y-67585571D01*
X160586572Y-67537952D02*
X160967524Y-67537952D01*
X160729429Y-67204619D02*
X160729429Y-68061761D01*
X160729429Y-68061761D02*
X160777048Y-68157000D01*
X160777048Y-68157000D02*
X160872286Y-68204619D01*
X160872286Y-68204619D02*
X160967524Y-68204619D01*
X113295333Y-51694619D02*
X112962000Y-51218428D01*
X112723905Y-51694619D02*
X112723905Y-50694619D01*
X112723905Y-50694619D02*
X113104857Y-50694619D01*
X113104857Y-50694619D02*
X113200095Y-50742238D01*
X113200095Y-50742238D02*
X113247714Y-50789857D01*
X113247714Y-50789857D02*
X113295333Y-50885095D01*
X113295333Y-50885095D02*
X113295333Y-51027952D01*
X113295333Y-51027952D02*
X113247714Y-51123190D01*
X113247714Y-51123190D02*
X113200095Y-51170809D01*
X113200095Y-51170809D02*
X113104857Y-51218428D01*
X113104857Y-51218428D02*
X112723905Y-51218428D01*
X113866762Y-51123190D02*
X113771524Y-51075571D01*
X113771524Y-51075571D02*
X113723905Y-51027952D01*
X113723905Y-51027952D02*
X113676286Y-50932714D01*
X113676286Y-50932714D02*
X113676286Y-50885095D01*
X113676286Y-50885095D02*
X113723905Y-50789857D01*
X113723905Y-50789857D02*
X113771524Y-50742238D01*
X113771524Y-50742238D02*
X113866762Y-50694619D01*
X113866762Y-50694619D02*
X114057238Y-50694619D01*
X114057238Y-50694619D02*
X114152476Y-50742238D01*
X114152476Y-50742238D02*
X114200095Y-50789857D01*
X114200095Y-50789857D02*
X114247714Y-50885095D01*
X114247714Y-50885095D02*
X114247714Y-50932714D01*
X114247714Y-50932714D02*
X114200095Y-51027952D01*
X114200095Y-51027952D02*
X114152476Y-51075571D01*
X114152476Y-51075571D02*
X114057238Y-51123190D01*
X114057238Y-51123190D02*
X113866762Y-51123190D01*
X113866762Y-51123190D02*
X113771524Y-51170809D01*
X113771524Y-51170809D02*
X113723905Y-51218428D01*
X113723905Y-51218428D02*
X113676286Y-51313666D01*
X113676286Y-51313666D02*
X113676286Y-51504142D01*
X113676286Y-51504142D02*
X113723905Y-51599380D01*
X113723905Y-51599380D02*
X113771524Y-51647000D01*
X113771524Y-51647000D02*
X113866762Y-51694619D01*
X113866762Y-51694619D02*
X114057238Y-51694619D01*
X114057238Y-51694619D02*
X114152476Y-51647000D01*
X114152476Y-51647000D02*
X114200095Y-51599380D01*
X114200095Y-51599380D02*
X114247714Y-51504142D01*
X114247714Y-51504142D02*
X114247714Y-51313666D01*
X114247714Y-51313666D02*
X114200095Y-51218428D01*
X114200095Y-51218428D02*
X114152476Y-51170809D01*
X114152476Y-51170809D02*
X114057238Y-51123190D01*
X121844095Y-51789952D02*
X121844095Y-52456619D01*
X121606000Y-51409000D02*
X121367905Y-52123285D01*
X121367905Y-52123285D02*
X121986952Y-52123285D01*
X122272667Y-51456619D02*
X122939333Y-51456619D01*
X122939333Y-51456619D02*
X122510762Y-52456619D01*
X123510762Y-51456619D02*
X123606000Y-51456619D01*
X123606000Y-51456619D02*
X123701238Y-51504238D01*
X123701238Y-51504238D02*
X123748857Y-51551857D01*
X123748857Y-51551857D02*
X123796476Y-51647095D01*
X123796476Y-51647095D02*
X123844095Y-51837571D01*
X123844095Y-51837571D02*
X123844095Y-52075666D01*
X123844095Y-52075666D02*
X123796476Y-52266142D01*
X123796476Y-52266142D02*
X123748857Y-52361380D01*
X123748857Y-52361380D02*
X123701238Y-52409000D01*
X123701238Y-52409000D02*
X123606000Y-52456619D01*
X123606000Y-52456619D02*
X123510762Y-52456619D01*
X123510762Y-52456619D02*
X123415524Y-52409000D01*
X123415524Y-52409000D02*
X123367905Y-52361380D01*
X123367905Y-52361380D02*
X123320286Y-52266142D01*
X123320286Y-52266142D02*
X123272667Y-52075666D01*
X123272667Y-52075666D02*
X123272667Y-51837571D01*
X123272667Y-51837571D02*
X123320286Y-51647095D01*
X123320286Y-51647095D02*
X123367905Y-51551857D01*
X123367905Y-51551857D02*
X123415524Y-51504238D01*
X123415524Y-51504238D02*
X123510762Y-51456619D01*
X131670666Y-66188619D02*
X131670666Y-66902904D01*
X131670666Y-66902904D02*
X131623047Y-67045761D01*
X131623047Y-67045761D02*
X131527809Y-67141000D01*
X131527809Y-67141000D02*
X131384952Y-67188619D01*
X131384952Y-67188619D02*
X131289714Y-67188619D01*
X132575428Y-66521952D02*
X132575428Y-67188619D01*
X132337333Y-66141000D02*
X132099238Y-66855285D01*
X132099238Y-66855285D02*
X132718285Y-66855285D01*
X136623809Y-62886619D02*
X136814285Y-62886619D01*
X136814285Y-62886619D02*
X136909523Y-62934238D01*
X136909523Y-62934238D02*
X137004761Y-63029476D01*
X137004761Y-63029476D02*
X137052380Y-63219952D01*
X137052380Y-63219952D02*
X137052380Y-63553285D01*
X137052380Y-63553285D02*
X137004761Y-63743761D01*
X137004761Y-63743761D02*
X136909523Y-63839000D01*
X136909523Y-63839000D02*
X136814285Y-63886619D01*
X136814285Y-63886619D02*
X136623809Y-63886619D01*
X136623809Y-63886619D02*
X136528571Y-63839000D01*
X136528571Y-63839000D02*
X136433333Y-63743761D01*
X136433333Y-63743761D02*
X136385714Y-63553285D01*
X136385714Y-63553285D02*
X136385714Y-63219952D01*
X136385714Y-63219952D02*
X136433333Y-63029476D01*
X136433333Y-63029476D02*
X136528571Y-62934238D01*
X136528571Y-62934238D02*
X136623809Y-62886619D01*
X137480952Y-62886619D02*
X137480952Y-63696142D01*
X137480952Y-63696142D02*
X137528571Y-63791380D01*
X137528571Y-63791380D02*
X137576190Y-63839000D01*
X137576190Y-63839000D02*
X137671428Y-63886619D01*
X137671428Y-63886619D02*
X137861904Y-63886619D01*
X137861904Y-63886619D02*
X137957142Y-63839000D01*
X137957142Y-63839000D02*
X138004761Y-63791380D01*
X138004761Y-63791380D02*
X138052380Y-63696142D01*
X138052380Y-63696142D02*
X138052380Y-62886619D01*
X138385714Y-62886619D02*
X138957142Y-62886619D01*
X138671428Y-63886619D02*
X138671428Y-62886619D01*
X139814285Y-63886619D02*
X139242857Y-63886619D01*
X139528571Y-63886619D02*
X139528571Y-62886619D01*
X139528571Y-62886619D02*
X139433333Y-63029476D01*
X139433333Y-63029476D02*
X139338095Y-63124714D01*
X139338095Y-63124714D02*
X139242857Y-63172333D01*
X115668666Y-78634619D02*
X115668666Y-79348904D01*
X115668666Y-79348904D02*
X115621047Y-79491761D01*
X115621047Y-79491761D02*
X115525809Y-79587000D01*
X115525809Y-79587000D02*
X115382952Y-79634619D01*
X115382952Y-79634619D02*
X115287714Y-79634619D01*
X116573428Y-78634619D02*
X116382952Y-78634619D01*
X116382952Y-78634619D02*
X116287714Y-78682238D01*
X116287714Y-78682238D02*
X116240095Y-78729857D01*
X116240095Y-78729857D02*
X116144857Y-78872714D01*
X116144857Y-78872714D02*
X116097238Y-79063190D01*
X116097238Y-79063190D02*
X116097238Y-79444142D01*
X116097238Y-79444142D02*
X116144857Y-79539380D01*
X116144857Y-79539380D02*
X116192476Y-79587000D01*
X116192476Y-79587000D02*
X116287714Y-79634619D01*
X116287714Y-79634619D02*
X116478190Y-79634619D01*
X116478190Y-79634619D02*
X116573428Y-79587000D01*
X116573428Y-79587000D02*
X116621047Y-79539380D01*
X116621047Y-79539380D02*
X116668666Y-79444142D01*
X116668666Y-79444142D02*
X116668666Y-79206047D01*
X116668666Y-79206047D02*
X116621047Y-79110809D01*
X116621047Y-79110809D02*
X116573428Y-79063190D01*
X116573428Y-79063190D02*
X116478190Y-79015571D01*
X116478190Y-79015571D02*
X116287714Y-79015571D01*
X116287714Y-79015571D02*
X116192476Y-79063190D01*
X116192476Y-79063190D02*
X116144857Y-79110809D01*
X116144857Y-79110809D02*
X116097238Y-79206047D01*
X113255809Y-81174619D02*
X113446285Y-81174619D01*
X113446285Y-81174619D02*
X113541523Y-81222238D01*
X113541523Y-81222238D02*
X113636761Y-81317476D01*
X113636761Y-81317476D02*
X113684380Y-81507952D01*
X113684380Y-81507952D02*
X113684380Y-81841285D01*
X113684380Y-81841285D02*
X113636761Y-82031761D01*
X113636761Y-82031761D02*
X113541523Y-82127000D01*
X113541523Y-82127000D02*
X113446285Y-82174619D01*
X113446285Y-82174619D02*
X113255809Y-82174619D01*
X113255809Y-82174619D02*
X113160571Y-82127000D01*
X113160571Y-82127000D02*
X113065333Y-82031761D01*
X113065333Y-82031761D02*
X113017714Y-81841285D01*
X113017714Y-81841285D02*
X113017714Y-81507952D01*
X113017714Y-81507952D02*
X113065333Y-81317476D01*
X113065333Y-81317476D02*
X113160571Y-81222238D01*
X113160571Y-81222238D02*
X113255809Y-81174619D01*
X114112952Y-81174619D02*
X114112952Y-81984142D01*
X114112952Y-81984142D02*
X114160571Y-82079380D01*
X114160571Y-82079380D02*
X114208190Y-82127000D01*
X114208190Y-82127000D02*
X114303428Y-82174619D01*
X114303428Y-82174619D02*
X114493904Y-82174619D01*
X114493904Y-82174619D02*
X114589142Y-82127000D01*
X114589142Y-82127000D02*
X114636761Y-82079380D01*
X114636761Y-82079380D02*
X114684380Y-81984142D01*
X114684380Y-81984142D02*
X114684380Y-81174619D01*
X115017714Y-81174619D02*
X115589142Y-81174619D01*
X115303428Y-82174619D02*
X115303428Y-81174619D01*
X115874857Y-81269857D02*
X115922476Y-81222238D01*
X115922476Y-81222238D02*
X116017714Y-81174619D01*
X116017714Y-81174619D02*
X116255809Y-81174619D01*
X116255809Y-81174619D02*
X116351047Y-81222238D01*
X116351047Y-81222238D02*
X116398666Y-81269857D01*
X116398666Y-81269857D02*
X116446285Y-81365095D01*
X116446285Y-81365095D02*
X116446285Y-81460333D01*
X116446285Y-81460333D02*
X116398666Y-81603190D01*
X116398666Y-81603190D02*
X115827238Y-82174619D01*
X115827238Y-82174619D02*
X116446285Y-82174619D01*
X112787333Y-94620619D02*
X112454000Y-94144428D01*
X112215905Y-94620619D02*
X112215905Y-93620619D01*
X112215905Y-93620619D02*
X112596857Y-93620619D01*
X112596857Y-93620619D02*
X112692095Y-93668238D01*
X112692095Y-93668238D02*
X112739714Y-93715857D01*
X112739714Y-93715857D02*
X112787333Y-93811095D01*
X112787333Y-93811095D02*
X112787333Y-93953952D01*
X112787333Y-93953952D02*
X112739714Y-94049190D01*
X112739714Y-94049190D02*
X112692095Y-94096809D01*
X112692095Y-94096809D02*
X112596857Y-94144428D01*
X112596857Y-94144428D02*
X112215905Y-94144428D01*
X113739714Y-94620619D02*
X113168286Y-94620619D01*
X113454000Y-94620619D02*
X113454000Y-93620619D01*
X113454000Y-93620619D02*
X113358762Y-93763476D01*
X113358762Y-93763476D02*
X113263524Y-93858714D01*
X113263524Y-93858714D02*
X113168286Y-93906333D01*
X122740952Y-94620619D02*
X122169524Y-94620619D01*
X122455238Y-94620619D02*
X122455238Y-93620619D01*
X122455238Y-93620619D02*
X122360000Y-93763476D01*
X122360000Y-93763476D02*
X122264762Y-93858714D01*
X122264762Y-93858714D02*
X122169524Y-93906333D01*
X123169524Y-94620619D02*
X123169524Y-93620619D01*
X123264762Y-94239666D02*
X123550476Y-94620619D01*
X123550476Y-93953952D02*
X123169524Y-94334904D01*
X142251333Y-83349380D02*
X142203714Y-83397000D01*
X142203714Y-83397000D02*
X142060857Y-83444619D01*
X142060857Y-83444619D02*
X141965619Y-83444619D01*
X141965619Y-83444619D02*
X141822762Y-83397000D01*
X141822762Y-83397000D02*
X141727524Y-83301761D01*
X141727524Y-83301761D02*
X141679905Y-83206523D01*
X141679905Y-83206523D02*
X141632286Y-83016047D01*
X141632286Y-83016047D02*
X141632286Y-82873190D01*
X141632286Y-82873190D02*
X141679905Y-82682714D01*
X141679905Y-82682714D02*
X141727524Y-82587476D01*
X141727524Y-82587476D02*
X141822762Y-82492238D01*
X141822762Y-82492238D02*
X141965619Y-82444619D01*
X141965619Y-82444619D02*
X142060857Y-82444619D01*
X142060857Y-82444619D02*
X142203714Y-82492238D01*
X142203714Y-82492238D02*
X142251333Y-82539857D01*
X143203714Y-83444619D02*
X142632286Y-83444619D01*
X142918000Y-83444619D02*
X142918000Y-82444619D01*
X142918000Y-82444619D02*
X142822762Y-82587476D01*
X142822762Y-82587476D02*
X142727524Y-82682714D01*
X142727524Y-82682714D02*
X142632286Y-82730333D01*
X137901714Y-81015857D02*
X137949333Y-80968238D01*
X137949333Y-80968238D02*
X138044571Y-80920619D01*
X138044571Y-80920619D02*
X138282666Y-80920619D01*
X138282666Y-80920619D02*
X138377904Y-80968238D01*
X138377904Y-80968238D02*
X138425523Y-81015857D01*
X138425523Y-81015857D02*
X138473142Y-81111095D01*
X138473142Y-81111095D02*
X138473142Y-81206333D01*
X138473142Y-81206333D02*
X138425523Y-81349190D01*
X138425523Y-81349190D02*
X137854095Y-81920619D01*
X137854095Y-81920619D02*
X138473142Y-81920619D01*
X138854095Y-81015857D02*
X138901714Y-80968238D01*
X138901714Y-80968238D02*
X138996952Y-80920619D01*
X138996952Y-80920619D02*
X139235047Y-80920619D01*
X139235047Y-80920619D02*
X139330285Y-80968238D01*
X139330285Y-80968238D02*
X139377904Y-81015857D01*
X139377904Y-81015857D02*
X139425523Y-81111095D01*
X139425523Y-81111095D02*
X139425523Y-81206333D01*
X139425523Y-81206333D02*
X139377904Y-81349190D01*
X139377904Y-81349190D02*
X138806476Y-81920619D01*
X138806476Y-81920619D02*
X139425523Y-81920619D01*
X140282666Y-81253952D02*
X140282666Y-81920619D01*
X139854095Y-81253952D02*
X139854095Y-81777761D01*
X139854095Y-81777761D02*
X139901714Y-81873000D01*
X139901714Y-81873000D02*
X139996952Y-81920619D01*
X139996952Y-81920619D02*
X140139809Y-81920619D01*
X140139809Y-81920619D02*
X140235047Y-81873000D01*
X140235047Y-81873000D02*
X140282666Y-81825380D01*
X129210095Y-92096619D02*
X129210095Y-92906142D01*
X129210095Y-92906142D02*
X129257714Y-93001380D01*
X129257714Y-93001380D02*
X129305333Y-93049000D01*
X129305333Y-93049000D02*
X129400571Y-93096619D01*
X129400571Y-93096619D02*
X129591047Y-93096619D01*
X129591047Y-93096619D02*
X129686285Y-93049000D01*
X129686285Y-93049000D02*
X129733904Y-93001380D01*
X129733904Y-93001380D02*
X129781523Y-92906142D01*
X129781523Y-92906142D02*
X129781523Y-92096619D01*
X130210095Y-92191857D02*
X130257714Y-92144238D01*
X130257714Y-92144238D02*
X130352952Y-92096619D01*
X130352952Y-92096619D02*
X130591047Y-92096619D01*
X130591047Y-92096619D02*
X130686285Y-92144238D01*
X130686285Y-92144238D02*
X130733904Y-92191857D01*
X130733904Y-92191857D02*
X130781523Y-92287095D01*
X130781523Y-92287095D02*
X130781523Y-92382333D01*
X130781523Y-92382333D02*
X130733904Y-92525190D01*
X130733904Y-92525190D02*
X130162476Y-93096619D01*
X130162476Y-93096619D02*
X130781523Y-93096619D01*
X128289619Y-79342619D02*
X128480095Y-79342619D01*
X128480095Y-79342619D02*
X128575333Y-79390238D01*
X128575333Y-79390238D02*
X128670571Y-79485476D01*
X128670571Y-79485476D02*
X128718190Y-79675952D01*
X128718190Y-79675952D02*
X128718190Y-80009285D01*
X128718190Y-80009285D02*
X128670571Y-80199761D01*
X128670571Y-80199761D02*
X128575333Y-80295000D01*
X128575333Y-80295000D02*
X128480095Y-80342619D01*
X128480095Y-80342619D02*
X128289619Y-80342619D01*
X128289619Y-80342619D02*
X128194381Y-80295000D01*
X128194381Y-80295000D02*
X128099143Y-80199761D01*
X128099143Y-80199761D02*
X128051524Y-80009285D01*
X128051524Y-80009285D02*
X128051524Y-79675952D01*
X128051524Y-79675952D02*
X128099143Y-79485476D01*
X128099143Y-79485476D02*
X128194381Y-79390238D01*
X128194381Y-79390238D02*
X128289619Y-79342619D01*
X129146762Y-80342619D02*
X129146762Y-79342619D01*
X129146762Y-79342619D02*
X129527714Y-79342619D01*
X129527714Y-79342619D02*
X129622952Y-79390238D01*
X129622952Y-79390238D02*
X129670571Y-79437857D01*
X129670571Y-79437857D02*
X129718190Y-79533095D01*
X129718190Y-79533095D02*
X129718190Y-79675952D01*
X129718190Y-79675952D02*
X129670571Y-79771190D01*
X129670571Y-79771190D02*
X129622952Y-79818809D01*
X129622952Y-79818809D02*
X129527714Y-79866428D01*
X129527714Y-79866428D02*
X129146762Y-79866428D01*
X130099143Y-80056904D02*
X130575333Y-80056904D01*
X130003905Y-80342619D02*
X130337238Y-79342619D01*
X130337238Y-79342619D02*
X130670571Y-80342619D01*
X130908667Y-79342619D02*
X131527714Y-79342619D01*
X131527714Y-79342619D02*
X131194381Y-79723571D01*
X131194381Y-79723571D02*
X131337238Y-79723571D01*
X131337238Y-79723571D02*
X131432476Y-79771190D01*
X131432476Y-79771190D02*
X131480095Y-79818809D01*
X131480095Y-79818809D02*
X131527714Y-79914047D01*
X131527714Y-79914047D02*
X131527714Y-80152142D01*
X131527714Y-80152142D02*
X131480095Y-80247380D01*
X131480095Y-80247380D02*
X131432476Y-80295000D01*
X131432476Y-80295000D02*
X131337238Y-80342619D01*
X131337238Y-80342619D02*
X131051524Y-80342619D01*
X131051524Y-80342619D02*
X130956286Y-80295000D01*
X130956286Y-80295000D02*
X130908667Y-80247380D01*
X132384857Y-79675952D02*
X132384857Y-80342619D01*
X132146762Y-79295000D02*
X131908667Y-80009285D01*
X131908667Y-80009285D02*
X132527714Y-80009285D01*
X133099143Y-79342619D02*
X133194381Y-79342619D01*
X133194381Y-79342619D02*
X133289619Y-79390238D01*
X133289619Y-79390238D02*
X133337238Y-79437857D01*
X133337238Y-79437857D02*
X133384857Y-79533095D01*
X133384857Y-79533095D02*
X133432476Y-79723571D01*
X133432476Y-79723571D02*
X133432476Y-79961666D01*
X133432476Y-79961666D02*
X133384857Y-80152142D01*
X133384857Y-80152142D02*
X133337238Y-80247380D01*
X133337238Y-80247380D02*
X133289619Y-80295000D01*
X133289619Y-80295000D02*
X133194381Y-80342619D01*
X133194381Y-80342619D02*
X133099143Y-80342619D01*
X133099143Y-80342619D02*
X133003905Y-80295000D01*
X133003905Y-80295000D02*
X132956286Y-80247380D01*
X132956286Y-80247380D02*
X132908667Y-80152142D01*
X132908667Y-80152142D02*
X132861048Y-79961666D01*
X132861048Y-79961666D02*
X132861048Y-79723571D01*
X132861048Y-79723571D02*
X132908667Y-79533095D01*
X132908667Y-79533095D02*
X132956286Y-79437857D01*
X132956286Y-79437857D02*
X133003905Y-79390238D01*
X133003905Y-79390238D02*
X133099143Y-79342619D01*
X133861048Y-80342619D02*
X133861048Y-79342619D01*
X133861048Y-79342619D02*
X134242000Y-79342619D01*
X134242000Y-79342619D02*
X134337238Y-79390238D01*
X134337238Y-79390238D02*
X134384857Y-79437857D01*
X134384857Y-79437857D02*
X134432476Y-79533095D01*
X134432476Y-79533095D02*
X134432476Y-79675952D01*
X134432476Y-79675952D02*
X134384857Y-79771190D01*
X134384857Y-79771190D02*
X134337238Y-79818809D01*
X134337238Y-79818809D02*
X134242000Y-79866428D01*
X134242000Y-79866428D02*
X133861048Y-79866428D01*
X121036619Y-74512666D02*
X120560428Y-74845999D01*
X121036619Y-75084094D02*
X120036619Y-75084094D01*
X120036619Y-75084094D02*
X120036619Y-74703142D01*
X120036619Y-74703142D02*
X120084238Y-74607904D01*
X120084238Y-74607904D02*
X120131857Y-74560285D01*
X120131857Y-74560285D02*
X120227095Y-74512666D01*
X120227095Y-74512666D02*
X120369952Y-74512666D01*
X120369952Y-74512666D02*
X120465190Y-74560285D01*
X120465190Y-74560285D02*
X120512809Y-74607904D01*
X120512809Y-74607904D02*
X120560428Y-74703142D01*
X120560428Y-74703142D02*
X120560428Y-75084094D01*
X120036619Y-73655523D02*
X120036619Y-73845999D01*
X120036619Y-73845999D02*
X120084238Y-73941237D01*
X120084238Y-73941237D02*
X120131857Y-73988856D01*
X120131857Y-73988856D02*
X120274714Y-74084094D01*
X120274714Y-74084094D02*
X120465190Y-74131713D01*
X120465190Y-74131713D02*
X120846142Y-74131713D01*
X120846142Y-74131713D02*
X120941380Y-74084094D01*
X120941380Y-74084094D02*
X120989000Y-74036475D01*
X120989000Y-74036475D02*
X121036619Y-73941237D01*
X121036619Y-73941237D02*
X121036619Y-73750761D01*
X121036619Y-73750761D02*
X120989000Y-73655523D01*
X120989000Y-73655523D02*
X120941380Y-73607904D01*
X120941380Y-73607904D02*
X120846142Y-73560285D01*
X120846142Y-73560285D02*
X120608047Y-73560285D01*
X120608047Y-73560285D02*
X120512809Y-73607904D01*
X120512809Y-73607904D02*
X120465190Y-73655523D01*
X120465190Y-73655523D02*
X120417571Y-73750761D01*
X120417571Y-73750761D02*
X120417571Y-73941237D01*
X120417571Y-73941237D02*
X120465190Y-74036475D01*
X120465190Y-74036475D02*
X120512809Y-74084094D01*
X120512809Y-74084094D02*
X120608047Y-74131713D01*
X120782619Y-66273428D02*
X120782619Y-66844856D01*
X120782619Y-66559142D02*
X119782619Y-66559142D01*
X119782619Y-66559142D02*
X119925476Y-66654380D01*
X119925476Y-66654380D02*
X120020714Y-66749618D01*
X120020714Y-66749618D02*
X120068333Y-66844856D01*
X119782619Y-65654380D02*
X119782619Y-65559142D01*
X119782619Y-65559142D02*
X119830238Y-65463904D01*
X119830238Y-65463904D02*
X119877857Y-65416285D01*
X119877857Y-65416285D02*
X119973095Y-65368666D01*
X119973095Y-65368666D02*
X120163571Y-65321047D01*
X120163571Y-65321047D02*
X120401666Y-65321047D01*
X120401666Y-65321047D02*
X120592142Y-65368666D01*
X120592142Y-65368666D02*
X120687380Y-65416285D01*
X120687380Y-65416285D02*
X120735000Y-65463904D01*
X120735000Y-65463904D02*
X120782619Y-65559142D01*
X120782619Y-65559142D02*
X120782619Y-65654380D01*
X120782619Y-65654380D02*
X120735000Y-65749618D01*
X120735000Y-65749618D02*
X120687380Y-65797237D01*
X120687380Y-65797237D02*
X120592142Y-65844856D01*
X120592142Y-65844856D02*
X120401666Y-65892475D01*
X120401666Y-65892475D02*
X120163571Y-65892475D01*
X120163571Y-65892475D02*
X119973095Y-65844856D01*
X119973095Y-65844856D02*
X119877857Y-65797237D01*
X119877857Y-65797237D02*
X119830238Y-65749618D01*
X119830238Y-65749618D02*
X119782619Y-65654380D01*
X119782619Y-64701999D02*
X119782619Y-64606761D01*
X119782619Y-64606761D02*
X119830238Y-64511523D01*
X119830238Y-64511523D02*
X119877857Y-64463904D01*
X119877857Y-64463904D02*
X119973095Y-64416285D01*
X119973095Y-64416285D02*
X120163571Y-64368666D01*
X120163571Y-64368666D02*
X120401666Y-64368666D01*
X120401666Y-64368666D02*
X120592142Y-64416285D01*
X120592142Y-64416285D02*
X120687380Y-64463904D01*
X120687380Y-64463904D02*
X120735000Y-64511523D01*
X120735000Y-64511523D02*
X120782619Y-64606761D01*
X120782619Y-64606761D02*
X120782619Y-64701999D01*
X120782619Y-64701999D02*
X120735000Y-64797237D01*
X120735000Y-64797237D02*
X120687380Y-64844856D01*
X120687380Y-64844856D02*
X120592142Y-64892475D01*
X120592142Y-64892475D02*
X120401666Y-64940094D01*
X120401666Y-64940094D02*
X120163571Y-64940094D01*
X120163571Y-64940094D02*
X119973095Y-64892475D01*
X119973095Y-64892475D02*
X119877857Y-64844856D01*
X119877857Y-64844856D02*
X119830238Y-64797237D01*
X119830238Y-64797237D02*
X119782619Y-64701999D01*
X120782619Y-63940094D02*
X119782619Y-63940094D01*
X120401666Y-63844856D02*
X120782619Y-63559142D01*
X120115952Y-63559142D02*
X120496904Y-63940094D01*
X160285333Y-92080619D02*
X159952000Y-91604428D01*
X159713905Y-92080619D02*
X159713905Y-91080619D01*
X159713905Y-91080619D02*
X160094857Y-91080619D01*
X160094857Y-91080619D02*
X160190095Y-91128238D01*
X160190095Y-91128238D02*
X160237714Y-91175857D01*
X160237714Y-91175857D02*
X160285333Y-91271095D01*
X160285333Y-91271095D02*
X160285333Y-91413952D01*
X160285333Y-91413952D02*
X160237714Y-91509190D01*
X160237714Y-91509190D02*
X160190095Y-91556809D01*
X160190095Y-91556809D02*
X160094857Y-91604428D01*
X160094857Y-91604428D02*
X159713905Y-91604428D01*
X160618667Y-91080619D02*
X161237714Y-91080619D01*
X161237714Y-91080619D02*
X160904381Y-91461571D01*
X160904381Y-91461571D02*
X161047238Y-91461571D01*
X161047238Y-91461571D02*
X161142476Y-91509190D01*
X161142476Y-91509190D02*
X161190095Y-91556809D01*
X161190095Y-91556809D02*
X161237714Y-91652047D01*
X161237714Y-91652047D02*
X161237714Y-91890142D01*
X161237714Y-91890142D02*
X161190095Y-91985380D01*
X161190095Y-91985380D02*
X161142476Y-92033000D01*
X161142476Y-92033000D02*
X161047238Y-92080619D01*
X161047238Y-92080619D02*
X160761524Y-92080619D01*
X160761524Y-92080619D02*
X160666286Y-92033000D01*
X160666286Y-92033000D02*
X160618667Y-91985380D01*
X159555238Y-79237857D02*
X159602857Y-79190238D01*
X159602857Y-79190238D02*
X159698095Y-79142619D01*
X159698095Y-79142619D02*
X159936190Y-79142619D01*
X159936190Y-79142619D02*
X160031428Y-79190238D01*
X160031428Y-79190238D02*
X160079047Y-79237857D01*
X160079047Y-79237857D02*
X160126666Y-79333095D01*
X160126666Y-79333095D02*
X160126666Y-79428333D01*
X160126666Y-79428333D02*
X160079047Y-79571190D01*
X160079047Y-79571190D02*
X159507619Y-80142619D01*
X159507619Y-80142619D02*
X160126666Y-80142619D01*
X160555238Y-80047380D02*
X160602857Y-80095000D01*
X160602857Y-80095000D02*
X160555238Y-80142619D01*
X160555238Y-80142619D02*
X160507619Y-80095000D01*
X160507619Y-80095000D02*
X160555238Y-80047380D01*
X160555238Y-80047380D02*
X160555238Y-80142619D01*
X160983809Y-79237857D02*
X161031428Y-79190238D01*
X161031428Y-79190238D02*
X161126666Y-79142619D01*
X161126666Y-79142619D02*
X161364761Y-79142619D01*
X161364761Y-79142619D02*
X161459999Y-79190238D01*
X161459999Y-79190238D02*
X161507618Y-79237857D01*
X161507618Y-79237857D02*
X161555237Y-79333095D01*
X161555237Y-79333095D02*
X161555237Y-79428333D01*
X161555237Y-79428333D02*
X161507618Y-79571190D01*
X161507618Y-79571190D02*
X160936190Y-80142619D01*
X160936190Y-80142619D02*
X161555237Y-80142619D01*
X161983809Y-80142619D02*
X161983809Y-79142619D01*
X162079047Y-79761666D02*
X162364761Y-80142619D01*
X162364761Y-79475952D02*
X161983809Y-79856904D01*
X144537333Y-61759380D02*
X144489714Y-61807000D01*
X144489714Y-61807000D02*
X144346857Y-61854619D01*
X144346857Y-61854619D02*
X144251619Y-61854619D01*
X144251619Y-61854619D02*
X144108762Y-61807000D01*
X144108762Y-61807000D02*
X144013524Y-61711761D01*
X144013524Y-61711761D02*
X143965905Y-61616523D01*
X143965905Y-61616523D02*
X143918286Y-61426047D01*
X143918286Y-61426047D02*
X143918286Y-61283190D01*
X143918286Y-61283190D02*
X143965905Y-61092714D01*
X143965905Y-61092714D02*
X144013524Y-60997476D01*
X144013524Y-60997476D02*
X144108762Y-60902238D01*
X144108762Y-60902238D02*
X144251619Y-60854619D01*
X144251619Y-60854619D02*
X144346857Y-60854619D01*
X144346857Y-60854619D02*
X144489714Y-60902238D01*
X144489714Y-60902238D02*
X144537333Y-60949857D01*
X144870667Y-60854619D02*
X145489714Y-60854619D01*
X145489714Y-60854619D02*
X145156381Y-61235571D01*
X145156381Y-61235571D02*
X145299238Y-61235571D01*
X145299238Y-61235571D02*
X145394476Y-61283190D01*
X145394476Y-61283190D02*
X145442095Y-61330809D01*
X145442095Y-61330809D02*
X145489714Y-61426047D01*
X145489714Y-61426047D02*
X145489714Y-61664142D01*
X145489714Y-61664142D02*
X145442095Y-61759380D01*
X145442095Y-61759380D02*
X145394476Y-61807000D01*
X145394476Y-61807000D02*
X145299238Y-61854619D01*
X145299238Y-61854619D02*
X145013524Y-61854619D01*
X145013524Y-61854619D02*
X144918286Y-61807000D01*
X144918286Y-61807000D02*
X144870667Y-61759380D01*
X151189047Y-60838619D02*
X150617619Y-60838619D01*
X150903333Y-60838619D02*
X150903333Y-59838619D01*
X150903333Y-59838619D02*
X150808095Y-59981476D01*
X150808095Y-59981476D02*
X150712857Y-60076714D01*
X150712857Y-60076714D02*
X150617619Y-60124333D01*
X151617619Y-60743380D02*
X151665238Y-60791000D01*
X151665238Y-60791000D02*
X151617619Y-60838619D01*
X151617619Y-60838619D02*
X151570000Y-60791000D01*
X151570000Y-60791000D02*
X151617619Y-60743380D01*
X151617619Y-60743380D02*
X151617619Y-60838619D01*
X152569999Y-59838619D02*
X152093809Y-59838619D01*
X152093809Y-59838619D02*
X152046190Y-60314809D01*
X152046190Y-60314809D02*
X152093809Y-60267190D01*
X152093809Y-60267190D02*
X152189047Y-60219571D01*
X152189047Y-60219571D02*
X152427142Y-60219571D01*
X152427142Y-60219571D02*
X152522380Y-60267190D01*
X152522380Y-60267190D02*
X152569999Y-60314809D01*
X152569999Y-60314809D02*
X152617618Y-60410047D01*
X152617618Y-60410047D02*
X152617618Y-60648142D01*
X152617618Y-60648142D02*
X152569999Y-60743380D01*
X152569999Y-60743380D02*
X152522380Y-60791000D01*
X152522380Y-60791000D02*
X152427142Y-60838619D01*
X152427142Y-60838619D02*
X152189047Y-60838619D01*
X152189047Y-60838619D02*
X152093809Y-60791000D01*
X152093809Y-60791000D02*
X152046190Y-60743380D01*
X153046190Y-60171952D02*
X153046190Y-60838619D01*
X153046190Y-60267190D02*
X153093809Y-60219571D01*
X153093809Y-60219571D02*
X153189047Y-60171952D01*
X153189047Y-60171952D02*
X153331904Y-60171952D01*
X153331904Y-60171952D02*
X153427142Y-60219571D01*
X153427142Y-60219571D02*
X153474761Y-60314809D01*
X153474761Y-60314809D02*
X153474761Y-60838619D01*
X140473333Y-91318619D02*
X140140000Y-90842428D01*
X139901905Y-91318619D02*
X139901905Y-90318619D01*
X139901905Y-90318619D02*
X140282857Y-90318619D01*
X140282857Y-90318619D02*
X140378095Y-90366238D01*
X140378095Y-90366238D02*
X140425714Y-90413857D01*
X140425714Y-90413857D02*
X140473333Y-90509095D01*
X140473333Y-90509095D02*
X140473333Y-90651952D01*
X140473333Y-90651952D02*
X140425714Y-90747190D01*
X140425714Y-90747190D02*
X140378095Y-90794809D01*
X140378095Y-90794809D02*
X140282857Y-90842428D01*
X140282857Y-90842428D02*
X139901905Y-90842428D01*
X140806667Y-90318619D02*
X141473333Y-90318619D01*
X141473333Y-90318619D02*
X141044762Y-91318619D01*
X136925333Y-91318619D02*
X136353905Y-91318619D01*
X136639619Y-91318619D02*
X136639619Y-90318619D01*
X136639619Y-90318619D02*
X136544381Y-90461476D01*
X136544381Y-90461476D02*
X136449143Y-90556714D01*
X136449143Y-90556714D02*
X136353905Y-90604333D01*
X137544381Y-90318619D02*
X137639619Y-90318619D01*
X137639619Y-90318619D02*
X137734857Y-90366238D01*
X137734857Y-90366238D02*
X137782476Y-90413857D01*
X137782476Y-90413857D02*
X137830095Y-90509095D01*
X137830095Y-90509095D02*
X137877714Y-90699571D01*
X137877714Y-90699571D02*
X137877714Y-90937666D01*
X137877714Y-90937666D02*
X137830095Y-91128142D01*
X137830095Y-91128142D02*
X137782476Y-91223380D01*
X137782476Y-91223380D02*
X137734857Y-91271000D01*
X137734857Y-91271000D02*
X137639619Y-91318619D01*
X137639619Y-91318619D02*
X137544381Y-91318619D01*
X137544381Y-91318619D02*
X137449143Y-91271000D01*
X137449143Y-91271000D02*
X137401524Y-91223380D01*
X137401524Y-91223380D02*
X137353905Y-91128142D01*
X137353905Y-91128142D02*
X137306286Y-90937666D01*
X137306286Y-90937666D02*
X137306286Y-90699571D01*
X137306286Y-90699571D02*
X137353905Y-90509095D01*
X137353905Y-90509095D02*
X137401524Y-90413857D01*
X137401524Y-90413857D02*
X137449143Y-90366238D01*
X137449143Y-90366238D02*
X137544381Y-90318619D01*
X138496762Y-90318619D02*
X138592000Y-90318619D01*
X138592000Y-90318619D02*
X138687238Y-90366238D01*
X138687238Y-90366238D02*
X138734857Y-90413857D01*
X138734857Y-90413857D02*
X138782476Y-90509095D01*
X138782476Y-90509095D02*
X138830095Y-90699571D01*
X138830095Y-90699571D02*
X138830095Y-90937666D01*
X138830095Y-90937666D02*
X138782476Y-91128142D01*
X138782476Y-91128142D02*
X138734857Y-91223380D01*
X138734857Y-91223380D02*
X138687238Y-91271000D01*
X138687238Y-91271000D02*
X138592000Y-91318619D01*
X138592000Y-91318619D02*
X138496762Y-91318619D01*
X138496762Y-91318619D02*
X138401524Y-91271000D01*
X138401524Y-91271000D02*
X138353905Y-91223380D01*
X138353905Y-91223380D02*
X138306286Y-91128142D01*
X138306286Y-91128142D02*
X138258667Y-90937666D01*
X138258667Y-90937666D02*
X138258667Y-90699571D01*
X138258667Y-90699571D02*
X138306286Y-90509095D01*
X138306286Y-90509095D02*
X138353905Y-90413857D01*
X138353905Y-90413857D02*
X138401524Y-90366238D01*
X138401524Y-90366238D02*
X138496762Y-90318619D01*
X109860619Y-68099047D02*
X109860619Y-68575237D01*
X109860619Y-68575237D02*
X108860619Y-68575237D01*
X109336809Y-67765713D02*
X109336809Y-67432380D01*
X109860619Y-67289523D02*
X109860619Y-67765713D01*
X109860619Y-67765713D02*
X108860619Y-67765713D01*
X108860619Y-67765713D02*
X108860619Y-67289523D01*
X109860619Y-66860951D02*
X108860619Y-66860951D01*
X108860619Y-66860951D02*
X108860619Y-66622856D01*
X108860619Y-66622856D02*
X108908238Y-66479999D01*
X108908238Y-66479999D02*
X109003476Y-66384761D01*
X109003476Y-66384761D02*
X109098714Y-66337142D01*
X109098714Y-66337142D02*
X109289190Y-66289523D01*
X109289190Y-66289523D02*
X109432047Y-66289523D01*
X109432047Y-66289523D02*
X109622523Y-66337142D01*
X109622523Y-66337142D02*
X109717761Y-66384761D01*
X109717761Y-66384761D02*
X109813000Y-66479999D01*
X109813000Y-66479999D02*
X109860619Y-66622856D01*
X109860619Y-66622856D02*
X109860619Y-66860951D01*
X108860619Y-65956189D02*
X108860619Y-65337142D01*
X108860619Y-65337142D02*
X109241571Y-65670475D01*
X109241571Y-65670475D02*
X109241571Y-65527618D01*
X109241571Y-65527618D02*
X109289190Y-65432380D01*
X109289190Y-65432380D02*
X109336809Y-65384761D01*
X109336809Y-65384761D02*
X109432047Y-65337142D01*
X109432047Y-65337142D02*
X109670142Y-65337142D01*
X109670142Y-65337142D02*
X109765380Y-65384761D01*
X109765380Y-65384761D02*
X109813000Y-65432380D01*
X109813000Y-65432380D02*
X109860619Y-65527618D01*
X109860619Y-65527618D02*
X109860619Y-65813332D01*
X109860619Y-65813332D02*
X109813000Y-65908570D01*
X109813000Y-65908570D02*
X109765380Y-65956189D01*
X100478619Y-72107143D02*
X100478619Y-71916667D01*
X100478619Y-71916667D02*
X100526238Y-71821429D01*
X100526238Y-71821429D02*
X100621476Y-71726191D01*
X100621476Y-71726191D02*
X100811952Y-71678572D01*
X100811952Y-71678572D02*
X101145285Y-71678572D01*
X101145285Y-71678572D02*
X101335761Y-71726191D01*
X101335761Y-71726191D02*
X101431000Y-71821429D01*
X101431000Y-71821429D02*
X101478619Y-71916667D01*
X101478619Y-71916667D02*
X101478619Y-72107143D01*
X101478619Y-72107143D02*
X101431000Y-72202381D01*
X101431000Y-72202381D02*
X101335761Y-72297619D01*
X101335761Y-72297619D02*
X101145285Y-72345238D01*
X101145285Y-72345238D02*
X100811952Y-72345238D01*
X100811952Y-72345238D02*
X100621476Y-72297619D01*
X100621476Y-72297619D02*
X100526238Y-72202381D01*
X100526238Y-72202381D02*
X100478619Y-72107143D01*
X101478619Y-71250000D02*
X100811952Y-71250000D01*
X101002428Y-71250000D02*
X100907190Y-71202381D01*
X100907190Y-71202381D02*
X100859571Y-71154762D01*
X100859571Y-71154762D02*
X100811952Y-71059524D01*
X100811952Y-71059524D02*
X100811952Y-70964286D01*
X101478619Y-70202381D02*
X100954809Y-70202381D01*
X100954809Y-70202381D02*
X100859571Y-70250000D01*
X100859571Y-70250000D02*
X100811952Y-70345238D01*
X100811952Y-70345238D02*
X100811952Y-70535714D01*
X100811952Y-70535714D02*
X100859571Y-70630952D01*
X101431000Y-70202381D02*
X101478619Y-70297619D01*
X101478619Y-70297619D02*
X101478619Y-70535714D01*
X101478619Y-70535714D02*
X101431000Y-70630952D01*
X101431000Y-70630952D02*
X101335761Y-70678571D01*
X101335761Y-70678571D02*
X101240523Y-70678571D01*
X101240523Y-70678571D02*
X101145285Y-70630952D01*
X101145285Y-70630952D02*
X101097666Y-70535714D01*
X101097666Y-70535714D02*
X101097666Y-70297619D01*
X101097666Y-70297619D02*
X101050047Y-70202381D01*
X100811952Y-69726190D02*
X101478619Y-69726190D01*
X100907190Y-69726190D02*
X100859571Y-69678571D01*
X100859571Y-69678571D02*
X100811952Y-69583333D01*
X100811952Y-69583333D02*
X100811952Y-69440476D01*
X100811952Y-69440476D02*
X100859571Y-69345238D01*
X100859571Y-69345238D02*
X100954809Y-69297619D01*
X100954809Y-69297619D02*
X101478619Y-69297619D01*
X100811952Y-68392857D02*
X101621476Y-68392857D01*
X101621476Y-68392857D02*
X101716714Y-68440476D01*
X101716714Y-68440476D02*
X101764333Y-68488095D01*
X101764333Y-68488095D02*
X101811952Y-68583333D01*
X101811952Y-68583333D02*
X101811952Y-68726190D01*
X101811952Y-68726190D02*
X101764333Y-68821428D01*
X101431000Y-68392857D02*
X101478619Y-68488095D01*
X101478619Y-68488095D02*
X101478619Y-68678571D01*
X101478619Y-68678571D02*
X101431000Y-68773809D01*
X101431000Y-68773809D02*
X101383380Y-68821428D01*
X101383380Y-68821428D02*
X101288142Y-68869047D01*
X101288142Y-68869047D02*
X101002428Y-68869047D01*
X101002428Y-68869047D02*
X100907190Y-68821428D01*
X100907190Y-68821428D02*
X100859571Y-68773809D01*
X100859571Y-68773809D02*
X100811952Y-68678571D01*
X100811952Y-68678571D02*
X100811952Y-68488095D01*
X100811952Y-68488095D02*
X100859571Y-68392857D01*
X101431000Y-67535714D02*
X101478619Y-67630952D01*
X101478619Y-67630952D02*
X101478619Y-67821428D01*
X101478619Y-67821428D02*
X101431000Y-67916666D01*
X101431000Y-67916666D02*
X101335761Y-67964285D01*
X101335761Y-67964285D02*
X100954809Y-67964285D01*
X100954809Y-67964285D02*
X100859571Y-67916666D01*
X100859571Y-67916666D02*
X100811952Y-67821428D01*
X100811952Y-67821428D02*
X100811952Y-67630952D01*
X100811952Y-67630952D02*
X100859571Y-67535714D01*
X100859571Y-67535714D02*
X100954809Y-67488095D01*
X100954809Y-67488095D02*
X101050047Y-67488095D01*
X101050047Y-67488095D02*
X101145285Y-67964285D01*
X101573857Y-67297619D02*
X101573857Y-66535714D01*
X101478619Y-65821428D02*
X101478619Y-66297618D01*
X101478619Y-66297618D02*
X100478619Y-66297618D01*
X101431000Y-65107142D02*
X101478619Y-65202380D01*
X101478619Y-65202380D02*
X101478619Y-65392856D01*
X101478619Y-65392856D02*
X101431000Y-65488094D01*
X101431000Y-65488094D02*
X101335761Y-65535713D01*
X101335761Y-65535713D02*
X100954809Y-65535713D01*
X100954809Y-65535713D02*
X100859571Y-65488094D01*
X100859571Y-65488094D02*
X100811952Y-65392856D01*
X100811952Y-65392856D02*
X100811952Y-65202380D01*
X100811952Y-65202380D02*
X100859571Y-65107142D01*
X100859571Y-65107142D02*
X100954809Y-65059523D01*
X100954809Y-65059523D02*
X101050047Y-65059523D01*
X101050047Y-65059523D02*
X101145285Y-65535713D01*
X101478619Y-64202380D02*
X100478619Y-64202380D01*
X101431000Y-64202380D02*
X101478619Y-64297618D01*
X101478619Y-64297618D02*
X101478619Y-64488094D01*
X101478619Y-64488094D02*
X101431000Y-64583332D01*
X101431000Y-64583332D02*
X101383380Y-64630951D01*
X101383380Y-64630951D02*
X101288142Y-64678570D01*
X101288142Y-64678570D02*
X101002428Y-64678570D01*
X101002428Y-64678570D02*
X100907190Y-64630951D01*
X100907190Y-64630951D02*
X100859571Y-64583332D01*
X100859571Y-64583332D02*
X100811952Y-64488094D01*
X100811952Y-64488094D02*
X100811952Y-64297618D01*
X100811952Y-64297618D02*
X100859571Y-64202380D01*
X165992476Y-78888619D02*
X165992476Y-79602904D01*
X165992476Y-79602904D02*
X165944857Y-79745761D01*
X165944857Y-79745761D02*
X165849619Y-79841000D01*
X165849619Y-79841000D02*
X165706762Y-79888619D01*
X165706762Y-79888619D02*
X165611524Y-79888619D01*
X166992476Y-79888619D02*
X166421048Y-79888619D01*
X166706762Y-79888619D02*
X166706762Y-78888619D01*
X166706762Y-78888619D02*
X166611524Y-79031476D01*
X166611524Y-79031476D02*
X166516286Y-79126714D01*
X166516286Y-79126714D02*
X166421048Y-79174333D01*
X167944857Y-79888619D02*
X167373429Y-79888619D01*
X167659143Y-79888619D02*
X167659143Y-78888619D01*
X167659143Y-78888619D02*
X167563905Y-79031476D01*
X167563905Y-79031476D02*
X167468667Y-79126714D01*
X167468667Y-79126714D02*
X167373429Y-79174333D01*
X155429808Y-69633380D02*
X155391712Y-69681000D01*
X155391712Y-69681000D02*
X155277427Y-69728619D01*
X155277427Y-69728619D02*
X155201236Y-69728619D01*
X155201236Y-69728619D02*
X155086950Y-69681000D01*
X155086950Y-69681000D02*
X155010760Y-69585761D01*
X155010760Y-69585761D02*
X154972665Y-69490523D01*
X154972665Y-69490523D02*
X154934569Y-69300047D01*
X154934569Y-69300047D02*
X154934569Y-69157190D01*
X154934569Y-69157190D02*
X154972665Y-68966714D01*
X154972665Y-68966714D02*
X155010760Y-68871476D01*
X155010760Y-68871476D02*
X155086950Y-68776238D01*
X155086950Y-68776238D02*
X155201236Y-68728619D01*
X155201236Y-68728619D02*
X155277427Y-68728619D01*
X155277427Y-68728619D02*
X155391712Y-68776238D01*
X155391712Y-68776238D02*
X155429808Y-68823857D01*
X155886950Y-69728619D02*
X155810760Y-69681000D01*
X155810760Y-69681000D02*
X155772665Y-69633380D01*
X155772665Y-69633380D02*
X155734569Y-69538142D01*
X155734569Y-69538142D02*
X155734569Y-69252428D01*
X155734569Y-69252428D02*
X155772665Y-69157190D01*
X155772665Y-69157190D02*
X155810760Y-69109571D01*
X155810760Y-69109571D02*
X155886950Y-69061952D01*
X155886950Y-69061952D02*
X156001236Y-69061952D01*
X156001236Y-69061952D02*
X156077427Y-69109571D01*
X156077427Y-69109571D02*
X156115522Y-69157190D01*
X156115522Y-69157190D02*
X156153617Y-69252428D01*
X156153617Y-69252428D02*
X156153617Y-69538142D01*
X156153617Y-69538142D02*
X156115522Y-69633380D01*
X156115522Y-69633380D02*
X156077427Y-69681000D01*
X156077427Y-69681000D02*
X156001236Y-69728619D01*
X156001236Y-69728619D02*
X155886950Y-69728619D01*
X156496475Y-69061952D02*
X156496475Y-69728619D01*
X156496475Y-69157190D02*
X156534570Y-69109571D01*
X156534570Y-69109571D02*
X156610760Y-69061952D01*
X156610760Y-69061952D02*
X156725046Y-69061952D01*
X156725046Y-69061952D02*
X156801237Y-69109571D01*
X156801237Y-69109571D02*
X156839332Y-69204809D01*
X156839332Y-69204809D02*
X156839332Y-69728619D01*
X157220285Y-69061952D02*
X157220285Y-69728619D01*
X157220285Y-69157190D02*
X157258380Y-69109571D01*
X157258380Y-69109571D02*
X157334570Y-69061952D01*
X157334570Y-69061952D02*
X157448856Y-69061952D01*
X157448856Y-69061952D02*
X157525047Y-69109571D01*
X157525047Y-69109571D02*
X157563142Y-69204809D01*
X157563142Y-69204809D02*
X157563142Y-69728619D01*
X157753619Y-69823857D02*
X158363142Y-69823857D01*
X158706000Y-68728619D02*
X158782190Y-68728619D01*
X158782190Y-68728619D02*
X158858381Y-68776238D01*
X158858381Y-68776238D02*
X158896476Y-68823857D01*
X158896476Y-68823857D02*
X158934571Y-68919095D01*
X158934571Y-68919095D02*
X158972666Y-69109571D01*
X158972666Y-69109571D02*
X158972666Y-69347666D01*
X158972666Y-69347666D02*
X158934571Y-69538142D01*
X158934571Y-69538142D02*
X158896476Y-69633380D01*
X158896476Y-69633380D02*
X158858381Y-69681000D01*
X158858381Y-69681000D02*
X158782190Y-69728619D01*
X158782190Y-69728619D02*
X158706000Y-69728619D01*
X158706000Y-69728619D02*
X158629809Y-69681000D01*
X158629809Y-69681000D02*
X158591714Y-69633380D01*
X158591714Y-69633380D02*
X158553619Y-69538142D01*
X158553619Y-69538142D02*
X158515523Y-69347666D01*
X158515523Y-69347666D02*
X158515523Y-69109571D01*
X158515523Y-69109571D02*
X158553619Y-68919095D01*
X158553619Y-68919095D02*
X158591714Y-68823857D01*
X158591714Y-68823857D02*
X158629809Y-68776238D01*
X158629809Y-68776238D02*
X158706000Y-68728619D01*
X159734571Y-69728619D02*
X159277428Y-69728619D01*
X159506000Y-69728619D02*
X159506000Y-68728619D01*
X159506000Y-68728619D02*
X159429809Y-68871476D01*
X159429809Y-68871476D02*
X159353619Y-68966714D01*
X159353619Y-68966714D02*
X159277428Y-69014333D01*
X160001238Y-69728619D02*
X160420286Y-69061952D01*
X160001238Y-69061952D02*
X160420286Y-69728619D01*
X160877429Y-68728619D02*
X160953619Y-68728619D01*
X160953619Y-68728619D02*
X161029810Y-68776238D01*
X161029810Y-68776238D02*
X161067905Y-68823857D01*
X161067905Y-68823857D02*
X161106000Y-68919095D01*
X161106000Y-68919095D02*
X161144095Y-69109571D01*
X161144095Y-69109571D02*
X161144095Y-69347666D01*
X161144095Y-69347666D02*
X161106000Y-69538142D01*
X161106000Y-69538142D02*
X161067905Y-69633380D01*
X161067905Y-69633380D02*
X161029810Y-69681000D01*
X161029810Y-69681000D02*
X160953619Y-69728619D01*
X160953619Y-69728619D02*
X160877429Y-69728619D01*
X160877429Y-69728619D02*
X160801238Y-69681000D01*
X160801238Y-69681000D02*
X160763143Y-69633380D01*
X160763143Y-69633380D02*
X160725048Y-69538142D01*
X160725048Y-69538142D02*
X160686952Y-69347666D01*
X160686952Y-69347666D02*
X160686952Y-69109571D01*
X160686952Y-69109571D02*
X160725048Y-68919095D01*
X160725048Y-68919095D02*
X160763143Y-68823857D01*
X160763143Y-68823857D02*
X160801238Y-68776238D01*
X160801238Y-68776238D02*
X160877429Y-68728619D01*
X161410762Y-68728619D02*
X161906000Y-68728619D01*
X161906000Y-68728619D02*
X161639334Y-69109571D01*
X161639334Y-69109571D02*
X161753619Y-69109571D01*
X161753619Y-69109571D02*
X161829810Y-69157190D01*
X161829810Y-69157190D02*
X161867905Y-69204809D01*
X161867905Y-69204809D02*
X161906000Y-69300047D01*
X161906000Y-69300047D02*
X161906000Y-69538142D01*
X161906000Y-69538142D02*
X161867905Y-69633380D01*
X161867905Y-69633380D02*
X161829810Y-69681000D01*
X161829810Y-69681000D02*
X161753619Y-69728619D01*
X161753619Y-69728619D02*
X161525048Y-69728619D01*
X161525048Y-69728619D02*
X161448857Y-69681000D01*
X161448857Y-69681000D02*
X161410762Y-69633380D01*
X162058382Y-69823857D02*
X162667905Y-69823857D01*
X162820286Y-69681000D02*
X162934572Y-69728619D01*
X162934572Y-69728619D02*
X163125048Y-69728619D01*
X163125048Y-69728619D02*
X163201239Y-69681000D01*
X163201239Y-69681000D02*
X163239334Y-69633380D01*
X163239334Y-69633380D02*
X163277429Y-69538142D01*
X163277429Y-69538142D02*
X163277429Y-69442904D01*
X163277429Y-69442904D02*
X163239334Y-69347666D01*
X163239334Y-69347666D02*
X163201239Y-69300047D01*
X163201239Y-69300047D02*
X163125048Y-69252428D01*
X163125048Y-69252428D02*
X162972667Y-69204809D01*
X162972667Y-69204809D02*
X162896477Y-69157190D01*
X162896477Y-69157190D02*
X162858382Y-69109571D01*
X162858382Y-69109571D02*
X162820286Y-69014333D01*
X162820286Y-69014333D02*
X162820286Y-68919095D01*
X162820286Y-68919095D02*
X162858382Y-68823857D01*
X162858382Y-68823857D02*
X162896477Y-68776238D01*
X162896477Y-68776238D02*
X162972667Y-68728619D01*
X162972667Y-68728619D02*
X163163144Y-68728619D01*
X163163144Y-68728619D02*
X163277429Y-68776238D01*
X163734572Y-69728619D02*
X163658382Y-69681000D01*
X163658382Y-69681000D02*
X163620287Y-69633380D01*
X163620287Y-69633380D02*
X163582191Y-69538142D01*
X163582191Y-69538142D02*
X163582191Y-69252428D01*
X163582191Y-69252428D02*
X163620287Y-69157190D01*
X163620287Y-69157190D02*
X163658382Y-69109571D01*
X163658382Y-69109571D02*
X163734572Y-69061952D01*
X163734572Y-69061952D02*
X163848858Y-69061952D01*
X163848858Y-69061952D02*
X163925049Y-69109571D01*
X163925049Y-69109571D02*
X163963144Y-69157190D01*
X163963144Y-69157190D02*
X164001239Y-69252428D01*
X164001239Y-69252428D02*
X164001239Y-69538142D01*
X164001239Y-69538142D02*
X163963144Y-69633380D01*
X163963144Y-69633380D02*
X163925049Y-69681000D01*
X163925049Y-69681000D02*
X163848858Y-69728619D01*
X163848858Y-69728619D02*
X163734572Y-69728619D01*
X164686954Y-69681000D02*
X164610763Y-69728619D01*
X164610763Y-69728619D02*
X164458382Y-69728619D01*
X164458382Y-69728619D02*
X164382192Y-69681000D01*
X164382192Y-69681000D02*
X164344097Y-69633380D01*
X164344097Y-69633380D02*
X164306001Y-69538142D01*
X164306001Y-69538142D02*
X164306001Y-69252428D01*
X164306001Y-69252428D02*
X164344097Y-69157190D01*
X164344097Y-69157190D02*
X164382192Y-69109571D01*
X164382192Y-69109571D02*
X164458382Y-69061952D01*
X164458382Y-69061952D02*
X164610763Y-69061952D01*
X164610763Y-69061952D02*
X164686954Y-69109571D01*
X165029811Y-69728619D02*
X165029811Y-68728619D01*
X165106001Y-69347666D02*
X165334573Y-69728619D01*
X165334573Y-69061952D02*
X165029811Y-69442904D01*
X165982192Y-69681000D02*
X165906001Y-69728619D01*
X165906001Y-69728619D02*
X165753620Y-69728619D01*
X165753620Y-69728619D02*
X165677430Y-69681000D01*
X165677430Y-69681000D02*
X165639334Y-69585761D01*
X165639334Y-69585761D02*
X165639334Y-69204809D01*
X165639334Y-69204809D02*
X165677430Y-69109571D01*
X165677430Y-69109571D02*
X165753620Y-69061952D01*
X165753620Y-69061952D02*
X165906001Y-69061952D01*
X165906001Y-69061952D02*
X165982192Y-69109571D01*
X165982192Y-69109571D02*
X166020287Y-69204809D01*
X166020287Y-69204809D02*
X166020287Y-69300047D01*
X166020287Y-69300047D02*
X165639334Y-69395285D01*
X166248858Y-69061952D02*
X166553620Y-69061952D01*
X166363144Y-68728619D02*
X166363144Y-69585761D01*
X166363144Y-69585761D02*
X166401239Y-69681000D01*
X166401239Y-69681000D02*
X166477429Y-69728619D01*
X166477429Y-69728619D02*
X166553620Y-69728619D01*
X153173333Y-70395380D02*
X153125714Y-70443000D01*
X153125714Y-70443000D02*
X152982857Y-70490619D01*
X152982857Y-70490619D02*
X152887619Y-70490619D01*
X152887619Y-70490619D02*
X152744762Y-70443000D01*
X152744762Y-70443000D02*
X152649524Y-70347761D01*
X152649524Y-70347761D02*
X152601905Y-70252523D01*
X152601905Y-70252523D02*
X152554286Y-70062047D01*
X152554286Y-70062047D02*
X152554286Y-69919190D01*
X152554286Y-69919190D02*
X152601905Y-69728714D01*
X152601905Y-69728714D02*
X152649524Y-69633476D01*
X152649524Y-69633476D02*
X152744762Y-69538238D01*
X152744762Y-69538238D02*
X152887619Y-69490619D01*
X152887619Y-69490619D02*
X152982857Y-69490619D01*
X152982857Y-69490619D02*
X153125714Y-69538238D01*
X153125714Y-69538238D02*
X153173333Y-69585857D01*
X153554286Y-69585857D02*
X153601905Y-69538238D01*
X153601905Y-69538238D02*
X153697143Y-69490619D01*
X153697143Y-69490619D02*
X153935238Y-69490619D01*
X153935238Y-69490619D02*
X154030476Y-69538238D01*
X154030476Y-69538238D02*
X154078095Y-69585857D01*
X154078095Y-69585857D02*
X154125714Y-69681095D01*
X154125714Y-69681095D02*
X154125714Y-69776333D01*
X154125714Y-69776333D02*
X154078095Y-69919190D01*
X154078095Y-69919190D02*
X153506667Y-70490619D01*
X153506667Y-70490619D02*
X154125714Y-70490619D01*
X144997809Y-75665952D02*
X144997809Y-76332619D01*
X144759714Y-75285000D02*
X144521619Y-75999285D01*
X144521619Y-75999285D02*
X145140666Y-75999285D01*
X145521619Y-76237380D02*
X145569238Y-76285000D01*
X145569238Y-76285000D02*
X145521619Y-76332619D01*
X145521619Y-76332619D02*
X145474000Y-76285000D01*
X145474000Y-76285000D02*
X145521619Y-76237380D01*
X145521619Y-76237380D02*
X145521619Y-76332619D01*
X145902571Y-75332619D02*
X146569237Y-75332619D01*
X146569237Y-75332619D02*
X146140666Y-76332619D01*
X147378761Y-75665952D02*
X147378761Y-76332619D01*
X146950190Y-75665952D02*
X146950190Y-76189761D01*
X146950190Y-76189761D02*
X146997809Y-76285000D01*
X146997809Y-76285000D02*
X147093047Y-76332619D01*
X147093047Y-76332619D02*
X147235904Y-76332619D01*
X147235904Y-76332619D02*
X147331142Y-76285000D01*
X147331142Y-76285000D02*
X147378761Y-76237380D01*
X162658666Y-89810619D02*
X162658666Y-90524904D01*
X162658666Y-90524904D02*
X162611047Y-90667761D01*
X162611047Y-90667761D02*
X162515809Y-90763000D01*
X162515809Y-90763000D02*
X162372952Y-90810619D01*
X162372952Y-90810619D02*
X162277714Y-90810619D01*
X163039619Y-89810619D02*
X163658666Y-89810619D01*
X163658666Y-89810619D02*
X163325333Y-90191571D01*
X163325333Y-90191571D02*
X163468190Y-90191571D01*
X163468190Y-90191571D02*
X163563428Y-90239190D01*
X163563428Y-90239190D02*
X163611047Y-90286809D01*
X163611047Y-90286809D02*
X163658666Y-90382047D01*
X163658666Y-90382047D02*
X163658666Y-90620142D01*
X163658666Y-90620142D02*
X163611047Y-90715380D01*
X163611047Y-90715380D02*
X163563428Y-90763000D01*
X163563428Y-90763000D02*
X163468190Y-90810619D01*
X163468190Y-90810619D02*
X163182476Y-90810619D01*
X163182476Y-90810619D02*
X163087238Y-90763000D01*
X163087238Y-90763000D02*
X163039619Y-90715380D01*
X164786000Y-88016619D02*
X164786000Y-87016619D01*
X165262190Y-88016619D02*
X165262190Y-87016619D01*
X165262190Y-87016619D02*
X165833618Y-88016619D01*
X165833618Y-88016619D02*
X165833618Y-87016619D01*
X166262190Y-87111857D02*
X166309809Y-87064238D01*
X166309809Y-87064238D02*
X166405047Y-87016619D01*
X166405047Y-87016619D02*
X166643142Y-87016619D01*
X166643142Y-87016619D02*
X166738380Y-87064238D01*
X166738380Y-87064238D02*
X166785999Y-87111857D01*
X166785999Y-87111857D02*
X166833618Y-87207095D01*
X166833618Y-87207095D02*
X166833618Y-87302333D01*
X166833618Y-87302333D02*
X166785999Y-87445190D01*
X166785999Y-87445190D02*
X166214571Y-88016619D01*
X166214571Y-88016619D02*
X166833618Y-88016619D01*
X154038667Y-56981000D02*
X154181524Y-57028619D01*
X154181524Y-57028619D02*
X154419619Y-57028619D01*
X154419619Y-57028619D02*
X154514857Y-56981000D01*
X154514857Y-56981000D02*
X154562476Y-56933380D01*
X154562476Y-56933380D02*
X154610095Y-56838142D01*
X154610095Y-56838142D02*
X154610095Y-56742904D01*
X154610095Y-56742904D02*
X154562476Y-56647666D01*
X154562476Y-56647666D02*
X154514857Y-56600047D01*
X154514857Y-56600047D02*
X154419619Y-56552428D01*
X154419619Y-56552428D02*
X154229143Y-56504809D01*
X154229143Y-56504809D02*
X154133905Y-56457190D01*
X154133905Y-56457190D02*
X154086286Y-56409571D01*
X154086286Y-56409571D02*
X154038667Y-56314333D01*
X154038667Y-56314333D02*
X154038667Y-56219095D01*
X154038667Y-56219095D02*
X154086286Y-56123857D01*
X154086286Y-56123857D02*
X154133905Y-56076238D01*
X154133905Y-56076238D02*
X154229143Y-56028619D01*
X154229143Y-56028619D02*
X154467238Y-56028619D01*
X154467238Y-56028619D02*
X154610095Y-56076238D01*
X154943429Y-56028619D02*
X155181524Y-57028619D01*
X155181524Y-57028619D02*
X155372000Y-56314333D01*
X155372000Y-56314333D02*
X155562476Y-57028619D01*
X155562476Y-57028619D02*
X155800572Y-56028619D01*
X156705333Y-57028619D02*
X156133905Y-57028619D01*
X156419619Y-57028619D02*
X156419619Y-56028619D01*
X156419619Y-56028619D02*
X156324381Y-56171476D01*
X156324381Y-56171476D02*
X156229143Y-56266714D01*
X156229143Y-56266714D02*
X156133905Y-56314333D01*
X165403000Y-59867618D02*
X165450619Y-59724761D01*
X165450619Y-59724761D02*
X165450619Y-59486666D01*
X165450619Y-59486666D02*
X165403000Y-59391428D01*
X165403000Y-59391428D02*
X165355380Y-59343809D01*
X165355380Y-59343809D02*
X165260142Y-59296190D01*
X165260142Y-59296190D02*
X165164904Y-59296190D01*
X165164904Y-59296190D02*
X165069666Y-59343809D01*
X165069666Y-59343809D02*
X165022047Y-59391428D01*
X165022047Y-59391428D02*
X164974428Y-59486666D01*
X164974428Y-59486666D02*
X164926809Y-59677142D01*
X164926809Y-59677142D02*
X164879190Y-59772380D01*
X164879190Y-59772380D02*
X164831571Y-59819999D01*
X164831571Y-59819999D02*
X164736333Y-59867618D01*
X164736333Y-59867618D02*
X164641095Y-59867618D01*
X164641095Y-59867618D02*
X164545857Y-59819999D01*
X164545857Y-59819999D02*
X164498238Y-59772380D01*
X164498238Y-59772380D02*
X164450619Y-59677142D01*
X164450619Y-59677142D02*
X164450619Y-59439047D01*
X164450619Y-59439047D02*
X164498238Y-59296190D01*
X164450619Y-58962856D02*
X165450619Y-58724761D01*
X165450619Y-58724761D02*
X164736333Y-58534285D01*
X164736333Y-58534285D02*
X165450619Y-58343809D01*
X165450619Y-58343809D02*
X164450619Y-58105714D01*
X165545857Y-57962857D02*
X165545857Y-57200952D01*
X165450619Y-56962856D02*
X164450619Y-56962856D01*
X164450619Y-56962856D02*
X164450619Y-56581904D01*
X164450619Y-56581904D02*
X164498238Y-56486666D01*
X164498238Y-56486666D02*
X164545857Y-56439047D01*
X164545857Y-56439047D02*
X164641095Y-56391428D01*
X164641095Y-56391428D02*
X164783952Y-56391428D01*
X164783952Y-56391428D02*
X164879190Y-56439047D01*
X164879190Y-56439047D02*
X164926809Y-56486666D01*
X164926809Y-56486666D02*
X164974428Y-56581904D01*
X164974428Y-56581904D02*
X164974428Y-56962856D01*
X164783952Y-55534285D02*
X165450619Y-55534285D01*
X164783952Y-55962856D02*
X165307761Y-55962856D01*
X165307761Y-55962856D02*
X165403000Y-55915237D01*
X165403000Y-55915237D02*
X165450619Y-55819999D01*
X165450619Y-55819999D02*
X165450619Y-55677142D01*
X165450619Y-55677142D02*
X165403000Y-55581904D01*
X165403000Y-55581904D02*
X165355380Y-55534285D01*
X165403000Y-55105713D02*
X165450619Y-55010475D01*
X165450619Y-55010475D02*
X165450619Y-54819999D01*
X165450619Y-54819999D02*
X165403000Y-54724761D01*
X165403000Y-54724761D02*
X165307761Y-54677142D01*
X165307761Y-54677142D02*
X165260142Y-54677142D01*
X165260142Y-54677142D02*
X165164904Y-54724761D01*
X165164904Y-54724761D02*
X165117285Y-54819999D01*
X165117285Y-54819999D02*
X165117285Y-54962856D01*
X165117285Y-54962856D02*
X165069666Y-55058094D01*
X165069666Y-55058094D02*
X164974428Y-55105713D01*
X164974428Y-55105713D02*
X164926809Y-55105713D01*
X164926809Y-55105713D02*
X164831571Y-55058094D01*
X164831571Y-55058094D02*
X164783952Y-54962856D01*
X164783952Y-54962856D02*
X164783952Y-54819999D01*
X164783952Y-54819999D02*
X164831571Y-54724761D01*
X165450619Y-54248570D02*
X164450619Y-54248570D01*
X165450619Y-53819999D02*
X164926809Y-53819999D01*
X164926809Y-53819999D02*
X164831571Y-53867618D01*
X164831571Y-53867618D02*
X164783952Y-53962856D01*
X164783952Y-53962856D02*
X164783952Y-54105713D01*
X164783952Y-54105713D02*
X164831571Y-54200951D01*
X164831571Y-54200951D02*
X164879190Y-54248570D01*
X162912666Y-84476619D02*
X162912666Y-85190904D01*
X162912666Y-85190904D02*
X162865047Y-85333761D01*
X162865047Y-85333761D02*
X162769809Y-85429000D01*
X162769809Y-85429000D02*
X162626952Y-85476619D01*
X162626952Y-85476619D02*
X162531714Y-85476619D01*
X163341238Y-84571857D02*
X163388857Y-84524238D01*
X163388857Y-84524238D02*
X163484095Y-84476619D01*
X163484095Y-84476619D02*
X163722190Y-84476619D01*
X163722190Y-84476619D02*
X163817428Y-84524238D01*
X163817428Y-84524238D02*
X163865047Y-84571857D01*
X163865047Y-84571857D02*
X163912666Y-84667095D01*
X163912666Y-84667095D02*
X163912666Y-84762333D01*
X163912666Y-84762333D02*
X163865047Y-84905190D01*
X163865047Y-84905190D02*
X163293619Y-85476619D01*
X163293619Y-85476619D02*
X163912666Y-85476619D01*
X164786000Y-82682619D02*
X164786000Y-81682619D01*
X165262190Y-82682619D02*
X165262190Y-81682619D01*
X165262190Y-81682619D02*
X165833618Y-82682619D01*
X165833618Y-82682619D02*
X165833618Y-81682619D01*
X166833618Y-82682619D02*
X166262190Y-82682619D01*
X166547904Y-82682619D02*
X166547904Y-81682619D01*
X166547904Y-81682619D02*
X166452666Y-81825476D01*
X166452666Y-81825476D02*
X166357428Y-81920714D01*
X166357428Y-81920714D02*
X166262190Y-81968333D01*
X126249333Y-75316619D02*
X125916000Y-74840428D01*
X125677905Y-75316619D02*
X125677905Y-74316619D01*
X125677905Y-74316619D02*
X126058857Y-74316619D01*
X126058857Y-74316619D02*
X126154095Y-74364238D01*
X126154095Y-74364238D02*
X126201714Y-74411857D01*
X126201714Y-74411857D02*
X126249333Y-74507095D01*
X126249333Y-74507095D02*
X126249333Y-74649952D01*
X126249333Y-74649952D02*
X126201714Y-74745190D01*
X126201714Y-74745190D02*
X126154095Y-74792809D01*
X126154095Y-74792809D02*
X126058857Y-74840428D01*
X126058857Y-74840428D02*
X125677905Y-74840428D01*
X127154095Y-74316619D02*
X126677905Y-74316619D01*
X126677905Y-74316619D02*
X126630286Y-74792809D01*
X126630286Y-74792809D02*
X126677905Y-74745190D01*
X126677905Y-74745190D02*
X126773143Y-74697571D01*
X126773143Y-74697571D02*
X127011238Y-74697571D01*
X127011238Y-74697571D02*
X127106476Y-74745190D01*
X127106476Y-74745190D02*
X127154095Y-74792809D01*
X127154095Y-74792809D02*
X127201714Y-74888047D01*
X127201714Y-74888047D02*
X127201714Y-75126142D01*
X127201714Y-75126142D02*
X127154095Y-75221380D01*
X127154095Y-75221380D02*
X127106476Y-75269000D01*
X127106476Y-75269000D02*
X127011238Y-75316619D01*
X127011238Y-75316619D02*
X126773143Y-75316619D01*
X126773143Y-75316619D02*
X126677905Y-75269000D01*
X126677905Y-75269000D02*
X126630286Y-75221380D01*
X135361714Y-79142619D02*
X135980761Y-79142619D01*
X135980761Y-79142619D02*
X135647428Y-79523571D01*
X135647428Y-79523571D02*
X135790285Y-79523571D01*
X135790285Y-79523571D02*
X135885523Y-79571190D01*
X135885523Y-79571190D02*
X135933142Y-79618809D01*
X135933142Y-79618809D02*
X135980761Y-79714047D01*
X135980761Y-79714047D02*
X135980761Y-79952142D01*
X135980761Y-79952142D02*
X135933142Y-80047380D01*
X135933142Y-80047380D02*
X135885523Y-80095000D01*
X135885523Y-80095000D02*
X135790285Y-80142619D01*
X135790285Y-80142619D02*
X135504571Y-80142619D01*
X135504571Y-80142619D02*
X135409333Y-80095000D01*
X135409333Y-80095000D02*
X135361714Y-80047380D01*
X136314095Y-79142619D02*
X136933142Y-79142619D01*
X136933142Y-79142619D02*
X136599809Y-79523571D01*
X136599809Y-79523571D02*
X136742666Y-79523571D01*
X136742666Y-79523571D02*
X136837904Y-79571190D01*
X136837904Y-79571190D02*
X136885523Y-79618809D01*
X136885523Y-79618809D02*
X136933142Y-79714047D01*
X136933142Y-79714047D02*
X136933142Y-79952142D01*
X136933142Y-79952142D02*
X136885523Y-80047380D01*
X136885523Y-80047380D02*
X136837904Y-80095000D01*
X136837904Y-80095000D02*
X136742666Y-80142619D01*
X136742666Y-80142619D02*
X136456952Y-80142619D01*
X136456952Y-80142619D02*
X136361714Y-80095000D01*
X136361714Y-80095000D02*
X136314095Y-80047380D01*
X137361714Y-80142619D02*
X137361714Y-79142619D01*
X137456952Y-79761666D02*
X137742666Y-80142619D01*
X137742666Y-79475952D02*
X137361714Y-79856904D01*
X148250095Y-90098619D02*
X148250095Y-90908142D01*
X148250095Y-90908142D02*
X148297714Y-91003380D01*
X148297714Y-91003380D02*
X148345333Y-91051000D01*
X148345333Y-91051000D02*
X148440571Y-91098619D01*
X148440571Y-91098619D02*
X148631047Y-91098619D01*
X148631047Y-91098619D02*
X148726285Y-91051000D01*
X148726285Y-91051000D02*
X148773904Y-91003380D01*
X148773904Y-91003380D02*
X148821523Y-90908142D01*
X148821523Y-90908142D02*
X148821523Y-90098619D01*
X149821523Y-91098619D02*
X149250095Y-91098619D01*
X149535809Y-91098619D02*
X149535809Y-90098619D01*
X149535809Y-90098619D02*
X149440571Y-90241476D01*
X149440571Y-90241476D02*
X149345333Y-90336714D01*
X149345333Y-90336714D02*
X149250095Y-90384333D01*
X146059619Y-77818619D02*
X146250095Y-77818619D01*
X146250095Y-77818619D02*
X146345333Y-77866238D01*
X146345333Y-77866238D02*
X146440571Y-77961476D01*
X146440571Y-77961476D02*
X146488190Y-78151952D01*
X146488190Y-78151952D02*
X146488190Y-78485285D01*
X146488190Y-78485285D02*
X146440571Y-78675761D01*
X146440571Y-78675761D02*
X146345333Y-78771000D01*
X146345333Y-78771000D02*
X146250095Y-78818619D01*
X146250095Y-78818619D02*
X146059619Y-78818619D01*
X146059619Y-78818619D02*
X145964381Y-78771000D01*
X145964381Y-78771000D02*
X145869143Y-78675761D01*
X145869143Y-78675761D02*
X145821524Y-78485285D01*
X145821524Y-78485285D02*
X145821524Y-78151952D01*
X145821524Y-78151952D02*
X145869143Y-77961476D01*
X145869143Y-77961476D02*
X145964381Y-77866238D01*
X145964381Y-77866238D02*
X146059619Y-77818619D01*
X146916762Y-78818619D02*
X146916762Y-77818619D01*
X146916762Y-77818619D02*
X147297714Y-77818619D01*
X147297714Y-77818619D02*
X147392952Y-77866238D01*
X147392952Y-77866238D02*
X147440571Y-77913857D01*
X147440571Y-77913857D02*
X147488190Y-78009095D01*
X147488190Y-78009095D02*
X147488190Y-78151952D01*
X147488190Y-78151952D02*
X147440571Y-78247190D01*
X147440571Y-78247190D02*
X147392952Y-78294809D01*
X147392952Y-78294809D02*
X147297714Y-78342428D01*
X147297714Y-78342428D02*
X146916762Y-78342428D01*
X147869143Y-78532904D02*
X148345333Y-78532904D01*
X147773905Y-78818619D02*
X148107238Y-77818619D01*
X148107238Y-77818619D02*
X148440571Y-78818619D01*
X148678667Y-77818619D02*
X149297714Y-77818619D01*
X149297714Y-77818619D02*
X148964381Y-78199571D01*
X148964381Y-78199571D02*
X149107238Y-78199571D01*
X149107238Y-78199571D02*
X149202476Y-78247190D01*
X149202476Y-78247190D02*
X149250095Y-78294809D01*
X149250095Y-78294809D02*
X149297714Y-78390047D01*
X149297714Y-78390047D02*
X149297714Y-78628142D01*
X149297714Y-78628142D02*
X149250095Y-78723380D01*
X149250095Y-78723380D02*
X149202476Y-78771000D01*
X149202476Y-78771000D02*
X149107238Y-78818619D01*
X149107238Y-78818619D02*
X148821524Y-78818619D01*
X148821524Y-78818619D02*
X148726286Y-78771000D01*
X148726286Y-78771000D02*
X148678667Y-78723380D01*
X150154857Y-78151952D02*
X150154857Y-78818619D01*
X149916762Y-77771000D02*
X149678667Y-78485285D01*
X149678667Y-78485285D02*
X150297714Y-78485285D01*
X150869143Y-77818619D02*
X150964381Y-77818619D01*
X150964381Y-77818619D02*
X151059619Y-77866238D01*
X151059619Y-77866238D02*
X151107238Y-77913857D01*
X151107238Y-77913857D02*
X151154857Y-78009095D01*
X151154857Y-78009095D02*
X151202476Y-78199571D01*
X151202476Y-78199571D02*
X151202476Y-78437666D01*
X151202476Y-78437666D02*
X151154857Y-78628142D01*
X151154857Y-78628142D02*
X151107238Y-78723380D01*
X151107238Y-78723380D02*
X151059619Y-78771000D01*
X151059619Y-78771000D02*
X150964381Y-78818619D01*
X150964381Y-78818619D02*
X150869143Y-78818619D01*
X150869143Y-78818619D02*
X150773905Y-78771000D01*
X150773905Y-78771000D02*
X150726286Y-78723380D01*
X150726286Y-78723380D02*
X150678667Y-78628142D01*
X150678667Y-78628142D02*
X150631048Y-78437666D01*
X150631048Y-78437666D02*
X150631048Y-78199571D01*
X150631048Y-78199571D02*
X150678667Y-78009095D01*
X150678667Y-78009095D02*
X150726286Y-77913857D01*
X150726286Y-77913857D02*
X150773905Y-77866238D01*
X150773905Y-77866238D02*
X150869143Y-77818619D01*
X151631048Y-78818619D02*
X151631048Y-77818619D01*
X151631048Y-77818619D02*
X152012000Y-77818619D01*
X152012000Y-77818619D02*
X152107238Y-77866238D01*
X152107238Y-77866238D02*
X152154857Y-77913857D01*
X152154857Y-77913857D02*
X152202476Y-78009095D01*
X152202476Y-78009095D02*
X152202476Y-78151952D01*
X152202476Y-78151952D02*
X152154857Y-78247190D01*
X152154857Y-78247190D02*
X152107238Y-78294809D01*
X152107238Y-78294809D02*
X152012000Y-78342428D01*
X152012000Y-78342428D02*
X151631048Y-78342428D01*
X126336666Y-66188619D02*
X126336666Y-66902904D01*
X126336666Y-66902904D02*
X126289047Y-67045761D01*
X126289047Y-67045761D02*
X126193809Y-67141000D01*
X126193809Y-67141000D02*
X126050952Y-67188619D01*
X126050952Y-67188619D02*
X125955714Y-67188619D01*
X127289047Y-66188619D02*
X126812857Y-66188619D01*
X126812857Y-66188619D02*
X126765238Y-66664809D01*
X126765238Y-66664809D02*
X126812857Y-66617190D01*
X126812857Y-66617190D02*
X126908095Y-66569571D01*
X126908095Y-66569571D02*
X127146190Y-66569571D01*
X127146190Y-66569571D02*
X127241428Y-66617190D01*
X127241428Y-66617190D02*
X127289047Y-66664809D01*
X127289047Y-66664809D02*
X127336666Y-66760047D01*
X127336666Y-66760047D02*
X127336666Y-66998142D01*
X127336666Y-66998142D02*
X127289047Y-67093380D01*
X127289047Y-67093380D02*
X127241428Y-67141000D01*
X127241428Y-67141000D02*
X127146190Y-67188619D01*
X127146190Y-67188619D02*
X126908095Y-67188619D01*
X126908095Y-67188619D02*
X126812857Y-67141000D01*
X126812857Y-67141000D02*
X126765238Y-67093380D01*
X129226000Y-63886619D02*
X129226000Y-62886619D01*
X129702190Y-63886619D02*
X129702190Y-62886619D01*
X129702190Y-62886619D02*
X130273618Y-63886619D01*
X130273618Y-63886619D02*
X130273618Y-62886619D01*
X130654571Y-62886619D02*
X131273618Y-62886619D01*
X131273618Y-62886619D02*
X130940285Y-63267571D01*
X130940285Y-63267571D02*
X131083142Y-63267571D01*
X131083142Y-63267571D02*
X131178380Y-63315190D01*
X131178380Y-63315190D02*
X131225999Y-63362809D01*
X131225999Y-63362809D02*
X131273618Y-63458047D01*
X131273618Y-63458047D02*
X131273618Y-63696142D01*
X131273618Y-63696142D02*
X131225999Y-63791380D01*
X131225999Y-63791380D02*
X131178380Y-63839000D01*
X131178380Y-63839000D02*
X131083142Y-63886619D01*
X131083142Y-63886619D02*
X130797428Y-63886619D01*
X130797428Y-63886619D02*
X130702190Y-63839000D01*
X130702190Y-63839000D02*
X130654571Y-63791380D01*
X155038666Y-90064619D02*
X155038666Y-90778904D01*
X155038666Y-90778904D02*
X154991047Y-90921761D01*
X154991047Y-90921761D02*
X154895809Y-91017000D01*
X154895809Y-91017000D02*
X154752952Y-91064619D01*
X154752952Y-91064619D02*
X154657714Y-91064619D01*
X155419619Y-90064619D02*
X156086285Y-90064619D01*
X156086285Y-90064619D02*
X155657714Y-91064619D01*
X154864190Y-92604619D02*
X155197523Y-93604619D01*
X155197523Y-93604619D02*
X155530856Y-92604619D01*
X156007047Y-93604619D02*
X155911809Y-93557000D01*
X155911809Y-93557000D02*
X155864190Y-93509380D01*
X155864190Y-93509380D02*
X155816571Y-93414142D01*
X155816571Y-93414142D02*
X155816571Y-93128428D01*
X155816571Y-93128428D02*
X155864190Y-93033190D01*
X155864190Y-93033190D02*
X155911809Y-92985571D01*
X155911809Y-92985571D02*
X156007047Y-92937952D01*
X156007047Y-92937952D02*
X156149904Y-92937952D01*
X156149904Y-92937952D02*
X156245142Y-92985571D01*
X156245142Y-92985571D02*
X156292761Y-93033190D01*
X156292761Y-93033190D02*
X156340380Y-93128428D01*
X156340380Y-93128428D02*
X156340380Y-93414142D01*
X156340380Y-93414142D02*
X156292761Y-93509380D01*
X156292761Y-93509380D02*
X156245142Y-93557000D01*
X156245142Y-93557000D02*
X156149904Y-93604619D01*
X156149904Y-93604619D02*
X156007047Y-93604619D01*
X157197523Y-92937952D02*
X157197523Y-93604619D01*
X156768952Y-92937952D02*
X156768952Y-93461761D01*
X156768952Y-93461761D02*
X156816571Y-93557000D01*
X156816571Y-93557000D02*
X156911809Y-93604619D01*
X156911809Y-93604619D02*
X157054666Y-93604619D01*
X157054666Y-93604619D02*
X157149904Y-93557000D01*
X157149904Y-93557000D02*
X157197523Y-93509380D01*
X157530857Y-92937952D02*
X157911809Y-92937952D01*
X157673714Y-92604619D02*
X157673714Y-93461761D01*
X157673714Y-93461761D02*
X157721333Y-93557000D01*
X157721333Y-93557000D02*
X157816571Y-93604619D01*
X157816571Y-93604619D02*
X157911809Y-93604619D01*
X108977333Y-96398619D02*
X108644000Y-95922428D01*
X108405905Y-96398619D02*
X108405905Y-95398619D01*
X108405905Y-95398619D02*
X108786857Y-95398619D01*
X108786857Y-95398619D02*
X108882095Y-95446238D01*
X108882095Y-95446238D02*
X108929714Y-95493857D01*
X108929714Y-95493857D02*
X108977333Y-95589095D01*
X108977333Y-95589095D02*
X108977333Y-95731952D01*
X108977333Y-95731952D02*
X108929714Y-95827190D01*
X108929714Y-95827190D02*
X108882095Y-95874809D01*
X108882095Y-95874809D02*
X108786857Y-95922428D01*
X108786857Y-95922428D02*
X108405905Y-95922428D01*
X109358286Y-95493857D02*
X109405905Y-95446238D01*
X109405905Y-95446238D02*
X109501143Y-95398619D01*
X109501143Y-95398619D02*
X109739238Y-95398619D01*
X109739238Y-95398619D02*
X109834476Y-95446238D01*
X109834476Y-95446238D02*
X109882095Y-95493857D01*
X109882095Y-95493857D02*
X109929714Y-95589095D01*
X109929714Y-95589095D02*
X109929714Y-95684333D01*
X109929714Y-95684333D02*
X109882095Y-95827190D01*
X109882095Y-95827190D02*
X109310667Y-96398619D01*
X109310667Y-96398619D02*
X109929714Y-96398619D01*
X109278952Y-82174619D02*
X108707524Y-82174619D01*
X108993238Y-82174619D02*
X108993238Y-81174619D01*
X108993238Y-81174619D02*
X108898000Y-81317476D01*
X108898000Y-81317476D02*
X108802762Y-81412714D01*
X108802762Y-81412714D02*
X108707524Y-81460333D01*
X109707524Y-82174619D02*
X109707524Y-81174619D01*
X109802762Y-81793666D02*
X110088476Y-82174619D01*
X110088476Y-81507952D02*
X109707524Y-81888904D01*
X116464619Y-75242857D02*
X115988428Y-75576190D01*
X116464619Y-75814285D02*
X115464619Y-75814285D01*
X115464619Y-75814285D02*
X115464619Y-75433333D01*
X115464619Y-75433333D02*
X115512238Y-75338095D01*
X115512238Y-75338095D02*
X115559857Y-75290476D01*
X115559857Y-75290476D02*
X115655095Y-75242857D01*
X115655095Y-75242857D02*
X115797952Y-75242857D01*
X115797952Y-75242857D02*
X115893190Y-75290476D01*
X115893190Y-75290476D02*
X115940809Y-75338095D01*
X115940809Y-75338095D02*
X115988428Y-75433333D01*
X115988428Y-75433333D02*
X115988428Y-75814285D01*
X116464619Y-74290476D02*
X116464619Y-74861904D01*
X116464619Y-74576190D02*
X115464619Y-74576190D01*
X115464619Y-74576190D02*
X115607476Y-74671428D01*
X115607476Y-74671428D02*
X115702714Y-74766666D01*
X115702714Y-74766666D02*
X115750333Y-74861904D01*
X116464619Y-73338095D02*
X116464619Y-73909523D01*
X116464619Y-73623809D02*
X115464619Y-73623809D01*
X115464619Y-73623809D02*
X115607476Y-73719047D01*
X115607476Y-73719047D02*
X115702714Y-73814285D01*
X115702714Y-73814285D02*
X115750333Y-73909523D01*
X115797952Y-65455904D02*
X116464619Y-65455904D01*
X115417000Y-65693999D02*
X116131285Y-65932094D01*
X116131285Y-65932094D02*
X116131285Y-65313047D01*
X115464619Y-65027332D02*
X115464619Y-64360666D01*
X115464619Y-64360666D02*
X116464619Y-64789237D01*
X115464619Y-63789237D02*
X115464619Y-63693999D01*
X115464619Y-63693999D02*
X115512238Y-63598761D01*
X115512238Y-63598761D02*
X115559857Y-63551142D01*
X115559857Y-63551142D02*
X115655095Y-63503523D01*
X115655095Y-63503523D02*
X115845571Y-63455904D01*
X115845571Y-63455904D02*
X116083666Y-63455904D01*
X116083666Y-63455904D02*
X116274142Y-63503523D01*
X116274142Y-63503523D02*
X116369380Y-63551142D01*
X116369380Y-63551142D02*
X116417000Y-63598761D01*
X116417000Y-63598761D02*
X116464619Y-63693999D01*
X116464619Y-63693999D02*
X116464619Y-63789237D01*
X116464619Y-63789237D02*
X116417000Y-63884475D01*
X116417000Y-63884475D02*
X116369380Y-63932094D01*
X116369380Y-63932094D02*
X116274142Y-63979713D01*
X116274142Y-63979713D02*
X116083666Y-64027332D01*
X116083666Y-64027332D02*
X115845571Y-64027332D01*
X115845571Y-64027332D02*
X115655095Y-63979713D01*
X115655095Y-63979713D02*
X115559857Y-63932094D01*
X115559857Y-63932094D02*
X115512238Y-63884475D01*
X115512238Y-63884475D02*
X115464619Y-63789237D01*
X109860619Y-76227047D02*
X109860619Y-76703237D01*
X109860619Y-76703237D02*
X108860619Y-76703237D01*
X109336809Y-75893713D02*
X109336809Y-75560380D01*
X109860619Y-75417523D02*
X109860619Y-75893713D01*
X109860619Y-75893713D02*
X108860619Y-75893713D01*
X108860619Y-75893713D02*
X108860619Y-75417523D01*
X109860619Y-74988951D02*
X108860619Y-74988951D01*
X108860619Y-74988951D02*
X108860619Y-74750856D01*
X108860619Y-74750856D02*
X108908238Y-74607999D01*
X108908238Y-74607999D02*
X109003476Y-74512761D01*
X109003476Y-74512761D02*
X109098714Y-74465142D01*
X109098714Y-74465142D02*
X109289190Y-74417523D01*
X109289190Y-74417523D02*
X109432047Y-74417523D01*
X109432047Y-74417523D02*
X109622523Y-74465142D01*
X109622523Y-74465142D02*
X109717761Y-74512761D01*
X109717761Y-74512761D02*
X109813000Y-74607999D01*
X109813000Y-74607999D02*
X109860619Y-74750856D01*
X109860619Y-74750856D02*
X109860619Y-74988951D01*
X109193952Y-73560380D02*
X109860619Y-73560380D01*
X108813000Y-73798475D02*
X109527285Y-74036570D01*
X109527285Y-74036570D02*
X109527285Y-73417523D01*
X101732619Y-78108095D02*
X101256428Y-78441428D01*
X101732619Y-78679523D02*
X100732619Y-78679523D01*
X100732619Y-78679523D02*
X100732619Y-78298571D01*
X100732619Y-78298571D02*
X100780238Y-78203333D01*
X100780238Y-78203333D02*
X100827857Y-78155714D01*
X100827857Y-78155714D02*
X100923095Y-78108095D01*
X100923095Y-78108095D02*
X101065952Y-78108095D01*
X101065952Y-78108095D02*
X101161190Y-78155714D01*
X101161190Y-78155714D02*
X101208809Y-78203333D01*
X101208809Y-78203333D02*
X101256428Y-78298571D01*
X101256428Y-78298571D02*
X101256428Y-78679523D01*
X101685000Y-77298571D02*
X101732619Y-77393809D01*
X101732619Y-77393809D02*
X101732619Y-77584285D01*
X101732619Y-77584285D02*
X101685000Y-77679523D01*
X101685000Y-77679523D02*
X101589761Y-77727142D01*
X101589761Y-77727142D02*
X101208809Y-77727142D01*
X101208809Y-77727142D02*
X101113571Y-77679523D01*
X101113571Y-77679523D02*
X101065952Y-77584285D01*
X101065952Y-77584285D02*
X101065952Y-77393809D01*
X101065952Y-77393809D02*
X101113571Y-77298571D01*
X101113571Y-77298571D02*
X101208809Y-77250952D01*
X101208809Y-77250952D02*
X101304047Y-77250952D01*
X101304047Y-77250952D02*
X101399285Y-77727142D01*
X101732619Y-76393809D02*
X100732619Y-76393809D01*
X101685000Y-76393809D02*
X101732619Y-76489047D01*
X101732619Y-76489047D02*
X101732619Y-76679523D01*
X101732619Y-76679523D02*
X101685000Y-76774761D01*
X101685000Y-76774761D02*
X101637380Y-76822380D01*
X101637380Y-76822380D02*
X101542142Y-76869999D01*
X101542142Y-76869999D02*
X101256428Y-76869999D01*
X101256428Y-76869999D02*
X101161190Y-76822380D01*
X101161190Y-76822380D02*
X101113571Y-76774761D01*
X101113571Y-76774761D02*
X101065952Y-76679523D01*
X101065952Y-76679523D02*
X101065952Y-76489047D01*
X101065952Y-76489047D02*
X101113571Y-76393809D01*
X101827857Y-76155714D02*
X101827857Y-75393809D01*
X101732619Y-74679523D02*
X101732619Y-75155713D01*
X101732619Y-75155713D02*
X100732619Y-75155713D01*
X101685000Y-73965237D02*
X101732619Y-74060475D01*
X101732619Y-74060475D02*
X101732619Y-74250951D01*
X101732619Y-74250951D02*
X101685000Y-74346189D01*
X101685000Y-74346189D02*
X101589761Y-74393808D01*
X101589761Y-74393808D02*
X101208809Y-74393808D01*
X101208809Y-74393808D02*
X101113571Y-74346189D01*
X101113571Y-74346189D02*
X101065952Y-74250951D01*
X101065952Y-74250951D02*
X101065952Y-74060475D01*
X101065952Y-74060475D02*
X101113571Y-73965237D01*
X101113571Y-73965237D02*
X101208809Y-73917618D01*
X101208809Y-73917618D02*
X101304047Y-73917618D01*
X101304047Y-73917618D02*
X101399285Y-74393808D01*
X101732619Y-73060475D02*
X100732619Y-73060475D01*
X101685000Y-73060475D02*
X101732619Y-73155713D01*
X101732619Y-73155713D02*
X101732619Y-73346189D01*
X101732619Y-73346189D02*
X101685000Y-73441427D01*
X101685000Y-73441427D02*
X101637380Y-73489046D01*
X101637380Y-73489046D02*
X101542142Y-73536665D01*
X101542142Y-73536665D02*
X101256428Y-73536665D01*
X101256428Y-73536665D02*
X101161190Y-73489046D01*
X101161190Y-73489046D02*
X101113571Y-73441427D01*
X101113571Y-73441427D02*
X101065952Y-73346189D01*
X101065952Y-73346189D02*
X101065952Y-73155713D01*
X101065952Y-73155713D02*
X101113571Y-73060475D01*
X110247333Y-57028619D02*
X109914000Y-56552428D01*
X109675905Y-57028619D02*
X109675905Y-56028619D01*
X109675905Y-56028619D02*
X110056857Y-56028619D01*
X110056857Y-56028619D02*
X110152095Y-56076238D01*
X110152095Y-56076238D02*
X110199714Y-56123857D01*
X110199714Y-56123857D02*
X110247333Y-56219095D01*
X110247333Y-56219095D02*
X110247333Y-56361952D01*
X110247333Y-56361952D02*
X110199714Y-56457190D01*
X110199714Y-56457190D02*
X110152095Y-56504809D01*
X110152095Y-56504809D02*
X110056857Y-56552428D01*
X110056857Y-56552428D02*
X109675905Y-56552428D01*
X110723524Y-57028619D02*
X110914000Y-57028619D01*
X110914000Y-57028619D02*
X111009238Y-56981000D01*
X111009238Y-56981000D02*
X111056857Y-56933380D01*
X111056857Y-56933380D02*
X111152095Y-56790523D01*
X111152095Y-56790523D02*
X111199714Y-56600047D01*
X111199714Y-56600047D02*
X111199714Y-56219095D01*
X111199714Y-56219095D02*
X111152095Y-56123857D01*
X111152095Y-56123857D02*
X111104476Y-56076238D01*
X111104476Y-56076238D02*
X111009238Y-56028619D01*
X111009238Y-56028619D02*
X110818762Y-56028619D01*
X110818762Y-56028619D02*
X110723524Y-56076238D01*
X110723524Y-56076238D02*
X110675905Y-56123857D01*
X110675905Y-56123857D02*
X110628286Y-56219095D01*
X110628286Y-56219095D02*
X110628286Y-56457190D01*
X110628286Y-56457190D02*
X110675905Y-56552428D01*
X110675905Y-56552428D02*
X110723524Y-56600047D01*
X110723524Y-56600047D02*
X110818762Y-56647666D01*
X110818762Y-56647666D02*
X111009238Y-56647666D01*
X111009238Y-56647666D02*
X111104476Y-56600047D01*
X111104476Y-56600047D02*
X111152095Y-56552428D01*
X111152095Y-56552428D02*
X111199714Y-56457190D01*
X112700095Y-59917952D02*
X112700095Y-60584619D01*
X112462000Y-59537000D02*
X112223905Y-60251285D01*
X112223905Y-60251285D02*
X112842952Y-60251285D01*
X113128667Y-59584619D02*
X113795333Y-59584619D01*
X113795333Y-59584619D02*
X113366762Y-60584619D01*
X114366762Y-59584619D02*
X114462000Y-59584619D01*
X114462000Y-59584619D02*
X114557238Y-59632238D01*
X114557238Y-59632238D02*
X114604857Y-59679857D01*
X114604857Y-59679857D02*
X114652476Y-59775095D01*
X114652476Y-59775095D02*
X114700095Y-59965571D01*
X114700095Y-59965571D02*
X114700095Y-60203666D01*
X114700095Y-60203666D02*
X114652476Y-60394142D01*
X114652476Y-60394142D02*
X114604857Y-60489380D01*
X114604857Y-60489380D02*
X114557238Y-60537000D01*
X114557238Y-60537000D02*
X114462000Y-60584619D01*
X114462000Y-60584619D02*
X114366762Y-60584619D01*
X114366762Y-60584619D02*
X114271524Y-60537000D01*
X114271524Y-60537000D02*
X114223905Y-60489380D01*
X114223905Y-60489380D02*
X114176286Y-60394142D01*
X114176286Y-60394142D02*
X114128667Y-60203666D01*
X114128667Y-60203666D02*
X114128667Y-59965571D01*
X114128667Y-59965571D02*
X114176286Y-59775095D01*
X114176286Y-59775095D02*
X114223905Y-59679857D01*
X114223905Y-59679857D02*
X114271524Y-59632238D01*
X114271524Y-59632238D02*
X114366762Y-59584619D01*
X164182666Y-62334619D02*
X164182666Y-63048904D01*
X164182666Y-63048904D02*
X164135047Y-63191761D01*
X164135047Y-63191761D02*
X164039809Y-63287000D01*
X164039809Y-63287000D02*
X163896952Y-63334619D01*
X163896952Y-63334619D02*
X163801714Y-63334619D01*
X164801714Y-62763190D02*
X164706476Y-62715571D01*
X164706476Y-62715571D02*
X164658857Y-62667952D01*
X164658857Y-62667952D02*
X164611238Y-62572714D01*
X164611238Y-62572714D02*
X164611238Y-62525095D01*
X164611238Y-62525095D02*
X164658857Y-62429857D01*
X164658857Y-62429857D02*
X164706476Y-62382238D01*
X164706476Y-62382238D02*
X164801714Y-62334619D01*
X164801714Y-62334619D02*
X164992190Y-62334619D01*
X164992190Y-62334619D02*
X165087428Y-62382238D01*
X165087428Y-62382238D02*
X165135047Y-62429857D01*
X165135047Y-62429857D02*
X165182666Y-62525095D01*
X165182666Y-62525095D02*
X165182666Y-62572714D01*
X165182666Y-62572714D02*
X165135047Y-62667952D01*
X165135047Y-62667952D02*
X165087428Y-62715571D01*
X165087428Y-62715571D02*
X164992190Y-62763190D01*
X164992190Y-62763190D02*
X164801714Y-62763190D01*
X164801714Y-62763190D02*
X164706476Y-62810809D01*
X164706476Y-62810809D02*
X164658857Y-62858428D01*
X164658857Y-62858428D02*
X164611238Y-62953666D01*
X164611238Y-62953666D02*
X164611238Y-63144142D01*
X164611238Y-63144142D02*
X164658857Y-63239380D01*
X164658857Y-63239380D02*
X164706476Y-63287000D01*
X164706476Y-63287000D02*
X164801714Y-63334619D01*
X164801714Y-63334619D02*
X164992190Y-63334619D01*
X164992190Y-63334619D02*
X165087428Y-63287000D01*
X165087428Y-63287000D02*
X165135047Y-63239380D01*
X165135047Y-63239380D02*
X165182666Y-63144142D01*
X165182666Y-63144142D02*
X165182666Y-62953666D01*
X165182666Y-62953666D02*
X165135047Y-62858428D01*
X165135047Y-62858428D02*
X165087428Y-62810809D01*
X165087428Y-62810809D02*
X164992190Y-62763190D01*
X161349333Y-67613666D02*
X162111238Y-67613666D01*
X161730285Y-67994619D02*
X161730285Y-67232714D01*
X163063618Y-66994619D02*
X162587428Y-66994619D01*
X162587428Y-66994619D02*
X162539809Y-67470809D01*
X162539809Y-67470809D02*
X162587428Y-67423190D01*
X162587428Y-67423190D02*
X162682666Y-67375571D01*
X162682666Y-67375571D02*
X162920761Y-67375571D01*
X162920761Y-67375571D02*
X163015999Y-67423190D01*
X163015999Y-67423190D02*
X163063618Y-67470809D01*
X163063618Y-67470809D02*
X163111237Y-67566047D01*
X163111237Y-67566047D02*
X163111237Y-67804142D01*
X163111237Y-67804142D02*
X163063618Y-67899380D01*
X163063618Y-67899380D02*
X163015999Y-67947000D01*
X163015999Y-67947000D02*
X162920761Y-67994619D01*
X162920761Y-67994619D02*
X162682666Y-67994619D01*
X162682666Y-67994619D02*
X162587428Y-67947000D01*
X162587428Y-67947000D02*
X162539809Y-67899380D01*
X163396952Y-66994619D02*
X163730285Y-67994619D01*
X163730285Y-67994619D02*
X164063618Y-66994619D01*
X164158857Y-68089857D02*
X164920761Y-68089857D01*
X165016000Y-66994619D02*
X165587428Y-66994619D01*
X165301714Y-67994619D02*
X165301714Y-66994619D01*
X166301714Y-67947000D02*
X166206476Y-67994619D01*
X166206476Y-67994619D02*
X166016000Y-67994619D01*
X166016000Y-67994619D02*
X165920762Y-67947000D01*
X165920762Y-67947000D02*
X165873143Y-67851761D01*
X165873143Y-67851761D02*
X165873143Y-67470809D01*
X165873143Y-67470809D02*
X165920762Y-67375571D01*
X165920762Y-67375571D02*
X166016000Y-67327952D01*
X166016000Y-67327952D02*
X166206476Y-67327952D01*
X166206476Y-67327952D02*
X166301714Y-67375571D01*
X166301714Y-67375571D02*
X166349333Y-67470809D01*
X166349333Y-67470809D02*
X166349333Y-67566047D01*
X166349333Y-67566047D02*
X165873143Y-67661285D01*
X166730286Y-67947000D02*
X166825524Y-67994619D01*
X166825524Y-67994619D02*
X167016000Y-67994619D01*
X167016000Y-67994619D02*
X167111238Y-67947000D01*
X167111238Y-67947000D02*
X167158857Y-67851761D01*
X167158857Y-67851761D02*
X167158857Y-67804142D01*
X167158857Y-67804142D02*
X167111238Y-67708904D01*
X167111238Y-67708904D02*
X167016000Y-67661285D01*
X167016000Y-67661285D02*
X166873143Y-67661285D01*
X166873143Y-67661285D02*
X166777905Y-67613666D01*
X166777905Y-67613666D02*
X166730286Y-67518428D01*
X166730286Y-67518428D02*
X166730286Y-67470809D01*
X166730286Y-67470809D02*
X166777905Y-67375571D01*
X166777905Y-67375571D02*
X166873143Y-67327952D01*
X166873143Y-67327952D02*
X167016000Y-67327952D01*
X167016000Y-67327952D02*
X167111238Y-67375571D01*
X167444572Y-67327952D02*
X167825524Y-67327952D01*
X167587429Y-66994619D02*
X167587429Y-67851761D01*
X167587429Y-67851761D02*
X167635048Y-67947000D01*
X167635048Y-67947000D02*
X167730286Y-67994619D01*
X167730286Y-67994619D02*
X167825524Y-67994619D01*
X113321380Y-84926666D02*
X113369000Y-84974285D01*
X113369000Y-84974285D02*
X113416619Y-85117142D01*
X113416619Y-85117142D02*
X113416619Y-85212380D01*
X113416619Y-85212380D02*
X113369000Y-85355237D01*
X113369000Y-85355237D02*
X113273761Y-85450475D01*
X113273761Y-85450475D02*
X113178523Y-85498094D01*
X113178523Y-85498094D02*
X112988047Y-85545713D01*
X112988047Y-85545713D02*
X112845190Y-85545713D01*
X112845190Y-85545713D02*
X112654714Y-85498094D01*
X112654714Y-85498094D02*
X112559476Y-85450475D01*
X112559476Y-85450475D02*
X112464238Y-85355237D01*
X112464238Y-85355237D02*
X112416619Y-85212380D01*
X112416619Y-85212380D02*
X112416619Y-85117142D01*
X112416619Y-85117142D02*
X112464238Y-84974285D01*
X112464238Y-84974285D02*
X112511857Y-84926666D01*
X112416619Y-84069523D02*
X112416619Y-84259999D01*
X112416619Y-84259999D02*
X112464238Y-84355237D01*
X112464238Y-84355237D02*
X112511857Y-84402856D01*
X112511857Y-84402856D02*
X112654714Y-84498094D01*
X112654714Y-84498094D02*
X112845190Y-84545713D01*
X112845190Y-84545713D02*
X113226142Y-84545713D01*
X113226142Y-84545713D02*
X113321380Y-84498094D01*
X113321380Y-84498094D02*
X113369000Y-84450475D01*
X113369000Y-84450475D02*
X113416619Y-84355237D01*
X113416619Y-84355237D02*
X113416619Y-84164761D01*
X113416619Y-84164761D02*
X113369000Y-84069523D01*
X113369000Y-84069523D02*
X113321380Y-84021904D01*
X113321380Y-84021904D02*
X113226142Y-83974285D01*
X113226142Y-83974285D02*
X112988047Y-83974285D01*
X112988047Y-83974285D02*
X112892809Y-84021904D01*
X112892809Y-84021904D02*
X112845190Y-84069523D01*
X112845190Y-84069523D02*
X112797571Y-84164761D01*
X112797571Y-84164761D02*
X112797571Y-84355237D01*
X112797571Y-84355237D02*
X112845190Y-84450475D01*
X112845190Y-84450475D02*
X112892809Y-84498094D01*
X112892809Y-84498094D02*
X112988047Y-84545713D01*
X113432619Y-92355999D02*
X113432619Y-91736952D01*
X113432619Y-91736952D02*
X113813571Y-92070285D01*
X113813571Y-92070285D02*
X113813571Y-91927428D01*
X113813571Y-91927428D02*
X113861190Y-91832190D01*
X113861190Y-91832190D02*
X113908809Y-91784571D01*
X113908809Y-91784571D02*
X114004047Y-91736952D01*
X114004047Y-91736952D02*
X114242142Y-91736952D01*
X114242142Y-91736952D02*
X114337380Y-91784571D01*
X114337380Y-91784571D02*
X114385000Y-91832190D01*
X114385000Y-91832190D02*
X114432619Y-91927428D01*
X114432619Y-91927428D02*
X114432619Y-92213142D01*
X114432619Y-92213142D02*
X114385000Y-92308380D01*
X114385000Y-92308380D02*
X114337380Y-92355999D01*
X114337380Y-91308380D02*
X114385000Y-91260761D01*
X114385000Y-91260761D02*
X114432619Y-91308380D01*
X114432619Y-91308380D02*
X114385000Y-91355999D01*
X114385000Y-91355999D02*
X114337380Y-91308380D01*
X114337380Y-91308380D02*
X114432619Y-91308380D01*
X113432619Y-90927428D02*
X113432619Y-90308381D01*
X113432619Y-90308381D02*
X113813571Y-90641714D01*
X113813571Y-90641714D02*
X113813571Y-90498857D01*
X113813571Y-90498857D02*
X113861190Y-90403619D01*
X113861190Y-90403619D02*
X113908809Y-90356000D01*
X113908809Y-90356000D02*
X114004047Y-90308381D01*
X114004047Y-90308381D02*
X114242142Y-90308381D01*
X114242142Y-90308381D02*
X114337380Y-90356000D01*
X114337380Y-90356000D02*
X114385000Y-90403619D01*
X114385000Y-90403619D02*
X114432619Y-90498857D01*
X114432619Y-90498857D02*
X114432619Y-90784571D01*
X114432619Y-90784571D02*
X114385000Y-90879809D01*
X114385000Y-90879809D02*
X114337380Y-90927428D01*
X113765952Y-89879809D02*
X114432619Y-89879809D01*
X113861190Y-89879809D02*
X113813571Y-89832190D01*
X113813571Y-89832190D02*
X113765952Y-89736952D01*
X113765952Y-89736952D02*
X113765952Y-89594095D01*
X113765952Y-89594095D02*
X113813571Y-89498857D01*
X113813571Y-89498857D02*
X113908809Y-89451238D01*
X113908809Y-89451238D02*
X114432619Y-89451238D01*
X109860619Y-61495047D02*
X109860619Y-61971237D01*
X109860619Y-61971237D02*
X108860619Y-61971237D01*
X109336809Y-61161713D02*
X109336809Y-60828380D01*
X109860619Y-60685523D02*
X109860619Y-61161713D01*
X109860619Y-61161713D02*
X108860619Y-61161713D01*
X108860619Y-61161713D02*
X108860619Y-60685523D01*
X109860619Y-60256951D02*
X108860619Y-60256951D01*
X108860619Y-60256951D02*
X108860619Y-60018856D01*
X108860619Y-60018856D02*
X108908238Y-59875999D01*
X108908238Y-59875999D02*
X109003476Y-59780761D01*
X109003476Y-59780761D02*
X109098714Y-59733142D01*
X109098714Y-59733142D02*
X109289190Y-59685523D01*
X109289190Y-59685523D02*
X109432047Y-59685523D01*
X109432047Y-59685523D02*
X109622523Y-59733142D01*
X109622523Y-59733142D02*
X109717761Y-59780761D01*
X109717761Y-59780761D02*
X109813000Y-59875999D01*
X109813000Y-59875999D02*
X109860619Y-60018856D01*
X109860619Y-60018856D02*
X109860619Y-60256951D01*
X108955857Y-59304570D02*
X108908238Y-59256951D01*
X108908238Y-59256951D02*
X108860619Y-59161713D01*
X108860619Y-59161713D02*
X108860619Y-58923618D01*
X108860619Y-58923618D02*
X108908238Y-58828380D01*
X108908238Y-58828380D02*
X108955857Y-58780761D01*
X108955857Y-58780761D02*
X109051095Y-58733142D01*
X109051095Y-58733142D02*
X109146333Y-58733142D01*
X109146333Y-58733142D02*
X109289190Y-58780761D01*
X109289190Y-58780761D02*
X109860619Y-59352189D01*
X109860619Y-59352189D02*
X109860619Y-58733142D01*
X100526238Y-62891810D02*
X100478619Y-62987048D01*
X100478619Y-62987048D02*
X100478619Y-63129905D01*
X100478619Y-63129905D02*
X100526238Y-63272762D01*
X100526238Y-63272762D02*
X100621476Y-63368000D01*
X100621476Y-63368000D02*
X100716714Y-63415619D01*
X100716714Y-63415619D02*
X100907190Y-63463238D01*
X100907190Y-63463238D02*
X101050047Y-63463238D01*
X101050047Y-63463238D02*
X101240523Y-63415619D01*
X101240523Y-63415619D02*
X101335761Y-63368000D01*
X101335761Y-63368000D02*
X101431000Y-63272762D01*
X101431000Y-63272762D02*
X101478619Y-63129905D01*
X101478619Y-63129905D02*
X101478619Y-63034667D01*
X101478619Y-63034667D02*
X101431000Y-62891810D01*
X101431000Y-62891810D02*
X101383380Y-62844191D01*
X101383380Y-62844191D02*
X101050047Y-62844191D01*
X101050047Y-62844191D02*
X101050047Y-63034667D01*
X101478619Y-62415619D02*
X100811952Y-62415619D01*
X101002428Y-62415619D02*
X100907190Y-62368000D01*
X100907190Y-62368000D02*
X100859571Y-62320381D01*
X100859571Y-62320381D02*
X100811952Y-62225143D01*
X100811952Y-62225143D02*
X100811952Y-62129905D01*
X101431000Y-61415619D02*
X101478619Y-61510857D01*
X101478619Y-61510857D02*
X101478619Y-61701333D01*
X101478619Y-61701333D02*
X101431000Y-61796571D01*
X101431000Y-61796571D02*
X101335761Y-61844190D01*
X101335761Y-61844190D02*
X100954809Y-61844190D01*
X100954809Y-61844190D02*
X100859571Y-61796571D01*
X100859571Y-61796571D02*
X100811952Y-61701333D01*
X100811952Y-61701333D02*
X100811952Y-61510857D01*
X100811952Y-61510857D02*
X100859571Y-61415619D01*
X100859571Y-61415619D02*
X100954809Y-61368000D01*
X100954809Y-61368000D02*
X101050047Y-61368000D01*
X101050047Y-61368000D02*
X101145285Y-61844190D01*
X101431000Y-60558476D02*
X101478619Y-60653714D01*
X101478619Y-60653714D02*
X101478619Y-60844190D01*
X101478619Y-60844190D02*
X101431000Y-60939428D01*
X101431000Y-60939428D02*
X101335761Y-60987047D01*
X101335761Y-60987047D02*
X100954809Y-60987047D01*
X100954809Y-60987047D02*
X100859571Y-60939428D01*
X100859571Y-60939428D02*
X100811952Y-60844190D01*
X100811952Y-60844190D02*
X100811952Y-60653714D01*
X100811952Y-60653714D02*
X100859571Y-60558476D01*
X100859571Y-60558476D02*
X100954809Y-60510857D01*
X100954809Y-60510857D02*
X101050047Y-60510857D01*
X101050047Y-60510857D02*
X101145285Y-60987047D01*
X100811952Y-60082285D02*
X101478619Y-60082285D01*
X100907190Y-60082285D02*
X100859571Y-60034666D01*
X100859571Y-60034666D02*
X100811952Y-59939428D01*
X100811952Y-59939428D02*
X100811952Y-59796571D01*
X100811952Y-59796571D02*
X100859571Y-59701333D01*
X100859571Y-59701333D02*
X100954809Y-59653714D01*
X100954809Y-59653714D02*
X101478619Y-59653714D01*
X101573857Y-59415619D02*
X101573857Y-58653714D01*
X101478619Y-57939428D02*
X101478619Y-58415618D01*
X101478619Y-58415618D02*
X100478619Y-58415618D01*
X101431000Y-57225142D02*
X101478619Y-57320380D01*
X101478619Y-57320380D02*
X101478619Y-57510856D01*
X101478619Y-57510856D02*
X101431000Y-57606094D01*
X101431000Y-57606094D02*
X101335761Y-57653713D01*
X101335761Y-57653713D02*
X100954809Y-57653713D01*
X100954809Y-57653713D02*
X100859571Y-57606094D01*
X100859571Y-57606094D02*
X100811952Y-57510856D01*
X100811952Y-57510856D02*
X100811952Y-57320380D01*
X100811952Y-57320380D02*
X100859571Y-57225142D01*
X100859571Y-57225142D02*
X100954809Y-57177523D01*
X100954809Y-57177523D02*
X101050047Y-57177523D01*
X101050047Y-57177523D02*
X101145285Y-57653713D01*
X101478619Y-56320380D02*
X100478619Y-56320380D01*
X101431000Y-56320380D02*
X101478619Y-56415618D01*
X101478619Y-56415618D02*
X101478619Y-56606094D01*
X101478619Y-56606094D02*
X101431000Y-56701332D01*
X101431000Y-56701332D02*
X101383380Y-56748951D01*
X101383380Y-56748951D02*
X101288142Y-56796570D01*
X101288142Y-56796570D02*
X101002428Y-56796570D01*
X101002428Y-56796570D02*
X100907190Y-56748951D01*
X100907190Y-56748951D02*
X100859571Y-56701332D01*
X100859571Y-56701332D02*
X100811952Y-56606094D01*
X100811952Y-56606094D02*
X100811952Y-56415618D01*
X100811952Y-56415618D02*
X100859571Y-56320380D01*
D13*
X103242000Y-92828000D02*
X104572000Y-92828000D01*
X103242000Y-95428000D02*
X105902000Y-95428000D01*
X103242000Y-95488000D02*
X105902000Y-95488000D01*
X105902000Y-95428000D02*
X105902000Y-95488000D01*
X103242000Y-95428000D02*
X103242000Y-95488000D01*
X103242000Y-94158000D02*
X103242000Y-92828000D01*
X137722621Y-72883000D02*
X137092621Y-72883000D01*
X137407621Y-73198000D02*
X137407621Y-72568000D01*
X134222380Y-74274000D02*
X134222380Y-67814000D01*
X134182380Y-74274000D02*
X134182380Y-67814000D01*
X134142380Y-74274000D02*
X134142380Y-67814000D01*
X134102380Y-74272000D02*
X134102380Y-67816000D01*
X134062380Y-74271000D02*
X134062380Y-67817000D01*
X134022380Y-74268000D02*
X134022380Y-67820000D01*
X133982380Y-74266000D02*
X133982380Y-72084000D01*
X133982380Y-70004000D02*
X133982380Y-67822000D01*
X133942380Y-74262000D02*
X133942380Y-72084000D01*
X133942380Y-70004000D02*
X133942380Y-67826000D01*
X133902380Y-74259000D02*
X133902380Y-72084000D01*
X133902380Y-70004000D02*
X133902380Y-67829000D01*
X133862380Y-74255000D02*
X133862380Y-72084000D01*
X133862380Y-70004000D02*
X133862380Y-67833000D01*
X133822380Y-74250000D02*
X133822380Y-72084000D01*
X133822380Y-70004000D02*
X133822380Y-67838000D01*
X133782380Y-74245000D02*
X133782380Y-72084000D01*
X133782380Y-70004000D02*
X133782380Y-67843000D01*
X133742380Y-74239000D02*
X133742380Y-72084000D01*
X133742380Y-70004000D02*
X133742380Y-67849000D01*
X133702380Y-74233000D02*
X133702380Y-72084000D01*
X133702380Y-70004000D02*
X133702380Y-67855000D01*
X133662380Y-74226000D02*
X133662380Y-72084000D01*
X133662380Y-70004000D02*
X133662380Y-67862000D01*
X133622380Y-74219000D02*
X133622380Y-72084000D01*
X133622380Y-70004000D02*
X133622380Y-67869000D01*
X133582380Y-74211000D02*
X133582380Y-72084000D01*
X133582380Y-70004000D02*
X133582380Y-67877000D01*
X133542380Y-74203000D02*
X133542380Y-72084000D01*
X133542380Y-70004000D02*
X133542380Y-67885000D01*
X133501380Y-74194000D02*
X133501380Y-72084000D01*
X133501380Y-70004000D02*
X133501380Y-67894000D01*
X133461380Y-74185000D02*
X133461380Y-72084000D01*
X133461380Y-70004000D02*
X133461380Y-67903000D01*
X133421380Y-74175000D02*
X133421380Y-72084000D01*
X133421380Y-70004000D02*
X133421380Y-67913000D01*
X133381380Y-74165000D02*
X133381380Y-72084000D01*
X133381380Y-70004000D02*
X133381380Y-67923000D01*
X133341380Y-74154000D02*
X133341380Y-72084000D01*
X133341380Y-70004000D02*
X133341380Y-67934000D01*
X133301380Y-74142000D02*
X133301380Y-72084000D01*
X133301380Y-70004000D02*
X133301380Y-67946000D01*
X133261380Y-74130000D02*
X133261380Y-72084000D01*
X133261380Y-70004000D02*
X133261380Y-67958000D01*
X133221380Y-74118000D02*
X133221380Y-72084000D01*
X133221380Y-70004000D02*
X133221380Y-67970000D01*
X133181380Y-74105000D02*
X133181380Y-72084000D01*
X133181380Y-70004000D02*
X133181380Y-67983000D01*
X133141380Y-74091000D02*
X133141380Y-72084000D01*
X133141380Y-70004000D02*
X133141380Y-67997000D01*
X133101380Y-74077000D02*
X133101380Y-72084000D01*
X133101380Y-70004000D02*
X133101380Y-68011000D01*
X133061380Y-74062000D02*
X133061380Y-72084000D01*
X133061380Y-70004000D02*
X133061380Y-68026000D01*
X133021380Y-74046000D02*
X133021380Y-72084000D01*
X133021380Y-70004000D02*
X133021380Y-68042000D01*
X132981380Y-74030000D02*
X132981380Y-72084000D01*
X132981380Y-70004000D02*
X132981380Y-68058000D01*
X132941380Y-74014000D02*
X132941380Y-72084000D01*
X132941380Y-70004000D02*
X132941380Y-68074000D01*
X132901380Y-73996000D02*
X132901380Y-72084000D01*
X132901380Y-70004000D02*
X132901380Y-68092000D01*
X132861380Y-73978000D02*
X132861380Y-72084000D01*
X132861380Y-70004000D02*
X132861380Y-68110000D01*
X132821380Y-73960000D02*
X132821380Y-72084000D01*
X132821380Y-70004000D02*
X132821380Y-68128000D01*
X132781380Y-73940000D02*
X132781380Y-72084000D01*
X132781380Y-70004000D02*
X132781380Y-68148000D01*
X132741380Y-73920000D02*
X132741380Y-72084000D01*
X132741380Y-70004000D02*
X132741380Y-68168000D01*
X132701380Y-73900000D02*
X132701380Y-72084000D01*
X132701380Y-70004000D02*
X132701380Y-68188000D01*
X132661380Y-73878000D02*
X132661380Y-72084000D01*
X132661380Y-70004000D02*
X132661380Y-68210000D01*
X132621380Y-73856000D02*
X132621380Y-72084000D01*
X132621380Y-70004000D02*
X132621380Y-68232000D01*
X132581380Y-73834000D02*
X132581380Y-72084000D01*
X132581380Y-70004000D02*
X132581380Y-68254000D01*
X132541380Y-73810000D02*
X132541380Y-72084000D01*
X132541380Y-70004000D02*
X132541380Y-68278000D01*
X132501380Y-73786000D02*
X132501380Y-72084000D01*
X132501380Y-70004000D02*
X132501380Y-68302000D01*
X132461380Y-73760000D02*
X132461380Y-72084000D01*
X132461380Y-70004000D02*
X132461380Y-68328000D01*
X132421380Y-73734000D02*
X132421380Y-72084000D01*
X132421380Y-70004000D02*
X132421380Y-68354000D01*
X132381380Y-73708000D02*
X132381380Y-72084000D01*
X132381380Y-70004000D02*
X132381380Y-68380000D01*
X132341380Y-73680000D02*
X132341380Y-72084000D01*
X132341380Y-70004000D02*
X132341380Y-68408000D01*
X132301380Y-73651000D02*
X132301380Y-72084000D01*
X132301380Y-70004000D02*
X132301380Y-68437000D01*
X132261380Y-73622000D02*
X132261380Y-72084000D01*
X132261380Y-70004000D02*
X132261380Y-68466000D01*
X132221380Y-73592000D02*
X132221380Y-72084000D01*
X132221380Y-70004000D02*
X132221380Y-68496000D01*
X132181380Y-73560000D02*
X132181380Y-72084000D01*
X132181380Y-70004000D02*
X132181380Y-68528000D01*
X132141380Y-73528000D02*
X132141380Y-72084000D01*
X132141380Y-70004000D02*
X132141380Y-68560000D01*
X132101380Y-73494000D02*
X132101380Y-72084000D01*
X132101380Y-70004000D02*
X132101380Y-68594000D01*
X132061380Y-73460000D02*
X132061380Y-72084000D01*
X132061380Y-70004000D02*
X132061380Y-68628000D01*
X132021380Y-73424000D02*
X132021380Y-72084000D01*
X132021380Y-70004000D02*
X132021380Y-68664000D01*
X131981380Y-73387000D02*
X131981380Y-72084000D01*
X131981380Y-70004000D02*
X131981380Y-68701000D01*
X131941380Y-73349000D02*
X131941380Y-72084000D01*
X131941380Y-70004000D02*
X131941380Y-68739000D01*
X131901380Y-73309000D02*
X131901380Y-68779000D01*
X131861380Y-73268000D02*
X131861380Y-68820000D01*
X131821380Y-73226000D02*
X131821380Y-68862000D01*
X131781380Y-73181000D02*
X131781380Y-68907000D01*
X131741380Y-73136000D02*
X131741380Y-68952000D01*
X131701380Y-73088000D02*
X131701380Y-69000000D01*
X131661380Y-73039000D02*
X131661380Y-69049000D01*
X131621380Y-72988000D02*
X131621380Y-69100000D01*
X131581380Y-72934000D02*
X131581380Y-69154000D01*
X131541380Y-72878000D02*
X131541380Y-69210000D01*
X131501380Y-72820000D02*
X131501380Y-69268000D01*
X131461380Y-72758000D02*
X131461380Y-69330000D01*
X131421380Y-72694000D02*
X131421380Y-69394000D01*
X131381380Y-72625000D02*
X131381380Y-69463000D01*
X131341380Y-72553000D02*
X131341380Y-69535000D01*
X131301380Y-72476000D02*
X131301380Y-69612000D01*
X131261380Y-72394000D02*
X131261380Y-69694000D01*
X131221380Y-72306000D02*
X131221380Y-69782000D01*
X131181380Y-72209000D02*
X131181380Y-69879000D01*
X131141380Y-72103000D02*
X131141380Y-69985000D01*
X131101380Y-71984000D02*
X131101380Y-70104000D01*
X131061380Y-71846000D02*
X131061380Y-70242000D01*
X131021380Y-71677000D02*
X131021380Y-70411000D01*
X130981380Y-71446000D02*
X130981380Y-70642000D01*
X137492380Y-71044000D02*
G75*
G03*
X137492380Y-71044000I-3270000J0D01*
G01*
X105942000Y-83072000D02*
X103202000Y-83072000D01*
X105942000Y-83072000D02*
X105942000Y-90512000D01*
X103202000Y-83072000D02*
X103202000Y-90512000D01*
X105942000Y-90512000D02*
X103202000Y-90512000D01*
X142164000Y-75338000D02*
X142164000Y-74568000D01*
X140794000Y-74568000D02*
X143534000Y-74568000D01*
X143534000Y-74568000D02*
X143534000Y-68028000D01*
X140794000Y-68028000D02*
X140794000Y-74568000D01*
X143534000Y-68028000D02*
X140794000Y-68028000D01*
X142164000Y-67258000D02*
X142164000Y-68028000D01*
X113462000Y-73560000D02*
X113462000Y-72790000D01*
X112092000Y-72790000D02*
X114832000Y-72790000D01*
X114832000Y-72790000D02*
X114832000Y-66250000D01*
X112092000Y-66250000D02*
X112092000Y-72790000D01*
X114832000Y-66250000D02*
X112092000Y-66250000D01*
X113462000Y-65480000D02*
X113462000Y-66250000D01*
X102774000Y-49433000D02*
X102774000Y-52523000D01*
X108323999Y-50978462D02*
G75*
G03*
X102774001Y-49433170I-2989999J462D01*
G01*
X102774000Y-52522830D02*
G75*
G03*
X108324000Y-50977538I2560000J1544830D01*
G01*
X107834000Y-50978000D02*
G75*
G03*
X107834000Y-50978000I-2500000J0D01*
G01*
X157598000Y-63872000D02*
X158928000Y-63872000D01*
X157598000Y-65202000D02*
X157598000Y-63872000D01*
X157598000Y-66472000D02*
X157598000Y-66532000D01*
X157598000Y-66472000D02*
X160258000Y-66472000D01*
X157598000Y-66532000D02*
X160258000Y-66532000D01*
X160258000Y-66472000D02*
X160258000Y-66532000D01*
X113994000Y-54026000D02*
X114764000Y-54026000D01*
X114764000Y-52656000D02*
X114764000Y-55396000D01*
X114764000Y-55396000D02*
X121304000Y-55396000D01*
X121304000Y-52656000D02*
X114764000Y-52656000D01*
X121304000Y-55396000D02*
X121304000Y-52656000D01*
X122074000Y-54026000D02*
X121304000Y-54026000D01*
X133468000Y-63872000D02*
X134798000Y-63872000D01*
X133468000Y-65202000D02*
X133468000Y-63872000D01*
X133468000Y-66472000D02*
X133468000Y-66532000D01*
X133468000Y-66472000D02*
X136128000Y-66472000D01*
X133468000Y-66532000D02*
X136128000Y-66532000D01*
X136128000Y-66472000D02*
X136128000Y-66532000D01*
X116704000Y-80382000D02*
X118034000Y-80382000D01*
X116704000Y-81712000D02*
X116704000Y-80382000D01*
X116704000Y-82982000D02*
X116704000Y-83042000D01*
X116704000Y-82982000D02*
X119364000Y-82982000D01*
X116704000Y-83042000D02*
X119364000Y-83042000D01*
X119364000Y-82982000D02*
X119364000Y-83042000D01*
X121820000Y-96698000D02*
X121050000Y-96698000D01*
X121050000Y-98068000D02*
X121050000Y-95328000D01*
X121050000Y-95328000D02*
X114510000Y-95328000D01*
X114510000Y-98068000D02*
X121050000Y-98068000D01*
X114510000Y-95328000D02*
X114510000Y-98068000D01*
X113740000Y-96698000D02*
X114510000Y-96698000D01*
X137895000Y-88027888D02*
X137895000Y-87527888D01*
X137645000Y-87777888D02*
X138145000Y-87777888D01*
X136790000Y-85223113D02*
X141950000Y-85223113D01*
X136790000Y-85183113D02*
X141950000Y-85183113D01*
X136791000Y-85143113D02*
X141949000Y-85143113D01*
X136792000Y-85103113D02*
X141948000Y-85103113D01*
X136794000Y-85063113D02*
X141946000Y-85063113D01*
X136797000Y-85023113D02*
X141943000Y-85023113D01*
X136801000Y-84983113D02*
X138330000Y-84983113D01*
X140410000Y-84983113D02*
X141939000Y-84983113D01*
X136805000Y-84943113D02*
X138330000Y-84943113D01*
X140410000Y-84943113D02*
X141935000Y-84943113D01*
X136809000Y-84903113D02*
X138330000Y-84903113D01*
X140410000Y-84903113D02*
X141931000Y-84903113D01*
X136814000Y-84863113D02*
X138330000Y-84863113D01*
X140410000Y-84863113D02*
X141926000Y-84863113D01*
X136820000Y-84823113D02*
X138330000Y-84823113D01*
X140410000Y-84823113D02*
X141920000Y-84823113D01*
X136827000Y-84783113D02*
X138330000Y-84783113D01*
X140410000Y-84783113D02*
X141913000Y-84783113D01*
X136834000Y-84743113D02*
X138330000Y-84743113D01*
X140410000Y-84743113D02*
X141906000Y-84743113D01*
X136842000Y-84703113D02*
X138330000Y-84703113D01*
X140410000Y-84703113D02*
X141898000Y-84703113D01*
X136850000Y-84663113D02*
X138330000Y-84663113D01*
X140410000Y-84663113D02*
X141890000Y-84663113D01*
X136859000Y-84623113D02*
X138330000Y-84623113D01*
X140410000Y-84623113D02*
X141881000Y-84623113D01*
X136869000Y-84583113D02*
X138330000Y-84583113D01*
X140410000Y-84583113D02*
X141871000Y-84583113D01*
X136879000Y-84543113D02*
X138330000Y-84543113D01*
X140410000Y-84543113D02*
X141861000Y-84543113D01*
X136890000Y-84502113D02*
X138330000Y-84502113D01*
X140410000Y-84502113D02*
X141850000Y-84502113D01*
X136902000Y-84462113D02*
X138330000Y-84462113D01*
X140410000Y-84462113D02*
X141838000Y-84462113D01*
X136915000Y-84422113D02*
X138330000Y-84422113D01*
X140410000Y-84422113D02*
X141825000Y-84422113D01*
X136928000Y-84382113D02*
X138330000Y-84382113D01*
X140410000Y-84382113D02*
X141812000Y-84382113D01*
X136942000Y-84342113D02*
X138330000Y-84342113D01*
X140410000Y-84342113D02*
X141798000Y-84342113D01*
X136956000Y-84302113D02*
X138330000Y-84302113D01*
X140410000Y-84302113D02*
X141784000Y-84302113D01*
X136972000Y-84262113D02*
X138330000Y-84262113D01*
X140410000Y-84262113D02*
X141768000Y-84262113D01*
X136988000Y-84222113D02*
X138330000Y-84222113D01*
X140410000Y-84222113D02*
X141752000Y-84222113D01*
X137005000Y-84182113D02*
X138330000Y-84182113D01*
X140410000Y-84182113D02*
X141735000Y-84182113D01*
X137022000Y-84142113D02*
X138330000Y-84142113D01*
X140410000Y-84142113D02*
X141718000Y-84142113D01*
X137041000Y-84102113D02*
X138330000Y-84102113D01*
X140410000Y-84102113D02*
X141699000Y-84102113D01*
X137060000Y-84062113D02*
X138330000Y-84062113D01*
X140410000Y-84062113D02*
X141680000Y-84062113D01*
X137080000Y-84022113D02*
X138330000Y-84022113D01*
X140410000Y-84022113D02*
X141660000Y-84022113D01*
X137102000Y-83982113D02*
X138330000Y-83982113D01*
X140410000Y-83982113D02*
X141638000Y-83982113D01*
X137123000Y-83942113D02*
X138330000Y-83942113D01*
X140410000Y-83942113D02*
X141617000Y-83942113D01*
X137146000Y-83902113D02*
X138330000Y-83902113D01*
X140410000Y-83902113D02*
X141594000Y-83902113D01*
X137170000Y-83862113D02*
X138330000Y-83862113D01*
X140410000Y-83862113D02*
X141570000Y-83862113D01*
X137195000Y-83822113D02*
X138330000Y-83822113D01*
X140410000Y-83822113D02*
X141545000Y-83822113D01*
X137221000Y-83782113D02*
X138330000Y-83782113D01*
X140410000Y-83782113D02*
X141519000Y-83782113D01*
X137248000Y-83742113D02*
X138330000Y-83742113D01*
X140410000Y-83742113D02*
X141492000Y-83742113D01*
X137275000Y-83702113D02*
X138330000Y-83702113D01*
X140410000Y-83702113D02*
X141465000Y-83702113D01*
X137305000Y-83662113D02*
X138330000Y-83662113D01*
X140410000Y-83662113D02*
X141435000Y-83662113D01*
X137335000Y-83622113D02*
X138330000Y-83622113D01*
X140410000Y-83622113D02*
X141405000Y-83622113D01*
X137366000Y-83582113D02*
X138330000Y-83582113D01*
X140410000Y-83582113D02*
X141374000Y-83582113D01*
X137399000Y-83542113D02*
X138330000Y-83542113D01*
X140410000Y-83542113D02*
X141341000Y-83542113D01*
X137433000Y-83502113D02*
X138330000Y-83502113D01*
X140410000Y-83502113D02*
X141307000Y-83502113D01*
X137469000Y-83462113D02*
X138330000Y-83462113D01*
X140410000Y-83462113D02*
X141271000Y-83462113D01*
X137506000Y-83422113D02*
X138330000Y-83422113D01*
X140410000Y-83422113D02*
X141234000Y-83422113D01*
X137544000Y-83382113D02*
X138330000Y-83382113D01*
X140410000Y-83382113D02*
X141196000Y-83382113D01*
X137585000Y-83342113D02*
X138330000Y-83342113D01*
X140410000Y-83342113D02*
X141155000Y-83342113D01*
X137627000Y-83302113D02*
X138330000Y-83302113D01*
X140410000Y-83302113D02*
X141113000Y-83302113D01*
X137671000Y-83262113D02*
X138330000Y-83262113D01*
X140410000Y-83262113D02*
X141069000Y-83262113D01*
X137717000Y-83222113D02*
X138330000Y-83222113D01*
X140410000Y-83222113D02*
X141023000Y-83222113D01*
X137765000Y-83182113D02*
X138330000Y-83182113D01*
X140410000Y-83182113D02*
X140975000Y-83182113D01*
X137816000Y-83142113D02*
X138330000Y-83142113D01*
X140410000Y-83142113D02*
X140924000Y-83142113D01*
X137870000Y-83102113D02*
X138330000Y-83102113D01*
X140410000Y-83102113D02*
X140870000Y-83102113D01*
X137927000Y-83062113D02*
X138330000Y-83062113D01*
X140410000Y-83062113D02*
X140813000Y-83062113D01*
X137987000Y-83022113D02*
X138330000Y-83022113D01*
X140410000Y-83022113D02*
X140753000Y-83022113D01*
X138051000Y-82982113D02*
X138330000Y-82982113D01*
X140410000Y-82982113D02*
X140689000Y-82982113D01*
X138119000Y-82942113D02*
X138330000Y-82942113D01*
X140410000Y-82942113D02*
X140621000Y-82942113D01*
X138192000Y-82902113D02*
X140548000Y-82902113D01*
X138272000Y-82862113D02*
X140468000Y-82862113D01*
X138359000Y-82822113D02*
X140381000Y-82822113D01*
X138455000Y-82782113D02*
X140285000Y-82782113D01*
X138565000Y-82742113D02*
X140175000Y-82742113D01*
X138693000Y-82702113D02*
X140047000Y-82702113D01*
X138852000Y-82662113D02*
X139888000Y-82662113D01*
X139086000Y-82622113D02*
X139654000Y-82622113D01*
X141990000Y-85223113D02*
G75*
G03*
X141990000Y-85223113I-2620000J0D01*
G01*
X135356000Y-91220000D02*
X135356000Y-80820000D01*
X135356000Y-80820000D02*
X125076000Y-80820000D01*
X132866000Y-91160000D02*
X132866000Y-80880000D01*
X132866000Y-80880000D02*
X127566000Y-80880000D01*
X131216000Y-91160000D02*
X132866000Y-91160000D01*
X127566000Y-91160000D02*
X129216000Y-91160000D01*
X127566000Y-80880000D02*
X127566000Y-91160000D01*
X125076000Y-91220000D02*
X135356000Y-91220000D01*
X125076000Y-80820000D02*
X125076000Y-91220000D01*
X131216000Y-91160000D02*
G75*
G03*
X129216000Y-91160000I-1000000J0D01*
G01*
X122606000Y-65480000D02*
X122606000Y-66250000D01*
X123976000Y-66250000D02*
X121236000Y-66250000D01*
X121236000Y-66250000D02*
X121236000Y-72790000D01*
X123976000Y-72790000D02*
X123976000Y-66250000D01*
X121236000Y-72790000D02*
X123976000Y-72790000D01*
X122606000Y-73560000D02*
X122606000Y-72790000D01*
X158166000Y-81482000D02*
X158166000Y-82252000D01*
X159536000Y-82252000D02*
X156796000Y-82252000D01*
X156796000Y-82252000D02*
X156796000Y-88792000D01*
X159536000Y-88792000D02*
X159536000Y-82252000D01*
X156796000Y-88792000D02*
X159536000Y-88792000D01*
X158166000Y-89562000D02*
X158166000Y-88792000D01*
X153758000Y-68922000D02*
X153758000Y-61482000D01*
X153758000Y-68922000D02*
X146318000Y-68922000D01*
X153758000Y-61482000D02*
X146318000Y-61482000D01*
X146318000Y-68922000D02*
X146318000Y-61482000D01*
X138378000Y-93142000D02*
X139148000Y-93142000D01*
X139148000Y-91772000D02*
X139148000Y-94512000D01*
X139148000Y-94512000D02*
X145688000Y-94512000D01*
X145688000Y-91772000D02*
X139148000Y-91772000D01*
X145688000Y-94512000D02*
X145688000Y-91772000D01*
X146458000Y-93142000D02*
X145688000Y-93142000D01*
X102769000Y-65943000D02*
X102769000Y-69033000D01*
X108318999Y-67488462D02*
G75*
G03*
X102769001Y-65943170I-2989999J462D01*
G01*
X102769000Y-69032830D02*
G75*
G03*
X108319000Y-67487538I2560000J1544830D01*
G01*
X107829000Y-67488000D02*
G75*
G03*
X107829000Y-67488000I-2500000J0D01*
G01*
X156974000Y-78201000D02*
X156974000Y-76871000D01*
X158084000Y-78201000D02*
X156974000Y-78201000D01*
X159544000Y-71431000D02*
X159134000Y-71431000D01*
X159544000Y-72151000D02*
X159134000Y-72151000D01*
X159544000Y-73971000D02*
X159134000Y-73971000D01*
X159544000Y-74691000D02*
X159134000Y-74691000D01*
X159544000Y-76511000D02*
X159194000Y-76511000D01*
X159544000Y-77231000D02*
X159194000Y-77231000D01*
X159544000Y-78201000D02*
X159544000Y-70461000D01*
X168174000Y-70461000D02*
X159544000Y-70461000D01*
X168174000Y-73061000D02*
X159544000Y-73061000D01*
X168174000Y-75601000D02*
X159544000Y-75601000D01*
X168174000Y-75719100D02*
X159544000Y-75719100D01*
X168174000Y-75837195D02*
X159544000Y-75837195D01*
X168174000Y-75955290D02*
X159544000Y-75955290D01*
X168174000Y-76073385D02*
X159544000Y-76073385D01*
X168174000Y-76191480D02*
X159544000Y-76191480D01*
X168174000Y-76309575D02*
X159544000Y-76309575D01*
X168174000Y-76427670D02*
X159544000Y-76427670D01*
X168174000Y-76545765D02*
X159544000Y-76545765D01*
X168174000Y-76663860D02*
X159544000Y-76663860D01*
X168174000Y-76781955D02*
X159544000Y-76781955D01*
X168174000Y-76900050D02*
X159544000Y-76900050D01*
X168174000Y-77018145D02*
X159544000Y-77018145D01*
X168174000Y-77136240D02*
X159544000Y-77136240D01*
X168174000Y-77254335D02*
X159544000Y-77254335D01*
X168174000Y-77372430D02*
X159544000Y-77372430D01*
X168174000Y-77490525D02*
X159544000Y-77490525D01*
X168174000Y-77608620D02*
X159544000Y-77608620D01*
X168174000Y-77726715D02*
X159544000Y-77726715D01*
X168174000Y-77844810D02*
X159544000Y-77844810D01*
X168174000Y-77962905D02*
X159544000Y-77962905D01*
X168174000Y-78081000D02*
X159544000Y-78081000D01*
X168174000Y-78201000D02*
X159544000Y-78201000D01*
X168174000Y-78201000D02*
X168174000Y-70461000D01*
X154280241Y-75169000D02*
X153650241Y-75169000D01*
X153965241Y-75484000D02*
X153965241Y-74854000D01*
X150780000Y-76560000D02*
X150780000Y-70100000D01*
X150740000Y-76560000D02*
X150740000Y-70100000D01*
X150700000Y-76560000D02*
X150700000Y-70100000D01*
X150660000Y-76558000D02*
X150660000Y-70102000D01*
X150620000Y-76557000D02*
X150620000Y-70103000D01*
X150580000Y-76554000D02*
X150580000Y-70106000D01*
X150540000Y-76552000D02*
X150540000Y-74370000D01*
X150540000Y-72290000D02*
X150540000Y-70108000D01*
X150500000Y-76548000D02*
X150500000Y-74370000D01*
X150500000Y-72290000D02*
X150500000Y-70112000D01*
X150460000Y-76545000D02*
X150460000Y-74370000D01*
X150460000Y-72290000D02*
X150460000Y-70115000D01*
X150420000Y-76541000D02*
X150420000Y-74370000D01*
X150420000Y-72290000D02*
X150420000Y-70119000D01*
X150380000Y-76536000D02*
X150380000Y-74370000D01*
X150380000Y-72290000D02*
X150380000Y-70124000D01*
X150340000Y-76531000D02*
X150340000Y-74370000D01*
X150340000Y-72290000D02*
X150340000Y-70129000D01*
X150300000Y-76525000D02*
X150300000Y-74370000D01*
X150300000Y-72290000D02*
X150300000Y-70135000D01*
X150260000Y-76519000D02*
X150260000Y-74370000D01*
X150260000Y-72290000D02*
X150260000Y-70141000D01*
X150220000Y-76512000D02*
X150220000Y-74370000D01*
X150220000Y-72290000D02*
X150220000Y-70148000D01*
X150180000Y-76505000D02*
X150180000Y-74370000D01*
X150180000Y-72290000D02*
X150180000Y-70155000D01*
X150140000Y-76497000D02*
X150140000Y-74370000D01*
X150140000Y-72290000D02*
X150140000Y-70163000D01*
X150100000Y-76489000D02*
X150100000Y-74370000D01*
X150100000Y-72290000D02*
X150100000Y-70171000D01*
X150059000Y-76480000D02*
X150059000Y-74370000D01*
X150059000Y-72290000D02*
X150059000Y-70180000D01*
X150019000Y-76471000D02*
X150019000Y-74370000D01*
X150019000Y-72290000D02*
X150019000Y-70189000D01*
X149979000Y-76461000D02*
X149979000Y-74370000D01*
X149979000Y-72290000D02*
X149979000Y-70199000D01*
X149939000Y-76451000D02*
X149939000Y-74370000D01*
X149939000Y-72290000D02*
X149939000Y-70209000D01*
X149899000Y-76440000D02*
X149899000Y-74370000D01*
X149899000Y-72290000D02*
X149899000Y-70220000D01*
X149859000Y-76428000D02*
X149859000Y-74370000D01*
X149859000Y-72290000D02*
X149859000Y-70232000D01*
X149819000Y-76416000D02*
X149819000Y-74370000D01*
X149819000Y-72290000D02*
X149819000Y-70244000D01*
X149779000Y-76404000D02*
X149779000Y-74370000D01*
X149779000Y-72290000D02*
X149779000Y-70256000D01*
X149739000Y-76391000D02*
X149739000Y-74370000D01*
X149739000Y-72290000D02*
X149739000Y-70269000D01*
X149699000Y-76377000D02*
X149699000Y-74370000D01*
X149699000Y-72290000D02*
X149699000Y-70283000D01*
X149659000Y-76363000D02*
X149659000Y-74370000D01*
X149659000Y-72290000D02*
X149659000Y-70297000D01*
X149619000Y-76348000D02*
X149619000Y-74370000D01*
X149619000Y-72290000D02*
X149619000Y-70312000D01*
X149579000Y-76332000D02*
X149579000Y-74370000D01*
X149579000Y-72290000D02*
X149579000Y-70328000D01*
X149539000Y-76316000D02*
X149539000Y-74370000D01*
X149539000Y-72290000D02*
X149539000Y-70344000D01*
X149499000Y-76300000D02*
X149499000Y-74370000D01*
X149499000Y-72290000D02*
X149499000Y-70360000D01*
X149459000Y-76282000D02*
X149459000Y-74370000D01*
X149459000Y-72290000D02*
X149459000Y-70378000D01*
X149419000Y-76264000D02*
X149419000Y-74370000D01*
X149419000Y-72290000D02*
X149419000Y-70396000D01*
X149379000Y-76246000D02*
X149379000Y-74370000D01*
X149379000Y-72290000D02*
X149379000Y-70414000D01*
X149339000Y-76226000D02*
X149339000Y-74370000D01*
X149339000Y-72290000D02*
X149339000Y-70434000D01*
X149299000Y-76206000D02*
X149299000Y-74370000D01*
X149299000Y-72290000D02*
X149299000Y-70454000D01*
X149259000Y-76186000D02*
X149259000Y-74370000D01*
X149259000Y-72290000D02*
X149259000Y-70474000D01*
X149219000Y-76164000D02*
X149219000Y-74370000D01*
X149219000Y-72290000D02*
X149219000Y-70496000D01*
X149179000Y-76142000D02*
X149179000Y-74370000D01*
X149179000Y-72290000D02*
X149179000Y-70518000D01*
X149139000Y-76120000D02*
X149139000Y-74370000D01*
X149139000Y-72290000D02*
X149139000Y-70540000D01*
X149099000Y-76096000D02*
X149099000Y-74370000D01*
X149099000Y-72290000D02*
X149099000Y-70564000D01*
X149059000Y-76072000D02*
X149059000Y-74370000D01*
X149059000Y-72290000D02*
X149059000Y-70588000D01*
X149019000Y-76046000D02*
X149019000Y-74370000D01*
X149019000Y-72290000D02*
X149019000Y-70614000D01*
X148979000Y-76020000D02*
X148979000Y-74370000D01*
X148979000Y-72290000D02*
X148979000Y-70640000D01*
X148939000Y-75994000D02*
X148939000Y-74370000D01*
X148939000Y-72290000D02*
X148939000Y-70666000D01*
X148899000Y-75966000D02*
X148899000Y-74370000D01*
X148899000Y-72290000D02*
X148899000Y-70694000D01*
X148859000Y-75937000D02*
X148859000Y-74370000D01*
X148859000Y-72290000D02*
X148859000Y-70723000D01*
X148819000Y-75908000D02*
X148819000Y-74370000D01*
X148819000Y-72290000D02*
X148819000Y-70752000D01*
X148779000Y-75878000D02*
X148779000Y-74370000D01*
X148779000Y-72290000D02*
X148779000Y-70782000D01*
X148739000Y-75846000D02*
X148739000Y-74370000D01*
X148739000Y-72290000D02*
X148739000Y-70814000D01*
X148699000Y-75814000D02*
X148699000Y-74370000D01*
X148699000Y-72290000D02*
X148699000Y-70846000D01*
X148659000Y-75780000D02*
X148659000Y-74370000D01*
X148659000Y-72290000D02*
X148659000Y-70880000D01*
X148619000Y-75746000D02*
X148619000Y-74370000D01*
X148619000Y-72290000D02*
X148619000Y-70914000D01*
X148579000Y-75710000D02*
X148579000Y-74370000D01*
X148579000Y-72290000D02*
X148579000Y-70950000D01*
X148539000Y-75673000D02*
X148539000Y-74370000D01*
X148539000Y-72290000D02*
X148539000Y-70987000D01*
X148499000Y-75635000D02*
X148499000Y-74370000D01*
X148499000Y-72290000D02*
X148499000Y-71025000D01*
X148459000Y-75595000D02*
X148459000Y-71065000D01*
X148419000Y-75554000D02*
X148419000Y-71106000D01*
X148379000Y-75512000D02*
X148379000Y-71148000D01*
X148339000Y-75467000D02*
X148339000Y-71193000D01*
X148299000Y-75422000D02*
X148299000Y-71238000D01*
X148259000Y-75374000D02*
X148259000Y-71286000D01*
X148219000Y-75325000D02*
X148219000Y-71335000D01*
X148179000Y-75274000D02*
X148179000Y-71386000D01*
X148139000Y-75220000D02*
X148139000Y-71440000D01*
X148099000Y-75164000D02*
X148099000Y-71496000D01*
X148059000Y-75106000D02*
X148059000Y-71554000D01*
X148019000Y-75044000D02*
X148019000Y-71616000D01*
X147979000Y-74980000D02*
X147979000Y-71680000D01*
X147939000Y-74911000D02*
X147939000Y-71749000D01*
X147899000Y-74839000D02*
X147899000Y-71821000D01*
X147859000Y-74762000D02*
X147859000Y-71898000D01*
X147819000Y-74680000D02*
X147819000Y-71980000D01*
X147779000Y-74592000D02*
X147779000Y-72068000D01*
X147739000Y-74495000D02*
X147739000Y-72165000D01*
X147699000Y-74389000D02*
X147699000Y-72271000D01*
X147659000Y-74270000D02*
X147659000Y-72390000D01*
X147619000Y-74132000D02*
X147619000Y-72528000D01*
X147579000Y-73963000D02*
X147579000Y-72697000D01*
X147539000Y-73732000D02*
X147539000Y-72928000D01*
X154050000Y-73330000D02*
G75*
G03*
X154050000Y-73330000I-3270000J0D01*
G01*
X161662000Y-86224000D02*
X162992000Y-86224000D01*
X161662000Y-87554000D02*
X161662000Y-86224000D01*
X161662000Y-88824000D02*
X161662000Y-88884000D01*
X161662000Y-88824000D02*
X164322000Y-88824000D01*
X161662000Y-88884000D02*
X164322000Y-88884000D01*
X164322000Y-88824000D02*
X164322000Y-88884000D01*
X161166000Y-53118000D02*
X159666000Y-53118000D01*
X157166000Y-54368000D02*
X157166000Y-58868000D01*
X163666000Y-58868000D02*
X163666000Y-54368000D01*
X159666000Y-60118000D02*
X161166000Y-60118000D01*
X161662000Y-80890000D02*
X162992000Y-80890000D01*
X161662000Y-82220000D02*
X161662000Y-80890000D01*
X161662000Y-83490000D02*
X161662000Y-83550000D01*
X161662000Y-83490000D02*
X164322000Y-83490000D01*
X161662000Y-83550000D02*
X164322000Y-83550000D01*
X164322000Y-83490000D02*
X164322000Y-83550000D01*
X135536000Y-77140000D02*
X134766000Y-77140000D01*
X134766000Y-78510000D02*
X134766000Y-75770000D01*
X134766000Y-75770000D02*
X128226000Y-75770000D01*
X128226000Y-78510000D02*
X134766000Y-78510000D01*
X128226000Y-75770000D02*
X128226000Y-78510000D01*
X127456000Y-77140000D02*
X128226000Y-77140000D01*
X154152000Y-89696000D02*
X154152000Y-79296000D01*
X154152000Y-79296000D02*
X143872000Y-79296000D01*
X151662000Y-89636000D02*
X151662000Y-79356000D01*
X151662000Y-79356000D02*
X146362000Y-79356000D01*
X150012000Y-89636000D02*
X151662000Y-89636000D01*
X146362000Y-89636000D02*
X148012000Y-89636000D01*
X146362000Y-79356000D02*
X146362000Y-89636000D01*
X143872000Y-89696000D02*
X154152000Y-89696000D01*
X143872000Y-79296000D02*
X143872000Y-89696000D01*
X150012000Y-89636000D02*
G75*
G03*
X148012000Y-89636000I-1000000J0D01*
G01*
X127880000Y-64380000D02*
X129210000Y-64380000D01*
X127880000Y-65710000D02*
X127880000Y-64380000D01*
X127880000Y-66980000D02*
X127880000Y-67040000D01*
X127880000Y-66980000D02*
X130540000Y-66980000D01*
X127880000Y-67040000D02*
X130540000Y-67040000D01*
X130540000Y-66980000D02*
X130540000Y-67040000D01*
X152264000Y-91812000D02*
X153594000Y-91812000D01*
X152264000Y-93142000D02*
X152264000Y-91812000D01*
X152264000Y-94412000D02*
X152264000Y-94472000D01*
X152264000Y-94412000D02*
X154924000Y-94412000D01*
X152264000Y-94472000D02*
X154924000Y-94472000D01*
X154924000Y-94412000D02*
X154924000Y-94472000D01*
X109398000Y-92864000D02*
X109398000Y-92094000D01*
X108028000Y-92094000D02*
X110768000Y-92094000D01*
X110768000Y-92094000D02*
X110768000Y-85554000D01*
X108028000Y-85554000D02*
X108028000Y-92094000D01*
X110768000Y-85554000D02*
X108028000Y-85554000D01*
X109398000Y-84784000D02*
X109398000Y-85554000D01*
X118034000Y-73560000D02*
X118034000Y-72790000D01*
X116664000Y-72790000D02*
X119404000Y-72790000D01*
X119404000Y-72790000D02*
X119404000Y-66250000D01*
X116664000Y-66250000D02*
X116664000Y-72790000D01*
X119404000Y-66250000D02*
X116664000Y-66250000D01*
X118034000Y-65480000D02*
X118034000Y-66250000D01*
X102774000Y-73563000D02*
X102774000Y-76653000D01*
X108323999Y-75108462D02*
G75*
G03*
X102774001Y-73563170I-2989999J462D01*
G01*
X102774000Y-76652830D02*
G75*
G03*
X108324000Y-75107538I2560000J1544830D01*
G01*
X107834000Y-75108000D02*
G75*
G03*
X107834000Y-75108000I-2500000J0D01*
G01*
X113994000Y-57836000D02*
X114764000Y-57836000D01*
X114764000Y-56466000D02*
X114764000Y-59206000D01*
X114764000Y-59206000D02*
X121304000Y-59206000D01*
X121304000Y-56466000D02*
X114764000Y-56466000D01*
X121304000Y-59206000D02*
X121304000Y-56466000D01*
X122074000Y-57836000D02*
X121304000Y-57836000D01*
X163186000Y-63872000D02*
X164516000Y-63872000D01*
X163186000Y-65202000D02*
X163186000Y-63872000D01*
X163186000Y-66472000D02*
X163186000Y-66532000D01*
X163186000Y-66472000D02*
X165846000Y-66472000D01*
X163186000Y-66532000D02*
X165846000Y-66532000D01*
X165846000Y-66472000D02*
X165846000Y-66532000D01*
X115076000Y-92544000D02*
X122516000Y-92544000D01*
X115076000Y-92544000D02*
X115076000Y-85104000D01*
X122516000Y-92544000D02*
X122516000Y-85104000D01*
X115076000Y-85104000D02*
X122516000Y-85104000D01*
X102769000Y-57815000D02*
X102769000Y-60905000D01*
X108318999Y-59360462D02*
G75*
G03*
X102769001Y-57815170I-2989999J462D01*
G01*
X102769000Y-60904830D02*
G75*
G03*
X108319000Y-59359538I2560000J1544830D01*
G01*
X107829000Y-59360000D02*
G75*
G03*
X107829000Y-59360000I-2500000J0D01*
G01*
M02*
