M48
; DRILL file {KiCad 7.0.1} date Sat May 13 15:10:38 2023
; FORMAT={-:-/ absolute / inch / decimal}
; #@! TF.CreationDate,2023-05-13T15:10:38+02:00
; #@! TF.GenerationSoftware,Kicad,Pcbnew,7.0.1
; #@! TF.FileFunction,Plated,1,4,PTH
FMAT,2
INCH
; #@! TA.AperFunction,Plated,PTH,ViaDrill
T1C0.0157
; #@! TA.AperFunction,Plated,PTH,ViaDrill
T2C0.0236
; #@! TA.AperFunction,Plated,PTH,ComponentDrill
T3C0.0315
; #@! TA.AperFunction,Plated,PTH,ComponentDrill
T4C0.0354
; #@! TA.AperFunction,Plated,PTH,ComponentDrill
T5C0.0394
; #@! TA.AperFunction,Plated,PTH,ComponentDrill
T6C0.0433
%
G90
G05
T1
X6.047Y-2.097
T2
X4.047Y-3.167
X4.417Y-1.937
X4.477Y-3.157
X4.957Y-2.797
X5.467Y-2.167
X5.707Y-2.767
X5.847Y-3.307
X6.127Y-2.477
X6.477Y-3.647
T3
X4.117Y-3.3186
X4.117Y-3.5154
X4.307Y-3.297
X4.307Y-3.697
X4.437Y-3.807
X4.447Y-2.127
X4.447Y-2.277
X4.467Y-2.537
X4.467Y-2.937
X4.647Y-2.537
X4.647Y-2.937
X4.677Y-3.3986
X4.677Y-3.5954
X4.827Y-2.537
X4.827Y-2.937
X4.837Y-3.807
X4.847Y-2.127
X4.847Y-2.277
X4.9766Y-3.2366
X4.9766Y-3.3366
X4.9766Y-3.4366
X4.9766Y-3.5366
X4.977Y-3.037
X5.2351Y-2.797
X5.2766Y-3.2366
X5.2766Y-3.3366
X5.2766Y-3.4366
X5.2766Y-3.5366
X5.3336Y-2.797
X5.377Y-3.037
X5.407Y-3.667
X5.487Y-3.306
X5.487Y-3.4045
X5.597Y-2.607
X5.597Y-3.007
X5.7166Y-3.1766
X5.7166Y-3.2766
X5.7166Y-3.3766
X5.7166Y-3.4766
X5.807Y-3.667
X5.8086Y-2.567
X5.887Y-2.887
X5.9854Y-2.887
X6.0054Y-2.567
X6.0166Y-3.1766
X6.0166Y-3.2766
X6.0166Y-3.3766
X6.0166Y-3.4766
X6.227Y-3.167
X6.227Y-3.567
T4
X4.0968Y-2.337
X4.0968Y-2.657
X4.097Y-2.007
X4.097Y-2.957
X4.1968Y-2.337
X4.1968Y-2.657
X4.197Y-2.007
X4.197Y-2.957
T5
X4.117Y-3.707
X4.647Y-3.217
X4.677Y-1.937
X4.777Y-1.937
X4.877Y-1.937
X4.977Y-1.937
X5.037Y-3.837
X5.077Y-1.937
X5.087Y-2.587
X5.137Y-3.837
X5.177Y-1.937
X5.237Y-3.837
X5.277Y-1.937
X5.307Y-2.567
X5.337Y-3.837
X5.377Y-1.937
X5.437Y-3.837
X5.477Y-1.937
X5.537Y-3.837
X5.577Y-1.937
X5.637Y-3.837
X5.737Y-1.937
X5.737Y-3.837
X5.837Y-1.937
X5.937Y-1.937
X5.937Y-3.837
X6.037Y-1.937
X6.037Y-3.837
X6.047Y-3.667
X6.137Y-1.937
X6.137Y-3.837
X6.2238Y-2.8264
X6.2238Y-2.9264
X6.2238Y-3.0264
X6.237Y-1.937
X6.237Y-3.837
X6.257Y-2.567
X6.337Y-1.937
X6.337Y-3.837
X6.417Y-3.237
X6.417Y-3.447
X6.437Y-1.937
X6.437Y-3.837
X6.477Y-2.567
T6
X6.227Y-2.1011
X6.227Y-2.357
X6.4042Y-2.1011
X6.4042Y-2.357
T0
M30
