%TF.GenerationSoftware,KiCad,Pcbnew,7.0.1*%
%TF.CreationDate,2023-05-13T15:10:29+02:00*%
%TF.ProjectId,Lab1_SDHD,4c616231-5f53-4444-9844-2e6b69636164,v 1.4*%
%TF.SameCoordinates,Original*%
%TF.FileFunction,Legend,Bot*%
%TF.FilePolarity,Positive*%
%FSLAX46Y46*%
G04 Gerber Fmt 4.6, Leading zero omitted, Abs format (unit mm)*
G04 Created by KiCad (PCBNEW 7.0.1) date 2023-05-13 15:10:29*
%MOMM*%
%LPD*%
G01*
G04 APERTURE LIST*
%ADD10C,0.150000*%
%ADD11C,0.120000*%
G04 APERTURE END LIST*
D10*
X126072619Y-96721905D02*
X125072619Y-96721905D01*
X125072619Y-96721905D02*
X125072619Y-97102857D01*
X125072619Y-97102857D02*
X125120238Y-97198095D01*
X125120238Y-97198095D02*
X125167857Y-97245714D01*
X125167857Y-97245714D02*
X125263095Y-97293333D01*
X125263095Y-97293333D02*
X125405952Y-97293333D01*
X125405952Y-97293333D02*
X125501190Y-97245714D01*
X125501190Y-97245714D02*
X125548809Y-97198095D01*
X125548809Y-97198095D02*
X125596428Y-97102857D01*
X125596428Y-97102857D02*
X125596428Y-96721905D01*
X126072619Y-98245714D02*
X126072619Y-97674286D01*
X126072619Y-97960000D02*
X125072619Y-97960000D01*
X125072619Y-97960000D02*
X125215476Y-97864762D01*
X125215476Y-97864762D02*
X125310714Y-97769524D01*
X125310714Y-97769524D02*
X125358333Y-97674286D01*
X148932619Y-96721905D02*
X147932619Y-96721905D01*
X147932619Y-96721905D02*
X147932619Y-97102857D01*
X147932619Y-97102857D02*
X147980238Y-97198095D01*
X147980238Y-97198095D02*
X148027857Y-97245714D01*
X148027857Y-97245714D02*
X148123095Y-97293333D01*
X148123095Y-97293333D02*
X148265952Y-97293333D01*
X148265952Y-97293333D02*
X148361190Y-97245714D01*
X148361190Y-97245714D02*
X148408809Y-97198095D01*
X148408809Y-97198095D02*
X148456428Y-97102857D01*
X148456428Y-97102857D02*
X148456428Y-96721905D01*
X147932619Y-97626667D02*
X147932619Y-98245714D01*
X147932619Y-98245714D02*
X148313571Y-97912381D01*
X148313571Y-97912381D02*
X148313571Y-98055238D01*
X148313571Y-98055238D02*
X148361190Y-98150476D01*
X148361190Y-98150476D02*
X148408809Y-98198095D01*
X148408809Y-98198095D02*
X148504047Y-98245714D01*
X148504047Y-98245714D02*
X148742142Y-98245714D01*
X148742142Y-98245714D02*
X148837380Y-98198095D01*
X148837380Y-98198095D02*
X148885000Y-98150476D01*
X148885000Y-98150476D02*
X148932619Y-98055238D01*
X148932619Y-98055238D02*
X148932619Y-97769524D01*
X148932619Y-97769524D02*
X148885000Y-97674286D01*
X148885000Y-97674286D02*
X148837380Y-97626667D01*
X115956619Y-48207905D02*
X114956619Y-48207905D01*
X114956619Y-48207905D02*
X114956619Y-48588857D01*
X114956619Y-48588857D02*
X115004238Y-48684095D01*
X115004238Y-48684095D02*
X115051857Y-48731714D01*
X115051857Y-48731714D02*
X115147095Y-48779333D01*
X115147095Y-48779333D02*
X115289952Y-48779333D01*
X115289952Y-48779333D02*
X115385190Y-48731714D01*
X115385190Y-48731714D02*
X115432809Y-48684095D01*
X115432809Y-48684095D02*
X115480428Y-48588857D01*
X115480428Y-48588857D02*
X115480428Y-48207905D01*
X115051857Y-49160286D02*
X115004238Y-49207905D01*
X115004238Y-49207905D02*
X114956619Y-49303143D01*
X114956619Y-49303143D02*
X114956619Y-49541238D01*
X114956619Y-49541238D02*
X115004238Y-49636476D01*
X115004238Y-49636476D02*
X115051857Y-49684095D01*
X115051857Y-49684095D02*
X115147095Y-49731714D01*
X115147095Y-49731714D02*
X115242333Y-49731714D01*
X115242333Y-49731714D02*
X115385190Y-49684095D01*
X115385190Y-49684095D02*
X115956619Y-49112667D01*
X115956619Y-49112667D02*
X115956619Y-49731714D01*
X145166619Y-51509905D02*
X144166619Y-51509905D01*
X144166619Y-51509905D02*
X144166619Y-51890857D01*
X144166619Y-51890857D02*
X144214238Y-51986095D01*
X144214238Y-51986095D02*
X144261857Y-52033714D01*
X144261857Y-52033714D02*
X144357095Y-52081333D01*
X144357095Y-52081333D02*
X144499952Y-52081333D01*
X144499952Y-52081333D02*
X144595190Y-52033714D01*
X144595190Y-52033714D02*
X144642809Y-51986095D01*
X144642809Y-51986095D02*
X144690428Y-51890857D01*
X144690428Y-51890857D02*
X144690428Y-51509905D01*
X144499952Y-52938476D02*
X145166619Y-52938476D01*
X144119000Y-52700381D02*
X144833285Y-52462286D01*
X144833285Y-52462286D02*
X144833285Y-53081333D01*
D11*
X147050000Y-96130000D02*
X147050000Y-98790000D01*
X129210000Y-96130000D02*
X147050000Y-96130000D01*
X129210000Y-96130000D02*
X129210000Y-98790000D01*
X127940000Y-96130000D02*
X126610000Y-96130000D01*
X126610000Y-96130000D02*
X126610000Y-97460000D01*
X129210000Y-98790000D02*
X147050000Y-98790000D01*
X164830000Y-96130000D02*
X164830000Y-98790000D01*
X152070000Y-96130000D02*
X164830000Y-96130000D01*
X152070000Y-96130000D02*
X152070000Y-98790000D01*
X150800000Y-96130000D02*
X149470000Y-96130000D01*
X149470000Y-96130000D02*
X149470000Y-97460000D01*
X152070000Y-98790000D02*
X164830000Y-98790000D01*
X142986000Y-47870000D02*
X142986000Y-50530000D01*
X120066000Y-47870000D02*
X142986000Y-47870000D01*
X120066000Y-47870000D02*
X120066000Y-50530000D01*
X118796000Y-47870000D02*
X117466000Y-47870000D01*
X117466000Y-47870000D02*
X117466000Y-49200000D01*
X120066000Y-50530000D02*
X142986000Y-50530000D01*
X146990000Y-47870000D02*
X146990000Y-50530000D01*
X145720000Y-47870000D02*
X144390000Y-47870000D01*
X144390000Y-47870000D02*
X144390000Y-49200000D01*
X146990000Y-50530000D02*
X164830000Y-50530000D01*
M02*
