%TF.GenerationSoftware,KiCad,Pcbnew,7.0.1*%
%TF.CreationDate,2023-05-13T15:10:29+02:00*%
%TF.ProjectId,Lab1_SDHD,4c616231-5f53-4444-9844-2e6b69636164,v 1.4*%
%TF.SameCoordinates,Original*%
%TF.FileFunction,Copper,L3,Inr*%
%TF.FilePolarity,Positive*%
%FSLAX46Y46*%
G04 Gerber Fmt 4.6, Leading zero omitted, Abs format (unit mm)*
G04 Created by KiCad (PCBNEW 7.0.1) date 2023-05-13 15:10:29*
%MOMM*%
%LPD*%
G01*
G04 APERTURE LIST*
%TA.AperFunction,ComponentPad*%
%ADD10R,1.700000X1.700000*%
%TD*%
%TA.AperFunction,ComponentPad*%
%ADD11R,1.600000X1.600000*%
%TD*%
%TA.AperFunction,ComponentPad*%
%ADD12C,1.600000*%
%TD*%
%TA.AperFunction,ComponentPad*%
%ADD13O,1.600000X1.600000*%
%TD*%
%TA.AperFunction,ComponentPad*%
%ADD14R,1.800000X1.800000*%
%TD*%
%TA.AperFunction,ComponentPad*%
%ADD15C,1.800000*%
%TD*%
%TA.AperFunction,ComponentPad*%
%ADD16O,1.700000X1.700000*%
%TD*%
%TA.AperFunction,ComponentPad*%
%ADD17C,2.000000*%
%TD*%
%TA.AperFunction,ViaPad*%
%ADD18C,0.800000*%
%TD*%
G04 APERTURE END LIST*
D10*
X104572000Y-94158000D03*
D11*
X135472380Y-71044000D03*
D12*
X132972380Y-71044000D03*
X104572000Y-84292000D03*
X104572000Y-89292000D03*
X142164000Y-76378000D03*
D13*
X142164000Y-66218000D03*
D12*
X113462000Y-74600000D03*
D13*
X113462000Y-64440000D03*
D14*
X104064000Y-50978000D03*
D15*
X106604000Y-50978000D03*
D10*
X158928000Y-65202000D03*
D12*
X112954000Y-54026000D03*
D13*
X123114000Y-54026000D03*
D10*
X134798000Y-65202000D03*
X118034000Y-81712000D03*
D12*
X122860000Y-96698000D03*
D13*
X112700000Y-96698000D03*
D11*
X139370000Y-86473113D03*
D12*
X139370000Y-83973113D03*
D11*
X134026000Y-89830000D03*
D13*
X134026000Y-87290000D03*
X134026000Y-84750000D03*
X134026000Y-82210000D03*
X126406000Y-82210000D03*
X126406000Y-84750000D03*
X126406000Y-87290000D03*
X126406000Y-89830000D03*
D12*
X122606000Y-64440000D03*
D13*
X122606000Y-74600000D03*
D12*
X158166000Y-80442000D03*
D13*
X158166000Y-90602000D03*
D12*
X152538000Y-65202000D03*
X147538000Y-65202000D03*
X137338000Y-93142000D03*
D13*
X147498000Y-93142000D03*
D14*
X104059000Y-67488000D03*
D15*
X106599000Y-67488000D03*
D16*
X158084000Y-71791000D03*
X158084000Y-74331000D03*
D10*
X158084000Y-76871000D03*
D11*
X152030000Y-73330000D03*
D12*
X149530000Y-73330000D03*
D10*
X162992000Y-87554000D03*
D17*
X162666000Y-53368000D03*
X162666000Y-59868000D03*
X158166000Y-53368000D03*
X158166000Y-59868000D03*
D10*
X162992000Y-82220000D03*
D12*
X136576000Y-77140000D03*
D13*
X126416000Y-77140000D03*
D11*
X152822000Y-88306000D03*
D13*
X152822000Y-85766000D03*
X152822000Y-83226000D03*
X152822000Y-80686000D03*
X145202000Y-80686000D03*
X145202000Y-83226000D03*
X145202000Y-85766000D03*
X145202000Y-88306000D03*
D10*
X129210000Y-65710000D03*
X153594000Y-93142000D03*
D12*
X109398000Y-93904000D03*
D13*
X109398000Y-83744000D03*
D12*
X118034000Y-74600000D03*
D13*
X118034000Y-64440000D03*
D14*
X104064000Y-75108000D03*
D15*
X106604000Y-75108000D03*
D12*
X112954000Y-57836000D03*
D13*
X123114000Y-57836000D03*
D10*
X164516000Y-65202000D03*
D12*
X118796000Y-91324000D03*
X118796000Y-86324000D03*
D14*
X104059000Y-59360000D03*
D15*
X106599000Y-59360000D03*
D10*
X127940000Y-97460000D03*
D16*
X130480000Y-97460000D03*
X133020000Y-97460000D03*
X135560000Y-97460000D03*
X138100000Y-97460000D03*
X140640000Y-97460000D03*
X143180000Y-97460000D03*
X145720000Y-97460000D03*
D10*
X150800000Y-97460000D03*
D16*
X153340000Y-97460000D03*
X155880000Y-97460000D03*
X158420000Y-97460000D03*
X160960000Y-97460000D03*
X163500000Y-97460000D03*
D10*
X118796000Y-49200000D03*
D16*
X121336000Y-49200000D03*
X123876000Y-49200000D03*
X126416000Y-49200000D03*
X128956000Y-49200000D03*
X131496000Y-49200000D03*
X134036000Y-49200000D03*
X136576000Y-49200000D03*
X139116000Y-49200000D03*
X141656000Y-49200000D03*
D10*
X145720000Y-49200000D03*
D16*
X148260000Y-49200000D03*
X150800000Y-49200000D03*
X153340000Y-49200000D03*
X155880000Y-49200000D03*
X158420000Y-49200000D03*
X160960000Y-49200000D03*
X163500000Y-49200000D03*
D18*
X144958000Y-70282000D03*
X148514000Y-83998000D03*
X138862000Y-55042000D03*
X155626000Y-62916000D03*
X112192000Y-49200000D03*
X125908000Y-71044000D03*
X164516000Y-92634000D03*
X113716000Y-80188000D03*
X102794000Y-80442000D03*
X153594000Y-53264000D03*
%TA.AperFunction,Conductor*%
G36*
X163288777Y-47169939D02*
G01*
X163329005Y-47196819D01*
X163772315Y-47640129D01*
X163803767Y-47693412D01*
X163805558Y-47755259D01*
X163777241Y-47810272D01*
X163725866Y-47844754D01*
X163664226Y-47850119D01*
X163612571Y-47841500D01*
X163612569Y-47841500D01*
X163387431Y-47841500D01*
X163165363Y-47878556D01*
X162952427Y-47951657D01*
X162754424Y-48058811D01*
X162576760Y-48197094D01*
X162424279Y-48362730D01*
X162333809Y-48501205D01*
X162289017Y-48542438D01*
X162230000Y-48557383D01*
X162170983Y-48542438D01*
X162126191Y-48501205D01*
X162065873Y-48408882D01*
X162035722Y-48362732D01*
X161883240Y-48197094D01*
X161705576Y-48058811D01*
X161507574Y-47951658D01*
X161507573Y-47951657D01*
X161507572Y-47951657D01*
X161294636Y-47878556D01*
X161072569Y-47841500D01*
X160847431Y-47841500D01*
X160625363Y-47878556D01*
X160412427Y-47951657D01*
X160214424Y-48058811D01*
X160036760Y-48197094D01*
X159884279Y-48362730D01*
X159793809Y-48501205D01*
X159749017Y-48542438D01*
X159690000Y-48557383D01*
X159630983Y-48542438D01*
X159586191Y-48501205D01*
X159525873Y-48408882D01*
X159495722Y-48362732D01*
X159343240Y-48197094D01*
X159165576Y-48058811D01*
X158967574Y-47951658D01*
X158967573Y-47951657D01*
X158967572Y-47951657D01*
X158754636Y-47878556D01*
X158532569Y-47841500D01*
X158307431Y-47841500D01*
X158085363Y-47878556D01*
X157872427Y-47951657D01*
X157674424Y-48058811D01*
X157496760Y-48197094D01*
X157344279Y-48362730D01*
X157253809Y-48501205D01*
X157209017Y-48542438D01*
X157150000Y-48557383D01*
X157090983Y-48542438D01*
X157046191Y-48501205D01*
X156985873Y-48408882D01*
X156955722Y-48362732D01*
X156803240Y-48197094D01*
X156625576Y-48058811D01*
X156427574Y-47951658D01*
X156427573Y-47951657D01*
X156427572Y-47951657D01*
X156214636Y-47878556D01*
X155992569Y-47841500D01*
X155767431Y-47841500D01*
X155545363Y-47878556D01*
X155332427Y-47951657D01*
X155134424Y-48058811D01*
X154956760Y-48197094D01*
X154804279Y-48362730D01*
X154713809Y-48501205D01*
X154669017Y-48542438D01*
X154610000Y-48557383D01*
X154550983Y-48542438D01*
X154506191Y-48501205D01*
X154445873Y-48408882D01*
X154415722Y-48362732D01*
X154263240Y-48197094D01*
X154085576Y-48058811D01*
X153887574Y-47951658D01*
X153887573Y-47951657D01*
X153887572Y-47951657D01*
X153674636Y-47878556D01*
X153452569Y-47841500D01*
X153227431Y-47841500D01*
X153005363Y-47878556D01*
X152792427Y-47951657D01*
X152594424Y-48058811D01*
X152416760Y-48197094D01*
X152264279Y-48362730D01*
X152173809Y-48501205D01*
X152129017Y-48542438D01*
X152070000Y-48557383D01*
X152010983Y-48542438D01*
X151966191Y-48501205D01*
X151905873Y-48408882D01*
X151875722Y-48362732D01*
X151723240Y-48197094D01*
X151545576Y-48058811D01*
X151347574Y-47951658D01*
X151347573Y-47951657D01*
X151347572Y-47951657D01*
X151134636Y-47878556D01*
X150912569Y-47841500D01*
X150687431Y-47841500D01*
X150465363Y-47878556D01*
X150252427Y-47951657D01*
X150054424Y-48058811D01*
X149876760Y-48197094D01*
X149724279Y-48362730D01*
X149633809Y-48501205D01*
X149589017Y-48542438D01*
X149530000Y-48557383D01*
X149470983Y-48542438D01*
X149426191Y-48501205D01*
X149365873Y-48408882D01*
X149335722Y-48362732D01*
X149183240Y-48197094D01*
X149005576Y-48058811D01*
X148807574Y-47951658D01*
X148807573Y-47951657D01*
X148807572Y-47951657D01*
X148594636Y-47878556D01*
X148372569Y-47841500D01*
X148147431Y-47841500D01*
X147925363Y-47878556D01*
X147712427Y-47951657D01*
X147514424Y-48058811D01*
X147336759Y-48197094D01*
X147273548Y-48265759D01*
X147220924Y-48299612D01*
X147158470Y-48303460D01*
X147102089Y-48276322D01*
X147066138Y-48225110D01*
X147041427Y-48158861D01*
X147020889Y-48103796D01*
X146939024Y-47994437D01*
X146933261Y-47986738D01*
X146816203Y-47899110D01*
X146679205Y-47848011D01*
X146648906Y-47844754D01*
X146618638Y-47841500D01*
X144821362Y-47841500D01*
X144794445Y-47844393D01*
X144760794Y-47848011D01*
X144623796Y-47899110D01*
X144506738Y-47986738D01*
X144419110Y-48103796D01*
X144368011Y-48240794D01*
X144364393Y-48274445D01*
X144361500Y-48301362D01*
X144361500Y-50098638D01*
X144362713Y-50109917D01*
X144368011Y-50159205D01*
X144419110Y-50296203D01*
X144506738Y-50413261D01*
X144623796Y-50500889D01*
X144760794Y-50551988D01*
X144760797Y-50551988D01*
X144760799Y-50551989D01*
X144821362Y-50558500D01*
X146618634Y-50558500D01*
X146618638Y-50558500D01*
X146679201Y-50551989D01*
X146679203Y-50551988D01*
X146679205Y-50551988D01*
X146767403Y-50519091D01*
X146816204Y-50500889D01*
X146933261Y-50413261D01*
X147020889Y-50296204D01*
X147066137Y-50174889D01*
X147102089Y-50123677D01*
X147158471Y-50096539D01*
X147220925Y-50100387D01*
X147273548Y-50134241D01*
X147310969Y-50174890D01*
X147336760Y-50202906D01*
X147514424Y-50341189D01*
X147712426Y-50448342D01*
X147925365Y-50521444D01*
X148147431Y-50558500D01*
X148372569Y-50558500D01*
X148594635Y-50521444D01*
X148807574Y-50448342D01*
X149005576Y-50341189D01*
X149183240Y-50202906D01*
X149335722Y-50037268D01*
X149426190Y-49898795D01*
X149470982Y-49857561D01*
X149530000Y-49842616D01*
X149589018Y-49857561D01*
X149633809Y-49898795D01*
X149719112Y-50029362D01*
X149724278Y-50037268D01*
X149876760Y-50202906D01*
X150054424Y-50341189D01*
X150252426Y-50448342D01*
X150465365Y-50521444D01*
X150687431Y-50558500D01*
X150912569Y-50558500D01*
X151134635Y-50521444D01*
X151347574Y-50448342D01*
X151545576Y-50341189D01*
X151723240Y-50202906D01*
X151875722Y-50037268D01*
X151966190Y-49898795D01*
X152010982Y-49857561D01*
X152070000Y-49842616D01*
X152129018Y-49857561D01*
X152173809Y-49898795D01*
X152259112Y-50029362D01*
X152264278Y-50037268D01*
X152416760Y-50202906D01*
X152594424Y-50341189D01*
X152792426Y-50448342D01*
X153005365Y-50521444D01*
X153227431Y-50558500D01*
X153452569Y-50558500D01*
X153674635Y-50521444D01*
X153887574Y-50448342D01*
X154085576Y-50341189D01*
X154263240Y-50202906D01*
X154415722Y-50037268D01*
X154506190Y-49898795D01*
X154550982Y-49857561D01*
X154610000Y-49842616D01*
X154669018Y-49857561D01*
X154713809Y-49898795D01*
X154799112Y-50029362D01*
X154804278Y-50037268D01*
X154956760Y-50202906D01*
X155134424Y-50341189D01*
X155332426Y-50448342D01*
X155545365Y-50521444D01*
X155767431Y-50558500D01*
X155992569Y-50558500D01*
X156214635Y-50521444D01*
X156427574Y-50448342D01*
X156625576Y-50341189D01*
X156803240Y-50202906D01*
X156955722Y-50037268D01*
X157046190Y-49898795D01*
X157090982Y-49857561D01*
X157150000Y-49842616D01*
X157209018Y-49857561D01*
X157253809Y-49898795D01*
X157339112Y-50029362D01*
X157344278Y-50037268D01*
X157496760Y-50202906D01*
X157674424Y-50341189D01*
X157872426Y-50448342D01*
X158085365Y-50521444D01*
X158307431Y-50558500D01*
X158532569Y-50558500D01*
X158754635Y-50521444D01*
X158967574Y-50448342D01*
X159165576Y-50341189D01*
X159343240Y-50202906D01*
X159495722Y-50037268D01*
X159586190Y-49898795D01*
X159630982Y-49857561D01*
X159690000Y-49842616D01*
X159749018Y-49857561D01*
X159793809Y-49898795D01*
X159879112Y-50029362D01*
X159884278Y-50037268D01*
X160036760Y-50202906D01*
X160214424Y-50341189D01*
X160412426Y-50448342D01*
X160625365Y-50521444D01*
X160847431Y-50558500D01*
X161072569Y-50558500D01*
X161294635Y-50521444D01*
X161507574Y-50448342D01*
X161705576Y-50341189D01*
X161883240Y-50202906D01*
X162035722Y-50037268D01*
X162126190Y-49898795D01*
X162170982Y-49857561D01*
X162230000Y-49842616D01*
X162289018Y-49857561D01*
X162333809Y-49898795D01*
X162419112Y-50029362D01*
X162424278Y-50037268D01*
X162576760Y-50202906D01*
X162754424Y-50341189D01*
X162952426Y-50448342D01*
X163165365Y-50521444D01*
X163387431Y-50558500D01*
X163612569Y-50558500D01*
X163834635Y-50521444D01*
X164047574Y-50448342D01*
X164245576Y-50341189D01*
X164423240Y-50202906D01*
X164575722Y-50037268D01*
X164698860Y-49848791D01*
X164789296Y-49642616D01*
X164844564Y-49424368D01*
X164863156Y-49200000D01*
X164848713Y-49025704D01*
X164858325Y-48966596D01*
X164894519Y-48918884D01*
X164948852Y-48893700D01*
X165008652Y-48896917D01*
X165059970Y-48927784D01*
X165503181Y-49370995D01*
X165530061Y-49411223D01*
X165539500Y-49458676D01*
X165539500Y-59292856D01*
X165536666Y-59319214D01*
X165535640Y-59323926D01*
X165539184Y-59373461D01*
X165539500Y-59382308D01*
X165539500Y-59395803D01*
X165541419Y-59409153D01*
X165542365Y-59417947D01*
X165545909Y-59467483D01*
X165547594Y-59472001D01*
X165554147Y-59497676D01*
X165554712Y-59501603D01*
X165554835Y-59502458D01*
X165575457Y-59547612D01*
X165578845Y-59555790D01*
X165596204Y-59602331D01*
X165599095Y-59606194D01*
X165612620Y-59628987D01*
X165614622Y-59633372D01*
X165614623Y-59633373D01*
X165647147Y-59670907D01*
X165652689Y-59677786D01*
X165660779Y-59688593D01*
X165670321Y-59698135D01*
X165676354Y-59704615D01*
X165708870Y-59742142D01*
X165712927Y-59744749D01*
X165733571Y-59761385D01*
X168043181Y-62070995D01*
X168070061Y-62111223D01*
X168079500Y-62158676D01*
X168079500Y-95931324D01*
X168070061Y-95978777D01*
X168043181Y-96019005D01*
X165733569Y-98328615D01*
X165712936Y-98345244D01*
X165708872Y-98347855D01*
X165676351Y-98385386D01*
X165670330Y-98391854D01*
X165660777Y-98401408D01*
X165652677Y-98412227D01*
X165647132Y-98419107D01*
X165614624Y-98456624D01*
X165612618Y-98461017D01*
X165599098Y-98483802D01*
X165596203Y-98487668D01*
X165578851Y-98534191D01*
X165575466Y-98542365D01*
X165554834Y-98587545D01*
X165554147Y-98592323D01*
X165547596Y-98617990D01*
X165545909Y-98622513D01*
X165542365Y-98672053D01*
X165541420Y-98680846D01*
X165539500Y-98694204D01*
X165539500Y-98707692D01*
X165539184Y-98716539D01*
X165535640Y-98766073D01*
X165536666Y-98770786D01*
X165539500Y-98797144D01*
X165539500Y-99228243D01*
X165537973Y-99247642D01*
X165529773Y-99299411D01*
X165517785Y-99336307D01*
X165498474Y-99374207D01*
X165475670Y-99405593D01*
X165445593Y-99435670D01*
X165414207Y-99458474D01*
X165376307Y-99477785D01*
X165339411Y-99489773D01*
X165309068Y-99494579D01*
X165287639Y-99497973D01*
X165268243Y-99499500D01*
X100771757Y-99499500D01*
X100752360Y-99497973D01*
X100718098Y-99492546D01*
X100700588Y-99489773D01*
X100663695Y-99477786D01*
X100625790Y-99458472D01*
X100594406Y-99435670D01*
X100564329Y-99405593D01*
X100541528Y-99374211D01*
X100522212Y-99336301D01*
X100510227Y-99299417D01*
X100502025Y-99247629D01*
X100500500Y-99228243D01*
X100500500Y-98358634D01*
X126581500Y-98358634D01*
X126588011Y-98419205D01*
X126639110Y-98556203D01*
X126726738Y-98673261D01*
X126843796Y-98760889D01*
X126980794Y-98811988D01*
X126980797Y-98811988D01*
X126980799Y-98811989D01*
X127041362Y-98818500D01*
X128838634Y-98818500D01*
X128838638Y-98818500D01*
X128899201Y-98811989D01*
X128899203Y-98811988D01*
X128899205Y-98811988D01*
X129022305Y-98766073D01*
X129036204Y-98760889D01*
X129153261Y-98673261D01*
X129240889Y-98556204D01*
X129286137Y-98434889D01*
X129322089Y-98383677D01*
X129378471Y-98356539D01*
X129440925Y-98360387D01*
X129493548Y-98394241D01*
X129555021Y-98461017D01*
X129556760Y-98462906D01*
X129734424Y-98601189D01*
X129932426Y-98708342D01*
X130145365Y-98781444D01*
X130367431Y-98818500D01*
X130592569Y-98818500D01*
X130814635Y-98781444D01*
X131027574Y-98708342D01*
X131225576Y-98601189D01*
X131403240Y-98462906D01*
X131555722Y-98297268D01*
X131646190Y-98158795D01*
X131690982Y-98117561D01*
X131750000Y-98102616D01*
X131809018Y-98117561D01*
X131853809Y-98158795D01*
X131944278Y-98297268D01*
X132096760Y-98462906D01*
X132274424Y-98601189D01*
X132472426Y-98708342D01*
X132685365Y-98781444D01*
X132907431Y-98818500D01*
X133132569Y-98818500D01*
X133354635Y-98781444D01*
X133567574Y-98708342D01*
X133765576Y-98601189D01*
X133943240Y-98462906D01*
X134095722Y-98297268D01*
X134186190Y-98158795D01*
X134230982Y-98117561D01*
X134290000Y-98102616D01*
X134349018Y-98117561D01*
X134393809Y-98158795D01*
X134484278Y-98297268D01*
X134636760Y-98462906D01*
X134814424Y-98601189D01*
X135012426Y-98708342D01*
X135225365Y-98781444D01*
X135447431Y-98818500D01*
X135672569Y-98818500D01*
X135894635Y-98781444D01*
X136107574Y-98708342D01*
X136305576Y-98601189D01*
X136483240Y-98462906D01*
X136635722Y-98297268D01*
X136729748Y-98153349D01*
X136773663Y-98112595D01*
X136831562Y-98097188D01*
X136889926Y-98110726D01*
X136935131Y-98150048D01*
X137061892Y-98331080D01*
X137228918Y-98498106D01*
X137422423Y-98633600D01*
X137636507Y-98733430D01*
X137849999Y-98790635D01*
X137850000Y-98790636D01*
X137850000Y-98790635D01*
X138350000Y-98790635D01*
X138563492Y-98733430D01*
X138777576Y-98633600D01*
X138971081Y-98498106D01*
X139138106Y-98331081D01*
X139264868Y-98150048D01*
X139310072Y-98110726D01*
X139368436Y-98097188D01*
X139426335Y-98112595D01*
X139470252Y-98153351D01*
X139564276Y-98297267D01*
X139643824Y-98383677D01*
X139716760Y-98462906D01*
X139894424Y-98601189D01*
X140092426Y-98708342D01*
X140305365Y-98781444D01*
X140527431Y-98818500D01*
X140752569Y-98818500D01*
X140974635Y-98781444D01*
X141187574Y-98708342D01*
X141385576Y-98601189D01*
X141563240Y-98462906D01*
X141715722Y-98297268D01*
X141806190Y-98158795D01*
X141850982Y-98117561D01*
X141910000Y-98102616D01*
X141969018Y-98117561D01*
X142013809Y-98158795D01*
X142104278Y-98297268D01*
X142256760Y-98462906D01*
X142434424Y-98601189D01*
X142632426Y-98708342D01*
X142845365Y-98781444D01*
X143067431Y-98818500D01*
X143292569Y-98818500D01*
X143514635Y-98781444D01*
X143727574Y-98708342D01*
X143925576Y-98601189D01*
X144103240Y-98462906D01*
X144255722Y-98297268D01*
X144346190Y-98158795D01*
X144390982Y-98117561D01*
X144450000Y-98102616D01*
X144509018Y-98117561D01*
X144553809Y-98158795D01*
X144644278Y-98297268D01*
X144796760Y-98462906D01*
X144974424Y-98601189D01*
X145172426Y-98708342D01*
X145385365Y-98781444D01*
X145607431Y-98818500D01*
X145832569Y-98818500D01*
X146054635Y-98781444D01*
X146267574Y-98708342D01*
X146465576Y-98601189D01*
X146643240Y-98462906D01*
X146739230Y-98358634D01*
X149441500Y-98358634D01*
X149448011Y-98419205D01*
X149499110Y-98556203D01*
X149586738Y-98673261D01*
X149703796Y-98760889D01*
X149840794Y-98811988D01*
X149840797Y-98811988D01*
X149840799Y-98811989D01*
X149901362Y-98818500D01*
X151698634Y-98818500D01*
X151698638Y-98818500D01*
X151759201Y-98811989D01*
X151759203Y-98811988D01*
X151759205Y-98811988D01*
X151882305Y-98766073D01*
X151896204Y-98760889D01*
X152013261Y-98673261D01*
X152100889Y-98556204D01*
X152146137Y-98434889D01*
X152182089Y-98383677D01*
X152238471Y-98356539D01*
X152300925Y-98360387D01*
X152353548Y-98394241D01*
X152415021Y-98461017D01*
X152416760Y-98462906D01*
X152594424Y-98601189D01*
X152792426Y-98708342D01*
X153005365Y-98781444D01*
X153227431Y-98818500D01*
X153452569Y-98818500D01*
X153674635Y-98781444D01*
X153887574Y-98708342D01*
X154085576Y-98601189D01*
X154263240Y-98462906D01*
X154415722Y-98297268D01*
X154506190Y-98158795D01*
X154550982Y-98117561D01*
X154610000Y-98102616D01*
X154669018Y-98117561D01*
X154713809Y-98158795D01*
X154804278Y-98297268D01*
X154956760Y-98462906D01*
X155134424Y-98601189D01*
X155332426Y-98708342D01*
X155545365Y-98781444D01*
X155767431Y-98818500D01*
X155992569Y-98818500D01*
X156214635Y-98781444D01*
X156427574Y-98708342D01*
X156625576Y-98601189D01*
X156803240Y-98462906D01*
X156955722Y-98297268D01*
X157046190Y-98158795D01*
X157090982Y-98117561D01*
X157150000Y-98102616D01*
X157209018Y-98117561D01*
X157253809Y-98158795D01*
X157344278Y-98297268D01*
X157496760Y-98462906D01*
X157674424Y-98601189D01*
X157872426Y-98708342D01*
X158085365Y-98781444D01*
X158307431Y-98818500D01*
X158532569Y-98818500D01*
X158754635Y-98781444D01*
X158967574Y-98708342D01*
X159165576Y-98601189D01*
X159343240Y-98462906D01*
X159495722Y-98297268D01*
X159586190Y-98158795D01*
X159630982Y-98117561D01*
X159690000Y-98102616D01*
X159749018Y-98117561D01*
X159793809Y-98158795D01*
X159884278Y-98297268D01*
X160036760Y-98462906D01*
X160214424Y-98601189D01*
X160412426Y-98708342D01*
X160625365Y-98781444D01*
X160847431Y-98818500D01*
X161072569Y-98818500D01*
X161294635Y-98781444D01*
X161507574Y-98708342D01*
X161705576Y-98601189D01*
X161883240Y-98462906D01*
X162035722Y-98297268D01*
X162126190Y-98158795D01*
X162170982Y-98117561D01*
X162230000Y-98102616D01*
X162289018Y-98117561D01*
X162333809Y-98158795D01*
X162424278Y-98297268D01*
X162576760Y-98462906D01*
X162754424Y-98601189D01*
X162952426Y-98708342D01*
X163165365Y-98781444D01*
X163387431Y-98818500D01*
X163612569Y-98818500D01*
X163834635Y-98781444D01*
X164047574Y-98708342D01*
X164245576Y-98601189D01*
X164423240Y-98462906D01*
X164575722Y-98297268D01*
X164698860Y-98108791D01*
X164789296Y-97902616D01*
X164844564Y-97684368D01*
X164863156Y-97460000D01*
X164844564Y-97235632D01*
X164789296Y-97017384D01*
X164698860Y-96811209D01*
X164575722Y-96622732D01*
X164423240Y-96457094D01*
X164245576Y-96318811D01*
X164047574Y-96211658D01*
X164047573Y-96211657D01*
X164047572Y-96211657D01*
X163834636Y-96138556D01*
X163612569Y-96101500D01*
X163387431Y-96101500D01*
X163165363Y-96138556D01*
X162952427Y-96211657D01*
X162754424Y-96318811D01*
X162576760Y-96457094D01*
X162424279Y-96622730D01*
X162333809Y-96761205D01*
X162289017Y-96802438D01*
X162230000Y-96817383D01*
X162170983Y-96802438D01*
X162126191Y-96761205D01*
X162106043Y-96730367D01*
X162035722Y-96622732D01*
X161883240Y-96457094D01*
X161705576Y-96318811D01*
X161507574Y-96211658D01*
X161507573Y-96211657D01*
X161507572Y-96211657D01*
X161294636Y-96138556D01*
X161072569Y-96101500D01*
X160847431Y-96101500D01*
X160625363Y-96138556D01*
X160412427Y-96211657D01*
X160214424Y-96318811D01*
X160036760Y-96457094D01*
X159884279Y-96622730D01*
X159793809Y-96761205D01*
X159749017Y-96802438D01*
X159690000Y-96817383D01*
X159630983Y-96802438D01*
X159586191Y-96761205D01*
X159566043Y-96730367D01*
X159495722Y-96622732D01*
X159343240Y-96457094D01*
X159165576Y-96318811D01*
X158967574Y-96211658D01*
X158967573Y-96211657D01*
X158967572Y-96211657D01*
X158754636Y-96138556D01*
X158532569Y-96101500D01*
X158307431Y-96101500D01*
X158085363Y-96138556D01*
X157872427Y-96211657D01*
X157674424Y-96318811D01*
X157496760Y-96457094D01*
X157344279Y-96622730D01*
X157253809Y-96761205D01*
X157209017Y-96802438D01*
X157150000Y-96817383D01*
X157090983Y-96802438D01*
X157046191Y-96761205D01*
X157026043Y-96730367D01*
X156955722Y-96622732D01*
X156803240Y-96457094D01*
X156625576Y-96318811D01*
X156427574Y-96211658D01*
X156427573Y-96211657D01*
X156427572Y-96211657D01*
X156214636Y-96138556D01*
X155992569Y-96101500D01*
X155767431Y-96101500D01*
X155545363Y-96138556D01*
X155332427Y-96211657D01*
X155134424Y-96318811D01*
X154956760Y-96457094D01*
X154804279Y-96622730D01*
X154713809Y-96761205D01*
X154669017Y-96802438D01*
X154610000Y-96817383D01*
X154550983Y-96802438D01*
X154506191Y-96761205D01*
X154486043Y-96730367D01*
X154415722Y-96622732D01*
X154263240Y-96457094D01*
X154085576Y-96318811D01*
X153887574Y-96211658D01*
X153887573Y-96211657D01*
X153887572Y-96211657D01*
X153674636Y-96138556D01*
X153452569Y-96101500D01*
X153227431Y-96101500D01*
X153005363Y-96138556D01*
X152792427Y-96211657D01*
X152594424Y-96318811D01*
X152416759Y-96457094D01*
X152353548Y-96525759D01*
X152300924Y-96559612D01*
X152238470Y-96563460D01*
X152182089Y-96536322D01*
X152146138Y-96485110D01*
X152107552Y-96381660D01*
X152100889Y-96363796D01*
X152042951Y-96286400D01*
X152013261Y-96246738D01*
X151896203Y-96159110D01*
X151759205Y-96108011D01*
X151728919Y-96104755D01*
X151698638Y-96101500D01*
X149901362Y-96101500D01*
X149874445Y-96104393D01*
X149840794Y-96108011D01*
X149703796Y-96159110D01*
X149586738Y-96246738D01*
X149499110Y-96363796D01*
X149448011Y-96500794D01*
X149444735Y-96531267D01*
X149441689Y-96559612D01*
X149441500Y-96561366D01*
X149441500Y-98358634D01*
X146739230Y-98358634D01*
X146795722Y-98297268D01*
X146918860Y-98108791D01*
X147009296Y-97902616D01*
X147064564Y-97684368D01*
X147083156Y-97460000D01*
X147064564Y-97235632D01*
X147009296Y-97017384D01*
X146918860Y-96811209D01*
X146795722Y-96622732D01*
X146643240Y-96457094D01*
X146465576Y-96318811D01*
X146267574Y-96211658D01*
X146267573Y-96211657D01*
X146267572Y-96211657D01*
X146054636Y-96138556D01*
X145832569Y-96101500D01*
X145607431Y-96101500D01*
X145385363Y-96138556D01*
X145172427Y-96211657D01*
X144974424Y-96318811D01*
X144796760Y-96457094D01*
X144644279Y-96622730D01*
X144553809Y-96761205D01*
X144509017Y-96802438D01*
X144450000Y-96817383D01*
X144390983Y-96802438D01*
X144346191Y-96761205D01*
X144326043Y-96730367D01*
X144255722Y-96622732D01*
X144103240Y-96457094D01*
X143925576Y-96318811D01*
X143727574Y-96211658D01*
X143727573Y-96211657D01*
X143727572Y-96211657D01*
X143514636Y-96138556D01*
X143292569Y-96101500D01*
X143067431Y-96101500D01*
X142845363Y-96138556D01*
X142632427Y-96211657D01*
X142434424Y-96318811D01*
X142256760Y-96457094D01*
X142104279Y-96622730D01*
X142013809Y-96761205D01*
X141969017Y-96802438D01*
X141910000Y-96817383D01*
X141850983Y-96802438D01*
X141806191Y-96761205D01*
X141786043Y-96730367D01*
X141715722Y-96622732D01*
X141563240Y-96457094D01*
X141385576Y-96318811D01*
X141187574Y-96211658D01*
X141187573Y-96211657D01*
X141187572Y-96211657D01*
X140974636Y-96138556D01*
X140752569Y-96101500D01*
X140527431Y-96101500D01*
X140305363Y-96138556D01*
X140092427Y-96211657D01*
X139894424Y-96318811D01*
X139716760Y-96457094D01*
X139564275Y-96622734D01*
X139470250Y-96766650D01*
X139426334Y-96807405D01*
X139368435Y-96822812D01*
X139310071Y-96809274D01*
X139264867Y-96769951D01*
X139138109Y-96588921D01*
X138971081Y-96421893D01*
X138777576Y-96286399D01*
X138563492Y-96186569D01*
X138350000Y-96129364D01*
X138350000Y-98790635D01*
X137850000Y-98790635D01*
X137850000Y-96129364D01*
X137849999Y-96129364D01*
X137636507Y-96186569D01*
X137422421Y-96286400D01*
X137228921Y-96421890D01*
X137061893Y-96588918D01*
X136935132Y-96769952D01*
X136889928Y-96809274D01*
X136831564Y-96822812D01*
X136773665Y-96807405D01*
X136729748Y-96766649D01*
X136635723Y-96622732D01*
X136526646Y-96504245D01*
X136483240Y-96457094D01*
X136305576Y-96318811D01*
X136107574Y-96211658D01*
X136107573Y-96211657D01*
X136107572Y-96211657D01*
X135894636Y-96138556D01*
X135672569Y-96101500D01*
X135447431Y-96101500D01*
X135225363Y-96138556D01*
X135012427Y-96211657D01*
X134814424Y-96318811D01*
X134636760Y-96457094D01*
X134484279Y-96622730D01*
X134393809Y-96761205D01*
X134349017Y-96802438D01*
X134290000Y-96817383D01*
X134230983Y-96802438D01*
X134186191Y-96761205D01*
X134166043Y-96730367D01*
X134095722Y-96622732D01*
X133943240Y-96457094D01*
X133765576Y-96318811D01*
X133567574Y-96211658D01*
X133567573Y-96211657D01*
X133567572Y-96211657D01*
X133354636Y-96138556D01*
X133132569Y-96101500D01*
X132907431Y-96101500D01*
X132685363Y-96138556D01*
X132472427Y-96211657D01*
X132274424Y-96318811D01*
X132096760Y-96457094D01*
X131944279Y-96622730D01*
X131853809Y-96761205D01*
X131809017Y-96802438D01*
X131750000Y-96817383D01*
X131690983Y-96802438D01*
X131646191Y-96761205D01*
X131626043Y-96730367D01*
X131555722Y-96622732D01*
X131403240Y-96457094D01*
X131225576Y-96318811D01*
X131027574Y-96211658D01*
X131027573Y-96211657D01*
X131027572Y-96211657D01*
X130814636Y-96138556D01*
X130592569Y-96101500D01*
X130367431Y-96101500D01*
X130145363Y-96138556D01*
X129932427Y-96211657D01*
X129734424Y-96318811D01*
X129556759Y-96457094D01*
X129493548Y-96525759D01*
X129440924Y-96559612D01*
X129378470Y-96563460D01*
X129322089Y-96536322D01*
X129286138Y-96485110D01*
X129247552Y-96381660D01*
X129240889Y-96363796D01*
X129182951Y-96286400D01*
X129153261Y-96246738D01*
X129036203Y-96159110D01*
X128899205Y-96108011D01*
X128868919Y-96104755D01*
X128838638Y-96101500D01*
X127041362Y-96101500D01*
X127014445Y-96104393D01*
X126980794Y-96108011D01*
X126843796Y-96159110D01*
X126726738Y-96246738D01*
X126639110Y-96363796D01*
X126588011Y-96500794D01*
X126584735Y-96531267D01*
X126581689Y-96559612D01*
X126581500Y-96561366D01*
X126581500Y-98358634D01*
X100500500Y-98358634D01*
X100500500Y-96698000D01*
X111386501Y-96698000D01*
X111406456Y-96926084D01*
X111406457Y-96926087D01*
X111464934Y-97144326D01*
X111465717Y-97147246D01*
X111562474Y-97354744D01*
X111562476Y-97354746D01*
X111562477Y-97354749D01*
X111693802Y-97542300D01*
X111855700Y-97704198D01*
X112043251Y-97835523D01*
X112250757Y-97932284D01*
X112471913Y-97991543D01*
X112700000Y-98011498D01*
X112928087Y-97991543D01*
X113149243Y-97932284D01*
X113356749Y-97835523D01*
X113440291Y-97777026D01*
X122134526Y-97777026D01*
X122207515Y-97828133D01*
X122413673Y-97924266D01*
X122633397Y-97983141D01*
X122860000Y-98002966D01*
X123086602Y-97983141D01*
X123306326Y-97924266D01*
X123512480Y-97828134D01*
X123585472Y-97777025D01*
X122860001Y-97051553D01*
X122860000Y-97051553D01*
X122134526Y-97777025D01*
X122134526Y-97777026D01*
X113440291Y-97777026D01*
X113544300Y-97704198D01*
X113706198Y-97542300D01*
X113837523Y-97354749D01*
X113934284Y-97147243D01*
X113993543Y-96926087D01*
X114013498Y-96698000D01*
X121555033Y-96698000D01*
X121574858Y-96924602D01*
X121633733Y-97144326D01*
X121729866Y-97350484D01*
X121780972Y-97423471D01*
X121780974Y-97423472D01*
X122506446Y-96698001D01*
X123213553Y-96698001D01*
X123939025Y-97423472D01*
X123990134Y-97350480D01*
X124086266Y-97144326D01*
X124145141Y-96924602D01*
X124164966Y-96698000D01*
X124145141Y-96471397D01*
X124086266Y-96251673D01*
X123990133Y-96045515D01*
X123939025Y-95972526D01*
X123213553Y-96698000D01*
X123213553Y-96698001D01*
X122506446Y-96698001D01*
X122506446Y-96698000D01*
X121780973Y-95972526D01*
X121780973Y-95972527D01*
X121729865Y-96045516D01*
X121633733Y-96251672D01*
X121574858Y-96471397D01*
X121555033Y-96698000D01*
X114013498Y-96698000D01*
X113993543Y-96469913D01*
X113934284Y-96248757D01*
X113881794Y-96136192D01*
X113837525Y-96041255D01*
X113837524Y-96041254D01*
X113837523Y-96041251D01*
X113706198Y-95853700D01*
X113544300Y-95691802D01*
X113440290Y-95618973D01*
X122134526Y-95618973D01*
X122860000Y-96344446D01*
X122860001Y-96344446D01*
X123585472Y-95618974D01*
X123585471Y-95618972D01*
X123512484Y-95567866D01*
X123306326Y-95471733D01*
X123086602Y-95412858D01*
X122860000Y-95393033D01*
X122633397Y-95412858D01*
X122413672Y-95471733D01*
X122207516Y-95567865D01*
X122134527Y-95618973D01*
X122134526Y-95618973D01*
X113440290Y-95618973D01*
X113356749Y-95560477D01*
X113356746Y-95560476D01*
X113356744Y-95560474D01*
X113149246Y-95463717D01*
X113149243Y-95463716D01*
X112959440Y-95412858D01*
X112928084Y-95404456D01*
X112700000Y-95384501D01*
X112471915Y-95404456D01*
X112250753Y-95463717D01*
X112043255Y-95560474D01*
X111855696Y-95691805D01*
X111693805Y-95853696D01*
X111562474Y-96041255D01*
X111465717Y-96248753D01*
X111406456Y-96469915D01*
X111386501Y-96698000D01*
X100500500Y-96698000D01*
X100500500Y-95056634D01*
X103213500Y-95056634D01*
X103220011Y-95117205D01*
X103271110Y-95254203D01*
X103358738Y-95371261D01*
X103475796Y-95458889D01*
X103612794Y-95509988D01*
X103612797Y-95509988D01*
X103612799Y-95509989D01*
X103673362Y-95516500D01*
X105470634Y-95516500D01*
X105470638Y-95516500D01*
X105531201Y-95509989D01*
X105531203Y-95509988D01*
X105531205Y-95509988D01*
X105633768Y-95471733D01*
X105668204Y-95458889D01*
X105785261Y-95371261D01*
X105872889Y-95254204D01*
X105894924Y-95195124D01*
X105923988Y-95117205D01*
X105923988Y-95117203D01*
X105923989Y-95117201D01*
X105930500Y-95056638D01*
X105930500Y-93904000D01*
X108084501Y-93904000D01*
X108104456Y-94132084D01*
X108163717Y-94353246D01*
X108260474Y-94560744D01*
X108260476Y-94560746D01*
X108260477Y-94560749D01*
X108391802Y-94748300D01*
X108553700Y-94910198D01*
X108741251Y-95041523D01*
X108948757Y-95138284D01*
X109169913Y-95197543D01*
X109398000Y-95217498D01*
X109626087Y-95197543D01*
X109847243Y-95138284D01*
X110054749Y-95041523D01*
X110242300Y-94910198D01*
X110404198Y-94748300D01*
X110535523Y-94560749D01*
X110632284Y-94353243D01*
X110691543Y-94132087D01*
X110711498Y-93904000D01*
X110691543Y-93675913D01*
X110632284Y-93454757D01*
X110541172Y-93259366D01*
X110535525Y-93247255D01*
X110535524Y-93247254D01*
X110535523Y-93247251D01*
X110461825Y-93142000D01*
X136024501Y-93142000D01*
X136044456Y-93370084D01*
X136103717Y-93591246D01*
X136200474Y-93798744D01*
X136200476Y-93798746D01*
X136200477Y-93798749D01*
X136331802Y-93986300D01*
X136493700Y-94148198D01*
X136681251Y-94279523D01*
X136888757Y-94376284D01*
X137109913Y-94435543D01*
X137338000Y-94455498D01*
X137566087Y-94435543D01*
X137787243Y-94376284D01*
X137994749Y-94279523D01*
X138182300Y-94148198D01*
X138344198Y-93986300D01*
X138475523Y-93798749D01*
X138572284Y-93591243D01*
X138631543Y-93370087D01*
X138651498Y-93142000D01*
X138651498Y-93141999D01*
X146184501Y-93141999D01*
X146204456Y-93370084D01*
X146263717Y-93591246D01*
X146360474Y-93798744D01*
X146360476Y-93798746D01*
X146360477Y-93798749D01*
X146491802Y-93986300D01*
X146653700Y-94148198D01*
X146841251Y-94279523D01*
X147048757Y-94376284D01*
X147269913Y-94435543D01*
X147498000Y-94455498D01*
X147726087Y-94435543D01*
X147947243Y-94376284D01*
X148154749Y-94279523D01*
X148342300Y-94148198D01*
X148449864Y-94040634D01*
X152235500Y-94040634D01*
X152242011Y-94101205D01*
X152293110Y-94238203D01*
X152380738Y-94355261D01*
X152497796Y-94442889D01*
X152634794Y-94493988D01*
X152634797Y-94493988D01*
X152634799Y-94493989D01*
X152695362Y-94500500D01*
X154492634Y-94500500D01*
X154492638Y-94500500D01*
X154553201Y-94493989D01*
X154553203Y-94493988D01*
X154553205Y-94493988D01*
X154656398Y-94455498D01*
X154690204Y-94442889D01*
X154807261Y-94355261D01*
X154894889Y-94238204D01*
X154928460Y-94148198D01*
X154945988Y-94101205D01*
X154945988Y-94101203D01*
X154945989Y-94101201D01*
X154952500Y-94040638D01*
X154952500Y-92633999D01*
X163602496Y-92633999D01*
X163622458Y-92823929D01*
X163681472Y-93005556D01*
X163776957Y-93170941D01*
X163776960Y-93170944D01*
X163904747Y-93312866D01*
X163983501Y-93370084D01*
X164059248Y-93425118D01*
X164233714Y-93502795D01*
X164420511Y-93542500D01*
X164420513Y-93542500D01*
X164611487Y-93542500D01*
X164611489Y-93542500D01*
X164798285Y-93502795D01*
X164798286Y-93502794D01*
X164798288Y-93502794D01*
X164972752Y-93425118D01*
X165127253Y-93312866D01*
X165255040Y-93170944D01*
X165271752Y-93141999D01*
X165350527Y-93005556D01*
X165380304Y-92913913D01*
X165409542Y-92823928D01*
X165429504Y-92634000D01*
X165409542Y-92444072D01*
X165372542Y-92330198D01*
X165350527Y-92262443D01*
X165255042Y-92097058D01*
X165208885Y-92045796D01*
X165127253Y-91955134D01*
X165030901Y-91885129D01*
X164972751Y-91842881D01*
X164798285Y-91765204D01*
X164611489Y-91725500D01*
X164611487Y-91725500D01*
X164420513Y-91725500D01*
X164420511Y-91725500D01*
X164233714Y-91765204D01*
X164059248Y-91842881D01*
X163904748Y-91955133D01*
X163776957Y-92097058D01*
X163681472Y-92262443D01*
X163622458Y-92444070D01*
X163602496Y-92633999D01*
X154952500Y-92633999D01*
X154952500Y-92243362D01*
X154945989Y-92182799D01*
X154945988Y-92182797D01*
X154945988Y-92182794D01*
X154894889Y-92045796D01*
X154807261Y-91928738D01*
X154690203Y-91841110D01*
X154553205Y-91790011D01*
X154522919Y-91786755D01*
X154492638Y-91783500D01*
X152695362Y-91783500D01*
X152668445Y-91786393D01*
X152634794Y-91790011D01*
X152497796Y-91841110D01*
X152380738Y-91928738D01*
X152293110Y-92045796D01*
X152242011Y-92182794D01*
X152235500Y-92243366D01*
X152235500Y-94040634D01*
X148449864Y-94040634D01*
X148504198Y-93986300D01*
X148635523Y-93798749D01*
X148732284Y-93591243D01*
X148791543Y-93370087D01*
X148811498Y-93142000D01*
X148791543Y-92913913D01*
X148732284Y-92692757D01*
X148635523Y-92485251D01*
X148504198Y-92297700D01*
X148342300Y-92135802D01*
X148154749Y-92004477D01*
X148154746Y-92004476D01*
X148154744Y-92004474D01*
X147947246Y-91907717D01*
X147947243Y-91907716D01*
X147836665Y-91878086D01*
X147726084Y-91848456D01*
X147498000Y-91828501D01*
X147269915Y-91848456D01*
X147048753Y-91907717D01*
X146841255Y-92004474D01*
X146653696Y-92135805D01*
X146491805Y-92297696D01*
X146491802Y-92297699D01*
X146491802Y-92297700D01*
X146469047Y-92330198D01*
X146360474Y-92485255D01*
X146263717Y-92692753D01*
X146204456Y-92913915D01*
X146184501Y-93141999D01*
X138651498Y-93141999D01*
X138631543Y-92913913D01*
X138572284Y-92692757D01*
X138475523Y-92485251D01*
X138344198Y-92297700D01*
X138182300Y-92135802D01*
X137994749Y-92004477D01*
X137994746Y-92004476D01*
X137994744Y-92004474D01*
X137787246Y-91907717D01*
X137787243Y-91907716D01*
X137676665Y-91878086D01*
X137566084Y-91848456D01*
X137338000Y-91828501D01*
X137109915Y-91848456D01*
X136888753Y-91907717D01*
X136681255Y-92004474D01*
X136493696Y-92135805D01*
X136331805Y-92297696D01*
X136331802Y-92297699D01*
X136331802Y-92297700D01*
X136309047Y-92330198D01*
X136200474Y-92485255D01*
X136103717Y-92692753D01*
X136044456Y-92913915D01*
X136024501Y-93142000D01*
X110461825Y-93142000D01*
X110404198Y-93059700D01*
X110242300Y-92897802D01*
X110054749Y-92766477D01*
X110054746Y-92766476D01*
X110054744Y-92766474D01*
X109847246Y-92669717D01*
X109847243Y-92669716D01*
X109713946Y-92633999D01*
X109626084Y-92610456D01*
X109398000Y-92590501D01*
X109169915Y-92610456D01*
X108948753Y-92669717D01*
X108741255Y-92766474D01*
X108553696Y-92897805D01*
X108391805Y-93059696D01*
X108391802Y-93059699D01*
X108391802Y-93059700D01*
X108334175Y-93141999D01*
X108260474Y-93247255D01*
X108163717Y-93454753D01*
X108104456Y-93675915D01*
X108084501Y-93904000D01*
X105930500Y-93904000D01*
X105930500Y-93259362D01*
X105923989Y-93198799D01*
X105923988Y-93198797D01*
X105923988Y-93198794D01*
X105872889Y-93061796D01*
X105785261Y-92944738D01*
X105668203Y-92857110D01*
X105531205Y-92806011D01*
X105500919Y-92802755D01*
X105470638Y-92799500D01*
X103673362Y-92799500D01*
X103646445Y-92802393D01*
X103612794Y-92806011D01*
X103475796Y-92857110D01*
X103358738Y-92944738D01*
X103271110Y-93061796D01*
X103220011Y-93198794D01*
X103213500Y-93259366D01*
X103213500Y-95056634D01*
X100500500Y-95056634D01*
X100500500Y-91323999D01*
X117482501Y-91323999D01*
X117502456Y-91552084D01*
X117502457Y-91552087D01*
X117559562Y-91765206D01*
X117561717Y-91773246D01*
X117658474Y-91980744D01*
X117658476Y-91980746D01*
X117658477Y-91980749D01*
X117789802Y-92168300D01*
X117951700Y-92330198D01*
X118139251Y-92461523D01*
X118346757Y-92558284D01*
X118567913Y-92617543D01*
X118796000Y-92637498D01*
X119024087Y-92617543D01*
X119245243Y-92558284D01*
X119452749Y-92461523D01*
X119640300Y-92330198D01*
X119802198Y-92168300D01*
X119933523Y-91980749D01*
X120030284Y-91773243D01*
X120089543Y-91552087D01*
X120109498Y-91324000D01*
X120089543Y-91095913D01*
X120030284Y-90874757D01*
X119981903Y-90771004D01*
X119933525Y-90667255D01*
X119933524Y-90667254D01*
X119933523Y-90667251D01*
X119802198Y-90479700D01*
X119640300Y-90317802D01*
X119452749Y-90186477D01*
X119452746Y-90186476D01*
X119452744Y-90186474D01*
X119245246Y-90089717D01*
X119245243Y-90089716D01*
X119127192Y-90058084D01*
X119024084Y-90030456D01*
X118796000Y-90010501D01*
X118567915Y-90030456D01*
X118346753Y-90089717D01*
X118139255Y-90186474D01*
X118139250Y-90186477D01*
X118139251Y-90186477D01*
X117979698Y-90298198D01*
X117951696Y-90317805D01*
X117789805Y-90479696D01*
X117789802Y-90479699D01*
X117789802Y-90479700D01*
X117724139Y-90573475D01*
X117658474Y-90667255D01*
X117561717Y-90874753D01*
X117502456Y-91095915D01*
X117482501Y-91323999D01*
X100500500Y-91323999D01*
X100500500Y-89292000D01*
X103258501Y-89292000D01*
X103278456Y-89520084D01*
X103337717Y-89741246D01*
X103434474Y-89948744D01*
X103434476Y-89948746D01*
X103434477Y-89948749D01*
X103565802Y-90136300D01*
X103727700Y-90298198D01*
X103915251Y-90429523D01*
X104122757Y-90526284D01*
X104343913Y-90585543D01*
X104495971Y-90598846D01*
X104571999Y-90605498D01*
X104571999Y-90605497D01*
X104572000Y-90605498D01*
X104800087Y-90585543D01*
X105021243Y-90526284D01*
X105228749Y-90429523D01*
X105416300Y-90298198D01*
X105578198Y-90136300D01*
X105709523Y-89948749D01*
X105764896Y-89830000D01*
X125092501Y-89830000D01*
X125112456Y-90058084D01*
X125171717Y-90279246D01*
X125268474Y-90486744D01*
X125268476Y-90486746D01*
X125268477Y-90486749D01*
X125399802Y-90674300D01*
X125561700Y-90836198D01*
X125749251Y-90967523D01*
X125956757Y-91064284D01*
X126177913Y-91123543D01*
X126329971Y-91136846D01*
X126405999Y-91143498D01*
X126405999Y-91143497D01*
X126406000Y-91143498D01*
X126634087Y-91123543D01*
X126855243Y-91064284D01*
X127062749Y-90967523D01*
X127250300Y-90836198D01*
X127412198Y-90674300D01*
X127543523Y-90486749D01*
X127640284Y-90279243D01*
X127699543Y-90058087D01*
X127719498Y-89830000D01*
X127699543Y-89601913D01*
X127640284Y-89380757D01*
X127563086Y-89215205D01*
X127543525Y-89173255D01*
X127543524Y-89173254D01*
X127543523Y-89173251D01*
X127412198Y-88985700D01*
X127250300Y-88823802D01*
X127062749Y-88692477D01*
X127062748Y-88692476D01*
X127062746Y-88692475D01*
X127009598Y-88667692D01*
X126957422Y-88621934D01*
X126938003Y-88555309D01*
X126957423Y-88488683D01*
X127009600Y-88442927D01*
X127058481Y-88420133D01*
X127244819Y-88289658D01*
X127405658Y-88128819D01*
X127536134Y-87942480D01*
X127632266Y-87736326D01*
X127684872Y-87540000D01*
X125127128Y-87540000D01*
X125179733Y-87736326D01*
X125275865Y-87942480D01*
X125406341Y-88128819D01*
X125567180Y-88289658D01*
X125753516Y-88420132D01*
X125802400Y-88442927D01*
X125854576Y-88488684D01*
X125873996Y-88555309D01*
X125854577Y-88621934D01*
X125802402Y-88667691D01*
X125749256Y-88692474D01*
X125749255Y-88692475D01*
X125749251Y-88692477D01*
X125561700Y-88823802D01*
X125561696Y-88823805D01*
X125399805Y-88985696D01*
X125268474Y-89173255D01*
X125171717Y-89380753D01*
X125112456Y-89601915D01*
X125092501Y-89830000D01*
X105764896Y-89830000D01*
X105806284Y-89741243D01*
X105865543Y-89520087D01*
X105885498Y-89292000D01*
X105865543Y-89063913D01*
X105806284Y-88842757D01*
X105709523Y-88635251D01*
X105578198Y-88447700D01*
X105416300Y-88285802D01*
X105228749Y-88154477D01*
X105228746Y-88154476D01*
X105228744Y-88154474D01*
X105021246Y-88057717D01*
X105021243Y-88057716D01*
X104910664Y-88028086D01*
X104800084Y-87998456D01*
X104572000Y-87978501D01*
X104343915Y-87998456D01*
X104122753Y-88057717D01*
X103915255Y-88154474D01*
X103727696Y-88285805D01*
X103565805Y-88447696D01*
X103565802Y-88447699D01*
X103565802Y-88447700D01*
X103519938Y-88513201D01*
X103434474Y-88635255D01*
X103337717Y-88842753D01*
X103278456Y-89063915D01*
X103258501Y-89292000D01*
X100500500Y-89292000D01*
X100500500Y-86324000D01*
X117482501Y-86324000D01*
X117502456Y-86552084D01*
X117518055Y-86610300D01*
X117561435Y-86772196D01*
X117561717Y-86773246D01*
X117658474Y-86980744D01*
X117658476Y-86980746D01*
X117658477Y-86980749D01*
X117789802Y-87168300D01*
X117951700Y-87330198D01*
X118139251Y-87461523D01*
X118139254Y-87461524D01*
X118139255Y-87461525D01*
X118243003Y-87509903D01*
X118346757Y-87558284D01*
X118567913Y-87617543D01*
X118719971Y-87630846D01*
X118795999Y-87637498D01*
X118795999Y-87637497D01*
X118796000Y-87637498D01*
X119024087Y-87617543D01*
X119245243Y-87558284D01*
X119452749Y-87461523D01*
X119640300Y-87330198D01*
X119680499Y-87289999D01*
X132712501Y-87289999D01*
X132732456Y-87518084D01*
X132743227Y-87558282D01*
X132790934Y-87736326D01*
X132791717Y-87739246D01*
X132888474Y-87946744D01*
X132888476Y-87946746D01*
X132888477Y-87946749D01*
X133019802Y-88134300D01*
X133181700Y-88296198D01*
X133189364Y-88301565D01*
X133228502Y-88346405D01*
X133242237Y-88404318D01*
X133227405Y-88461959D01*
X133187422Y-88506049D01*
X133131501Y-88526429D01*
X133116799Y-88528009D01*
X132979796Y-88579110D01*
X132862738Y-88666738D01*
X132775110Y-88783796D01*
X132724011Y-88920794D01*
X132717500Y-88981366D01*
X132717500Y-90678634D01*
X132724011Y-90739205D01*
X132775110Y-90876203D01*
X132862738Y-90993261D01*
X132979796Y-91080889D01*
X133116794Y-91131988D01*
X133116797Y-91131988D01*
X133116799Y-91131989D01*
X133177362Y-91138500D01*
X134874634Y-91138500D01*
X134874638Y-91138500D01*
X134935201Y-91131989D01*
X134935203Y-91131988D01*
X134935205Y-91131988D01*
X135031918Y-91095915D01*
X135072204Y-91080889D01*
X135189261Y-90993261D01*
X135276889Y-90876204D01*
X135327989Y-90739201D01*
X135334500Y-90678638D01*
X135334500Y-90601999D01*
X156852501Y-90601999D01*
X156872456Y-90830084D01*
X156931717Y-91051246D01*
X157028474Y-91258744D01*
X157028476Y-91258746D01*
X157028477Y-91258749D01*
X157159802Y-91446300D01*
X157321700Y-91608198D01*
X157509251Y-91739523D01*
X157716757Y-91836284D01*
X157937913Y-91895543D01*
X158166000Y-91915498D01*
X158394087Y-91895543D01*
X158615243Y-91836284D01*
X158822749Y-91739523D01*
X159010300Y-91608198D01*
X159172198Y-91446300D01*
X159303523Y-91258749D01*
X159400284Y-91051243D01*
X159459543Y-90830087D01*
X159479498Y-90602000D01*
X159459543Y-90373913D01*
X159400284Y-90152757D01*
X159343255Y-90030457D01*
X159303525Y-89945255D01*
X159303524Y-89945254D01*
X159303523Y-89945251D01*
X159172198Y-89757700D01*
X159010300Y-89595802D01*
X158822749Y-89464477D01*
X158822746Y-89464476D01*
X158822744Y-89464474D01*
X158615246Y-89367717D01*
X158615243Y-89367716D01*
X158408034Y-89312194D01*
X158394084Y-89308456D01*
X158166000Y-89288501D01*
X157937915Y-89308456D01*
X157716753Y-89367717D01*
X157509255Y-89464474D01*
X157321696Y-89595805D01*
X157159805Y-89757696D01*
X157028474Y-89945255D01*
X156931717Y-90152753D01*
X156872456Y-90373915D01*
X156852501Y-90601999D01*
X135334500Y-90601999D01*
X135334500Y-88981362D01*
X135327989Y-88920799D01*
X135327988Y-88920797D01*
X135327988Y-88920794D01*
X135276889Y-88783796D01*
X135189261Y-88666738D01*
X135072203Y-88579110D01*
X134935201Y-88528010D01*
X134920498Y-88526429D01*
X134864576Y-88506049D01*
X134824594Y-88461958D01*
X134809762Y-88404316D01*
X134823498Y-88346402D01*
X134858763Y-88306000D01*
X143888501Y-88306000D01*
X143908456Y-88534084D01*
X143967717Y-88755246D01*
X144064474Y-88962744D01*
X144064476Y-88962746D01*
X144064477Y-88962749D01*
X144195802Y-89150300D01*
X144357700Y-89312198D01*
X144545251Y-89443523D01*
X144752757Y-89540284D01*
X144973913Y-89599543D01*
X145202000Y-89619498D01*
X145430087Y-89599543D01*
X145651243Y-89540284D01*
X145858749Y-89443523D01*
X146046300Y-89312198D01*
X146208198Y-89150300D01*
X146339523Y-88962749D01*
X146436284Y-88755243D01*
X146495543Y-88534087D01*
X146515498Y-88306000D01*
X146495543Y-88077913D01*
X146436284Y-87856757D01*
X146339523Y-87649251D01*
X146208198Y-87461700D01*
X146046300Y-87299802D01*
X145858749Y-87168477D01*
X145858748Y-87168476D01*
X145858746Y-87168475D01*
X145805598Y-87143692D01*
X145753422Y-87097934D01*
X145734003Y-87031309D01*
X145753423Y-86964683D01*
X145805600Y-86918927D01*
X145854481Y-86896133D01*
X146040819Y-86765658D01*
X146201658Y-86604819D01*
X146332134Y-86418480D01*
X146428266Y-86212326D01*
X146480872Y-86016000D01*
X143923128Y-86016000D01*
X143975733Y-86212326D01*
X144071865Y-86418480D01*
X144202341Y-86604819D01*
X144363180Y-86765658D01*
X144549516Y-86896132D01*
X144598400Y-86918927D01*
X144650576Y-86964684D01*
X144669996Y-87031309D01*
X144650577Y-87097934D01*
X144598402Y-87143691D01*
X144545256Y-87168474D01*
X144545255Y-87168475D01*
X144545251Y-87168477D01*
X144371700Y-87289999D01*
X144357696Y-87299805D01*
X144195805Y-87461696D01*
X144064474Y-87649255D01*
X143967717Y-87856753D01*
X143908456Y-88077915D01*
X143888501Y-88306000D01*
X134858763Y-88306000D01*
X134862635Y-88301564D01*
X134870300Y-88296198D01*
X135032198Y-88134300D01*
X135163523Y-87946749D01*
X135260284Y-87739243D01*
X135319543Y-87518087D01*
X135339498Y-87290000D01*
X135336855Y-87259796D01*
X135322694Y-87097934D01*
X135319543Y-87061913D01*
X135260284Y-86840757D01*
X135173835Y-86655366D01*
X135163525Y-86633255D01*
X135163524Y-86633254D01*
X135163523Y-86633251D01*
X135032198Y-86445700D01*
X134870300Y-86283802D01*
X134682749Y-86152477D01*
X134649708Y-86137070D01*
X134639655Y-86132382D01*
X134587479Y-86086625D01*
X134568059Y-86020000D01*
X134587479Y-85953375D01*
X134639655Y-85907618D01*
X134642882Y-85906112D01*
X134682749Y-85887523D01*
X134870300Y-85756198D01*
X135032198Y-85594300D01*
X135163523Y-85406749D01*
X135260284Y-85199243D01*
X135319543Y-84978087D01*
X135339498Y-84750000D01*
X135319543Y-84521913D01*
X135260284Y-84300757D01*
X135163523Y-84093251D01*
X135079401Y-83973113D01*
X138056501Y-83973113D01*
X138076456Y-84201197D01*
X138076457Y-84201200D01*
X138129926Y-84400749D01*
X138135717Y-84422359D01*
X138232474Y-84629857D01*
X138232476Y-84629859D01*
X138232477Y-84629862D01*
X138363802Y-84817413D01*
X138363804Y-84817415D01*
X138363805Y-84817416D01*
X138511339Y-84964950D01*
X138542635Y-85017696D01*
X138544824Y-85078988D01*
X138517372Y-85133833D01*
X138466993Y-85168812D01*
X138323796Y-85222223D01*
X138206738Y-85309851D01*
X138119110Y-85426909D01*
X138068011Y-85563907D01*
X138061500Y-85624479D01*
X138061500Y-87321747D01*
X138068011Y-87382318D01*
X138119110Y-87519316D01*
X138206738Y-87636374D01*
X138323796Y-87724002D01*
X138460794Y-87775101D01*
X138460797Y-87775101D01*
X138460799Y-87775102D01*
X138521362Y-87781613D01*
X140218634Y-87781613D01*
X140218638Y-87781613D01*
X140279201Y-87775102D01*
X140279203Y-87775101D01*
X140279205Y-87775101D01*
X140357124Y-87746037D01*
X140416204Y-87724002D01*
X140533261Y-87636374D01*
X140620889Y-87519317D01*
X140643997Y-87457362D01*
X140671988Y-87382318D01*
X140671988Y-87382316D01*
X140671989Y-87382314D01*
X140678500Y-87321751D01*
X140678500Y-85766000D01*
X151508501Y-85766000D01*
X151528456Y-85994084D01*
X151547056Y-86063498D01*
X151586934Y-86212326D01*
X151587717Y-86215246D01*
X151684474Y-86422744D01*
X151684476Y-86422746D01*
X151684477Y-86422749D01*
X151815802Y-86610300D01*
X151977700Y-86772198D01*
X151985364Y-86777565D01*
X152024502Y-86822405D01*
X152038237Y-86880318D01*
X152023405Y-86937959D01*
X151983422Y-86982049D01*
X151927501Y-87002429D01*
X151912799Y-87004009D01*
X151775796Y-87055110D01*
X151658738Y-87142738D01*
X151571110Y-87259796D01*
X151520011Y-87396794D01*
X151516393Y-87430445D01*
X151513500Y-87457362D01*
X151513500Y-89154638D01*
X151516755Y-89184919D01*
X151520011Y-89215205D01*
X151571110Y-89352203D01*
X151658738Y-89469261D01*
X151775796Y-89556889D01*
X151912794Y-89607988D01*
X151912797Y-89607988D01*
X151912799Y-89607989D01*
X151973362Y-89614500D01*
X153670634Y-89614500D01*
X153670638Y-89614500D01*
X153731201Y-89607989D01*
X153731203Y-89607988D01*
X153731205Y-89607988D01*
X153809124Y-89578924D01*
X153868204Y-89556889D01*
X153985261Y-89469261D01*
X154072889Y-89352204D01*
X154123989Y-89215201D01*
X154130500Y-89154638D01*
X154130500Y-88452634D01*
X161633500Y-88452634D01*
X161640011Y-88513205D01*
X161691110Y-88650203D01*
X161778738Y-88767261D01*
X161895796Y-88854889D01*
X162032794Y-88905988D01*
X162032797Y-88905988D01*
X162032799Y-88905989D01*
X162093362Y-88912500D01*
X163890634Y-88912500D01*
X163890638Y-88912500D01*
X163951201Y-88905989D01*
X163951203Y-88905988D01*
X163951205Y-88905988D01*
X164029124Y-88876924D01*
X164088204Y-88854889D01*
X164205261Y-88767261D01*
X164292889Y-88650204D01*
X164319406Y-88579110D01*
X164343988Y-88513205D01*
X164343988Y-88513203D01*
X164343989Y-88513201D01*
X164350500Y-88452638D01*
X164350500Y-86655362D01*
X164343989Y-86594799D01*
X164343988Y-86594797D01*
X164343988Y-86594794D01*
X164292889Y-86457796D01*
X164205261Y-86340738D01*
X164088203Y-86253110D01*
X163951205Y-86202011D01*
X163920919Y-86198755D01*
X163890638Y-86195500D01*
X162093362Y-86195500D01*
X162066445Y-86198393D01*
X162032794Y-86202011D01*
X161895796Y-86253110D01*
X161778738Y-86340738D01*
X161691110Y-86457796D01*
X161640011Y-86594794D01*
X161633500Y-86655366D01*
X161633500Y-88452634D01*
X154130500Y-88452634D01*
X154130500Y-87457362D01*
X154123989Y-87396799D01*
X154123988Y-87396797D01*
X154123988Y-87396794D01*
X154072889Y-87259796D01*
X153985261Y-87142738D01*
X153868203Y-87055110D01*
X153731201Y-87004010D01*
X153716498Y-87002429D01*
X153660576Y-86982049D01*
X153620594Y-86937958D01*
X153605762Y-86880316D01*
X153619498Y-86822402D01*
X153658635Y-86777564D01*
X153666300Y-86772198D01*
X153828198Y-86610300D01*
X153959523Y-86422749D01*
X154056284Y-86215243D01*
X154115543Y-85994087D01*
X154135498Y-85766000D01*
X154115543Y-85537913D01*
X154056284Y-85316757D01*
X153985339Y-85164613D01*
X153959525Y-85109255D01*
X153959524Y-85109254D01*
X153959523Y-85109251D01*
X153828198Y-84921700D01*
X153666300Y-84759802D01*
X153478749Y-84628477D01*
X153435653Y-84608381D01*
X153383478Y-84562623D01*
X153364059Y-84495997D01*
X153383480Y-84429372D01*
X153435654Y-84383618D01*
X153478749Y-84363523D01*
X153666300Y-84232198D01*
X153828198Y-84070300D01*
X153959523Y-83882749D01*
X154056284Y-83675243D01*
X154115543Y-83454087D01*
X154135498Y-83226000D01*
X154126105Y-83118638D01*
X161633500Y-83118638D01*
X161634594Y-83128813D01*
X161640011Y-83179205D01*
X161691110Y-83316203D01*
X161778738Y-83433261D01*
X161895796Y-83520889D01*
X162032794Y-83571988D01*
X162032797Y-83571988D01*
X162032799Y-83571989D01*
X162093362Y-83578500D01*
X163890634Y-83578500D01*
X163890638Y-83578500D01*
X163951201Y-83571989D01*
X163951203Y-83571988D01*
X163951205Y-83571988D01*
X164029124Y-83542924D01*
X164088204Y-83520889D01*
X164205261Y-83433261D01*
X164292889Y-83316204D01*
X164330191Y-83216194D01*
X164343988Y-83179205D01*
X164343988Y-83179203D01*
X164343989Y-83179201D01*
X164350500Y-83118638D01*
X164350500Y-81321362D01*
X164343989Y-81260799D01*
X164343988Y-81260797D01*
X164343988Y-81260794D01*
X164292889Y-81123796D01*
X164205261Y-81006738D01*
X164088203Y-80919110D01*
X163951205Y-80868011D01*
X163920919Y-80864755D01*
X163890638Y-80861500D01*
X162093362Y-80861500D01*
X162066445Y-80864393D01*
X162032794Y-80868011D01*
X161895796Y-80919110D01*
X161778738Y-81006738D01*
X161691110Y-81123796D01*
X161640011Y-81260794D01*
X161637269Y-81286300D01*
X161633500Y-81321362D01*
X161633500Y-83118638D01*
X154126105Y-83118638D01*
X154115543Y-82997913D01*
X154056284Y-82776757D01*
X153959523Y-82569251D01*
X153828198Y-82381700D01*
X153666300Y-82219802D01*
X153478749Y-82088477D01*
X153435655Y-82068382D01*
X153383479Y-82022625D01*
X153364059Y-81956000D01*
X153383479Y-81889375D01*
X153435655Y-81843618D01*
X153438882Y-81842112D01*
X153478749Y-81823523D01*
X153666300Y-81692198D01*
X153828198Y-81530300D01*
X153959523Y-81342749D01*
X154056284Y-81135243D01*
X154115543Y-80914087D01*
X154135498Y-80686000D01*
X154115543Y-80457913D01*
X154111279Y-80442000D01*
X156852501Y-80442000D01*
X156872456Y-80670084D01*
X156931717Y-80891246D01*
X157028474Y-81098744D01*
X157028476Y-81098746D01*
X157028477Y-81098749D01*
X157159802Y-81286300D01*
X157321700Y-81448198D01*
X157509251Y-81579523D01*
X157716757Y-81676284D01*
X157937913Y-81735543D01*
X158166000Y-81755498D01*
X158394087Y-81735543D01*
X158615243Y-81676284D01*
X158822749Y-81579523D01*
X159010300Y-81448198D01*
X159172198Y-81286300D01*
X159303523Y-81098749D01*
X159400284Y-80891243D01*
X159459543Y-80670087D01*
X159479498Y-80442000D01*
X159459543Y-80213913D01*
X159400284Y-79992757D01*
X159329844Y-79841696D01*
X159303525Y-79785255D01*
X159303524Y-79785254D01*
X159303523Y-79785251D01*
X159172198Y-79597700D01*
X159010300Y-79435802D01*
X158822749Y-79304477D01*
X158822746Y-79304476D01*
X158822744Y-79304474D01*
X158615246Y-79207717D01*
X158615243Y-79207716D01*
X158504664Y-79178086D01*
X158394084Y-79148456D01*
X158166000Y-79128501D01*
X157937915Y-79148456D01*
X157716753Y-79207717D01*
X157509255Y-79304474D01*
X157321696Y-79435805D01*
X157159805Y-79597696D01*
X157159802Y-79597699D01*
X157159802Y-79597700D01*
X157122442Y-79651056D01*
X157028474Y-79785255D01*
X156931717Y-79992753D01*
X156872456Y-80213915D01*
X156852501Y-80442000D01*
X154111279Y-80442000D01*
X154056284Y-80236757D01*
X154007903Y-80133004D01*
X153959525Y-80029255D01*
X153959524Y-80029254D01*
X153959523Y-80029251D01*
X153828198Y-79841700D01*
X153666300Y-79679802D01*
X153478749Y-79548477D01*
X153478746Y-79548476D01*
X153478744Y-79548474D01*
X153271246Y-79451717D01*
X153271243Y-79451716D01*
X153160665Y-79422086D01*
X153050084Y-79392456D01*
X152821999Y-79372501D01*
X152593915Y-79392456D01*
X152372753Y-79451717D01*
X152165255Y-79548474D01*
X152165250Y-79548477D01*
X152165251Y-79548477D01*
X152018754Y-79651056D01*
X151977696Y-79679805D01*
X151815805Y-79841696D01*
X151684474Y-80029255D01*
X151587717Y-80236753D01*
X151528456Y-80457915D01*
X151508501Y-80685999D01*
X151528456Y-80914084D01*
X151545882Y-80979118D01*
X151577937Y-81098749D01*
X151587717Y-81135246D01*
X151684474Y-81342744D01*
X151684476Y-81342746D01*
X151684477Y-81342749D01*
X151815802Y-81530300D01*
X151977700Y-81692198D01*
X152165251Y-81823523D01*
X152208345Y-81843618D01*
X152260520Y-81889372D01*
X152279940Y-81955997D01*
X152260522Y-82022622D01*
X152208347Y-82068380D01*
X152165254Y-82088475D01*
X151977696Y-82219805D01*
X151815805Y-82381696D01*
X151684474Y-82569255D01*
X151587717Y-82776753D01*
X151528456Y-82997915D01*
X151508501Y-83226000D01*
X151528456Y-83454084D01*
X151587717Y-83675246D01*
X151684474Y-83882744D01*
X151684476Y-83882746D01*
X151684477Y-83882749D01*
X151815802Y-84070300D01*
X151977700Y-84232198D01*
X152165251Y-84363523D01*
X152208345Y-84383618D01*
X152260520Y-84429372D01*
X152279940Y-84495997D01*
X152260522Y-84562622D01*
X152208347Y-84608380D01*
X152165254Y-84628475D01*
X152165251Y-84628476D01*
X152165251Y-84628477D01*
X152154699Y-84635866D01*
X151977696Y-84759805D01*
X151815805Y-84921696D01*
X151684474Y-85109255D01*
X151587717Y-85316753D01*
X151528456Y-85537915D01*
X151508501Y-85766000D01*
X140678500Y-85766000D01*
X140678500Y-85624475D01*
X140671989Y-85563912D01*
X140671988Y-85563910D01*
X140671988Y-85563907D01*
X140620889Y-85426909D01*
X140533261Y-85309851D01*
X140416204Y-85222223D01*
X140273006Y-85168812D01*
X140222627Y-85133833D01*
X140195175Y-85078988D01*
X140197364Y-85017696D01*
X140228657Y-84964953D01*
X140376198Y-84817413D01*
X140507523Y-84629862D01*
X140604284Y-84422356D01*
X140663543Y-84201200D01*
X140683498Y-83973113D01*
X140663543Y-83745026D01*
X140604284Y-83523870D01*
X140507523Y-83316364D01*
X140444249Y-83226000D01*
X143888501Y-83226000D01*
X143908456Y-83454084D01*
X143967717Y-83675246D01*
X144064474Y-83882744D01*
X144064476Y-83882746D01*
X144064477Y-83882749D01*
X144195802Y-84070300D01*
X144357700Y-84232198D01*
X144545251Y-84363523D01*
X144598401Y-84388307D01*
X144650576Y-84434061D01*
X144669996Y-84500686D01*
X144650578Y-84567311D01*
X144598403Y-84613069D01*
X144549520Y-84635864D01*
X144363180Y-84766341D01*
X144202341Y-84927180D01*
X144071865Y-85113519D01*
X143975733Y-85319673D01*
X143923128Y-85515999D01*
X143923128Y-85516000D01*
X146480872Y-85516000D01*
X146480871Y-85515999D01*
X146428266Y-85319673D01*
X146332134Y-85113519D01*
X146201658Y-84927180D01*
X146040819Y-84766341D01*
X145854482Y-84635866D01*
X145805597Y-84613070D01*
X145753422Y-84567312D01*
X145734003Y-84500686D01*
X145753424Y-84434061D01*
X145805596Y-84388308D01*
X145858749Y-84363523D01*
X146046300Y-84232198D01*
X146208198Y-84070300D01*
X146258823Y-83998000D01*
X147600496Y-83998000D01*
X147620458Y-84187929D01*
X147679472Y-84369556D01*
X147774957Y-84534941D01*
X147774960Y-84534944D01*
X147902747Y-84676866D01*
X148025898Y-84766341D01*
X148057248Y-84789118D01*
X148231714Y-84866795D01*
X148418511Y-84906500D01*
X148418513Y-84906500D01*
X148609487Y-84906500D01*
X148609489Y-84906500D01*
X148796285Y-84866795D01*
X148796286Y-84866794D01*
X148796288Y-84866794D01*
X148970752Y-84789118D01*
X149125253Y-84676866D01*
X149253040Y-84534944D01*
X149260563Y-84521915D01*
X149348527Y-84369556D01*
X149370881Y-84300757D01*
X149407542Y-84187928D01*
X149427504Y-83998000D01*
X149407542Y-83808072D01*
X149348527Y-83626444D01*
X149348527Y-83626443D01*
X149253042Y-83461058D01*
X149210108Y-83413375D01*
X149125253Y-83319134D01*
X148997066Y-83226000D01*
X148970751Y-83206881D01*
X148796285Y-83129204D01*
X148609489Y-83089500D01*
X148609487Y-83089500D01*
X148418513Y-83089500D01*
X148418511Y-83089500D01*
X148231714Y-83129204D01*
X148057248Y-83206881D01*
X147902748Y-83319133D01*
X147774957Y-83461058D01*
X147679472Y-83626443D01*
X147620458Y-83808070D01*
X147600496Y-83998000D01*
X146258823Y-83998000D01*
X146339523Y-83882749D01*
X146436284Y-83675243D01*
X146495543Y-83454087D01*
X146515498Y-83226000D01*
X146495543Y-82997913D01*
X146436284Y-82776757D01*
X146339523Y-82569251D01*
X146208198Y-82381700D01*
X146046300Y-82219802D01*
X145858749Y-82088477D01*
X145815655Y-82068382D01*
X145763479Y-82022625D01*
X145744059Y-81956000D01*
X145763479Y-81889375D01*
X145815655Y-81843618D01*
X145818882Y-81842112D01*
X145858749Y-81823523D01*
X146046300Y-81692198D01*
X146208198Y-81530300D01*
X146339523Y-81342749D01*
X146436284Y-81135243D01*
X146495543Y-80914087D01*
X146515498Y-80686000D01*
X146495543Y-80457913D01*
X146436284Y-80236757D01*
X146387903Y-80133004D01*
X146339525Y-80029255D01*
X146339524Y-80029254D01*
X146339523Y-80029251D01*
X146208198Y-79841700D01*
X146046300Y-79679802D01*
X145858749Y-79548477D01*
X145858746Y-79548476D01*
X145858744Y-79548474D01*
X145651246Y-79451717D01*
X145651243Y-79451716D01*
X145540665Y-79422086D01*
X145430084Y-79392456D01*
X145201999Y-79372501D01*
X144973915Y-79392456D01*
X144752753Y-79451717D01*
X144545255Y-79548474D01*
X144545250Y-79548477D01*
X144545251Y-79548477D01*
X144398754Y-79651056D01*
X144357696Y-79679805D01*
X144195805Y-79841696D01*
X144064474Y-80029255D01*
X143967717Y-80236753D01*
X143908456Y-80457915D01*
X143888501Y-80685999D01*
X143908456Y-80914084D01*
X143925882Y-80979118D01*
X143957937Y-81098749D01*
X143967717Y-81135246D01*
X144064474Y-81342744D01*
X144064476Y-81342746D01*
X144064477Y-81342749D01*
X144195802Y-81530300D01*
X144357700Y-81692198D01*
X144545251Y-81823523D01*
X144588345Y-81843618D01*
X144640520Y-81889372D01*
X144659940Y-81955997D01*
X144640522Y-82022622D01*
X144588347Y-82068380D01*
X144545254Y-82088475D01*
X144357696Y-82219805D01*
X144195805Y-82381696D01*
X144064474Y-82569255D01*
X143967717Y-82776753D01*
X143908456Y-82997915D01*
X143888501Y-83226000D01*
X140444249Y-83226000D01*
X140376198Y-83128813D01*
X140214300Y-82966915D01*
X140026749Y-82835590D01*
X140026746Y-82835589D01*
X140026744Y-82835587D01*
X139819246Y-82738830D01*
X139819243Y-82738829D01*
X139708665Y-82709199D01*
X139598084Y-82679569D01*
X139370000Y-82659614D01*
X139141915Y-82679569D01*
X138920753Y-82738830D01*
X138713255Y-82835587D01*
X138525696Y-82966918D01*
X138363805Y-83128809D01*
X138232474Y-83316368D01*
X138135717Y-83523866D01*
X138076456Y-83745028D01*
X138056501Y-83973113D01*
X135079401Y-83973113D01*
X135032198Y-83905700D01*
X134870300Y-83743802D01*
X134682749Y-83612477D01*
X134639655Y-83592382D01*
X134587479Y-83546625D01*
X134568059Y-83480000D01*
X134587479Y-83413375D01*
X134639655Y-83367618D01*
X134642882Y-83366112D01*
X134682749Y-83347523D01*
X134870300Y-83216198D01*
X135032198Y-83054300D01*
X135163523Y-82866749D01*
X135260284Y-82659243D01*
X135319543Y-82438087D01*
X135339498Y-82210000D01*
X135319543Y-81981913D01*
X135260284Y-81760757D01*
X135163523Y-81553251D01*
X135032198Y-81365700D01*
X134870300Y-81203802D01*
X134682749Y-81072477D01*
X134682746Y-81072476D01*
X134682744Y-81072474D01*
X134475246Y-80975717D01*
X134475243Y-80975716D01*
X134263992Y-80919111D01*
X134254084Y-80916456D01*
X134026000Y-80896501D01*
X133797915Y-80916456D01*
X133576753Y-80975717D01*
X133369255Y-81072474D01*
X133181696Y-81203805D01*
X133019805Y-81365696D01*
X132888474Y-81553255D01*
X132791717Y-81760753D01*
X132732456Y-81981915D01*
X132712501Y-82210000D01*
X132732456Y-82438084D01*
X132751650Y-82509716D01*
X132777576Y-82606474D01*
X132791717Y-82659246D01*
X132888474Y-82866744D01*
X132888476Y-82866746D01*
X132888477Y-82866749D01*
X133019802Y-83054300D01*
X133181700Y-83216198D01*
X133369251Y-83347523D01*
X133409334Y-83366214D01*
X133412345Y-83367618D01*
X133464521Y-83413375D01*
X133483940Y-83480000D01*
X133464521Y-83546625D01*
X133412344Y-83592382D01*
X133369251Y-83612477D01*
X133279608Y-83675246D01*
X133181696Y-83743805D01*
X133019805Y-83905696D01*
X132888474Y-84093255D01*
X132791717Y-84300753D01*
X132732456Y-84521915D01*
X132712501Y-84750000D01*
X132732456Y-84978084D01*
X132748388Y-85037543D01*
X132788295Y-85186477D01*
X132791717Y-85199246D01*
X132888474Y-85406744D01*
X132888476Y-85406746D01*
X132888477Y-85406749D01*
X133019802Y-85594300D01*
X133181700Y-85756198D01*
X133369251Y-85887523D01*
X133409334Y-85906214D01*
X133412345Y-85907618D01*
X133464521Y-85953375D01*
X133483940Y-86020000D01*
X133464521Y-86086625D01*
X133412345Y-86132382D01*
X133369255Y-86152475D01*
X133369251Y-86152477D01*
X133181700Y-86283802D01*
X133181696Y-86283805D01*
X133019805Y-86445696D01*
X132888474Y-86633255D01*
X132791717Y-86840753D01*
X132732456Y-87061915D01*
X132712501Y-87289999D01*
X119680499Y-87289999D01*
X119802198Y-87168300D01*
X119933523Y-86980749D01*
X120030284Y-86773243D01*
X120089543Y-86552087D01*
X120109498Y-86324000D01*
X120089543Y-86095913D01*
X120030284Y-85874757D01*
X119933523Y-85667251D01*
X119802198Y-85479700D01*
X119640300Y-85317802D01*
X119452749Y-85186477D01*
X119452746Y-85186476D01*
X119452744Y-85186474D01*
X119245246Y-85089717D01*
X119245243Y-85089716D01*
X119125005Y-85057498D01*
X119024084Y-85030456D01*
X118796000Y-85010501D01*
X118567915Y-85030456D01*
X118346753Y-85089717D01*
X118139255Y-85186474D01*
X118088199Y-85222224D01*
X117953193Y-85316757D01*
X117951696Y-85317805D01*
X117789805Y-85479696D01*
X117789802Y-85479699D01*
X117789802Y-85479700D01*
X117749041Y-85537913D01*
X117658474Y-85667255D01*
X117561717Y-85874753D01*
X117502456Y-86095915D01*
X117482501Y-86324000D01*
X100500500Y-86324000D01*
X100500500Y-84292000D01*
X103258501Y-84292000D01*
X103278456Y-84520084D01*
X103337717Y-84741246D01*
X103434474Y-84948744D01*
X103434476Y-84948746D01*
X103434477Y-84948749D01*
X103565802Y-85136300D01*
X103727700Y-85298198D01*
X103915251Y-85429523D01*
X104122757Y-85526284D01*
X104343913Y-85585543D01*
X104572000Y-85605498D01*
X104800087Y-85585543D01*
X105021243Y-85526284D01*
X105228749Y-85429523D01*
X105416300Y-85298198D01*
X105578198Y-85136300D01*
X105709523Y-84948749D01*
X105806284Y-84741243D01*
X105865543Y-84520087D01*
X105885498Y-84292000D01*
X105865543Y-84063913D01*
X105806284Y-83842757D01*
X105760233Y-83744000D01*
X108084501Y-83744000D01*
X108104456Y-83972084D01*
X108163717Y-84193246D01*
X108260474Y-84400744D01*
X108260476Y-84400746D01*
X108260477Y-84400749D01*
X108391802Y-84588300D01*
X108553700Y-84750198D01*
X108741251Y-84881523D01*
X108948757Y-84978284D01*
X109169913Y-85037543D01*
X109398000Y-85057498D01*
X109626087Y-85037543D01*
X109847243Y-84978284D01*
X110054749Y-84881523D01*
X110242300Y-84750198D01*
X110242499Y-84749999D01*
X125092501Y-84749999D01*
X125112456Y-84978084D01*
X125128388Y-85037543D01*
X125168295Y-85186477D01*
X125171717Y-85199246D01*
X125268474Y-85406744D01*
X125268476Y-85406746D01*
X125268477Y-85406749D01*
X125399802Y-85594300D01*
X125561700Y-85756198D01*
X125749251Y-85887523D01*
X125802401Y-85912307D01*
X125854576Y-85958061D01*
X125873996Y-86024686D01*
X125854578Y-86091311D01*
X125802403Y-86137069D01*
X125753520Y-86159864D01*
X125567180Y-86290341D01*
X125406341Y-86451180D01*
X125275865Y-86637519D01*
X125179733Y-86843673D01*
X125127128Y-87039999D01*
X125127128Y-87040000D01*
X127684872Y-87040000D01*
X127684871Y-87039999D01*
X127632266Y-86843673D01*
X127536134Y-86637519D01*
X127405658Y-86451180D01*
X127244819Y-86290341D01*
X127058482Y-86159866D01*
X127009597Y-86137070D01*
X126957422Y-86091312D01*
X126938003Y-86024686D01*
X126957424Y-85958061D01*
X127009596Y-85912308D01*
X127062749Y-85887523D01*
X127250300Y-85756198D01*
X127412198Y-85594300D01*
X127543523Y-85406749D01*
X127640284Y-85199243D01*
X127699543Y-84978087D01*
X127719498Y-84750000D01*
X127699543Y-84521913D01*
X127640284Y-84300757D01*
X127543523Y-84093251D01*
X127412198Y-83905700D01*
X127250300Y-83743802D01*
X127062749Y-83612477D01*
X127019655Y-83592382D01*
X126967479Y-83546625D01*
X126948059Y-83480000D01*
X126967479Y-83413375D01*
X127019655Y-83367618D01*
X127022882Y-83366112D01*
X127062749Y-83347523D01*
X127250300Y-83216198D01*
X127412198Y-83054300D01*
X127543523Y-82866749D01*
X127640284Y-82659243D01*
X127699543Y-82438087D01*
X127719498Y-82210000D01*
X127699543Y-81981913D01*
X127640284Y-81760757D01*
X127543523Y-81553251D01*
X127412198Y-81365700D01*
X127250300Y-81203802D01*
X127062749Y-81072477D01*
X127062746Y-81072476D01*
X127062744Y-81072474D01*
X126855246Y-80975717D01*
X126855243Y-80975716D01*
X126643992Y-80919111D01*
X126634084Y-80916456D01*
X126406000Y-80896501D01*
X126177915Y-80916456D01*
X125956753Y-80975717D01*
X125749255Y-81072474D01*
X125561696Y-81203805D01*
X125399805Y-81365696D01*
X125268474Y-81553255D01*
X125171717Y-81760753D01*
X125112456Y-81981915D01*
X125092501Y-82210000D01*
X125112456Y-82438084D01*
X125131650Y-82509716D01*
X125157576Y-82606474D01*
X125171717Y-82659246D01*
X125268474Y-82866744D01*
X125268476Y-82866746D01*
X125268477Y-82866749D01*
X125399802Y-83054300D01*
X125561700Y-83216198D01*
X125749251Y-83347523D01*
X125789334Y-83366214D01*
X125792345Y-83367618D01*
X125844521Y-83413375D01*
X125863940Y-83480000D01*
X125844521Y-83546625D01*
X125792344Y-83592382D01*
X125749251Y-83612477D01*
X125659608Y-83675246D01*
X125561696Y-83743805D01*
X125399805Y-83905696D01*
X125268474Y-84093255D01*
X125171717Y-84300753D01*
X125112456Y-84521915D01*
X125092501Y-84749999D01*
X110242499Y-84749999D01*
X110404198Y-84588300D01*
X110535523Y-84400749D01*
X110632284Y-84193243D01*
X110691543Y-83972087D01*
X110711498Y-83744000D01*
X110691543Y-83515913D01*
X110632284Y-83294757D01*
X110535523Y-83087251D01*
X110404198Y-82899700D01*
X110242300Y-82737802D01*
X110060686Y-82610634D01*
X116675500Y-82610634D01*
X116682011Y-82671205D01*
X116733110Y-82808203D01*
X116820738Y-82925261D01*
X116937796Y-83012889D01*
X117074794Y-83063988D01*
X117074797Y-83063988D01*
X117074799Y-83063989D01*
X117135362Y-83070500D01*
X118932634Y-83070500D01*
X118932638Y-83070500D01*
X118993201Y-83063989D01*
X118993203Y-83063988D01*
X118993205Y-83063988D01*
X119071124Y-83034924D01*
X119130204Y-83012889D01*
X119247261Y-82925261D01*
X119334889Y-82808204D01*
X119361148Y-82737802D01*
X119385988Y-82671205D01*
X119385988Y-82671203D01*
X119385989Y-82671201D01*
X119392500Y-82610638D01*
X119392500Y-80813362D01*
X119385989Y-80752799D01*
X119385988Y-80752797D01*
X119385988Y-80752794D01*
X119334889Y-80615796D01*
X119247261Y-80498738D01*
X119130203Y-80411110D01*
X118993205Y-80360011D01*
X118962919Y-80356755D01*
X118932638Y-80353500D01*
X117135362Y-80353500D01*
X117108445Y-80356393D01*
X117074794Y-80360011D01*
X116937796Y-80411110D01*
X116820738Y-80498738D01*
X116733110Y-80615796D01*
X116682011Y-80752794D01*
X116675500Y-80813366D01*
X116675500Y-82610634D01*
X110060686Y-82610634D01*
X110054749Y-82606477D01*
X110054746Y-82606476D01*
X110054744Y-82606474D01*
X109847246Y-82509717D01*
X109847243Y-82509716D01*
X109736664Y-82480086D01*
X109626084Y-82450456D01*
X109398000Y-82430501D01*
X109169915Y-82450456D01*
X108948753Y-82509717D01*
X108741255Y-82606474D01*
X108553696Y-82737805D01*
X108391805Y-82899696D01*
X108260474Y-83087255D01*
X108163717Y-83294753D01*
X108104456Y-83515915D01*
X108084501Y-83744000D01*
X105760233Y-83744000D01*
X105728173Y-83675246D01*
X105709525Y-83635255D01*
X105709524Y-83635254D01*
X105709523Y-83635251D01*
X105578198Y-83447700D01*
X105416300Y-83285802D01*
X105228749Y-83154477D01*
X105228746Y-83154476D01*
X105228744Y-83154474D01*
X105021246Y-83057717D01*
X105021243Y-83057716D01*
X104853948Y-83012889D01*
X104800084Y-82998456D01*
X104572000Y-82978501D01*
X104343915Y-82998456D01*
X104122753Y-83057717D01*
X103915255Y-83154474D01*
X103727696Y-83285805D01*
X103565805Y-83447696D01*
X103434474Y-83635255D01*
X103337717Y-83842753D01*
X103278456Y-84063915D01*
X103258501Y-84292000D01*
X100500500Y-84292000D01*
X100500500Y-80441999D01*
X101880496Y-80441999D01*
X101900458Y-80631929D01*
X101959472Y-80813556D01*
X102054957Y-80978941D01*
X102079986Y-81006738D01*
X102182747Y-81120866D01*
X102337247Y-81233117D01*
X102337248Y-81233118D01*
X102511714Y-81310795D01*
X102698511Y-81350500D01*
X102698513Y-81350500D01*
X102889487Y-81350500D01*
X102889489Y-81350500D01*
X103076285Y-81310795D01*
X103076286Y-81310794D01*
X103076288Y-81310794D01*
X103250752Y-81233118D01*
X103405253Y-81120866D01*
X103533040Y-80978944D01*
X103600847Y-80861500D01*
X103628527Y-80813556D01*
X103657320Y-80724941D01*
X103687542Y-80631928D01*
X103707504Y-80442000D01*
X103687542Y-80252072D01*
X103666724Y-80188000D01*
X112802496Y-80188000D01*
X112822458Y-80377929D01*
X112881472Y-80559556D01*
X112976957Y-80724941D01*
X112976960Y-80724944D01*
X113104747Y-80866866D01*
X113176656Y-80919111D01*
X113259248Y-80979118D01*
X113433714Y-81056795D01*
X113620511Y-81096500D01*
X113620513Y-81096500D01*
X113811487Y-81096500D01*
X113811489Y-81096500D01*
X113998285Y-81056795D01*
X113998286Y-81056794D01*
X113998288Y-81056794D01*
X114172752Y-80979118D01*
X114327253Y-80866866D01*
X114455040Y-80724944D01*
X114477525Y-80686000D01*
X114550527Y-80559556D01*
X114583553Y-80457913D01*
X114609542Y-80377928D01*
X114629504Y-80188000D01*
X114609542Y-79998072D01*
X114550527Y-79816444D01*
X114550527Y-79816443D01*
X114455042Y-79651058D01*
X114406994Y-79597696D01*
X114327253Y-79509134D01*
X114172752Y-79396882D01*
X114172751Y-79396881D01*
X113998285Y-79319204D01*
X113811489Y-79279500D01*
X113811487Y-79279500D01*
X113620513Y-79279500D01*
X113620511Y-79279500D01*
X113433714Y-79319204D01*
X113259248Y-79396881D01*
X113104748Y-79509133D01*
X112976957Y-79651058D01*
X112881472Y-79816443D01*
X112822458Y-79998070D01*
X112802496Y-80188000D01*
X103666724Y-80188000D01*
X103628527Y-80070444D01*
X103628527Y-80070443D01*
X103533042Y-79905058D01*
X103453253Y-79816444D01*
X103405253Y-79763134D01*
X103290557Y-79679802D01*
X103250751Y-79650881D01*
X103076285Y-79573204D01*
X102889489Y-79533500D01*
X102889487Y-79533500D01*
X102698513Y-79533500D01*
X102698511Y-79533500D01*
X102511714Y-79573204D01*
X102337248Y-79650881D01*
X102182748Y-79763133D01*
X102054957Y-79905058D01*
X101959472Y-80070443D01*
X101900458Y-80252070D01*
X101880496Y-80441999D01*
X100500500Y-80441999D01*
X100500500Y-77139999D01*
X125102501Y-77139999D01*
X125122456Y-77368084D01*
X125181717Y-77589246D01*
X125278474Y-77796744D01*
X125278476Y-77796746D01*
X125278477Y-77796749D01*
X125409802Y-77984300D01*
X125571700Y-78146198D01*
X125759251Y-78277523D01*
X125966757Y-78374284D01*
X126187913Y-78433543D01*
X126416000Y-78453498D01*
X126644087Y-78433543D01*
X126865243Y-78374284D01*
X127072749Y-78277523D01*
X127260300Y-78146198D01*
X127422198Y-77984300D01*
X127553523Y-77796749D01*
X127650284Y-77589243D01*
X127709543Y-77368087D01*
X127729498Y-77140000D01*
X127729498Y-77139999D01*
X135262501Y-77139999D01*
X135282456Y-77368084D01*
X135341717Y-77589246D01*
X135438474Y-77796744D01*
X135438476Y-77796746D01*
X135438477Y-77796749D01*
X135569802Y-77984300D01*
X135731700Y-78146198D01*
X135919251Y-78277523D01*
X136126757Y-78374284D01*
X136347913Y-78433543D01*
X136576000Y-78453498D01*
X136804087Y-78433543D01*
X137025243Y-78374284D01*
X137232749Y-78277523D01*
X137420300Y-78146198D01*
X137582198Y-77984300D01*
X137713523Y-77796749D01*
X137810284Y-77589243D01*
X137869543Y-77368087D01*
X137889498Y-77140000D01*
X137869543Y-76911913D01*
X137810284Y-76690757D01*
X137713523Y-76483251D01*
X137639825Y-76378000D01*
X140850501Y-76378000D01*
X140870456Y-76606084D01*
X140929717Y-76827246D01*
X141026474Y-77034744D01*
X141026476Y-77034746D01*
X141026477Y-77034749D01*
X141157802Y-77222300D01*
X141319700Y-77384198D01*
X141507251Y-77515523D01*
X141714757Y-77612284D01*
X141935913Y-77671543D01*
X142164000Y-77691498D01*
X142392087Y-77671543D01*
X142613243Y-77612284D01*
X142820749Y-77515523D01*
X143008300Y-77384198D01*
X143170198Y-77222300D01*
X143301523Y-77034749D01*
X143398284Y-76827243D01*
X143457543Y-76606087D01*
X143477498Y-76378000D01*
X143457543Y-76149913D01*
X143398284Y-75928757D01*
X143301523Y-75721251D01*
X143170198Y-75533700D01*
X143008300Y-75371802D01*
X142820749Y-75240477D01*
X142820746Y-75240476D01*
X142820744Y-75240474D01*
X142613246Y-75143717D01*
X142613243Y-75143716D01*
X142479950Y-75108000D01*
X142392084Y-75084456D01*
X142164000Y-75064501D01*
X141935915Y-75084456D01*
X141714753Y-75143717D01*
X141507255Y-75240474D01*
X141507250Y-75240477D01*
X141507251Y-75240477D01*
X141385101Y-75326008D01*
X141319696Y-75371805D01*
X141157805Y-75533696D01*
X141157802Y-75533699D01*
X141157802Y-75533700D01*
X141132307Y-75570110D01*
X141026474Y-75721255D01*
X140929717Y-75928753D01*
X140870456Y-76149915D01*
X140850501Y-76378000D01*
X137639825Y-76378000D01*
X137582198Y-76295700D01*
X137420300Y-76133802D01*
X137232749Y-76002477D01*
X137232746Y-76002476D01*
X137232744Y-76002474D01*
X137025246Y-75905717D01*
X137025243Y-75905716D01*
X136914665Y-75876086D01*
X136804084Y-75846456D01*
X136576000Y-75826501D01*
X136347915Y-75846456D01*
X136126753Y-75905717D01*
X135919255Y-76002474D01*
X135731696Y-76133805D01*
X135569805Y-76295696D01*
X135569802Y-76295699D01*
X135569802Y-76295700D01*
X135512175Y-76377999D01*
X135438474Y-76483255D01*
X135341717Y-76690753D01*
X135282456Y-76911915D01*
X135262501Y-77139999D01*
X127729498Y-77139999D01*
X127709543Y-76911913D01*
X127650284Y-76690757D01*
X127553523Y-76483251D01*
X127422198Y-76295700D01*
X127260300Y-76133802D01*
X127072749Y-76002477D01*
X127072746Y-76002476D01*
X127072744Y-76002474D01*
X126865246Y-75905717D01*
X126865243Y-75905716D01*
X126754665Y-75876086D01*
X126644084Y-75846456D01*
X126416000Y-75826501D01*
X126187915Y-75846456D01*
X125966753Y-75905717D01*
X125759255Y-76002474D01*
X125571696Y-76133805D01*
X125409805Y-76295696D01*
X125409802Y-76295699D01*
X125409802Y-76295700D01*
X125352175Y-76377999D01*
X125278474Y-76483255D01*
X125181717Y-76690753D01*
X125122456Y-76911915D01*
X125102501Y-77139999D01*
X100500500Y-77139999D01*
X100500500Y-76056634D01*
X102655500Y-76056634D01*
X102662011Y-76117205D01*
X102713110Y-76254203D01*
X102800738Y-76371261D01*
X102917796Y-76458889D01*
X103054794Y-76509988D01*
X103054797Y-76509988D01*
X103054799Y-76509989D01*
X103115362Y-76516500D01*
X105012634Y-76516500D01*
X105012638Y-76516500D01*
X105073201Y-76509989D01*
X105073203Y-76509988D01*
X105073205Y-76509988D01*
X105158751Y-76478080D01*
X105210204Y-76458889D01*
X105327261Y-76371261D01*
X105414889Y-76254204D01*
X105439397Y-76188494D01*
X105475348Y-76137284D01*
X105531730Y-76110146D01*
X105594184Y-76113994D01*
X105638097Y-76142244D01*
X105638672Y-76141507D01*
X105646779Y-76147817D01*
X105646780Y-76147818D01*
X105830983Y-76291190D01*
X106036273Y-76402287D01*
X106091466Y-76421235D01*
X106257046Y-76478080D01*
X106487288Y-76516500D01*
X106720712Y-76516500D01*
X106950953Y-76478080D01*
X107061339Y-76440183D01*
X107171727Y-76402287D01*
X107377017Y-76291190D01*
X107561220Y-76147818D01*
X107719314Y-75976083D01*
X107846984Y-75780669D01*
X107940749Y-75566907D01*
X107998051Y-75340626D01*
X108017327Y-75108000D01*
X107998051Y-74875374D01*
X107940749Y-74649093D01*
X107919215Y-74600000D01*
X112148501Y-74600000D01*
X112168456Y-74828084D01*
X112181129Y-74875378D01*
X112209105Y-74979788D01*
X112227717Y-75049246D01*
X112324474Y-75256744D01*
X112324476Y-75256746D01*
X112324477Y-75256749D01*
X112455802Y-75444300D01*
X112617700Y-75606198D01*
X112805251Y-75737523D01*
X112805254Y-75737524D01*
X112805255Y-75737525D01*
X112909004Y-75785903D01*
X113012757Y-75834284D01*
X113233913Y-75893543D01*
X113462000Y-75913498D01*
X113690087Y-75893543D01*
X113911243Y-75834284D01*
X114118749Y-75737523D01*
X114306300Y-75606198D01*
X114468198Y-75444300D01*
X114599523Y-75256749D01*
X114696284Y-75049243D01*
X114755543Y-74828087D01*
X114775498Y-74600000D01*
X116720501Y-74600000D01*
X116740456Y-74828084D01*
X116753129Y-74875378D01*
X116781105Y-74979788D01*
X116799717Y-75049246D01*
X116896474Y-75256744D01*
X116896476Y-75256746D01*
X116896477Y-75256749D01*
X117027802Y-75444300D01*
X117189700Y-75606198D01*
X117377251Y-75737523D01*
X117377254Y-75737524D01*
X117377255Y-75737525D01*
X117481004Y-75785903D01*
X117584757Y-75834284D01*
X117805913Y-75893543D01*
X118034000Y-75913498D01*
X118262087Y-75893543D01*
X118483243Y-75834284D01*
X118690749Y-75737523D01*
X118878300Y-75606198D01*
X119040198Y-75444300D01*
X119171523Y-75256749D01*
X119268284Y-75049243D01*
X119327543Y-74828087D01*
X119347498Y-74600000D01*
X121292501Y-74600000D01*
X121312456Y-74828084D01*
X121325129Y-74875378D01*
X121353105Y-74979788D01*
X121371717Y-75049246D01*
X121468474Y-75256744D01*
X121468476Y-75256746D01*
X121468477Y-75256749D01*
X121599802Y-75444300D01*
X121761700Y-75606198D01*
X121949251Y-75737523D01*
X121949254Y-75737524D01*
X121949255Y-75737525D01*
X122053004Y-75785903D01*
X122156757Y-75834284D01*
X122377913Y-75893543D01*
X122606000Y-75913498D01*
X122834087Y-75893543D01*
X123055243Y-75834284D01*
X123262749Y-75737523D01*
X123450300Y-75606198D01*
X123612198Y-75444300D01*
X123743523Y-75256749D01*
X123840284Y-75049243D01*
X123899543Y-74828087D01*
X123919498Y-74600000D01*
X123899543Y-74371913D01*
X123840284Y-74150757D01*
X123743523Y-73943251D01*
X123612198Y-73755700D01*
X123450300Y-73593802D01*
X123262749Y-73462477D01*
X123262746Y-73462476D01*
X123262744Y-73462474D01*
X123055246Y-73365717D01*
X123055243Y-73365716D01*
X122921950Y-73330000D01*
X148216501Y-73330000D01*
X148236456Y-73558084D01*
X148236457Y-73558087D01*
X148289785Y-73757110D01*
X148295717Y-73779246D01*
X148392474Y-73986744D01*
X148392476Y-73986746D01*
X148392477Y-73986749D01*
X148523802Y-74174300D01*
X148685700Y-74336198D01*
X148873251Y-74467523D01*
X149080757Y-74564284D01*
X149301913Y-74623543D01*
X149530000Y-74643498D01*
X149758087Y-74623543D01*
X149979243Y-74564284D01*
X150186749Y-74467523D01*
X150374300Y-74336198D01*
X150521840Y-74188657D01*
X150574583Y-74157364D01*
X150635875Y-74155175D01*
X150690720Y-74182627D01*
X150725699Y-74233006D01*
X150779110Y-74376204D01*
X150866738Y-74493261D01*
X150983796Y-74580889D01*
X151120794Y-74631988D01*
X151120797Y-74631988D01*
X151120799Y-74631989D01*
X151181362Y-74638500D01*
X152878634Y-74638500D01*
X152878638Y-74638500D01*
X152939201Y-74631989D01*
X152939203Y-74631988D01*
X152939205Y-74631988D01*
X153024966Y-74600000D01*
X153076204Y-74580889D01*
X153193261Y-74493261D01*
X153280889Y-74376204D01*
X153297749Y-74330999D01*
X156720843Y-74330999D01*
X156739435Y-74555363D01*
X156739435Y-74555366D01*
X156739436Y-74555368D01*
X156763170Y-74649093D01*
X156794705Y-74773618D01*
X156885138Y-74979788D01*
X157008281Y-75168273D01*
X157153489Y-75326009D01*
X157182263Y-75378761D01*
X157182856Y-75438848D01*
X157155129Y-75492158D01*
X157105595Y-75526173D01*
X156987795Y-75570111D01*
X156870738Y-75657738D01*
X156783110Y-75774796D01*
X156732011Y-75911794D01*
X156731828Y-75913498D01*
X156727764Y-75951308D01*
X156725500Y-75972366D01*
X156725500Y-77769634D01*
X156732011Y-77830205D01*
X156783110Y-77967203D01*
X156870738Y-78084261D01*
X156987796Y-78171889D01*
X157124794Y-78222988D01*
X157124797Y-78222988D01*
X157124799Y-78222989D01*
X157185362Y-78229500D01*
X158982634Y-78229500D01*
X158982638Y-78229500D01*
X159043201Y-78222989D01*
X159043203Y-78222988D01*
X159043205Y-78222988D01*
X159121124Y-78193924D01*
X159180204Y-78171889D01*
X159297261Y-78084261D01*
X159384889Y-77967204D01*
X159435989Y-77830201D01*
X159442500Y-77769638D01*
X159442500Y-75972362D01*
X159435989Y-75911799D01*
X159435988Y-75911797D01*
X159435988Y-75911794D01*
X159384889Y-75774796D01*
X159297261Y-75657738D01*
X159180203Y-75570110D01*
X159062405Y-75526173D01*
X159012870Y-75492158D01*
X158985143Y-75438848D01*
X158985736Y-75378761D01*
X159014508Y-75326009D01*
X159159722Y-75168268D01*
X159282860Y-74979791D01*
X159373296Y-74773616D01*
X159428564Y-74555368D01*
X159447156Y-74331000D01*
X159428564Y-74106632D01*
X159373296Y-73888384D01*
X159293300Y-73706011D01*
X159282861Y-73682211D01*
X159282860Y-73682209D01*
X159159722Y-73493732D01*
X159007240Y-73328094D01*
X158868956Y-73220462D01*
X158829575Y-73189810D01*
X158786302Y-73166392D01*
X158740663Y-73123842D01*
X158721525Y-73064452D01*
X158733734Y-73003261D01*
X158774198Y-72955763D01*
X158955078Y-72829109D01*
X159122106Y-72662081D01*
X159257600Y-72468576D01*
X159357430Y-72254492D01*
X159414636Y-72041000D01*
X156753364Y-72041000D01*
X156810569Y-72254492D01*
X156910399Y-72468576D01*
X157045893Y-72662081D01*
X157212918Y-72829106D01*
X157393802Y-72955763D01*
X157434265Y-73003261D01*
X157446474Y-73064452D01*
X157427336Y-73123842D01*
X157381698Y-73166392D01*
X157338422Y-73189812D01*
X157160760Y-73328094D01*
X157008279Y-73493730D01*
X156885138Y-73682211D01*
X156813848Y-73844739D01*
X156794704Y-73888384D01*
X156749173Y-74068181D01*
X156739435Y-74106636D01*
X156720843Y-74330999D01*
X153297749Y-74330999D01*
X153302924Y-74317124D01*
X153331988Y-74239205D01*
X153331988Y-74239203D01*
X153331989Y-74239201D01*
X153338500Y-74178638D01*
X153338500Y-72481362D01*
X153331989Y-72420799D01*
X153331988Y-72420797D01*
X153331988Y-72420794D01*
X153280889Y-72283796D01*
X153193261Y-72166738D01*
X153076203Y-72079110D01*
X152939205Y-72028011D01*
X152908919Y-72024755D01*
X152878638Y-72021500D01*
X151181362Y-72021500D01*
X151154445Y-72024393D01*
X151120794Y-72028011D01*
X150983796Y-72079110D01*
X150866738Y-72166738D01*
X150779110Y-72283796D01*
X150725699Y-72426993D01*
X150690720Y-72477372D01*
X150635875Y-72504824D01*
X150574583Y-72502635D01*
X150521837Y-72471339D01*
X150374303Y-72323805D01*
X150374300Y-72323802D01*
X150186749Y-72192477D01*
X150186746Y-72192476D01*
X150186744Y-72192474D01*
X149979246Y-72095717D01*
X149979243Y-72095716D01*
X149775042Y-72041000D01*
X149758084Y-72036456D01*
X149529999Y-72016501D01*
X149301915Y-72036456D01*
X149080753Y-72095717D01*
X148873255Y-72192474D01*
X148685696Y-72323805D01*
X148523805Y-72485696D01*
X148392474Y-72673255D01*
X148295717Y-72880753D01*
X148236456Y-73101915D01*
X148216501Y-73330000D01*
X122921950Y-73330000D01*
X122914837Y-73328094D01*
X122834084Y-73306456D01*
X122606000Y-73286501D01*
X122377915Y-73306456D01*
X122156753Y-73365717D01*
X121949255Y-73462474D01*
X121949250Y-73462477D01*
X121949251Y-73462477D01*
X121812711Y-73558084D01*
X121761696Y-73593805D01*
X121599805Y-73755696D01*
X121599802Y-73755699D01*
X121599802Y-73755700D01*
X121559181Y-73813713D01*
X121468474Y-73943255D01*
X121371717Y-74150753D01*
X121312456Y-74371915D01*
X121292501Y-74600000D01*
X119347498Y-74600000D01*
X119327543Y-74371913D01*
X119268284Y-74150757D01*
X119171523Y-73943251D01*
X119040198Y-73755700D01*
X118878300Y-73593802D01*
X118690749Y-73462477D01*
X118690746Y-73462476D01*
X118690744Y-73462474D01*
X118483246Y-73365717D01*
X118483243Y-73365716D01*
X118342837Y-73328094D01*
X118262084Y-73306456D01*
X118034000Y-73286501D01*
X117805915Y-73306456D01*
X117584753Y-73365717D01*
X117377255Y-73462474D01*
X117377250Y-73462477D01*
X117377251Y-73462477D01*
X117240711Y-73558084D01*
X117189696Y-73593805D01*
X117027805Y-73755696D01*
X117027802Y-73755699D01*
X117027802Y-73755700D01*
X116987181Y-73813713D01*
X116896474Y-73943255D01*
X116799717Y-74150753D01*
X116740456Y-74371915D01*
X116720501Y-74600000D01*
X114775498Y-74600000D01*
X114755543Y-74371913D01*
X114696284Y-74150757D01*
X114599523Y-73943251D01*
X114468198Y-73755700D01*
X114306300Y-73593802D01*
X114118749Y-73462477D01*
X114118746Y-73462476D01*
X114118744Y-73462474D01*
X113911246Y-73365717D01*
X113911243Y-73365716D01*
X113770837Y-73328094D01*
X113690084Y-73306456D01*
X113462000Y-73286501D01*
X113233915Y-73306456D01*
X113012753Y-73365717D01*
X112805255Y-73462474D01*
X112805250Y-73462477D01*
X112805251Y-73462477D01*
X112668711Y-73558084D01*
X112617696Y-73593805D01*
X112455805Y-73755696D01*
X112455802Y-73755699D01*
X112455802Y-73755700D01*
X112415181Y-73813713D01*
X112324474Y-73943255D01*
X112227717Y-74150753D01*
X112168456Y-74371915D01*
X112148501Y-74600000D01*
X107919215Y-74600000D01*
X107846984Y-74435331D01*
X107778821Y-74330999D01*
X107719315Y-74239918D01*
X107561219Y-74068181D01*
X107508955Y-74027502D01*
X107377017Y-73924810D01*
X107171727Y-73813713D01*
X107171726Y-73813712D01*
X107171725Y-73813712D01*
X106950953Y-73737919D01*
X106720712Y-73699500D01*
X106487288Y-73699500D01*
X106257046Y-73737919D01*
X106036274Y-73813712D01*
X105830983Y-73924809D01*
X105830983Y-73924810D01*
X105646782Y-74068181D01*
X105638672Y-74074493D01*
X105638098Y-74073755D01*
X105594178Y-74102007D01*
X105531726Y-74105852D01*
X105475347Y-74078714D01*
X105439397Y-74027502D01*
X105414889Y-73961796D01*
X105327261Y-73844738D01*
X105210203Y-73757110D01*
X105073205Y-73706011D01*
X105042919Y-73702755D01*
X105012638Y-73699500D01*
X103115362Y-73699500D01*
X103088445Y-73702393D01*
X103054794Y-73706011D01*
X102917796Y-73757110D01*
X102800738Y-73844738D01*
X102713110Y-73961796D01*
X102662011Y-74098794D01*
X102655500Y-74159366D01*
X102655500Y-76056634D01*
X100500500Y-76056634D01*
X100500500Y-71044000D01*
X124994496Y-71044000D01*
X125014458Y-71233929D01*
X125073472Y-71415556D01*
X125168957Y-71580941D01*
X125198355Y-71613591D01*
X125296747Y-71722866D01*
X125451247Y-71835117D01*
X125451248Y-71835118D01*
X125625714Y-71912795D01*
X125812511Y-71952500D01*
X125812513Y-71952500D01*
X126003487Y-71952500D01*
X126003489Y-71952500D01*
X126190285Y-71912795D01*
X126190286Y-71912794D01*
X126190288Y-71912794D01*
X126364752Y-71835118D01*
X126519253Y-71722866D01*
X126647040Y-71580944D01*
X126670103Y-71540999D01*
X126742527Y-71415556D01*
X126789144Y-71272084D01*
X126801542Y-71233928D01*
X126821504Y-71044000D01*
X131658881Y-71044000D01*
X131678836Y-71272084D01*
X131738097Y-71493246D01*
X131834854Y-71700744D01*
X131834856Y-71700746D01*
X131834857Y-71700749D01*
X131966182Y-71888300D01*
X132128080Y-72050198D01*
X132315631Y-72181523D01*
X132315634Y-72181524D01*
X132315635Y-72181525D01*
X132339122Y-72192477D01*
X132523137Y-72278284D01*
X132744293Y-72337543D01*
X132972380Y-72357498D01*
X133200467Y-72337543D01*
X133421623Y-72278284D01*
X133629129Y-72181523D01*
X133816680Y-72050198D01*
X133964220Y-71902657D01*
X134016963Y-71871364D01*
X134078255Y-71869175D01*
X134133100Y-71896627D01*
X134168079Y-71947006D01*
X134221490Y-72090204D01*
X134309118Y-72207261D01*
X134426176Y-72294889D01*
X134563174Y-72345988D01*
X134563177Y-72345988D01*
X134563179Y-72345989D01*
X134623742Y-72352500D01*
X136321014Y-72352500D01*
X136321018Y-72352500D01*
X136381581Y-72345989D01*
X136381583Y-72345988D01*
X136381585Y-72345988D01*
X136459504Y-72316924D01*
X136518584Y-72294889D01*
X136635641Y-72207261D01*
X136723269Y-72090204D01*
X136774369Y-71953201D01*
X136780880Y-71892638D01*
X136780880Y-71541000D01*
X156753364Y-71541000D01*
X157834000Y-71541000D01*
X157834000Y-70460364D01*
X158334000Y-70460364D01*
X158334000Y-71541000D01*
X159414636Y-71541000D01*
X159414635Y-71540999D01*
X159357430Y-71327507D01*
X159257599Y-71113421D01*
X159122109Y-70919921D01*
X158955081Y-70752893D01*
X158761576Y-70617399D01*
X158547492Y-70517569D01*
X158334000Y-70460364D01*
X157834000Y-70460364D01*
X157833999Y-70460364D01*
X157620507Y-70517569D01*
X157406421Y-70617400D01*
X157212921Y-70752890D01*
X157045890Y-70919921D01*
X156910400Y-71113421D01*
X156810569Y-71327507D01*
X156753364Y-71540999D01*
X156753364Y-71541000D01*
X136780880Y-71541000D01*
X136780880Y-70282000D01*
X144044496Y-70282000D01*
X144064458Y-70471929D01*
X144123472Y-70653556D01*
X144218957Y-70818941D01*
X144218960Y-70818944D01*
X144346747Y-70960866D01*
X144461171Y-71044000D01*
X144501248Y-71073118D01*
X144675714Y-71150795D01*
X144862511Y-71190500D01*
X144862513Y-71190500D01*
X145053487Y-71190500D01*
X145053489Y-71190500D01*
X145240285Y-71150795D01*
X145240286Y-71150794D01*
X145240288Y-71150794D01*
X145414752Y-71073118D01*
X145569253Y-70960866D01*
X145697040Y-70818944D01*
X145735177Y-70752890D01*
X145792527Y-70653556D01*
X145841444Y-70503006D01*
X145851542Y-70471928D01*
X145871504Y-70282000D01*
X145851542Y-70092072D01*
X145792527Y-69910444D01*
X145792527Y-69910443D01*
X145697042Y-69745058D01*
X145677442Y-69723291D01*
X145569253Y-69603134D01*
X145414752Y-69490882D01*
X145414751Y-69490881D01*
X145240285Y-69413204D01*
X145053489Y-69373500D01*
X145053487Y-69373500D01*
X144862513Y-69373500D01*
X144862511Y-69373500D01*
X144675714Y-69413204D01*
X144501248Y-69490881D01*
X144346748Y-69603133D01*
X144218957Y-69745058D01*
X144123472Y-69910443D01*
X144064458Y-70092070D01*
X144044496Y-70282000D01*
X136780880Y-70282000D01*
X136780880Y-70195362D01*
X136774369Y-70134799D01*
X136774368Y-70134797D01*
X136774368Y-70134794D01*
X136723269Y-69997796D01*
X136635641Y-69880738D01*
X136518583Y-69793110D01*
X136381585Y-69742011D01*
X136351299Y-69738755D01*
X136321018Y-69735500D01*
X134623742Y-69735500D01*
X134596825Y-69738393D01*
X134563174Y-69742011D01*
X134426176Y-69793110D01*
X134309118Y-69880738D01*
X134221490Y-69997796D01*
X134168079Y-70140993D01*
X134133100Y-70191372D01*
X134078255Y-70218824D01*
X134016963Y-70216635D01*
X133964217Y-70185339D01*
X133816683Y-70037805D01*
X133816682Y-70037804D01*
X133816680Y-70037802D01*
X133629129Y-69906477D01*
X133629126Y-69906476D01*
X133629124Y-69906474D01*
X133421626Y-69809717D01*
X133421623Y-69809716D01*
X133311045Y-69780086D01*
X133200464Y-69750456D01*
X132972379Y-69730501D01*
X132744295Y-69750456D01*
X132523133Y-69809717D01*
X132315635Y-69906474D01*
X132128076Y-70037805D01*
X131966185Y-70199696D01*
X131966182Y-70199699D01*
X131966182Y-70199700D01*
X131908555Y-70282000D01*
X131834854Y-70387255D01*
X131738097Y-70594753D01*
X131678836Y-70815915D01*
X131658881Y-71044000D01*
X126821504Y-71044000D01*
X126801542Y-70854072D01*
X126742527Y-70672444D01*
X126742527Y-70672443D01*
X126647042Y-70507058D01*
X126627442Y-70485291D01*
X126519253Y-70365134D01*
X126364752Y-70252882D01*
X126364751Y-70252881D01*
X126190285Y-70175204D01*
X126003489Y-70135500D01*
X126003487Y-70135500D01*
X125812513Y-70135500D01*
X125812511Y-70135500D01*
X125625714Y-70175204D01*
X125451248Y-70252881D01*
X125296748Y-70365133D01*
X125168957Y-70507058D01*
X125073472Y-70672443D01*
X125014458Y-70854070D01*
X124994496Y-71044000D01*
X100500500Y-71044000D01*
X100500500Y-68436634D01*
X102650500Y-68436634D01*
X102657011Y-68497205D01*
X102708110Y-68634203D01*
X102795738Y-68751261D01*
X102912796Y-68838889D01*
X103049794Y-68889988D01*
X103049797Y-68889988D01*
X103049799Y-68889989D01*
X103110362Y-68896500D01*
X105007634Y-68896500D01*
X105007638Y-68896500D01*
X105068201Y-68889989D01*
X105068203Y-68889988D01*
X105068205Y-68889988D01*
X105153751Y-68858080D01*
X105205204Y-68838889D01*
X105322261Y-68751261D01*
X105409889Y-68634204D01*
X105434397Y-68568494D01*
X105470348Y-68517284D01*
X105526730Y-68490146D01*
X105589184Y-68493994D01*
X105633097Y-68522244D01*
X105633672Y-68521507D01*
X105641779Y-68527817D01*
X105641780Y-68527818D01*
X105825983Y-68671190D01*
X106031273Y-68782287D01*
X106086466Y-68801235D01*
X106252046Y-68858080D01*
X106482288Y-68896500D01*
X106715712Y-68896500D01*
X106945953Y-68858080D01*
X107056339Y-68820183D01*
X107166727Y-68782287D01*
X107372017Y-68671190D01*
X107556220Y-68527818D01*
X107714314Y-68356083D01*
X107841984Y-68160669D01*
X107935749Y-67946907D01*
X107993051Y-67720626D01*
X108012327Y-67488000D01*
X107993051Y-67255374D01*
X107935749Y-67029093D01*
X107841984Y-66815331D01*
X107778149Y-66717624D01*
X107714315Y-66619918D01*
X107703927Y-66608634D01*
X127851500Y-66608634D01*
X127858011Y-66669205D01*
X127909110Y-66806203D01*
X127996738Y-66923261D01*
X128113796Y-67010889D01*
X128250794Y-67061988D01*
X128250797Y-67061988D01*
X128250799Y-67061989D01*
X128311362Y-67068500D01*
X130108634Y-67068500D01*
X130108638Y-67068500D01*
X130169201Y-67061989D01*
X130169203Y-67061988D01*
X130169205Y-67061988D01*
X130257403Y-67029091D01*
X130306204Y-67010889D01*
X130423261Y-66923261D01*
X130510889Y-66806204D01*
X130561989Y-66669201D01*
X130568500Y-66608638D01*
X130568500Y-66100634D01*
X133439500Y-66100634D01*
X133446011Y-66161205D01*
X133497110Y-66298203D01*
X133584738Y-66415261D01*
X133701796Y-66502889D01*
X133838794Y-66553988D01*
X133838797Y-66553988D01*
X133838799Y-66553989D01*
X133899362Y-66560500D01*
X135696634Y-66560500D01*
X135696638Y-66560500D01*
X135757201Y-66553989D01*
X135757203Y-66553988D01*
X135757205Y-66553988D01*
X135860398Y-66515498D01*
X135894204Y-66502889D01*
X136011261Y-66415261D01*
X136098889Y-66298204D01*
X136128804Y-66218000D01*
X140850501Y-66218000D01*
X140870456Y-66446084D01*
X140899369Y-66553988D01*
X140923673Y-66644692D01*
X140929717Y-66667246D01*
X141026474Y-66874744D01*
X141026476Y-66874746D01*
X141026477Y-66874749D01*
X141157802Y-67062300D01*
X141319700Y-67224198D01*
X141507251Y-67355523D01*
X141714757Y-67452284D01*
X141935913Y-67511543D01*
X142164000Y-67531498D01*
X142392087Y-67511543D01*
X142613243Y-67452284D01*
X142820749Y-67355523D01*
X143008300Y-67224198D01*
X143170198Y-67062300D01*
X143301523Y-66874749D01*
X143398284Y-66667243D01*
X143457543Y-66446087D01*
X143477498Y-66218000D01*
X143457543Y-65989913D01*
X143398284Y-65768757D01*
X143301523Y-65561251D01*
X143170198Y-65373700D01*
X143008300Y-65211802D01*
X142994301Y-65202000D01*
X146224501Y-65202000D01*
X146244456Y-65430084D01*
X146303717Y-65651246D01*
X146400474Y-65858744D01*
X146400476Y-65858746D01*
X146400477Y-65858749D01*
X146531802Y-66046300D01*
X146693700Y-66208198D01*
X146881251Y-66339523D01*
X147088757Y-66436284D01*
X147309913Y-66495543D01*
X147538000Y-66515498D01*
X147766087Y-66495543D01*
X147987243Y-66436284D01*
X148194749Y-66339523D01*
X148382300Y-66208198D01*
X148544198Y-66046300D01*
X148675523Y-65858749D01*
X148772284Y-65651243D01*
X148831543Y-65430087D01*
X148851498Y-65202000D01*
X151224501Y-65202000D01*
X151244456Y-65430084D01*
X151303717Y-65651246D01*
X151400474Y-65858744D01*
X151400476Y-65858746D01*
X151400477Y-65858749D01*
X151531802Y-66046300D01*
X151693700Y-66208198D01*
X151881251Y-66339523D01*
X152088757Y-66436284D01*
X152309913Y-66495543D01*
X152538000Y-66515498D01*
X152766087Y-66495543D01*
X152987243Y-66436284D01*
X153194749Y-66339523D01*
X153382300Y-66208198D01*
X153489864Y-66100634D01*
X157569500Y-66100634D01*
X157576011Y-66161205D01*
X157627110Y-66298203D01*
X157714738Y-66415261D01*
X157831796Y-66502889D01*
X157968794Y-66553988D01*
X157968797Y-66553988D01*
X157968799Y-66553989D01*
X158029362Y-66560500D01*
X159826634Y-66560500D01*
X159826638Y-66560500D01*
X159887201Y-66553989D01*
X159887203Y-66553988D01*
X159887205Y-66553988D01*
X159990398Y-66515498D01*
X160024204Y-66502889D01*
X160141261Y-66415261D01*
X160228889Y-66298204D01*
X160262460Y-66208198D01*
X160279988Y-66161205D01*
X160279988Y-66161203D01*
X160279989Y-66161201D01*
X160286500Y-66100638D01*
X160286500Y-65452000D01*
X163166000Y-65452000D01*
X163166000Y-66099824D01*
X163172402Y-66159375D01*
X163222647Y-66294089D01*
X163308811Y-66409188D01*
X163423910Y-66495352D01*
X163558624Y-66545597D01*
X163618176Y-66552000D01*
X164266000Y-66552000D01*
X164266000Y-65452000D01*
X164766000Y-65452000D01*
X164766000Y-66552000D01*
X165413824Y-66552000D01*
X165473375Y-66545597D01*
X165608089Y-66495352D01*
X165723188Y-66409188D01*
X165809352Y-66294089D01*
X165859597Y-66159375D01*
X165866000Y-66099824D01*
X165866000Y-65452000D01*
X164766000Y-65452000D01*
X164266000Y-65452000D01*
X163166000Y-65452000D01*
X160286500Y-65452000D01*
X160286500Y-64952000D01*
X163166000Y-64952000D01*
X164266000Y-64952000D01*
X164266000Y-63852000D01*
X164766000Y-63852000D01*
X164766000Y-64952000D01*
X165866000Y-64952000D01*
X165866000Y-64304176D01*
X165859597Y-64244624D01*
X165809352Y-64109910D01*
X165723188Y-63994811D01*
X165608089Y-63908647D01*
X165473375Y-63858402D01*
X165413824Y-63852000D01*
X164766000Y-63852000D01*
X164266000Y-63852000D01*
X163618176Y-63852000D01*
X163558624Y-63858402D01*
X163423910Y-63908647D01*
X163308811Y-63994811D01*
X163222647Y-64109910D01*
X163172402Y-64244624D01*
X163166000Y-64304176D01*
X163166000Y-64952000D01*
X160286500Y-64952000D01*
X160286500Y-64303362D01*
X160279989Y-64242799D01*
X160279988Y-64242797D01*
X160279988Y-64242794D01*
X160228889Y-64105796D01*
X160141261Y-63988738D01*
X160024203Y-63901110D01*
X159887205Y-63850011D01*
X159856919Y-63846755D01*
X159826638Y-63843500D01*
X158029362Y-63843500D01*
X158002445Y-63846393D01*
X157968794Y-63850011D01*
X157831796Y-63901110D01*
X157714738Y-63988738D01*
X157627110Y-64105796D01*
X157576011Y-64242794D01*
X157569500Y-64303366D01*
X157569500Y-66100634D01*
X153489864Y-66100634D01*
X153544198Y-66046300D01*
X153675523Y-65858749D01*
X153772284Y-65651243D01*
X153831543Y-65430087D01*
X153851498Y-65202000D01*
X153831543Y-64973913D01*
X153772284Y-64752757D01*
X153675523Y-64545251D01*
X153544198Y-64357700D01*
X153382300Y-64195802D01*
X153194749Y-64064477D01*
X153194746Y-64064476D01*
X153194744Y-64064474D01*
X152987246Y-63967717D01*
X152987243Y-63967716D01*
X152876664Y-63938086D01*
X152766084Y-63908456D01*
X152538000Y-63888501D01*
X152309915Y-63908456D01*
X152088753Y-63967717D01*
X151881255Y-64064474D01*
X151693696Y-64195805D01*
X151531805Y-64357696D01*
X151400474Y-64545255D01*
X151303717Y-64752753D01*
X151244456Y-64973915D01*
X151224501Y-65202000D01*
X148851498Y-65202000D01*
X148831543Y-64973913D01*
X148772284Y-64752757D01*
X148675523Y-64545251D01*
X148544198Y-64357700D01*
X148382300Y-64195802D01*
X148194749Y-64064477D01*
X148194746Y-64064476D01*
X148194744Y-64064474D01*
X147987246Y-63967717D01*
X147987243Y-63967716D01*
X147876664Y-63938086D01*
X147766084Y-63908456D01*
X147538000Y-63888501D01*
X147309915Y-63908456D01*
X147088753Y-63967717D01*
X146881255Y-64064474D01*
X146693696Y-64195805D01*
X146531805Y-64357696D01*
X146400474Y-64545255D01*
X146303717Y-64752753D01*
X146244456Y-64973915D01*
X146224501Y-65202000D01*
X142994301Y-65202000D01*
X142820749Y-65080477D01*
X142820746Y-65080476D01*
X142820744Y-65080474D01*
X142613246Y-64983717D01*
X142613243Y-64983716D01*
X142494878Y-64952000D01*
X142392084Y-64924456D01*
X142164000Y-64904501D01*
X141935915Y-64924456D01*
X141714753Y-64983717D01*
X141507255Y-65080474D01*
X141319696Y-65211805D01*
X141157805Y-65373696D01*
X141026474Y-65561255D01*
X140929717Y-65768753D01*
X140870456Y-65989915D01*
X140850501Y-66218000D01*
X136128804Y-66218000D01*
X136132460Y-66208198D01*
X136149988Y-66161205D01*
X136149988Y-66161203D01*
X136149989Y-66161201D01*
X136156500Y-66100638D01*
X136156500Y-64303362D01*
X136149989Y-64242799D01*
X136149988Y-64242797D01*
X136149988Y-64242794D01*
X136098889Y-64105796D01*
X136011261Y-63988738D01*
X135894203Y-63901110D01*
X135757205Y-63850011D01*
X135726919Y-63846755D01*
X135696638Y-63843500D01*
X133899362Y-63843500D01*
X133872445Y-63846393D01*
X133838794Y-63850011D01*
X133701796Y-63901110D01*
X133584738Y-63988738D01*
X133497110Y-64105796D01*
X133446011Y-64242794D01*
X133439500Y-64303366D01*
X133439500Y-66100634D01*
X130568500Y-66100634D01*
X130568500Y-64811362D01*
X130561989Y-64750799D01*
X130561988Y-64750797D01*
X130561988Y-64750794D01*
X130510889Y-64613796D01*
X130423261Y-64496738D01*
X130306203Y-64409110D01*
X130169205Y-64358011D01*
X130138919Y-64354755D01*
X130108638Y-64351500D01*
X128311362Y-64351500D01*
X128284445Y-64354393D01*
X128250794Y-64358011D01*
X128113796Y-64409110D01*
X127996738Y-64496738D01*
X127909110Y-64613796D01*
X127858011Y-64750794D01*
X127851500Y-64811366D01*
X127851500Y-66608634D01*
X107703927Y-66608634D01*
X107556219Y-66448181D01*
X107419536Y-66341796D01*
X107372017Y-66304810D01*
X107166727Y-66193713D01*
X107166726Y-66193712D01*
X107166725Y-66193712D01*
X106945953Y-66117919D01*
X106715712Y-66079500D01*
X106482288Y-66079500D01*
X106252046Y-66117919D01*
X106031274Y-66193712D01*
X105845794Y-66294089D01*
X105825983Y-66304810D01*
X105641782Y-66448181D01*
X105633672Y-66454493D01*
X105633098Y-66453755D01*
X105589178Y-66482007D01*
X105526726Y-66485852D01*
X105470347Y-66458714D01*
X105434397Y-66407502D01*
X105409889Y-66341796D01*
X105322261Y-66224738D01*
X105205203Y-66137110D01*
X105068205Y-66086011D01*
X105037919Y-66082755D01*
X105007638Y-66079500D01*
X103110362Y-66079500D01*
X103083445Y-66082393D01*
X103049794Y-66086011D01*
X102912796Y-66137110D01*
X102795738Y-66224738D01*
X102708110Y-66341796D01*
X102657011Y-66478794D01*
X102650500Y-66539366D01*
X102650500Y-68436634D01*
X100500500Y-68436634D01*
X100500500Y-64440000D01*
X112148501Y-64440000D01*
X112168456Y-64668084D01*
X112227717Y-64889246D01*
X112324474Y-65096744D01*
X112324476Y-65096746D01*
X112324477Y-65096749D01*
X112455802Y-65284300D01*
X112617700Y-65446198D01*
X112805251Y-65577523D01*
X113012757Y-65674284D01*
X113233913Y-65733543D01*
X113462000Y-65753498D01*
X113690087Y-65733543D01*
X113911243Y-65674284D01*
X114118749Y-65577523D01*
X114306300Y-65446198D01*
X114468198Y-65284300D01*
X114599523Y-65096749D01*
X114696284Y-64889243D01*
X114755543Y-64668087D01*
X114775498Y-64440000D01*
X116720501Y-64440000D01*
X116740456Y-64668084D01*
X116799717Y-64889246D01*
X116896474Y-65096744D01*
X116896476Y-65096746D01*
X116896477Y-65096749D01*
X117027802Y-65284300D01*
X117189700Y-65446198D01*
X117377251Y-65577523D01*
X117584757Y-65674284D01*
X117805913Y-65733543D01*
X118034000Y-65753498D01*
X118262087Y-65733543D01*
X118483243Y-65674284D01*
X118690749Y-65577523D01*
X118878300Y-65446198D01*
X119040198Y-65284300D01*
X119171523Y-65096749D01*
X119268284Y-64889243D01*
X119327543Y-64668087D01*
X119347498Y-64440000D01*
X121292501Y-64440000D01*
X121312456Y-64668084D01*
X121371717Y-64889246D01*
X121468474Y-65096744D01*
X121468476Y-65096746D01*
X121468477Y-65096749D01*
X121599802Y-65284300D01*
X121761700Y-65446198D01*
X121949251Y-65577523D01*
X122156757Y-65674284D01*
X122377913Y-65733543D01*
X122606000Y-65753498D01*
X122834087Y-65733543D01*
X123055243Y-65674284D01*
X123262749Y-65577523D01*
X123450300Y-65446198D01*
X123612198Y-65284300D01*
X123743523Y-65096749D01*
X123840284Y-64889243D01*
X123899543Y-64668087D01*
X123919498Y-64440000D01*
X123899543Y-64211913D01*
X123840284Y-63990757D01*
X123775581Y-63852000D01*
X123743525Y-63783255D01*
X123743524Y-63783254D01*
X123743523Y-63783251D01*
X123612198Y-63595700D01*
X123450300Y-63433802D01*
X123262749Y-63302477D01*
X123262746Y-63302476D01*
X123262744Y-63302474D01*
X123055246Y-63205717D01*
X123055243Y-63205716D01*
X122944665Y-63176086D01*
X122834084Y-63146456D01*
X122606000Y-63126501D01*
X122377915Y-63146456D01*
X122156753Y-63205717D01*
X121949255Y-63302474D01*
X121761696Y-63433805D01*
X121599805Y-63595696D01*
X121468474Y-63783255D01*
X121371717Y-63990753D01*
X121312456Y-64211915D01*
X121292501Y-64440000D01*
X119347498Y-64440000D01*
X119327543Y-64211913D01*
X119268284Y-63990757D01*
X119203581Y-63852000D01*
X119171525Y-63783255D01*
X119171524Y-63783254D01*
X119171523Y-63783251D01*
X119040198Y-63595700D01*
X118878300Y-63433802D01*
X118690749Y-63302477D01*
X118690746Y-63302476D01*
X118690744Y-63302474D01*
X118483246Y-63205717D01*
X118483243Y-63205716D01*
X118372665Y-63176086D01*
X118262084Y-63146456D01*
X118034000Y-63126501D01*
X117805915Y-63146456D01*
X117584753Y-63205717D01*
X117377255Y-63302474D01*
X117189696Y-63433805D01*
X117027805Y-63595696D01*
X116896474Y-63783255D01*
X116799717Y-63990753D01*
X116740456Y-64211915D01*
X116720501Y-64440000D01*
X114775498Y-64440000D01*
X114755543Y-64211913D01*
X114696284Y-63990757D01*
X114631581Y-63852000D01*
X114599525Y-63783255D01*
X114599524Y-63783254D01*
X114599523Y-63783251D01*
X114468198Y-63595700D01*
X114306300Y-63433802D01*
X114118749Y-63302477D01*
X114118746Y-63302476D01*
X114118744Y-63302474D01*
X113911246Y-63205717D01*
X113911243Y-63205716D01*
X113800665Y-63176086D01*
X113690084Y-63146456D01*
X113462000Y-63126501D01*
X113233915Y-63146456D01*
X113012753Y-63205717D01*
X112805255Y-63302474D01*
X112617696Y-63433805D01*
X112455805Y-63595696D01*
X112324474Y-63783255D01*
X112227717Y-63990753D01*
X112168456Y-64211915D01*
X112148501Y-64440000D01*
X100500500Y-64440000D01*
X100500500Y-62915999D01*
X154712496Y-62915999D01*
X154732458Y-63105929D01*
X154791472Y-63287556D01*
X154886957Y-63452941D01*
X154886960Y-63452944D01*
X155014747Y-63594866D01*
X155169248Y-63707118D01*
X155343714Y-63784795D01*
X155530511Y-63824500D01*
X155530513Y-63824500D01*
X155721487Y-63824500D01*
X155721489Y-63824500D01*
X155908285Y-63784795D01*
X155908286Y-63784794D01*
X155908288Y-63784794D01*
X156082752Y-63707118D01*
X156237253Y-63594866D01*
X156365040Y-63452944D01*
X156460527Y-63287556D01*
X156519542Y-63105928D01*
X156539504Y-62916000D01*
X156519542Y-62726072D01*
X156460527Y-62544444D01*
X156460527Y-62544443D01*
X156365042Y-62379058D01*
X156345442Y-62357291D01*
X156237253Y-62237134D01*
X156082752Y-62124882D01*
X156082751Y-62124881D01*
X155908285Y-62047204D01*
X155721489Y-62007500D01*
X155721487Y-62007500D01*
X155530513Y-62007500D01*
X155530511Y-62007500D01*
X155343714Y-62047204D01*
X155169248Y-62124881D01*
X155014748Y-62237133D01*
X154886957Y-62379058D01*
X154791472Y-62544443D01*
X154732458Y-62726070D01*
X154712496Y-62915999D01*
X100500500Y-62915999D01*
X100500500Y-60308634D01*
X102650500Y-60308634D01*
X102657011Y-60369205D01*
X102708110Y-60506203D01*
X102795738Y-60623261D01*
X102912796Y-60710889D01*
X103049794Y-60761988D01*
X103049797Y-60761988D01*
X103049799Y-60761989D01*
X103110362Y-60768500D01*
X105007634Y-60768500D01*
X105007638Y-60768500D01*
X105068201Y-60761989D01*
X105068203Y-60761988D01*
X105068205Y-60761988D01*
X105153751Y-60730080D01*
X105205204Y-60710889D01*
X105322261Y-60623261D01*
X105409889Y-60506204D01*
X105434397Y-60440494D01*
X105470348Y-60389284D01*
X105526730Y-60362146D01*
X105589184Y-60365994D01*
X105633097Y-60394244D01*
X105633672Y-60393507D01*
X105641779Y-60399817D01*
X105641780Y-60399818D01*
X105825983Y-60543190D01*
X106031273Y-60654287D01*
X106086466Y-60673235D01*
X106252046Y-60730080D01*
X106482288Y-60768500D01*
X106715712Y-60768500D01*
X106945953Y-60730080D01*
X107056339Y-60692183D01*
X107166727Y-60654287D01*
X107372017Y-60543190D01*
X107556220Y-60399818D01*
X107714314Y-60228083D01*
X107841984Y-60032669D01*
X107914215Y-59868000D01*
X156652835Y-59868000D01*
X156671465Y-60104712D01*
X156726894Y-60335593D01*
X156737893Y-60362146D01*
X156817760Y-60554963D01*
X156941824Y-60757416D01*
X157096031Y-60937969D01*
X157276584Y-61092176D01*
X157479037Y-61216240D01*
X157698406Y-61307105D01*
X157929289Y-61362535D01*
X158166000Y-61381165D01*
X158402711Y-61362535D01*
X158633594Y-61307105D01*
X158852963Y-61216240D01*
X159055416Y-61092176D01*
X159235969Y-60937969D01*
X159390176Y-60757416D01*
X159514240Y-60554963D01*
X159605105Y-60335594D01*
X159660535Y-60104711D01*
X159679165Y-59868000D01*
X161152835Y-59868000D01*
X161171465Y-60104712D01*
X161226894Y-60335593D01*
X161237893Y-60362146D01*
X161317760Y-60554963D01*
X161441824Y-60757416D01*
X161596031Y-60937969D01*
X161776584Y-61092176D01*
X161979037Y-61216240D01*
X162198406Y-61307105D01*
X162429289Y-61362535D01*
X162666000Y-61381165D01*
X162902711Y-61362535D01*
X163133594Y-61307105D01*
X163352963Y-61216240D01*
X163555416Y-61092176D01*
X163735969Y-60937969D01*
X163890176Y-60757416D01*
X164014240Y-60554963D01*
X164105105Y-60335594D01*
X164160535Y-60104711D01*
X164179165Y-59868000D01*
X164160535Y-59631289D01*
X164105105Y-59400406D01*
X164014240Y-59181037D01*
X163890176Y-58978584D01*
X163735969Y-58798031D01*
X163555416Y-58643824D01*
X163352963Y-58519760D01*
X163243278Y-58474327D01*
X163133593Y-58428894D01*
X162902712Y-58373465D01*
X162666000Y-58354835D01*
X162429287Y-58373465D01*
X162198406Y-58428894D01*
X161979035Y-58519761D01*
X161776585Y-58643823D01*
X161596031Y-58798031D01*
X161441823Y-58978585D01*
X161317761Y-59181035D01*
X161226894Y-59400406D01*
X161171465Y-59631287D01*
X161152835Y-59868000D01*
X159679165Y-59868000D01*
X159660535Y-59631289D01*
X159605105Y-59400406D01*
X159514240Y-59181037D01*
X159390176Y-58978584D01*
X159235969Y-58798031D01*
X159055416Y-58643824D01*
X158852963Y-58519760D01*
X158743278Y-58474327D01*
X158633593Y-58428894D01*
X158402712Y-58373465D01*
X158166000Y-58354835D01*
X157929287Y-58373465D01*
X157698406Y-58428894D01*
X157479035Y-58519761D01*
X157276585Y-58643823D01*
X157096031Y-58798031D01*
X156941823Y-58978585D01*
X156817761Y-59181035D01*
X156726894Y-59400406D01*
X156671465Y-59631287D01*
X156652835Y-59868000D01*
X107914215Y-59868000D01*
X107935749Y-59818907D01*
X107993051Y-59592626D01*
X108012327Y-59360000D01*
X107993051Y-59127374D01*
X107935749Y-58901093D01*
X107841984Y-58687331D01*
X107778149Y-58589624D01*
X107714315Y-58491918D01*
X107556219Y-58320181D01*
X107419536Y-58213796D01*
X107372017Y-58176810D01*
X107166727Y-58065713D01*
X107166726Y-58065712D01*
X107166725Y-58065712D01*
X106945953Y-57989919D01*
X106715712Y-57951500D01*
X106482288Y-57951500D01*
X106252046Y-57989919D01*
X106031274Y-58065712D01*
X105825982Y-58176810D01*
X105825983Y-58176810D01*
X105641782Y-58320181D01*
X105633672Y-58326493D01*
X105633098Y-58325755D01*
X105589178Y-58354007D01*
X105526726Y-58357852D01*
X105470347Y-58330714D01*
X105434397Y-58279502D01*
X105409889Y-58213796D01*
X105322261Y-58096738D01*
X105205203Y-58009110D01*
X105068205Y-57958011D01*
X105037919Y-57954755D01*
X105007638Y-57951500D01*
X103110362Y-57951500D01*
X103083445Y-57954393D01*
X103049794Y-57958011D01*
X102912796Y-58009110D01*
X102795738Y-58096738D01*
X102708110Y-58213796D01*
X102657011Y-58350794D01*
X102650500Y-58411366D01*
X102650500Y-60308634D01*
X100500500Y-60308634D01*
X100500500Y-57835999D01*
X111640501Y-57835999D01*
X111660456Y-58064084D01*
X111719717Y-58285246D01*
X111816474Y-58492744D01*
X111816476Y-58492746D01*
X111816477Y-58492749D01*
X111947802Y-58680300D01*
X112109700Y-58842198D01*
X112297251Y-58973523D01*
X112297254Y-58973524D01*
X112297255Y-58973525D01*
X112401004Y-59021903D01*
X112504757Y-59070284D01*
X112725913Y-59129543D01*
X112954000Y-59149498D01*
X113182087Y-59129543D01*
X113403243Y-59070284D01*
X113610749Y-58973523D01*
X113798300Y-58842198D01*
X113960198Y-58680300D01*
X114091523Y-58492749D01*
X114188284Y-58285243D01*
X114247543Y-58064087D01*
X114267498Y-57836000D01*
X114267498Y-57835999D01*
X121800501Y-57835999D01*
X121820456Y-58064084D01*
X121879717Y-58285246D01*
X121976474Y-58492744D01*
X121976476Y-58492746D01*
X121976477Y-58492749D01*
X122107802Y-58680300D01*
X122269700Y-58842198D01*
X122457251Y-58973523D01*
X122457254Y-58973524D01*
X122457255Y-58973525D01*
X122561004Y-59021903D01*
X122664757Y-59070284D01*
X122885913Y-59129543D01*
X123114000Y-59149498D01*
X123342087Y-59129543D01*
X123563243Y-59070284D01*
X123770749Y-58973523D01*
X123958300Y-58842198D01*
X124120198Y-58680300D01*
X124251523Y-58492749D01*
X124348284Y-58285243D01*
X124407543Y-58064087D01*
X124427498Y-57836000D01*
X124407543Y-57607913D01*
X124348284Y-57386757D01*
X124251523Y-57179251D01*
X124120198Y-56991700D01*
X123958300Y-56829802D01*
X123770749Y-56698477D01*
X123770746Y-56698476D01*
X123770744Y-56698474D01*
X123563246Y-56601717D01*
X123563243Y-56601716D01*
X123452664Y-56572086D01*
X123342084Y-56542456D01*
X123114000Y-56522501D01*
X122885915Y-56542456D01*
X122664753Y-56601717D01*
X122457255Y-56698474D01*
X122269696Y-56829805D01*
X122107805Y-56991696D01*
X121976474Y-57179255D01*
X121879717Y-57386753D01*
X121820456Y-57607915D01*
X121800501Y-57835999D01*
X114267498Y-57835999D01*
X114247543Y-57607913D01*
X114188284Y-57386757D01*
X114091523Y-57179251D01*
X113960198Y-56991700D01*
X113798300Y-56829802D01*
X113610749Y-56698477D01*
X113610746Y-56698476D01*
X113610744Y-56698474D01*
X113403246Y-56601717D01*
X113403243Y-56601716D01*
X113292664Y-56572086D01*
X113182084Y-56542456D01*
X112954000Y-56522501D01*
X112725915Y-56542456D01*
X112504753Y-56601717D01*
X112297255Y-56698474D01*
X112109696Y-56829805D01*
X111947805Y-56991696D01*
X111816474Y-57179255D01*
X111719717Y-57386753D01*
X111660456Y-57607915D01*
X111640501Y-57835999D01*
X100500500Y-57835999D01*
X100500500Y-54026000D01*
X111640501Y-54026000D01*
X111660456Y-54254084D01*
X111660457Y-54254087D01*
X111709728Y-54437969D01*
X111719717Y-54475246D01*
X111816474Y-54682744D01*
X111816476Y-54682746D01*
X111816477Y-54682749D01*
X111947802Y-54870300D01*
X112109700Y-55032198D01*
X112297251Y-55163523D01*
X112504757Y-55260284D01*
X112725913Y-55319543D01*
X112954000Y-55339498D01*
X113182087Y-55319543D01*
X113403243Y-55260284D01*
X113610749Y-55163523D01*
X113798300Y-55032198D01*
X113960198Y-54870300D01*
X114091523Y-54682749D01*
X114188284Y-54475243D01*
X114247543Y-54254087D01*
X114267498Y-54026000D01*
X121800501Y-54026000D01*
X121820456Y-54254084D01*
X121820457Y-54254087D01*
X121869728Y-54437969D01*
X121879717Y-54475246D01*
X121976474Y-54682744D01*
X121976476Y-54682746D01*
X121976477Y-54682749D01*
X122107802Y-54870300D01*
X122269700Y-55032198D01*
X122457251Y-55163523D01*
X122664757Y-55260284D01*
X122885913Y-55319543D01*
X123114000Y-55339498D01*
X123342087Y-55319543D01*
X123563243Y-55260284D01*
X123770749Y-55163523D01*
X123944303Y-55041999D01*
X137948496Y-55041999D01*
X137968458Y-55231929D01*
X138027472Y-55413556D01*
X138122957Y-55578941D01*
X138122960Y-55578944D01*
X138250747Y-55720866D01*
X138405248Y-55833118D01*
X138579714Y-55910795D01*
X138766511Y-55950500D01*
X138766513Y-55950500D01*
X138957487Y-55950500D01*
X138957489Y-55950500D01*
X139144285Y-55910795D01*
X139144286Y-55910794D01*
X139144288Y-55910794D01*
X139318752Y-55833118D01*
X139473253Y-55720866D01*
X139601040Y-55578944D01*
X139696527Y-55413556D01*
X139755542Y-55231928D01*
X139775504Y-55042000D01*
X139755542Y-54852072D01*
X139711407Y-54716240D01*
X139696527Y-54670443D01*
X139601042Y-54505058D01*
X139574196Y-54475243D01*
X139473253Y-54363134D01*
X139376901Y-54293129D01*
X139318751Y-54250881D01*
X139144285Y-54173204D01*
X138957489Y-54133500D01*
X138957487Y-54133500D01*
X138766513Y-54133500D01*
X138766511Y-54133500D01*
X138579714Y-54173204D01*
X138405248Y-54250881D01*
X138250748Y-54363133D01*
X138122957Y-54505058D01*
X138027472Y-54670443D01*
X137968458Y-54852070D01*
X137948496Y-55041999D01*
X123944303Y-55041999D01*
X123958300Y-55032198D01*
X124120198Y-54870300D01*
X124251523Y-54682749D01*
X124348284Y-54475243D01*
X124407543Y-54254087D01*
X124427498Y-54026000D01*
X124407543Y-53797913D01*
X124348284Y-53576757D01*
X124251523Y-53369251D01*
X124177825Y-53263999D01*
X152680496Y-53263999D01*
X152700458Y-53453929D01*
X152759472Y-53635556D01*
X152854957Y-53800941D01*
X152854960Y-53800944D01*
X152982747Y-53942866D01*
X153097171Y-54026000D01*
X153137248Y-54055118D01*
X153311714Y-54132795D01*
X153498511Y-54172500D01*
X153498513Y-54172500D01*
X153689487Y-54172500D01*
X153689489Y-54172500D01*
X153876285Y-54132795D01*
X153876286Y-54132794D01*
X153876288Y-54132794D01*
X154050752Y-54055118D01*
X154205253Y-53942866D01*
X154333040Y-53800944D01*
X154428527Y-53635556D01*
X154487542Y-53453928D01*
X154496573Y-53368000D01*
X156652835Y-53368000D01*
X156652934Y-53369255D01*
X156671465Y-53604712D01*
X156726894Y-53835593D01*
X156771328Y-53942866D01*
X156817760Y-54054963D01*
X156941824Y-54257416D01*
X157096031Y-54437969D01*
X157276584Y-54592176D01*
X157479037Y-54716240D01*
X157698406Y-54807105D01*
X157929289Y-54862535D01*
X158166000Y-54881165D01*
X158402711Y-54862535D01*
X158633594Y-54807105D01*
X158852963Y-54716240D01*
X159055416Y-54592176D01*
X159235969Y-54437969D01*
X159390176Y-54257416D01*
X159514240Y-54054963D01*
X159605105Y-53835594D01*
X159660535Y-53604711D01*
X159679165Y-53368000D01*
X161152835Y-53368000D01*
X161152934Y-53369255D01*
X161171465Y-53604712D01*
X161226894Y-53835593D01*
X161271328Y-53942866D01*
X161317760Y-54054963D01*
X161441824Y-54257416D01*
X161596031Y-54437969D01*
X161776584Y-54592176D01*
X161979037Y-54716240D01*
X162198406Y-54807105D01*
X162429289Y-54862535D01*
X162666000Y-54881165D01*
X162902711Y-54862535D01*
X163133594Y-54807105D01*
X163352963Y-54716240D01*
X163555416Y-54592176D01*
X163735969Y-54437969D01*
X163890176Y-54257416D01*
X164014240Y-54054963D01*
X164105105Y-53835594D01*
X164160535Y-53604711D01*
X164179165Y-53368000D01*
X164160535Y-53131289D01*
X164105105Y-52900406D01*
X164014240Y-52681037D01*
X163890176Y-52478584D01*
X163735969Y-52298031D01*
X163555416Y-52143824D01*
X163352963Y-52019760D01*
X163243278Y-51974327D01*
X163133593Y-51928894D01*
X162902712Y-51873465D01*
X162666000Y-51854835D01*
X162429287Y-51873465D01*
X162198406Y-51928894D01*
X162057632Y-51987205D01*
X161983726Y-52017818D01*
X161979035Y-52019761D01*
X161776585Y-52143823D01*
X161596031Y-52298031D01*
X161441823Y-52478585D01*
X161317761Y-52681035D01*
X161226894Y-52900406D01*
X161171465Y-53131287D01*
X161171465Y-53131289D01*
X161152835Y-53368000D01*
X159679165Y-53368000D01*
X159660535Y-53131289D01*
X159605105Y-52900406D01*
X159514240Y-52681037D01*
X159390176Y-52478584D01*
X159235969Y-52298031D01*
X159055416Y-52143824D01*
X158852963Y-52019760D01*
X158743278Y-51974327D01*
X158633593Y-51928894D01*
X158402712Y-51873465D01*
X158166000Y-51854835D01*
X157929287Y-51873465D01*
X157698406Y-51928894D01*
X157557632Y-51987205D01*
X157483726Y-52017818D01*
X157479035Y-52019761D01*
X157276585Y-52143823D01*
X157096031Y-52298031D01*
X156941823Y-52478585D01*
X156817761Y-52681035D01*
X156726894Y-52900406D01*
X156671465Y-53131287D01*
X156671465Y-53131289D01*
X156652835Y-53368000D01*
X154496573Y-53368000D01*
X154507504Y-53264000D01*
X154487542Y-53074072D01*
X154428527Y-52892444D01*
X154428527Y-52892443D01*
X154333042Y-52727058D01*
X154291604Y-52681037D01*
X154205253Y-52585134D01*
X154108901Y-52515130D01*
X154050751Y-52472881D01*
X153876285Y-52395204D01*
X153689489Y-52355500D01*
X153689487Y-52355500D01*
X153498513Y-52355500D01*
X153498511Y-52355500D01*
X153311714Y-52395204D01*
X153137248Y-52472881D01*
X152982748Y-52585133D01*
X152854957Y-52727058D01*
X152759472Y-52892443D01*
X152700458Y-53074070D01*
X152680496Y-53263999D01*
X124177825Y-53263999D01*
X124120198Y-53181700D01*
X123958300Y-53019802D01*
X123770749Y-52888477D01*
X123770746Y-52888476D01*
X123770744Y-52888474D01*
X123563246Y-52791717D01*
X123563243Y-52791716D01*
X123452665Y-52762086D01*
X123342084Y-52732456D01*
X123114000Y-52712501D01*
X122885915Y-52732456D01*
X122664753Y-52791717D01*
X122457255Y-52888474D01*
X122269696Y-53019805D01*
X122107805Y-53181696D01*
X121976474Y-53369255D01*
X121879717Y-53576753D01*
X121820456Y-53797915D01*
X121800501Y-54026000D01*
X114267498Y-54026000D01*
X114247543Y-53797913D01*
X114188284Y-53576757D01*
X114091523Y-53369251D01*
X113960198Y-53181700D01*
X113798300Y-53019802D01*
X113610749Y-52888477D01*
X113610746Y-52888476D01*
X113610744Y-52888474D01*
X113403246Y-52791717D01*
X113403243Y-52791716D01*
X113292665Y-52762086D01*
X113182084Y-52732456D01*
X112954000Y-52712501D01*
X112725915Y-52732456D01*
X112504753Y-52791717D01*
X112297255Y-52888474D01*
X112109696Y-53019805D01*
X111947805Y-53181696D01*
X111816474Y-53369255D01*
X111719717Y-53576753D01*
X111660456Y-53797915D01*
X111640501Y-54026000D01*
X100500500Y-54026000D01*
X100500500Y-51926634D01*
X102655500Y-51926634D01*
X102662011Y-51987205D01*
X102713110Y-52124203D01*
X102800738Y-52241261D01*
X102917796Y-52328889D01*
X103054794Y-52379988D01*
X103054797Y-52379988D01*
X103054799Y-52379989D01*
X103115362Y-52386500D01*
X105012634Y-52386500D01*
X105012638Y-52386500D01*
X105073201Y-52379989D01*
X105073203Y-52379988D01*
X105073205Y-52379988D01*
X105158751Y-52348080D01*
X105210204Y-52328889D01*
X105327261Y-52241261D01*
X105414889Y-52124204D01*
X105439397Y-52058494D01*
X105475348Y-52007284D01*
X105531730Y-51980146D01*
X105594184Y-51983994D01*
X105638097Y-52012244D01*
X105638672Y-52011507D01*
X105646779Y-52017817D01*
X105646780Y-52017818D01*
X105830983Y-52161190D01*
X106036273Y-52272287D01*
X106091466Y-52291235D01*
X106257046Y-52348080D01*
X106487288Y-52386500D01*
X106720712Y-52386500D01*
X106950953Y-52348080D01*
X107061339Y-52310183D01*
X107171727Y-52272287D01*
X107377017Y-52161190D01*
X107561220Y-52017818D01*
X107719314Y-51846083D01*
X107846984Y-51650669D01*
X107940749Y-51436907D01*
X107998051Y-51210626D01*
X108017327Y-50978000D01*
X107998051Y-50745374D01*
X107940749Y-50519093D01*
X107846984Y-50305331D01*
X107761763Y-50174890D01*
X107719315Y-50109918D01*
X107561219Y-49938181D01*
X107480509Y-49875362D01*
X107377017Y-49794810D01*
X107171727Y-49683713D01*
X107171726Y-49683712D01*
X107171725Y-49683712D01*
X106950953Y-49607919D01*
X106720712Y-49569500D01*
X106487288Y-49569500D01*
X106257046Y-49607919D01*
X106036274Y-49683712D01*
X105937910Y-49736944D01*
X105830983Y-49794810D01*
X105646782Y-49938181D01*
X105638672Y-49944493D01*
X105638098Y-49943755D01*
X105594178Y-49972007D01*
X105531726Y-49975852D01*
X105475347Y-49948714D01*
X105439397Y-49897502D01*
X105414889Y-49831796D01*
X105327261Y-49714738D01*
X105210203Y-49627110D01*
X105073205Y-49576011D01*
X105042919Y-49572755D01*
X105012638Y-49569500D01*
X103115362Y-49569500D01*
X103088445Y-49572393D01*
X103054794Y-49576011D01*
X102917796Y-49627110D01*
X102800738Y-49714738D01*
X102713110Y-49831796D01*
X102662011Y-49968794D01*
X102655500Y-50029366D01*
X102655500Y-51926634D01*
X100500500Y-51926634D01*
X100500500Y-49200000D01*
X111278496Y-49200000D01*
X111298458Y-49389929D01*
X111357472Y-49571556D01*
X111452957Y-49736941D01*
X111452960Y-49736944D01*
X111580747Y-49878866D01*
X111704522Y-49968794D01*
X111735248Y-49991118D01*
X111909714Y-50068795D01*
X112096511Y-50108500D01*
X112096513Y-50108500D01*
X112287487Y-50108500D01*
X112287489Y-50108500D01*
X112333886Y-50098638D01*
X117437500Y-50098638D01*
X117438713Y-50109917D01*
X117444011Y-50159205D01*
X117495110Y-50296203D01*
X117582738Y-50413261D01*
X117699796Y-50500889D01*
X117836794Y-50551988D01*
X117836797Y-50551988D01*
X117836799Y-50551989D01*
X117897362Y-50558500D01*
X119694634Y-50558500D01*
X119694638Y-50558500D01*
X119755201Y-50551989D01*
X119755203Y-50551988D01*
X119755205Y-50551988D01*
X119843403Y-50519091D01*
X119892204Y-50500889D01*
X120009261Y-50413261D01*
X120096889Y-50296204D01*
X120142137Y-50174889D01*
X120178089Y-50123677D01*
X120234471Y-50096539D01*
X120296925Y-50100387D01*
X120349548Y-50134241D01*
X120386969Y-50174890D01*
X120412760Y-50202906D01*
X120590424Y-50341189D01*
X120788426Y-50448342D01*
X121001365Y-50521444D01*
X121223431Y-50558500D01*
X121448569Y-50558500D01*
X121670635Y-50521444D01*
X121883574Y-50448342D01*
X122081576Y-50341189D01*
X122259240Y-50202906D01*
X122411722Y-50037268D01*
X122502190Y-49898795D01*
X122546982Y-49857561D01*
X122606000Y-49842616D01*
X122665018Y-49857561D01*
X122709809Y-49898795D01*
X122795112Y-50029362D01*
X122800278Y-50037268D01*
X122952760Y-50202906D01*
X123130424Y-50341189D01*
X123328426Y-50448342D01*
X123541365Y-50521444D01*
X123763431Y-50558500D01*
X123988569Y-50558500D01*
X124210635Y-50521444D01*
X124423574Y-50448342D01*
X124621576Y-50341189D01*
X124799240Y-50202906D01*
X124951722Y-50037268D01*
X125042190Y-49898795D01*
X125086982Y-49857561D01*
X125146000Y-49842616D01*
X125205018Y-49857561D01*
X125249809Y-49898795D01*
X125335112Y-50029362D01*
X125340278Y-50037268D01*
X125492760Y-50202906D01*
X125670424Y-50341189D01*
X125868426Y-50448342D01*
X126081365Y-50521444D01*
X126303431Y-50558500D01*
X126528569Y-50558500D01*
X126750635Y-50521444D01*
X126963574Y-50448342D01*
X127161576Y-50341189D01*
X127339240Y-50202906D01*
X127491722Y-50037268D01*
X127582190Y-49898795D01*
X127626982Y-49857561D01*
X127686000Y-49842616D01*
X127745018Y-49857561D01*
X127789809Y-49898795D01*
X127875112Y-50029362D01*
X127880278Y-50037268D01*
X128032760Y-50202906D01*
X128210424Y-50341189D01*
X128408426Y-50448342D01*
X128621365Y-50521444D01*
X128843431Y-50558500D01*
X129068569Y-50558500D01*
X129290635Y-50521444D01*
X129503574Y-50448342D01*
X129701576Y-50341189D01*
X129879240Y-50202906D01*
X130031722Y-50037268D01*
X130122190Y-49898795D01*
X130166982Y-49857561D01*
X130226000Y-49842616D01*
X130285018Y-49857561D01*
X130329809Y-49898795D01*
X130415112Y-50029362D01*
X130420278Y-50037268D01*
X130572760Y-50202906D01*
X130750424Y-50341189D01*
X130948426Y-50448342D01*
X131161365Y-50521444D01*
X131383431Y-50558500D01*
X131608569Y-50558500D01*
X131830635Y-50521444D01*
X132043574Y-50448342D01*
X132241576Y-50341189D01*
X132419240Y-50202906D01*
X132571722Y-50037268D01*
X132662190Y-49898795D01*
X132706982Y-49857561D01*
X132766000Y-49842616D01*
X132825018Y-49857561D01*
X132869809Y-49898795D01*
X132955112Y-50029362D01*
X132960278Y-50037268D01*
X133112760Y-50202906D01*
X133290424Y-50341189D01*
X133488426Y-50448342D01*
X133701365Y-50521444D01*
X133923431Y-50558500D01*
X134148569Y-50558500D01*
X134370635Y-50521444D01*
X134583574Y-50448342D01*
X134781576Y-50341189D01*
X134959240Y-50202906D01*
X135111722Y-50037268D01*
X135202190Y-49898795D01*
X135246982Y-49857561D01*
X135306000Y-49842616D01*
X135365018Y-49857561D01*
X135409809Y-49898795D01*
X135495112Y-50029362D01*
X135500278Y-50037268D01*
X135652760Y-50202906D01*
X135830424Y-50341189D01*
X136028426Y-50448342D01*
X136241365Y-50521444D01*
X136463431Y-50558500D01*
X136688569Y-50558500D01*
X136910635Y-50521444D01*
X137123574Y-50448342D01*
X137321576Y-50341189D01*
X137499240Y-50202906D01*
X137651722Y-50037268D01*
X137742190Y-49898795D01*
X137786982Y-49857561D01*
X137846000Y-49842616D01*
X137905018Y-49857561D01*
X137949809Y-49898795D01*
X138035112Y-50029362D01*
X138040278Y-50037268D01*
X138192760Y-50202906D01*
X138370424Y-50341189D01*
X138568426Y-50448342D01*
X138781365Y-50521444D01*
X139003431Y-50558500D01*
X139228569Y-50558500D01*
X139450635Y-50521444D01*
X139663574Y-50448342D01*
X139861576Y-50341189D01*
X140039240Y-50202906D01*
X140191722Y-50037268D01*
X140282190Y-49898795D01*
X140326982Y-49857561D01*
X140386000Y-49842616D01*
X140445018Y-49857561D01*
X140489809Y-49898795D01*
X140575112Y-50029362D01*
X140580278Y-50037268D01*
X140732760Y-50202906D01*
X140910424Y-50341189D01*
X141108426Y-50448342D01*
X141321365Y-50521444D01*
X141543431Y-50558500D01*
X141768569Y-50558500D01*
X141990635Y-50521444D01*
X142203574Y-50448342D01*
X142401576Y-50341189D01*
X142579240Y-50202906D01*
X142731722Y-50037268D01*
X142854860Y-49848791D01*
X142945296Y-49642616D01*
X143000564Y-49424368D01*
X143019156Y-49200000D01*
X143000564Y-48975632D01*
X142945296Y-48757384D01*
X142854860Y-48551209D01*
X142731722Y-48362732D01*
X142579240Y-48197094D01*
X142401576Y-48058811D01*
X142203574Y-47951658D01*
X142203573Y-47951657D01*
X142203572Y-47951657D01*
X141990636Y-47878556D01*
X141768569Y-47841500D01*
X141543431Y-47841500D01*
X141321363Y-47878556D01*
X141108427Y-47951657D01*
X140910424Y-48058811D01*
X140732760Y-48197094D01*
X140580279Y-48362730D01*
X140489809Y-48501205D01*
X140445017Y-48542438D01*
X140386000Y-48557383D01*
X140326983Y-48542438D01*
X140282191Y-48501205D01*
X140221873Y-48408882D01*
X140191722Y-48362732D01*
X140039240Y-48197094D01*
X139861576Y-48058811D01*
X139663574Y-47951658D01*
X139663573Y-47951657D01*
X139663572Y-47951657D01*
X139450636Y-47878556D01*
X139228569Y-47841500D01*
X139003431Y-47841500D01*
X138781363Y-47878556D01*
X138568427Y-47951657D01*
X138370424Y-48058811D01*
X138192760Y-48197094D01*
X138040279Y-48362730D01*
X137949809Y-48501205D01*
X137905017Y-48542438D01*
X137846000Y-48557383D01*
X137786983Y-48542438D01*
X137742191Y-48501205D01*
X137681873Y-48408882D01*
X137651722Y-48362732D01*
X137499240Y-48197094D01*
X137321576Y-48058811D01*
X137123574Y-47951658D01*
X137123573Y-47951657D01*
X137123572Y-47951657D01*
X136910636Y-47878556D01*
X136688569Y-47841500D01*
X136463431Y-47841500D01*
X136241363Y-47878556D01*
X136028427Y-47951657D01*
X135830424Y-48058811D01*
X135652760Y-48197094D01*
X135500279Y-48362730D01*
X135409809Y-48501205D01*
X135365017Y-48542438D01*
X135306000Y-48557383D01*
X135246983Y-48542438D01*
X135202191Y-48501205D01*
X135141873Y-48408882D01*
X135111722Y-48362732D01*
X134959240Y-48197094D01*
X134781576Y-48058811D01*
X134583574Y-47951658D01*
X134583573Y-47951657D01*
X134583572Y-47951657D01*
X134370636Y-47878556D01*
X134148569Y-47841500D01*
X133923431Y-47841500D01*
X133701363Y-47878556D01*
X133488427Y-47951657D01*
X133290424Y-48058811D01*
X133112760Y-48197094D01*
X132960279Y-48362730D01*
X132869809Y-48501205D01*
X132825017Y-48542438D01*
X132766000Y-48557383D01*
X132706983Y-48542438D01*
X132662191Y-48501205D01*
X132601873Y-48408882D01*
X132571722Y-48362732D01*
X132419240Y-48197094D01*
X132241576Y-48058811D01*
X132043574Y-47951658D01*
X132043573Y-47951657D01*
X132043572Y-47951657D01*
X131830636Y-47878556D01*
X131608569Y-47841500D01*
X131383431Y-47841500D01*
X131161363Y-47878556D01*
X130948427Y-47951657D01*
X130750424Y-48058811D01*
X130572760Y-48197094D01*
X130420279Y-48362730D01*
X130329809Y-48501205D01*
X130285017Y-48542438D01*
X130226000Y-48557383D01*
X130166983Y-48542438D01*
X130122191Y-48501205D01*
X130061873Y-48408882D01*
X130031722Y-48362732D01*
X129879240Y-48197094D01*
X129701576Y-48058811D01*
X129503574Y-47951658D01*
X129503573Y-47951657D01*
X129503572Y-47951657D01*
X129290636Y-47878556D01*
X129068569Y-47841500D01*
X128843431Y-47841500D01*
X128621363Y-47878556D01*
X128408427Y-47951657D01*
X128210424Y-48058811D01*
X128032760Y-48197094D01*
X127880279Y-48362730D01*
X127789809Y-48501205D01*
X127745017Y-48542438D01*
X127686000Y-48557383D01*
X127626983Y-48542438D01*
X127582191Y-48501205D01*
X127521873Y-48408882D01*
X127491722Y-48362732D01*
X127339240Y-48197094D01*
X127161576Y-48058811D01*
X126963574Y-47951658D01*
X126963573Y-47951657D01*
X126963572Y-47951657D01*
X126750636Y-47878556D01*
X126528569Y-47841500D01*
X126303431Y-47841500D01*
X126081363Y-47878556D01*
X125868427Y-47951657D01*
X125670424Y-48058811D01*
X125492760Y-48197094D01*
X125340279Y-48362730D01*
X125249809Y-48501205D01*
X125205017Y-48542438D01*
X125146000Y-48557383D01*
X125086983Y-48542438D01*
X125042191Y-48501205D01*
X124981873Y-48408882D01*
X124951722Y-48362732D01*
X124799240Y-48197094D01*
X124621576Y-48058811D01*
X124423574Y-47951658D01*
X124423573Y-47951657D01*
X124423572Y-47951657D01*
X124210636Y-47878556D01*
X123988569Y-47841500D01*
X123763431Y-47841500D01*
X123541363Y-47878556D01*
X123328427Y-47951657D01*
X123130424Y-48058811D01*
X122952760Y-48197094D01*
X122800279Y-48362730D01*
X122709809Y-48501205D01*
X122665017Y-48542438D01*
X122606000Y-48557383D01*
X122546983Y-48542438D01*
X122502191Y-48501205D01*
X122441873Y-48408882D01*
X122411722Y-48362732D01*
X122259240Y-48197094D01*
X122081576Y-48058811D01*
X121883574Y-47951658D01*
X121883573Y-47951657D01*
X121883572Y-47951657D01*
X121670636Y-47878556D01*
X121448569Y-47841500D01*
X121223431Y-47841500D01*
X121001363Y-47878556D01*
X120788427Y-47951657D01*
X120590424Y-48058811D01*
X120412759Y-48197094D01*
X120349548Y-48265759D01*
X120296924Y-48299612D01*
X120234470Y-48303460D01*
X120178089Y-48276322D01*
X120142138Y-48225110D01*
X120117427Y-48158861D01*
X120096889Y-48103796D01*
X120015024Y-47994437D01*
X120009261Y-47986738D01*
X119892203Y-47899110D01*
X119755205Y-47848011D01*
X119724906Y-47844754D01*
X119694638Y-47841500D01*
X117897362Y-47841500D01*
X117870445Y-47844393D01*
X117836794Y-47848011D01*
X117699796Y-47899110D01*
X117582738Y-47986738D01*
X117495110Y-48103796D01*
X117444011Y-48240794D01*
X117440393Y-48274445D01*
X117437500Y-48301362D01*
X117437500Y-50098638D01*
X112333886Y-50098638D01*
X112474285Y-50068795D01*
X112474286Y-50068794D01*
X112474288Y-50068794D01*
X112648752Y-49991118D01*
X112803253Y-49878866D01*
X112931040Y-49736944D01*
X112985501Y-49642616D01*
X113026527Y-49571556D01*
X113063204Y-49458676D01*
X113085542Y-49389928D01*
X113105504Y-49200000D01*
X113085542Y-49010072D01*
X113026527Y-48828444D01*
X113026527Y-48828443D01*
X112931042Y-48663058D01*
X112911442Y-48641291D01*
X112803253Y-48521134D01*
X112648752Y-48408882D01*
X112648751Y-48408881D01*
X112474285Y-48331204D01*
X112287489Y-48291500D01*
X112287487Y-48291500D01*
X112096513Y-48291500D01*
X112096511Y-48291500D01*
X111909714Y-48331204D01*
X111735248Y-48408881D01*
X111580748Y-48521133D01*
X111452957Y-48663058D01*
X111357472Y-48828443D01*
X111298458Y-49010070D01*
X111278496Y-49200000D01*
X100500500Y-49200000D01*
X100500500Y-47431757D01*
X100502025Y-47412370D01*
X100510228Y-47360580D01*
X100522211Y-47323700D01*
X100541529Y-47285785D01*
X100564326Y-47254409D01*
X100594409Y-47224326D01*
X100625785Y-47201529D01*
X100663700Y-47182211D01*
X100700580Y-47170228D01*
X100752370Y-47162025D01*
X100771757Y-47160500D01*
X100827892Y-47160500D01*
X163241324Y-47160500D01*
X163288777Y-47169939D01*
G37*
%TD.AperFunction*%
M02*
