%TF.GenerationSoftware,KiCad,Pcbnew,7.0.1*%
%TF.CreationDate,2023-05-13T15:10:29+02:00*%
%TF.ProjectId,Lab1_SDHD,4c616231-5f53-4444-9844-2e6b69636164,v 1.4*%
%TF.SameCoordinates,Original*%
%TF.FileFunction,Soldermask,Bot*%
%TF.FilePolarity,Negative*%
%FSLAX46Y46*%
G04 Gerber Fmt 4.6, Leading zero omitted, Abs format (unit mm)*
G04 Created by KiCad (PCBNEW 7.0.1) date 2023-05-13 15:10:29*
%MOMM*%
%LPD*%
G01*
G04 APERTURE LIST*
%ADD10R,1.700000X1.700000*%
%ADD11R,1.600000X1.600000*%
%ADD12C,1.600000*%
%ADD13O,1.600000X1.600000*%
%ADD14R,1.800000X1.800000*%
%ADD15C,1.800000*%
%ADD16O,1.700000X1.700000*%
%ADD17C,2.000000*%
G04 APERTURE END LIST*
D10*
X104572000Y-94158000D03*
D11*
X135472380Y-71044000D03*
D12*
X132972380Y-71044000D03*
X104572000Y-84292000D03*
X104572000Y-89292000D03*
X142164000Y-76378000D03*
D13*
X142164000Y-66218000D03*
D12*
X113462000Y-74600000D03*
D13*
X113462000Y-64440000D03*
D14*
X104064000Y-50978000D03*
D15*
X106604000Y-50978000D03*
D10*
X158928000Y-65202000D03*
D12*
X112954000Y-54026000D03*
D13*
X123114000Y-54026000D03*
D10*
X134798000Y-65202000D03*
X118034000Y-81712000D03*
D12*
X122860000Y-96698000D03*
D13*
X112700000Y-96698000D03*
D11*
X139370000Y-86473113D03*
D12*
X139370000Y-83973113D03*
D11*
X134026000Y-89830000D03*
D13*
X134026000Y-87290000D03*
X134026000Y-84750000D03*
X134026000Y-82210000D03*
X126406000Y-82210000D03*
X126406000Y-84750000D03*
X126406000Y-87290000D03*
X126406000Y-89830000D03*
D12*
X122606000Y-64440000D03*
D13*
X122606000Y-74600000D03*
D12*
X158166000Y-80442000D03*
D13*
X158166000Y-90602000D03*
D12*
X152538000Y-65202000D03*
X147538000Y-65202000D03*
X137338000Y-93142000D03*
D13*
X147498000Y-93142000D03*
D14*
X104059000Y-67488000D03*
D15*
X106599000Y-67488000D03*
D16*
X158084000Y-71791000D03*
X158084000Y-74331000D03*
D10*
X158084000Y-76871000D03*
D11*
X152030000Y-73330000D03*
D12*
X149530000Y-73330000D03*
D10*
X162992000Y-87554000D03*
D17*
X162666000Y-53368000D03*
X162666000Y-59868000D03*
X158166000Y-53368000D03*
X158166000Y-59868000D03*
D10*
X162992000Y-82220000D03*
D12*
X136576000Y-77140000D03*
D13*
X126416000Y-77140000D03*
D11*
X152822000Y-88306000D03*
D13*
X152822000Y-85766000D03*
X152822000Y-83226000D03*
X152822000Y-80686000D03*
X145202000Y-80686000D03*
X145202000Y-83226000D03*
X145202000Y-85766000D03*
X145202000Y-88306000D03*
D10*
X129210000Y-65710000D03*
X153594000Y-93142000D03*
D12*
X109398000Y-93904000D03*
D13*
X109398000Y-83744000D03*
D12*
X118034000Y-74600000D03*
D13*
X118034000Y-64440000D03*
D14*
X104064000Y-75108000D03*
D15*
X106604000Y-75108000D03*
D12*
X112954000Y-57836000D03*
D13*
X123114000Y-57836000D03*
D10*
X164516000Y-65202000D03*
D12*
X118796000Y-91324000D03*
X118796000Y-86324000D03*
D14*
X104059000Y-59360000D03*
D15*
X106599000Y-59360000D03*
D10*
X127940000Y-97460000D03*
D16*
X130480000Y-97460000D03*
X133020000Y-97460000D03*
X135560000Y-97460000D03*
X138100000Y-97460000D03*
X140640000Y-97460000D03*
X143180000Y-97460000D03*
X145720000Y-97460000D03*
D10*
X150800000Y-97460000D03*
D16*
X153340000Y-97460000D03*
X155880000Y-97460000D03*
X158420000Y-97460000D03*
X160960000Y-97460000D03*
X163500000Y-97460000D03*
D10*
X118796000Y-49200000D03*
D16*
X121336000Y-49200000D03*
X123876000Y-49200000D03*
X126416000Y-49200000D03*
X128956000Y-49200000D03*
X131496000Y-49200000D03*
X134036000Y-49200000D03*
X136576000Y-49200000D03*
X139116000Y-49200000D03*
X141656000Y-49200000D03*
D10*
X145720000Y-49200000D03*
D16*
X148260000Y-49200000D03*
X150800000Y-49200000D03*
X153340000Y-49200000D03*
X155880000Y-49200000D03*
X158420000Y-49200000D03*
X160960000Y-49200000D03*
X163500000Y-49200000D03*
M02*
