%TF.GenerationSoftware,KiCad,Pcbnew,7.0.1*%
%TF.CreationDate,2023-05-02T20:05:28+02:00*%
%TF.ProjectId,Lab1_SDHD,4c616231-5f53-4444-9844-2e6b69636164,v 1.0*%
%TF.SameCoordinates,Original*%
%TF.FileFunction,Copper,L3,Inr*%
%TF.FilePolarity,Positive*%
%FSLAX46Y46*%
G04 Gerber Fmt 4.6, Leading zero omitted, Abs format (unit mm)*
G04 Created by KiCad (PCBNEW 7.0.1) date 2023-05-02 20:05:28*
%MOMM*%
%LPD*%
G01*
G04 APERTURE LIST*
%TA.AperFunction,ComponentPad*%
%ADD10R,1.600000X1.600000*%
%TD*%
%TA.AperFunction,ComponentPad*%
%ADD11C,1.600000*%
%TD*%
%TA.AperFunction,ComponentPad*%
%ADD12O,1.600000X1.600000*%
%TD*%
%TA.AperFunction,ComponentPad*%
%ADD13R,1.800000X1.800000*%
%TD*%
%TA.AperFunction,ComponentPad*%
%ADD14C,1.800000*%
%TD*%
%TA.AperFunction,ComponentPad*%
%ADD15R,1.700000X1.700000*%
%TD*%
%TA.AperFunction,ComponentPad*%
%ADD16O,1.700000X1.700000*%
%TD*%
%TA.AperFunction,ComponentPad*%
%ADD17C,2.000000*%
%TD*%
%TA.AperFunction,ViaPad*%
%ADD18C,0.800000*%
%TD*%
G04 APERTURE END LIST*
D10*
X133440380Y-69012000D03*
D11*
X130940380Y-69012000D03*
X107620000Y-84292000D03*
X107620000Y-89292000D03*
X141656000Y-74854000D03*
D12*
X141656000Y-64694000D03*
D11*
X113462000Y-74600000D03*
D12*
X113462000Y-64440000D03*
D13*
X104064000Y-50978000D03*
D14*
X106604000Y-50978000D03*
D15*
X103048000Y-94920000D03*
X158928000Y-65202000D03*
X107620000Y-94920000D03*
D11*
X114732000Y-54788000D03*
D12*
X124892000Y-54788000D03*
D15*
X136322000Y-62662000D03*
X129972000Y-93142000D03*
D11*
X116002000Y-83998000D03*
D12*
X116002000Y-94158000D03*
D10*
X123368000Y-94093113D03*
D11*
X123368000Y-91593113D03*
D10*
X137328000Y-88052000D03*
D12*
X137328000Y-85512000D03*
X137328000Y-82972000D03*
X137328000Y-80432000D03*
X129708000Y-80432000D03*
X129708000Y-82972000D03*
X129708000Y-85512000D03*
X129708000Y-88052000D03*
D11*
X122352000Y-64440000D03*
D12*
X122352000Y-74600000D03*
D11*
X156642000Y-74854000D03*
D12*
X146482000Y-74854000D03*
D11*
X152538000Y-65202000D03*
X147538000Y-65202000D03*
X135814000Y-92634000D03*
D12*
X145974000Y-92634000D03*
D13*
X104059000Y-67488000D03*
D14*
X106599000Y-67488000D03*
D15*
X158084000Y-86777000D03*
D16*
X158084000Y-84237000D03*
X158084000Y-81697000D03*
D10*
X164222000Y-73584000D03*
D11*
X161722000Y-73584000D03*
D15*
X150800000Y-92888000D03*
D17*
X162666000Y-53368000D03*
X162666000Y-59868000D03*
X158166000Y-53368000D03*
X158166000Y-59868000D03*
D15*
X162484000Y-93142000D03*
D11*
X136830000Y-74854000D03*
D12*
X126670000Y-74854000D03*
D10*
X151044000Y-87798000D03*
D12*
X151044000Y-85258000D03*
X151044000Y-82718000D03*
X151044000Y-80178000D03*
X143424000Y-80178000D03*
X143424000Y-82718000D03*
X143424000Y-85258000D03*
X143424000Y-87798000D03*
D15*
X130734000Y-62662000D03*
X156388000Y-92888000D03*
D11*
X111938000Y-94158000D03*
D12*
X111938000Y-83998000D03*
D11*
X118034000Y-74600000D03*
D12*
X118034000Y-64440000D03*
D13*
X104064000Y-75108000D03*
D14*
X106604000Y-75108000D03*
D11*
X114732000Y-58852000D03*
D12*
X124892000Y-58852000D03*
D15*
X164516000Y-65202000D03*
D11*
X125868000Y-83490000D03*
X120868000Y-83490000D03*
D13*
X104059000Y-59360000D03*
D14*
X106599000Y-59360000D03*
D15*
X127940000Y-97460000D03*
D16*
X130480000Y-97460000D03*
X133020000Y-97460000D03*
X135560000Y-97460000D03*
X138100000Y-97460000D03*
X140640000Y-97460000D03*
X143180000Y-97460000D03*
X145720000Y-97460000D03*
D15*
X150800000Y-97460000D03*
D16*
X153340000Y-97460000D03*
X155880000Y-97460000D03*
X158420000Y-97460000D03*
X160960000Y-97460000D03*
X163500000Y-97460000D03*
D15*
X118796000Y-49200000D03*
D16*
X121336000Y-49200000D03*
X123876000Y-49200000D03*
X126416000Y-49200000D03*
X128956000Y-49200000D03*
X131496000Y-49200000D03*
X134036000Y-49200000D03*
X136576000Y-49200000D03*
X139116000Y-49200000D03*
X141656000Y-49200000D03*
D15*
X145466000Y-49200000D03*
D16*
X148006000Y-49200000D03*
X150546000Y-49200000D03*
X153086000Y-49200000D03*
X155626000Y-49200000D03*
X158166000Y-49200000D03*
X160706000Y-49200000D03*
X163246000Y-49200000D03*
D18*
X127178000Y-93396000D03*
X140386000Y-82982000D03*
X126670000Y-70028000D03*
X153594000Y-53264000D03*
%TA.AperFunction,Conductor*%
G36*
X163288777Y-47169939D02*
G01*
X163329005Y-47196819D01*
X163856592Y-47724406D01*
X163889117Y-47781647D01*
X163887756Y-47847469D01*
X163852894Y-47903317D01*
X163794358Y-47933448D01*
X163728649Y-47929368D01*
X163580638Y-47878556D01*
X163358569Y-47841500D01*
X163133431Y-47841500D01*
X162911363Y-47878556D01*
X162698427Y-47951657D01*
X162500424Y-48058811D01*
X162322760Y-48197094D01*
X162170279Y-48362730D01*
X162079809Y-48501205D01*
X162035017Y-48542438D01*
X161976000Y-48557383D01*
X161916983Y-48542438D01*
X161872191Y-48501205D01*
X161852043Y-48470367D01*
X161781722Y-48362732D01*
X161629240Y-48197094D01*
X161451576Y-48058811D01*
X161253574Y-47951658D01*
X161253573Y-47951657D01*
X161253572Y-47951657D01*
X161040636Y-47878556D01*
X160818569Y-47841500D01*
X160593431Y-47841500D01*
X160371363Y-47878556D01*
X160158427Y-47951657D01*
X159960424Y-48058811D01*
X159782760Y-48197094D01*
X159630279Y-48362730D01*
X159539809Y-48501205D01*
X159495017Y-48542438D01*
X159436000Y-48557383D01*
X159376983Y-48542438D01*
X159332191Y-48501205D01*
X159312043Y-48470367D01*
X159241722Y-48362732D01*
X159089240Y-48197094D01*
X158911576Y-48058811D01*
X158713574Y-47951658D01*
X158713573Y-47951657D01*
X158713572Y-47951657D01*
X158500636Y-47878556D01*
X158278569Y-47841500D01*
X158053431Y-47841500D01*
X157831363Y-47878556D01*
X157618427Y-47951657D01*
X157420424Y-48058811D01*
X157242760Y-48197094D01*
X157090279Y-48362730D01*
X156999809Y-48501205D01*
X156955017Y-48542438D01*
X156896000Y-48557383D01*
X156836983Y-48542438D01*
X156792191Y-48501205D01*
X156772043Y-48470367D01*
X156701722Y-48362732D01*
X156549240Y-48197094D01*
X156371576Y-48058811D01*
X156173574Y-47951658D01*
X156173573Y-47951657D01*
X156173572Y-47951657D01*
X155960636Y-47878556D01*
X155738569Y-47841500D01*
X155513431Y-47841500D01*
X155291363Y-47878556D01*
X155078427Y-47951657D01*
X154880424Y-48058811D01*
X154702760Y-48197094D01*
X154550279Y-48362730D01*
X154459809Y-48501205D01*
X154415017Y-48542438D01*
X154356000Y-48557383D01*
X154296983Y-48542438D01*
X154252191Y-48501205D01*
X154232043Y-48470367D01*
X154161722Y-48362732D01*
X154009240Y-48197094D01*
X153831576Y-48058811D01*
X153633574Y-47951658D01*
X153633573Y-47951657D01*
X153633572Y-47951657D01*
X153420636Y-47878556D01*
X153198569Y-47841500D01*
X152973431Y-47841500D01*
X152751363Y-47878556D01*
X152538427Y-47951657D01*
X152340424Y-48058811D01*
X152162760Y-48197094D01*
X152010279Y-48362730D01*
X151919809Y-48501205D01*
X151875017Y-48542438D01*
X151816000Y-48557383D01*
X151756983Y-48542438D01*
X151712191Y-48501205D01*
X151692043Y-48470367D01*
X151621722Y-48362732D01*
X151469240Y-48197094D01*
X151291576Y-48058811D01*
X151093574Y-47951658D01*
X151093573Y-47951657D01*
X151093572Y-47951657D01*
X150880636Y-47878556D01*
X150658569Y-47841500D01*
X150433431Y-47841500D01*
X150211363Y-47878556D01*
X149998427Y-47951657D01*
X149800424Y-48058811D01*
X149622760Y-48197094D01*
X149470279Y-48362730D01*
X149379809Y-48501205D01*
X149335017Y-48542438D01*
X149276000Y-48557383D01*
X149216983Y-48542438D01*
X149172191Y-48501205D01*
X149152043Y-48470367D01*
X149081722Y-48362732D01*
X148929240Y-48197094D01*
X148751576Y-48058811D01*
X148553574Y-47951658D01*
X148553573Y-47951657D01*
X148553572Y-47951657D01*
X148340636Y-47878556D01*
X148118569Y-47841500D01*
X147893431Y-47841500D01*
X147671363Y-47878556D01*
X147458427Y-47951657D01*
X147260424Y-48058811D01*
X147082759Y-48197094D01*
X147019548Y-48265759D01*
X146966924Y-48299612D01*
X146904470Y-48303460D01*
X146848089Y-48276322D01*
X146812138Y-48225110D01*
X146787427Y-48158861D01*
X146766889Y-48103796D01*
X146733214Y-48058811D01*
X146679261Y-47986738D01*
X146562203Y-47899110D01*
X146425205Y-47848011D01*
X146394919Y-47844755D01*
X146364638Y-47841500D01*
X144567362Y-47841500D01*
X144540445Y-47844393D01*
X144506794Y-47848011D01*
X144369796Y-47899110D01*
X144252738Y-47986738D01*
X144165110Y-48103796D01*
X144114011Y-48240794D01*
X144110393Y-48274445D01*
X144107689Y-48299612D01*
X144107500Y-48301366D01*
X144107500Y-50098634D01*
X144114011Y-50159205D01*
X144165110Y-50296203D01*
X144252738Y-50413261D01*
X144369796Y-50500889D01*
X144506794Y-50551988D01*
X144506797Y-50551988D01*
X144506799Y-50551989D01*
X144567362Y-50558500D01*
X146364634Y-50558500D01*
X146364638Y-50558500D01*
X146425201Y-50551989D01*
X146425203Y-50551988D01*
X146425205Y-50551988D01*
X146513403Y-50519091D01*
X146562204Y-50500889D01*
X146679261Y-50413261D01*
X146766889Y-50296204D01*
X146812137Y-50174889D01*
X146848089Y-50123677D01*
X146904471Y-50096539D01*
X146966925Y-50100387D01*
X147019548Y-50134241D01*
X147056969Y-50174890D01*
X147082760Y-50202906D01*
X147260424Y-50341189D01*
X147458426Y-50448342D01*
X147671365Y-50521444D01*
X147893431Y-50558500D01*
X148118569Y-50558500D01*
X148340635Y-50521444D01*
X148553574Y-50448342D01*
X148751576Y-50341189D01*
X148929240Y-50202906D01*
X149081722Y-50037268D01*
X149172190Y-49898795D01*
X149216982Y-49857561D01*
X149276000Y-49842616D01*
X149335018Y-49857561D01*
X149379809Y-49898795D01*
X149465112Y-50029362D01*
X149470278Y-50037268D01*
X149622760Y-50202906D01*
X149800424Y-50341189D01*
X149998426Y-50448342D01*
X150211365Y-50521444D01*
X150433431Y-50558500D01*
X150658569Y-50558500D01*
X150880635Y-50521444D01*
X151093574Y-50448342D01*
X151291576Y-50341189D01*
X151469240Y-50202906D01*
X151621722Y-50037268D01*
X151712190Y-49898795D01*
X151756982Y-49857561D01*
X151816000Y-49842616D01*
X151875018Y-49857561D01*
X151919809Y-49898795D01*
X152005112Y-50029362D01*
X152010278Y-50037268D01*
X152162760Y-50202906D01*
X152340424Y-50341189D01*
X152538426Y-50448342D01*
X152751365Y-50521444D01*
X152973431Y-50558500D01*
X153198569Y-50558500D01*
X153420635Y-50521444D01*
X153633574Y-50448342D01*
X153831576Y-50341189D01*
X154009240Y-50202906D01*
X154161722Y-50037268D01*
X154252190Y-49898795D01*
X154296982Y-49857561D01*
X154356000Y-49842616D01*
X154415018Y-49857561D01*
X154459809Y-49898795D01*
X154545112Y-50029362D01*
X154550278Y-50037268D01*
X154702760Y-50202906D01*
X154880424Y-50341189D01*
X155078426Y-50448342D01*
X155291365Y-50521444D01*
X155513431Y-50558500D01*
X155738569Y-50558500D01*
X155960635Y-50521444D01*
X156173574Y-50448342D01*
X156371576Y-50341189D01*
X156549240Y-50202906D01*
X156701722Y-50037268D01*
X156792190Y-49898795D01*
X156836982Y-49857561D01*
X156896000Y-49842616D01*
X156955018Y-49857561D01*
X156999809Y-49898795D01*
X157085112Y-50029362D01*
X157090278Y-50037268D01*
X157242760Y-50202906D01*
X157420424Y-50341189D01*
X157618426Y-50448342D01*
X157831365Y-50521444D01*
X158053431Y-50558500D01*
X158278569Y-50558500D01*
X158500635Y-50521444D01*
X158713574Y-50448342D01*
X158911576Y-50341189D01*
X159089240Y-50202906D01*
X159241722Y-50037268D01*
X159332190Y-49898795D01*
X159376982Y-49857561D01*
X159436000Y-49842616D01*
X159495018Y-49857561D01*
X159539809Y-49898795D01*
X159625112Y-50029362D01*
X159630278Y-50037268D01*
X159782760Y-50202906D01*
X159960424Y-50341189D01*
X160158426Y-50448342D01*
X160371365Y-50521444D01*
X160593431Y-50558500D01*
X160818569Y-50558500D01*
X161040635Y-50521444D01*
X161253574Y-50448342D01*
X161451576Y-50341189D01*
X161629240Y-50202906D01*
X161781722Y-50037268D01*
X161872190Y-49898795D01*
X161916982Y-49857561D01*
X161976000Y-49842616D01*
X162035018Y-49857561D01*
X162079809Y-49898795D01*
X162165112Y-50029362D01*
X162170278Y-50037268D01*
X162322760Y-50202906D01*
X162500424Y-50341189D01*
X162698426Y-50448342D01*
X162911365Y-50521444D01*
X163133431Y-50558500D01*
X163358569Y-50558500D01*
X163580635Y-50521444D01*
X163793574Y-50448342D01*
X163991576Y-50341189D01*
X164169240Y-50202906D01*
X164321722Y-50037268D01*
X164444860Y-49848791D01*
X164535296Y-49642616D01*
X164590564Y-49424368D01*
X164609156Y-49200000D01*
X164590564Y-48975632D01*
X164535296Y-48757384D01*
X164523147Y-48729688D01*
X164513927Y-48662510D01*
X164541422Y-48600524D01*
X164597412Y-48562270D01*
X164665153Y-48559187D01*
X164724385Y-48592199D01*
X165503181Y-49370995D01*
X165530061Y-49411223D01*
X165539500Y-49458676D01*
X165539500Y-59292856D01*
X165536666Y-59319214D01*
X165535640Y-59323926D01*
X165539184Y-59373461D01*
X165539500Y-59382308D01*
X165539500Y-59395803D01*
X165541419Y-59409153D01*
X165542365Y-59417947D01*
X165545909Y-59467483D01*
X165547594Y-59472001D01*
X165554147Y-59497676D01*
X165554712Y-59501603D01*
X165554835Y-59502458D01*
X165575457Y-59547612D01*
X165578845Y-59555790D01*
X165596204Y-59602331D01*
X165599095Y-59606194D01*
X165612620Y-59628987D01*
X165614622Y-59633372D01*
X165614623Y-59633373D01*
X165647147Y-59670907D01*
X165652689Y-59677786D01*
X165660779Y-59688593D01*
X165670321Y-59698135D01*
X165676354Y-59704615D01*
X165708870Y-59742142D01*
X165712927Y-59744749D01*
X165733571Y-59761385D01*
X168043181Y-62070995D01*
X168070061Y-62111223D01*
X168079500Y-62158676D01*
X168079500Y-95931324D01*
X168070061Y-95978777D01*
X168043181Y-96019005D01*
X165733569Y-98328615D01*
X165712936Y-98345244D01*
X165708872Y-98347855D01*
X165676351Y-98385386D01*
X165670330Y-98391854D01*
X165660777Y-98401408D01*
X165652677Y-98412227D01*
X165647132Y-98419107D01*
X165614624Y-98456624D01*
X165612618Y-98461017D01*
X165599098Y-98483802D01*
X165596203Y-98487668D01*
X165578851Y-98534191D01*
X165575466Y-98542365D01*
X165554834Y-98587545D01*
X165554147Y-98592323D01*
X165547596Y-98617990D01*
X165545909Y-98622513D01*
X165542365Y-98672053D01*
X165541420Y-98680846D01*
X165539500Y-98694204D01*
X165539500Y-98707692D01*
X165539184Y-98716539D01*
X165535640Y-98766073D01*
X165536666Y-98770786D01*
X165539500Y-98797144D01*
X165539500Y-99228243D01*
X165537973Y-99247642D01*
X165529773Y-99299411D01*
X165517785Y-99336307D01*
X165498474Y-99374207D01*
X165475670Y-99405593D01*
X165445593Y-99435670D01*
X165414207Y-99458474D01*
X165376307Y-99477785D01*
X165339411Y-99489773D01*
X165309068Y-99494579D01*
X165287639Y-99497973D01*
X165268243Y-99499500D01*
X100771757Y-99499500D01*
X100752360Y-99497973D01*
X100718098Y-99492546D01*
X100700588Y-99489773D01*
X100663695Y-99477786D01*
X100625790Y-99458472D01*
X100594406Y-99435670D01*
X100564329Y-99405593D01*
X100541528Y-99374211D01*
X100522212Y-99336301D01*
X100510227Y-99299417D01*
X100502025Y-99247629D01*
X100500500Y-99228243D01*
X100500500Y-98358634D01*
X126581500Y-98358634D01*
X126588011Y-98419205D01*
X126639110Y-98556203D01*
X126726738Y-98673261D01*
X126843796Y-98760889D01*
X126980794Y-98811988D01*
X126980797Y-98811988D01*
X126980799Y-98811989D01*
X127041362Y-98818500D01*
X128838634Y-98818500D01*
X128838638Y-98818500D01*
X128899201Y-98811989D01*
X128899203Y-98811988D01*
X128899205Y-98811988D01*
X129022305Y-98766073D01*
X129036204Y-98760889D01*
X129153261Y-98673261D01*
X129240889Y-98556204D01*
X129286137Y-98434889D01*
X129322089Y-98383677D01*
X129378471Y-98356539D01*
X129440925Y-98360387D01*
X129493548Y-98394241D01*
X129555021Y-98461017D01*
X129556760Y-98462906D01*
X129734424Y-98601189D01*
X129932426Y-98708342D01*
X130145365Y-98781444D01*
X130367431Y-98818500D01*
X130592569Y-98818500D01*
X130814635Y-98781444D01*
X131027574Y-98708342D01*
X131225576Y-98601189D01*
X131403240Y-98462906D01*
X131555722Y-98297268D01*
X131646190Y-98158795D01*
X131690982Y-98117561D01*
X131750000Y-98102616D01*
X131809018Y-98117561D01*
X131853809Y-98158795D01*
X131944278Y-98297268D01*
X132096760Y-98462906D01*
X132274424Y-98601189D01*
X132472426Y-98708342D01*
X132685365Y-98781444D01*
X132907431Y-98818500D01*
X133132569Y-98818500D01*
X133354635Y-98781444D01*
X133567574Y-98708342D01*
X133765576Y-98601189D01*
X133943240Y-98462906D01*
X134095722Y-98297268D01*
X134186190Y-98158795D01*
X134230982Y-98117561D01*
X134290000Y-98102616D01*
X134349018Y-98117561D01*
X134393809Y-98158795D01*
X134484278Y-98297268D01*
X134636760Y-98462906D01*
X134814424Y-98601189D01*
X135012426Y-98708342D01*
X135225365Y-98781444D01*
X135447431Y-98818500D01*
X135672569Y-98818500D01*
X135894635Y-98781444D01*
X136107574Y-98708342D01*
X136305576Y-98601189D01*
X136483240Y-98462906D01*
X136635722Y-98297268D01*
X136729748Y-98153349D01*
X136773663Y-98112595D01*
X136831562Y-98097188D01*
X136889926Y-98110726D01*
X136935131Y-98150048D01*
X137061892Y-98331080D01*
X137228918Y-98498106D01*
X137422423Y-98633600D01*
X137636507Y-98733430D01*
X137849999Y-98790635D01*
X137850000Y-98790636D01*
X137850000Y-98790635D01*
X138350000Y-98790635D01*
X138563492Y-98733430D01*
X138777576Y-98633600D01*
X138971081Y-98498106D01*
X139138106Y-98331081D01*
X139264868Y-98150048D01*
X139310072Y-98110726D01*
X139368436Y-98097188D01*
X139426335Y-98112595D01*
X139470252Y-98153351D01*
X139564276Y-98297267D01*
X139643824Y-98383677D01*
X139716760Y-98462906D01*
X139894424Y-98601189D01*
X140092426Y-98708342D01*
X140305365Y-98781444D01*
X140527431Y-98818500D01*
X140752569Y-98818500D01*
X140974635Y-98781444D01*
X141187574Y-98708342D01*
X141385576Y-98601189D01*
X141563240Y-98462906D01*
X141715722Y-98297268D01*
X141806190Y-98158795D01*
X141850982Y-98117561D01*
X141910000Y-98102616D01*
X141969018Y-98117561D01*
X142013809Y-98158795D01*
X142104278Y-98297268D01*
X142256760Y-98462906D01*
X142434424Y-98601189D01*
X142632426Y-98708342D01*
X142845365Y-98781444D01*
X143067431Y-98818500D01*
X143292569Y-98818500D01*
X143514635Y-98781444D01*
X143727574Y-98708342D01*
X143925576Y-98601189D01*
X144103240Y-98462906D01*
X144255722Y-98297268D01*
X144346190Y-98158795D01*
X144390982Y-98117561D01*
X144450000Y-98102616D01*
X144509018Y-98117561D01*
X144553809Y-98158795D01*
X144644278Y-98297268D01*
X144796760Y-98462906D01*
X144974424Y-98601189D01*
X145172426Y-98708342D01*
X145385365Y-98781444D01*
X145607431Y-98818500D01*
X145832569Y-98818500D01*
X146054635Y-98781444D01*
X146267574Y-98708342D01*
X146465576Y-98601189D01*
X146643240Y-98462906D01*
X146739230Y-98358634D01*
X149441500Y-98358634D01*
X149448011Y-98419205D01*
X149499110Y-98556203D01*
X149586738Y-98673261D01*
X149703796Y-98760889D01*
X149840794Y-98811988D01*
X149840797Y-98811988D01*
X149840799Y-98811989D01*
X149901362Y-98818500D01*
X151698634Y-98818500D01*
X151698638Y-98818500D01*
X151759201Y-98811989D01*
X151759203Y-98811988D01*
X151759205Y-98811988D01*
X151882305Y-98766073D01*
X151896204Y-98760889D01*
X152013261Y-98673261D01*
X152100889Y-98556204D01*
X152146137Y-98434889D01*
X152182089Y-98383677D01*
X152238471Y-98356539D01*
X152300925Y-98360387D01*
X152353548Y-98394241D01*
X152415021Y-98461017D01*
X152416760Y-98462906D01*
X152594424Y-98601189D01*
X152792426Y-98708342D01*
X153005365Y-98781444D01*
X153227431Y-98818500D01*
X153452569Y-98818500D01*
X153674635Y-98781444D01*
X153887574Y-98708342D01*
X154085576Y-98601189D01*
X154263240Y-98462906D01*
X154415722Y-98297268D01*
X154506190Y-98158795D01*
X154550982Y-98117561D01*
X154610000Y-98102616D01*
X154669018Y-98117561D01*
X154713809Y-98158795D01*
X154804278Y-98297268D01*
X154956760Y-98462906D01*
X155134424Y-98601189D01*
X155332426Y-98708342D01*
X155545365Y-98781444D01*
X155767431Y-98818500D01*
X155992569Y-98818500D01*
X156214635Y-98781444D01*
X156427574Y-98708342D01*
X156625576Y-98601189D01*
X156803240Y-98462906D01*
X156955722Y-98297268D01*
X157046190Y-98158795D01*
X157090982Y-98117561D01*
X157150000Y-98102616D01*
X157209018Y-98117561D01*
X157253809Y-98158795D01*
X157344278Y-98297268D01*
X157496760Y-98462906D01*
X157674424Y-98601189D01*
X157872426Y-98708342D01*
X158085365Y-98781444D01*
X158307431Y-98818500D01*
X158532569Y-98818500D01*
X158754635Y-98781444D01*
X158967574Y-98708342D01*
X159165576Y-98601189D01*
X159343240Y-98462906D01*
X159495722Y-98297268D01*
X159586190Y-98158795D01*
X159630982Y-98117561D01*
X159690000Y-98102616D01*
X159749018Y-98117561D01*
X159793809Y-98158795D01*
X159884278Y-98297268D01*
X160036760Y-98462906D01*
X160214424Y-98601189D01*
X160412426Y-98708342D01*
X160625365Y-98781444D01*
X160847431Y-98818500D01*
X161072569Y-98818500D01*
X161294635Y-98781444D01*
X161507574Y-98708342D01*
X161705576Y-98601189D01*
X161883240Y-98462906D01*
X162035722Y-98297268D01*
X162126190Y-98158795D01*
X162170982Y-98117561D01*
X162230000Y-98102616D01*
X162289018Y-98117561D01*
X162333809Y-98158795D01*
X162424278Y-98297268D01*
X162576760Y-98462906D01*
X162754424Y-98601189D01*
X162952426Y-98708342D01*
X163165365Y-98781444D01*
X163387431Y-98818500D01*
X163612569Y-98818500D01*
X163834635Y-98781444D01*
X164047574Y-98708342D01*
X164245576Y-98601189D01*
X164423240Y-98462906D01*
X164575722Y-98297268D01*
X164698860Y-98108791D01*
X164789296Y-97902616D01*
X164844564Y-97684368D01*
X164863156Y-97460000D01*
X164844564Y-97235632D01*
X164789296Y-97017384D01*
X164698860Y-96811209D01*
X164575722Y-96622732D01*
X164423240Y-96457094D01*
X164245576Y-96318811D01*
X164047574Y-96211658D01*
X164047573Y-96211657D01*
X164047572Y-96211657D01*
X163834636Y-96138556D01*
X163612569Y-96101500D01*
X163387431Y-96101500D01*
X163165363Y-96138556D01*
X162952427Y-96211657D01*
X162754424Y-96318811D01*
X162576760Y-96457094D01*
X162424279Y-96622730D01*
X162333809Y-96761205D01*
X162289017Y-96802438D01*
X162230000Y-96817383D01*
X162170983Y-96802438D01*
X162126191Y-96761205D01*
X162035723Y-96622734D01*
X162035722Y-96622732D01*
X161883240Y-96457094D01*
X161705576Y-96318811D01*
X161507574Y-96211658D01*
X161507573Y-96211657D01*
X161507572Y-96211657D01*
X161294636Y-96138556D01*
X161072569Y-96101500D01*
X160847431Y-96101500D01*
X160625363Y-96138556D01*
X160412427Y-96211657D01*
X160214424Y-96318811D01*
X160036760Y-96457094D01*
X159884279Y-96622730D01*
X159793809Y-96761205D01*
X159749017Y-96802438D01*
X159690000Y-96817383D01*
X159630983Y-96802438D01*
X159586191Y-96761205D01*
X159495723Y-96622734D01*
X159495722Y-96622732D01*
X159343240Y-96457094D01*
X159165576Y-96318811D01*
X158967574Y-96211658D01*
X158967573Y-96211657D01*
X158967572Y-96211657D01*
X158754636Y-96138556D01*
X158532569Y-96101500D01*
X158307431Y-96101500D01*
X158085363Y-96138556D01*
X157872427Y-96211657D01*
X157674424Y-96318811D01*
X157496760Y-96457094D01*
X157344279Y-96622730D01*
X157253809Y-96761205D01*
X157209017Y-96802438D01*
X157150000Y-96817383D01*
X157090983Y-96802438D01*
X157046191Y-96761205D01*
X156955723Y-96622734D01*
X156955722Y-96622732D01*
X156803240Y-96457094D01*
X156625576Y-96318811D01*
X156427574Y-96211658D01*
X156427573Y-96211657D01*
X156427572Y-96211657D01*
X156214636Y-96138556D01*
X155992569Y-96101500D01*
X155767431Y-96101500D01*
X155545363Y-96138556D01*
X155332427Y-96211657D01*
X155134424Y-96318811D01*
X154956760Y-96457094D01*
X154804279Y-96622730D01*
X154713809Y-96761205D01*
X154669017Y-96802438D01*
X154610000Y-96817383D01*
X154550983Y-96802438D01*
X154506191Y-96761205D01*
X154415723Y-96622734D01*
X154415722Y-96622732D01*
X154263240Y-96457094D01*
X154085576Y-96318811D01*
X153887574Y-96211658D01*
X153887573Y-96211657D01*
X153887572Y-96211657D01*
X153674636Y-96138556D01*
X153452569Y-96101500D01*
X153227431Y-96101500D01*
X153005363Y-96138556D01*
X152792427Y-96211657D01*
X152594424Y-96318811D01*
X152416759Y-96457094D01*
X152353548Y-96525759D01*
X152300924Y-96559612D01*
X152238470Y-96563460D01*
X152182089Y-96536322D01*
X152146138Y-96485110D01*
X152107552Y-96381660D01*
X152100889Y-96363796D01*
X152042951Y-96286400D01*
X152013261Y-96246738D01*
X151896203Y-96159110D01*
X151759205Y-96108011D01*
X151728919Y-96104755D01*
X151698638Y-96101500D01*
X149901362Y-96101500D01*
X149874445Y-96104393D01*
X149840794Y-96108011D01*
X149703796Y-96159110D01*
X149586738Y-96246738D01*
X149499110Y-96363796D01*
X149448011Y-96500794D01*
X149444735Y-96531267D01*
X149441689Y-96559612D01*
X149441500Y-96561366D01*
X149441500Y-98358634D01*
X146739230Y-98358634D01*
X146795722Y-98297268D01*
X146918860Y-98108791D01*
X147009296Y-97902616D01*
X147064564Y-97684368D01*
X147083156Y-97460000D01*
X147064564Y-97235632D01*
X147009296Y-97017384D01*
X146918860Y-96811209D01*
X146795722Y-96622732D01*
X146643240Y-96457094D01*
X146465576Y-96318811D01*
X146267574Y-96211658D01*
X146267573Y-96211657D01*
X146267572Y-96211657D01*
X146054636Y-96138556D01*
X145832569Y-96101500D01*
X145607431Y-96101500D01*
X145385363Y-96138556D01*
X145172427Y-96211657D01*
X144974424Y-96318811D01*
X144796760Y-96457094D01*
X144644279Y-96622730D01*
X144553809Y-96761205D01*
X144509017Y-96802438D01*
X144450000Y-96817383D01*
X144390983Y-96802438D01*
X144346191Y-96761205D01*
X144255723Y-96622734D01*
X144255722Y-96622732D01*
X144103240Y-96457094D01*
X143925576Y-96318811D01*
X143727574Y-96211658D01*
X143727573Y-96211657D01*
X143727572Y-96211657D01*
X143514636Y-96138556D01*
X143292569Y-96101500D01*
X143067431Y-96101500D01*
X142845363Y-96138556D01*
X142632427Y-96211657D01*
X142434424Y-96318811D01*
X142256760Y-96457094D01*
X142104279Y-96622730D01*
X142013809Y-96761205D01*
X141969017Y-96802438D01*
X141910000Y-96817383D01*
X141850983Y-96802438D01*
X141806191Y-96761205D01*
X141715723Y-96622734D01*
X141715722Y-96622732D01*
X141563240Y-96457094D01*
X141385576Y-96318811D01*
X141187574Y-96211658D01*
X141187573Y-96211657D01*
X141187572Y-96211657D01*
X140974636Y-96138556D01*
X140752569Y-96101500D01*
X140527431Y-96101500D01*
X140305363Y-96138556D01*
X140092427Y-96211657D01*
X139894424Y-96318811D01*
X139716760Y-96457094D01*
X139564275Y-96622734D01*
X139470250Y-96766650D01*
X139426334Y-96807405D01*
X139368435Y-96822812D01*
X139310071Y-96809274D01*
X139264867Y-96769951D01*
X139138109Y-96588921D01*
X138971081Y-96421893D01*
X138777576Y-96286399D01*
X138563492Y-96186569D01*
X138350000Y-96129364D01*
X138350000Y-98790635D01*
X137850000Y-98790635D01*
X137850000Y-96129364D01*
X137849999Y-96129364D01*
X137636507Y-96186569D01*
X137422421Y-96286400D01*
X137228921Y-96421890D01*
X137061893Y-96588918D01*
X136935132Y-96769952D01*
X136889928Y-96809274D01*
X136831564Y-96822812D01*
X136773665Y-96807405D01*
X136729748Y-96766649D01*
X136635723Y-96622732D01*
X136526646Y-96504245D01*
X136483240Y-96457094D01*
X136305576Y-96318811D01*
X136107574Y-96211658D01*
X136107573Y-96211657D01*
X136107572Y-96211657D01*
X135894636Y-96138556D01*
X135672569Y-96101500D01*
X135447431Y-96101500D01*
X135225363Y-96138556D01*
X135012427Y-96211657D01*
X134814424Y-96318811D01*
X134636760Y-96457094D01*
X134484279Y-96622730D01*
X134393809Y-96761205D01*
X134349017Y-96802438D01*
X134290000Y-96817383D01*
X134230983Y-96802438D01*
X134186191Y-96761205D01*
X134095723Y-96622734D01*
X134095722Y-96622732D01*
X133943240Y-96457094D01*
X133765576Y-96318811D01*
X133567574Y-96211658D01*
X133567573Y-96211657D01*
X133567572Y-96211657D01*
X133354636Y-96138556D01*
X133132569Y-96101500D01*
X132907431Y-96101500D01*
X132685363Y-96138556D01*
X132472427Y-96211657D01*
X132274424Y-96318811D01*
X132096760Y-96457094D01*
X131944279Y-96622730D01*
X131853809Y-96761205D01*
X131809017Y-96802438D01*
X131750000Y-96817383D01*
X131690983Y-96802438D01*
X131646191Y-96761205D01*
X131555723Y-96622734D01*
X131555722Y-96622732D01*
X131403240Y-96457094D01*
X131225576Y-96318811D01*
X131027574Y-96211658D01*
X131027573Y-96211657D01*
X131027572Y-96211657D01*
X130814636Y-96138556D01*
X130592569Y-96101500D01*
X130367431Y-96101500D01*
X130145363Y-96138556D01*
X129932427Y-96211657D01*
X129734424Y-96318811D01*
X129556759Y-96457094D01*
X129493548Y-96525759D01*
X129440924Y-96559612D01*
X129378470Y-96563460D01*
X129322089Y-96536322D01*
X129286138Y-96485110D01*
X129247552Y-96381660D01*
X129240889Y-96363796D01*
X129182951Y-96286400D01*
X129153261Y-96246738D01*
X129036203Y-96159110D01*
X128899205Y-96108011D01*
X128868919Y-96104755D01*
X128838638Y-96101500D01*
X127041362Y-96101500D01*
X127014445Y-96104393D01*
X126980794Y-96108011D01*
X126843796Y-96159110D01*
X126726738Y-96246738D01*
X126639110Y-96363796D01*
X126588011Y-96500794D01*
X126584735Y-96531267D01*
X126581689Y-96559612D01*
X126581500Y-96561366D01*
X126581500Y-98358634D01*
X100500500Y-98358634D01*
X100500500Y-95818634D01*
X101689500Y-95818634D01*
X101696011Y-95879205D01*
X101747110Y-96016203D01*
X101834738Y-96133261D01*
X101951796Y-96220889D01*
X102088794Y-96271988D01*
X102088797Y-96271988D01*
X102088799Y-96271989D01*
X102149362Y-96278500D01*
X103946634Y-96278500D01*
X103946638Y-96278500D01*
X104007201Y-96271989D01*
X104007203Y-96271988D01*
X104007205Y-96271988D01*
X104085124Y-96242924D01*
X104144204Y-96220889D01*
X104261261Y-96133261D01*
X104348889Y-96016204D01*
X104399989Y-95879201D01*
X104406500Y-95818638D01*
X104406500Y-95818634D01*
X106261500Y-95818634D01*
X106268011Y-95879205D01*
X106319110Y-96016203D01*
X106406738Y-96133261D01*
X106523796Y-96220889D01*
X106660794Y-96271988D01*
X106660797Y-96271988D01*
X106660799Y-96271989D01*
X106721362Y-96278500D01*
X108518634Y-96278500D01*
X108518638Y-96278500D01*
X108579201Y-96271989D01*
X108579203Y-96271988D01*
X108579205Y-96271988D01*
X108657124Y-96242924D01*
X108716204Y-96220889D01*
X108833261Y-96133261D01*
X108920889Y-96016204D01*
X108971989Y-95879201D01*
X108978500Y-95818638D01*
X108978500Y-94157999D01*
X110624501Y-94157999D01*
X110644456Y-94386084D01*
X110703717Y-94607246D01*
X110800474Y-94814744D01*
X110800476Y-94814746D01*
X110800477Y-94814749D01*
X110931802Y-95002300D01*
X111093700Y-95164198D01*
X111281251Y-95295523D01*
X111488757Y-95392284D01*
X111709913Y-95451543D01*
X111938000Y-95471498D01*
X112166087Y-95451543D01*
X112387243Y-95392284D01*
X112594749Y-95295523D01*
X112782300Y-95164198D01*
X112944198Y-95002300D01*
X113075523Y-94814749D01*
X113172284Y-94607243D01*
X113231543Y-94386087D01*
X113251498Y-94158000D01*
X113251498Y-94157999D01*
X114688501Y-94157999D01*
X114708456Y-94386084D01*
X114767717Y-94607246D01*
X114864474Y-94814744D01*
X114864476Y-94814746D01*
X114864477Y-94814749D01*
X114995802Y-95002300D01*
X115157700Y-95164198D01*
X115345251Y-95295523D01*
X115552757Y-95392284D01*
X115773913Y-95451543D01*
X116002000Y-95471498D01*
X116230087Y-95451543D01*
X116451243Y-95392284D01*
X116658749Y-95295523D01*
X116846300Y-95164198D01*
X117008198Y-95002300D01*
X117139523Y-94814749D01*
X117236284Y-94607243D01*
X117295543Y-94386087D01*
X117315498Y-94158000D01*
X117295543Y-93929913D01*
X117236284Y-93708757D01*
X117179008Y-93585928D01*
X117139525Y-93501255D01*
X117139524Y-93501254D01*
X117139523Y-93501251D01*
X117008198Y-93313700D01*
X116846300Y-93151802D01*
X116658749Y-93020477D01*
X116658746Y-93020476D01*
X116658744Y-93020474D01*
X116451246Y-92923717D01*
X116451243Y-92923716D01*
X116340665Y-92894086D01*
X116230084Y-92864456D01*
X116002000Y-92844501D01*
X115773915Y-92864456D01*
X115552753Y-92923717D01*
X115345255Y-93020474D01*
X115157696Y-93151805D01*
X114995805Y-93313696D01*
X114864474Y-93501255D01*
X114767717Y-93708753D01*
X114708456Y-93929915D01*
X114688501Y-94157999D01*
X113251498Y-94157999D01*
X113231543Y-93929913D01*
X113172284Y-93708757D01*
X113115008Y-93585928D01*
X113075525Y-93501255D01*
X113075524Y-93501254D01*
X113075523Y-93501251D01*
X112944198Y-93313700D01*
X112782300Y-93151802D01*
X112594749Y-93020477D01*
X112594746Y-93020476D01*
X112594744Y-93020474D01*
X112387246Y-92923717D01*
X112387243Y-92923716D01*
X112276665Y-92894086D01*
X112166084Y-92864456D01*
X111938000Y-92844501D01*
X111709915Y-92864456D01*
X111488753Y-92923717D01*
X111281255Y-93020474D01*
X111093696Y-93151805D01*
X110931805Y-93313696D01*
X110800474Y-93501255D01*
X110703717Y-93708753D01*
X110644456Y-93929915D01*
X110624501Y-94157999D01*
X108978500Y-94157999D01*
X108978500Y-94021362D01*
X108971989Y-93960799D01*
X108971988Y-93960797D01*
X108971988Y-93960794D01*
X108920889Y-93823796D01*
X108833261Y-93706738D01*
X108716203Y-93619110D01*
X108579205Y-93568011D01*
X108548919Y-93564755D01*
X108518638Y-93561500D01*
X106721362Y-93561500D01*
X106694445Y-93564393D01*
X106660794Y-93568011D01*
X106523796Y-93619110D01*
X106406738Y-93706738D01*
X106319110Y-93823796D01*
X106268011Y-93960794D01*
X106261500Y-94021366D01*
X106261500Y-95818634D01*
X104406500Y-95818634D01*
X104406500Y-94021362D01*
X104399989Y-93960799D01*
X104399988Y-93960797D01*
X104399988Y-93960794D01*
X104348889Y-93823796D01*
X104261261Y-93706738D01*
X104144203Y-93619110D01*
X104007205Y-93568011D01*
X103976919Y-93564755D01*
X103946638Y-93561500D01*
X102149362Y-93561500D01*
X102122445Y-93564393D01*
X102088794Y-93568011D01*
X101951796Y-93619110D01*
X101834738Y-93706738D01*
X101747110Y-93823796D01*
X101696011Y-93960794D01*
X101689500Y-94021366D01*
X101689500Y-95818634D01*
X100500500Y-95818634D01*
X100500500Y-91593113D01*
X122054501Y-91593113D01*
X122074456Y-91821197D01*
X122133717Y-92042359D01*
X122230474Y-92249857D01*
X122230476Y-92249859D01*
X122230477Y-92249862D01*
X122361802Y-92437413D01*
X122361805Y-92437416D01*
X122509339Y-92584950D01*
X122540635Y-92637696D01*
X122542824Y-92698988D01*
X122515372Y-92753833D01*
X122464993Y-92788812D01*
X122321796Y-92842223D01*
X122204738Y-92929851D01*
X122117110Y-93046909D01*
X122066011Y-93183907D01*
X122059500Y-93244479D01*
X122059500Y-94941747D01*
X122066011Y-95002318D01*
X122117110Y-95139316D01*
X122204738Y-95256374D01*
X122321796Y-95344002D01*
X122458794Y-95395101D01*
X122458797Y-95395101D01*
X122458799Y-95395102D01*
X122519362Y-95401613D01*
X124216634Y-95401613D01*
X124216638Y-95401613D01*
X124277201Y-95395102D01*
X124277203Y-95395101D01*
X124277205Y-95395101D01*
X124355124Y-95366037D01*
X124414204Y-95344002D01*
X124531261Y-95256374D01*
X124618889Y-95139317D01*
X124669989Y-95002314D01*
X124676500Y-94941751D01*
X124676500Y-93395999D01*
X126264496Y-93395999D01*
X126284458Y-93585929D01*
X126343472Y-93767556D01*
X126438957Y-93932941D01*
X126438960Y-93932944D01*
X126566747Y-94074866D01*
X126681171Y-94158000D01*
X126721248Y-94187118D01*
X126895714Y-94264795D01*
X127082511Y-94304500D01*
X127082513Y-94304500D01*
X127273487Y-94304500D01*
X127273489Y-94304500D01*
X127460285Y-94264795D01*
X127460286Y-94264794D01*
X127460288Y-94264794D01*
X127634752Y-94187118D01*
X127789253Y-94074866D01*
X127820076Y-94040634D01*
X128613500Y-94040634D01*
X128620011Y-94101205D01*
X128671110Y-94238203D01*
X128758738Y-94355261D01*
X128875796Y-94442889D01*
X129012794Y-94493988D01*
X129012797Y-94493988D01*
X129012799Y-94493989D01*
X129073362Y-94500500D01*
X130870634Y-94500500D01*
X130870638Y-94500500D01*
X130931201Y-94493989D01*
X130931203Y-94493988D01*
X130931205Y-94493988D01*
X131009124Y-94464924D01*
X131068204Y-94442889D01*
X131185261Y-94355261D01*
X131272889Y-94238204D01*
X131323989Y-94101201D01*
X131330500Y-94040638D01*
X131330500Y-92634000D01*
X134500501Y-92634000D01*
X134520456Y-92862084D01*
X134536971Y-92923717D01*
X134563960Y-93024443D01*
X134579717Y-93083246D01*
X134676474Y-93290744D01*
X134676476Y-93290746D01*
X134676477Y-93290749D01*
X134807802Y-93478300D01*
X134969700Y-93640198D01*
X135157251Y-93771523D01*
X135364757Y-93868284D01*
X135585913Y-93927543D01*
X135814000Y-93947498D01*
X136042087Y-93927543D01*
X136263243Y-93868284D01*
X136470749Y-93771523D01*
X136658300Y-93640198D01*
X136820198Y-93478300D01*
X136951523Y-93290749D01*
X137048284Y-93083243D01*
X137107543Y-92862087D01*
X137127498Y-92634000D01*
X144660501Y-92634000D01*
X144680456Y-92862084D01*
X144696971Y-92923717D01*
X144723960Y-93024443D01*
X144739717Y-93083246D01*
X144836474Y-93290744D01*
X144836476Y-93290746D01*
X144836477Y-93290749D01*
X144967802Y-93478300D01*
X145129700Y-93640198D01*
X145317251Y-93771523D01*
X145524757Y-93868284D01*
X145745913Y-93927543D01*
X145974000Y-93947498D01*
X146202087Y-93927543D01*
X146423243Y-93868284D01*
X146598343Y-93786634D01*
X149441500Y-93786634D01*
X149448011Y-93847205D01*
X149499110Y-93984203D01*
X149586738Y-94101261D01*
X149703796Y-94188889D01*
X149840794Y-94239988D01*
X149840797Y-94239988D01*
X149840799Y-94239989D01*
X149901362Y-94246500D01*
X151698634Y-94246500D01*
X151698638Y-94246500D01*
X151759201Y-94239989D01*
X151759203Y-94239988D01*
X151759205Y-94239988D01*
X151837124Y-94210924D01*
X151896204Y-94188889D01*
X152013261Y-94101261D01*
X152100889Y-93984204D01*
X152122924Y-93925124D01*
X152151988Y-93847205D01*
X152151988Y-93847203D01*
X152151989Y-93847201D01*
X152158500Y-93786638D01*
X152158500Y-93786634D01*
X155029500Y-93786634D01*
X155036011Y-93847205D01*
X155087110Y-93984203D01*
X155174738Y-94101261D01*
X155291796Y-94188889D01*
X155428794Y-94239988D01*
X155428797Y-94239988D01*
X155428799Y-94239989D01*
X155489362Y-94246500D01*
X157286634Y-94246500D01*
X157286638Y-94246500D01*
X157347201Y-94239989D01*
X157347203Y-94239988D01*
X157347205Y-94239988D01*
X157425124Y-94210924D01*
X157484204Y-94188889D01*
X157601261Y-94101261D01*
X157646646Y-94040634D01*
X161125500Y-94040634D01*
X161132011Y-94101205D01*
X161183110Y-94238203D01*
X161270738Y-94355261D01*
X161387796Y-94442889D01*
X161524794Y-94493988D01*
X161524797Y-94493988D01*
X161524799Y-94493989D01*
X161585362Y-94500500D01*
X163382634Y-94500500D01*
X163382638Y-94500500D01*
X163443201Y-94493989D01*
X163443203Y-94493988D01*
X163443205Y-94493988D01*
X163521124Y-94464924D01*
X163580204Y-94442889D01*
X163697261Y-94355261D01*
X163784889Y-94238204D01*
X163835989Y-94101201D01*
X163842500Y-94040638D01*
X163842500Y-92243362D01*
X163835989Y-92182799D01*
X163835988Y-92182797D01*
X163835988Y-92182794D01*
X163784889Y-92045796D01*
X163697261Y-91928738D01*
X163580203Y-91841110D01*
X163443205Y-91790011D01*
X163412919Y-91786755D01*
X163382638Y-91783500D01*
X161585362Y-91783500D01*
X161558445Y-91786393D01*
X161524794Y-91790011D01*
X161387796Y-91841110D01*
X161270738Y-91928738D01*
X161183110Y-92045796D01*
X161132011Y-92182794D01*
X161125500Y-92243366D01*
X161125500Y-94040634D01*
X157646646Y-94040634D01*
X157688889Y-93984204D01*
X157710924Y-93925124D01*
X157739988Y-93847205D01*
X157739988Y-93847203D01*
X157739989Y-93847201D01*
X157746500Y-93786638D01*
X157746500Y-91989362D01*
X157739989Y-91928799D01*
X157739988Y-91928797D01*
X157739988Y-91928794D01*
X157688889Y-91791796D01*
X157601261Y-91674738D01*
X157484203Y-91587110D01*
X157347205Y-91536011D01*
X157316919Y-91532755D01*
X157286638Y-91529500D01*
X155489362Y-91529500D01*
X155462445Y-91532393D01*
X155428794Y-91536011D01*
X155291796Y-91587110D01*
X155174738Y-91674738D01*
X155087110Y-91791796D01*
X155036011Y-91928794D01*
X155029500Y-91989366D01*
X155029500Y-93786634D01*
X152158500Y-93786634D01*
X152158500Y-91989362D01*
X152151989Y-91928799D01*
X152151988Y-91928797D01*
X152151988Y-91928794D01*
X152100889Y-91791796D01*
X152013261Y-91674738D01*
X151896203Y-91587110D01*
X151759205Y-91536011D01*
X151728919Y-91532755D01*
X151698638Y-91529500D01*
X149901362Y-91529500D01*
X149874445Y-91532393D01*
X149840794Y-91536011D01*
X149703796Y-91587110D01*
X149586738Y-91674738D01*
X149499110Y-91791796D01*
X149448011Y-91928794D01*
X149441500Y-91989366D01*
X149441500Y-93786634D01*
X146598343Y-93786634D01*
X146630749Y-93771523D01*
X146818300Y-93640198D01*
X146980198Y-93478300D01*
X147111523Y-93290749D01*
X147208284Y-93083243D01*
X147267543Y-92862087D01*
X147287498Y-92634000D01*
X147267543Y-92405913D01*
X147208284Y-92184757D01*
X147117172Y-91989366D01*
X147111525Y-91977255D01*
X147111524Y-91977254D01*
X147111523Y-91977251D01*
X146980198Y-91789700D01*
X146818300Y-91627802D01*
X146630749Y-91496477D01*
X146630746Y-91496476D01*
X146630744Y-91496474D01*
X146423246Y-91399717D01*
X146423243Y-91399716D01*
X146293779Y-91365026D01*
X146202084Y-91340456D01*
X145973999Y-91320501D01*
X145745915Y-91340456D01*
X145524753Y-91399717D01*
X145317255Y-91496474D01*
X145129696Y-91627805D01*
X144967805Y-91789696D01*
X144967802Y-91789699D01*
X144967802Y-91789700D01*
X144931804Y-91841110D01*
X144836474Y-91977255D01*
X144739717Y-92184753D01*
X144680456Y-92405915D01*
X144660501Y-92634000D01*
X137127498Y-92634000D01*
X137107543Y-92405913D01*
X137048284Y-92184757D01*
X136957172Y-91989366D01*
X136951525Y-91977255D01*
X136951524Y-91977254D01*
X136951523Y-91977251D01*
X136820198Y-91789700D01*
X136658300Y-91627802D01*
X136470749Y-91496477D01*
X136470746Y-91496476D01*
X136470744Y-91496474D01*
X136263246Y-91399717D01*
X136263243Y-91399716D01*
X136133779Y-91365026D01*
X136042084Y-91340456D01*
X135813999Y-91320501D01*
X135585915Y-91340456D01*
X135364753Y-91399717D01*
X135157255Y-91496474D01*
X134969696Y-91627805D01*
X134807805Y-91789696D01*
X134807802Y-91789699D01*
X134807802Y-91789700D01*
X134771804Y-91841110D01*
X134676474Y-91977255D01*
X134579717Y-92184753D01*
X134520456Y-92405915D01*
X134500501Y-92634000D01*
X131330500Y-92634000D01*
X131330500Y-92243362D01*
X131323989Y-92182799D01*
X131323988Y-92182797D01*
X131323988Y-92182794D01*
X131272889Y-92045796D01*
X131185261Y-91928738D01*
X131068203Y-91841110D01*
X130931205Y-91790011D01*
X130900919Y-91786755D01*
X130870638Y-91783500D01*
X129073362Y-91783500D01*
X129046445Y-91786393D01*
X129012794Y-91790011D01*
X128875796Y-91841110D01*
X128758738Y-91928738D01*
X128671110Y-92045796D01*
X128620011Y-92182794D01*
X128613500Y-92243366D01*
X128613500Y-94040634D01*
X127820076Y-94040634D01*
X127917040Y-93932944D01*
X127920159Y-93927543D01*
X128012527Y-93767556D01*
X128053908Y-93640198D01*
X128071542Y-93585928D01*
X128091504Y-93396000D01*
X128071542Y-93206072D01*
X128031632Y-93083243D01*
X128012527Y-93024443D01*
X127917042Y-92859058D01*
X127897442Y-92837291D01*
X127789253Y-92717134D01*
X127634752Y-92604882D01*
X127634751Y-92604881D01*
X127460285Y-92527204D01*
X127273489Y-92487500D01*
X127273487Y-92487500D01*
X127082513Y-92487500D01*
X127082511Y-92487500D01*
X126895714Y-92527204D01*
X126721248Y-92604881D01*
X126566748Y-92717133D01*
X126438957Y-92859058D01*
X126343472Y-93024443D01*
X126284458Y-93206070D01*
X126264496Y-93395999D01*
X124676500Y-93395999D01*
X124676500Y-93244475D01*
X124669989Y-93183912D01*
X124669988Y-93183910D01*
X124669988Y-93183907D01*
X124618889Y-93046909D01*
X124531261Y-92929851D01*
X124414204Y-92842223D01*
X124271006Y-92788812D01*
X124220627Y-92753833D01*
X124193175Y-92698988D01*
X124195364Y-92637696D01*
X124226657Y-92584953D01*
X124374198Y-92437413D01*
X124505523Y-92249862D01*
X124602284Y-92042356D01*
X124661543Y-91821200D01*
X124681498Y-91593113D01*
X124661543Y-91365026D01*
X124602284Y-91143870D01*
X124505523Y-90936364D01*
X124374198Y-90748813D01*
X124212300Y-90586915D01*
X124024749Y-90455590D01*
X124024746Y-90455589D01*
X124024744Y-90455587D01*
X123817246Y-90358830D01*
X123817243Y-90358829D01*
X123706664Y-90329199D01*
X123596084Y-90299569D01*
X123368000Y-90279614D01*
X123139915Y-90299569D01*
X122918753Y-90358830D01*
X122711255Y-90455587D01*
X122711250Y-90455590D01*
X122711251Y-90455590D01*
X122525660Y-90585543D01*
X122523696Y-90586918D01*
X122361805Y-90748809D01*
X122230474Y-90936368D01*
X122133717Y-91143866D01*
X122074456Y-91365028D01*
X122054501Y-91593113D01*
X100500500Y-91593113D01*
X100500500Y-89292000D01*
X106306501Y-89292000D01*
X106326456Y-89520084D01*
X106385717Y-89741246D01*
X106482474Y-89948744D01*
X106482476Y-89948746D01*
X106482477Y-89948749D01*
X106613802Y-90136300D01*
X106775700Y-90298198D01*
X106963251Y-90429523D01*
X107170757Y-90526284D01*
X107391913Y-90585543D01*
X107543971Y-90598846D01*
X107619999Y-90605498D01*
X107619999Y-90605497D01*
X107620000Y-90605498D01*
X107848087Y-90585543D01*
X108069243Y-90526284D01*
X108276749Y-90429523D01*
X108464300Y-90298198D01*
X108626198Y-90136300D01*
X108757523Y-89948749D01*
X108854284Y-89741243D01*
X108913543Y-89520087D01*
X108933498Y-89292000D01*
X108913543Y-89063913D01*
X108854284Y-88842757D01*
X108791793Y-88708744D01*
X108757525Y-88635255D01*
X108757524Y-88635254D01*
X108757523Y-88635251D01*
X108626198Y-88447700D01*
X108464300Y-88285802D01*
X108276749Y-88154477D01*
X108276746Y-88154476D01*
X108276744Y-88154474D01*
X108069246Y-88057717D01*
X108069243Y-88057716D01*
X108047911Y-88052000D01*
X128394501Y-88052000D01*
X128414456Y-88280084D01*
X128473717Y-88501246D01*
X128570474Y-88708744D01*
X128570476Y-88708746D01*
X128570477Y-88708749D01*
X128701802Y-88896300D01*
X128863700Y-89058198D01*
X129051251Y-89189523D01*
X129258757Y-89286284D01*
X129479913Y-89345543D01*
X129708000Y-89365498D01*
X129936087Y-89345543D01*
X130157243Y-89286284D01*
X130364749Y-89189523D01*
X130552300Y-89058198D01*
X130714198Y-88896300D01*
X130845523Y-88708749D01*
X130942284Y-88501243D01*
X131001543Y-88280087D01*
X131021498Y-88052000D01*
X131001543Y-87823913D01*
X130942284Y-87602757D01*
X130845523Y-87395251D01*
X130714198Y-87207700D01*
X130552300Y-87045802D01*
X130364749Y-86914477D01*
X130364748Y-86914476D01*
X130364746Y-86914475D01*
X130311598Y-86889692D01*
X130259422Y-86843934D01*
X130240003Y-86777309D01*
X130259423Y-86710683D01*
X130311600Y-86664927D01*
X130360481Y-86642133D01*
X130546819Y-86511658D01*
X130707658Y-86350819D01*
X130838134Y-86164480D01*
X130934266Y-85958326D01*
X130986872Y-85762000D01*
X128429128Y-85762000D01*
X128481733Y-85958326D01*
X128577865Y-86164480D01*
X128708341Y-86350819D01*
X128869180Y-86511658D01*
X129055516Y-86642132D01*
X129104400Y-86664927D01*
X129156576Y-86710684D01*
X129175996Y-86777309D01*
X129156577Y-86843934D01*
X129104402Y-86889691D01*
X129051256Y-86914474D01*
X129051255Y-86914475D01*
X129051251Y-86914477D01*
X128863700Y-87045802D01*
X128863696Y-87045805D01*
X128701805Y-87207696D01*
X128570474Y-87395255D01*
X128473717Y-87602753D01*
X128414456Y-87823915D01*
X128394501Y-88052000D01*
X108047911Y-88052000D01*
X107951192Y-88026084D01*
X107848084Y-87998456D01*
X107620000Y-87978501D01*
X107391915Y-87998456D01*
X107170753Y-88057717D01*
X106963255Y-88154474D01*
X106775696Y-88285805D01*
X106613805Y-88447696D01*
X106482474Y-88635255D01*
X106385717Y-88842753D01*
X106326456Y-89063915D01*
X106306501Y-89292000D01*
X100500500Y-89292000D01*
X100500500Y-84292000D01*
X106306501Y-84292000D01*
X106326456Y-84520084D01*
X106326457Y-84520087D01*
X106367478Y-84673180D01*
X106385717Y-84741246D01*
X106482474Y-84948744D01*
X106482476Y-84948746D01*
X106482477Y-84948749D01*
X106613802Y-85136300D01*
X106775700Y-85298198D01*
X106963251Y-85429523D01*
X107170757Y-85526284D01*
X107391913Y-85585543D01*
X107620000Y-85605498D01*
X107848087Y-85585543D01*
X108069243Y-85526284D01*
X108099875Y-85512000D01*
X136014501Y-85512000D01*
X136034456Y-85740084D01*
X136055279Y-85817794D01*
X136092934Y-85958326D01*
X136093717Y-85961246D01*
X136190474Y-86168744D01*
X136190476Y-86168746D01*
X136190477Y-86168749D01*
X136321802Y-86356300D01*
X136483700Y-86518198D01*
X136491364Y-86523565D01*
X136530502Y-86568405D01*
X136544237Y-86626318D01*
X136529405Y-86683959D01*
X136489422Y-86728049D01*
X136433501Y-86748429D01*
X136418799Y-86750009D01*
X136281796Y-86801110D01*
X136164738Y-86888738D01*
X136077110Y-87005796D01*
X136026011Y-87142794D01*
X136019500Y-87203366D01*
X136019500Y-88900634D01*
X136026011Y-88961205D01*
X136077110Y-89098203D01*
X136164738Y-89215261D01*
X136281796Y-89302889D01*
X136418794Y-89353988D01*
X136418797Y-89353988D01*
X136418799Y-89353989D01*
X136479362Y-89360500D01*
X138176634Y-89360500D01*
X138176638Y-89360500D01*
X138237201Y-89353989D01*
X138237203Y-89353988D01*
X138237205Y-89353988D01*
X138315124Y-89324924D01*
X138374204Y-89302889D01*
X138491261Y-89215261D01*
X138578889Y-89098204D01*
X138629989Y-88961201D01*
X138636500Y-88900638D01*
X138636500Y-87797999D01*
X142110501Y-87797999D01*
X142130456Y-88026084D01*
X142189717Y-88247246D01*
X142286474Y-88454744D01*
X142286476Y-88454746D01*
X142286477Y-88454749D01*
X142417802Y-88642300D01*
X142579700Y-88804198D01*
X142767251Y-88935523D01*
X142767254Y-88935524D01*
X142767255Y-88935525D01*
X142822447Y-88961261D01*
X142974757Y-89032284D01*
X143195913Y-89091543D01*
X143424000Y-89111498D01*
X143652087Y-89091543D01*
X143873243Y-89032284D01*
X144080749Y-88935523D01*
X144268300Y-88804198D01*
X144430198Y-88642300D01*
X144561523Y-88454749D01*
X144658284Y-88247243D01*
X144717543Y-88026087D01*
X144737498Y-87798000D01*
X144717543Y-87569913D01*
X144658284Y-87348757D01*
X144609903Y-87245004D01*
X144561525Y-87141255D01*
X144561524Y-87141254D01*
X144561523Y-87141251D01*
X144430198Y-86953700D01*
X144268300Y-86791802D01*
X144080749Y-86660477D01*
X144080748Y-86660476D01*
X144080746Y-86660475D01*
X144027598Y-86635692D01*
X143975422Y-86589934D01*
X143956003Y-86523309D01*
X143975423Y-86456683D01*
X144027600Y-86410927D01*
X144076481Y-86388133D01*
X144262819Y-86257658D01*
X144423658Y-86096819D01*
X144554134Y-85910480D01*
X144650266Y-85704326D01*
X144702872Y-85508000D01*
X142145128Y-85508000D01*
X142197733Y-85704326D01*
X142293865Y-85910480D01*
X142424341Y-86096819D01*
X142585180Y-86257658D01*
X142771516Y-86388132D01*
X142820400Y-86410927D01*
X142872576Y-86456684D01*
X142891996Y-86523309D01*
X142872577Y-86589934D01*
X142820402Y-86635691D01*
X142767256Y-86660474D01*
X142767255Y-86660475D01*
X142767251Y-86660477D01*
X142600398Y-86777309D01*
X142579696Y-86791805D01*
X142417805Y-86953696D01*
X142286474Y-87141255D01*
X142189717Y-87348753D01*
X142130456Y-87569915D01*
X142110501Y-87797999D01*
X138636500Y-87797999D01*
X138636500Y-87203362D01*
X138629989Y-87142799D01*
X138629988Y-87142797D01*
X138629988Y-87142794D01*
X138578889Y-87005796D01*
X138491261Y-86888738D01*
X138374203Y-86801110D01*
X138237201Y-86750010D01*
X138222498Y-86748429D01*
X138166576Y-86728049D01*
X138126594Y-86683958D01*
X138111762Y-86626316D01*
X138125498Y-86568402D01*
X138164635Y-86523564D01*
X138172300Y-86518198D01*
X138334198Y-86356300D01*
X138465523Y-86168749D01*
X138562284Y-85961243D01*
X138621543Y-85740087D01*
X138641498Y-85512000D01*
X138621543Y-85283913D01*
X138614599Y-85257999D01*
X149730501Y-85257999D01*
X149750456Y-85486084D01*
X149757400Y-85511999D01*
X149808934Y-85704326D01*
X149809717Y-85707246D01*
X149906474Y-85914744D01*
X149906476Y-85914746D01*
X149906477Y-85914749D01*
X150037802Y-86102300D01*
X150199700Y-86264198D01*
X150207364Y-86269565D01*
X150246502Y-86314405D01*
X150260237Y-86372318D01*
X150245405Y-86429959D01*
X150205422Y-86474049D01*
X150149501Y-86494429D01*
X150134799Y-86496009D01*
X149997796Y-86547110D01*
X149880738Y-86634738D01*
X149793110Y-86751796D01*
X149742011Y-86888794D01*
X149735500Y-86949366D01*
X149735500Y-88646634D01*
X149742011Y-88707205D01*
X149793110Y-88844203D01*
X149880738Y-88961261D01*
X149997796Y-89048889D01*
X150134794Y-89099988D01*
X150134797Y-89099988D01*
X150134799Y-89099989D01*
X150195362Y-89106500D01*
X151892634Y-89106500D01*
X151892638Y-89106500D01*
X151953201Y-89099989D01*
X151953203Y-89099988D01*
X151953205Y-89099988D01*
X152049918Y-89063915D01*
X152090204Y-89048889D01*
X152207261Y-88961261D01*
X152294889Y-88844204D01*
X152345412Y-88708749D01*
X152345988Y-88707205D01*
X152345988Y-88707203D01*
X152345989Y-88707201D01*
X152352500Y-88646638D01*
X152352500Y-86949362D01*
X152345989Y-86888799D01*
X152345988Y-86888797D01*
X152345988Y-86888794D01*
X152294889Y-86751796D01*
X152207261Y-86634738D01*
X152090203Y-86547110D01*
X151953201Y-86496010D01*
X151938498Y-86494429D01*
X151882576Y-86474049D01*
X151842594Y-86429958D01*
X151827762Y-86372316D01*
X151841498Y-86314402D01*
X151880635Y-86269564D01*
X151888300Y-86264198D01*
X152050198Y-86102300D01*
X152181523Y-85914749D01*
X152278284Y-85707243D01*
X152337543Y-85486087D01*
X152357498Y-85258000D01*
X152337543Y-85029913D01*
X152278284Y-84808757D01*
X152215064Y-84673180D01*
X152181525Y-84601255D01*
X152181524Y-84601254D01*
X152181523Y-84601251D01*
X152050198Y-84413700D01*
X151888300Y-84251802D01*
X151867161Y-84237000D01*
X156720843Y-84237000D01*
X156739435Y-84461363D01*
X156739435Y-84461366D01*
X156739436Y-84461368D01*
X156793074Y-84673180D01*
X156794705Y-84679618D01*
X156885138Y-84885788D01*
X157008281Y-85074273D01*
X157153489Y-85232009D01*
X157182263Y-85284761D01*
X157182856Y-85344848D01*
X157155129Y-85398158D01*
X157105595Y-85432173D01*
X156987795Y-85476111D01*
X156870738Y-85563738D01*
X156783110Y-85680796D01*
X156732011Y-85817794D01*
X156725500Y-85878366D01*
X156725500Y-87675634D01*
X156732011Y-87736205D01*
X156783110Y-87873203D01*
X156870738Y-87990261D01*
X156987796Y-88077889D01*
X157124794Y-88128988D01*
X157124797Y-88128988D01*
X157124799Y-88128989D01*
X157185362Y-88135500D01*
X158982634Y-88135500D01*
X158982638Y-88135500D01*
X159043201Y-88128989D01*
X159043203Y-88128988D01*
X159043205Y-88128988D01*
X159121124Y-88099924D01*
X159180204Y-88077889D01*
X159297261Y-87990261D01*
X159384889Y-87873204D01*
X159435989Y-87736201D01*
X159442500Y-87675638D01*
X159442500Y-85878362D01*
X159435989Y-85817799D01*
X159435988Y-85817797D01*
X159435988Y-85817794D01*
X159384889Y-85680796D01*
X159297261Y-85563738D01*
X159180203Y-85476110D01*
X159062405Y-85432173D01*
X159012870Y-85398158D01*
X158985143Y-85344848D01*
X158985736Y-85284761D01*
X159014508Y-85232009D01*
X159159722Y-85074268D01*
X159282860Y-84885791D01*
X159373296Y-84679616D01*
X159428564Y-84461368D01*
X159447156Y-84237000D01*
X159428564Y-84012632D01*
X159373296Y-83794384D01*
X159282860Y-83588209D01*
X159159722Y-83399732D01*
X159007240Y-83234094D01*
X158868955Y-83126462D01*
X158829575Y-83095810D01*
X158786302Y-83072392D01*
X158740663Y-83029842D01*
X158721525Y-82970452D01*
X158733734Y-82909261D01*
X158774198Y-82861763D01*
X158955078Y-82735109D01*
X159122106Y-82568081D01*
X159257600Y-82374576D01*
X159357430Y-82160492D01*
X159414636Y-81947000D01*
X156753364Y-81947000D01*
X156810569Y-82160492D01*
X156910399Y-82374576D01*
X157045893Y-82568081D01*
X157212918Y-82735106D01*
X157393802Y-82861763D01*
X157434265Y-82909261D01*
X157446474Y-82970452D01*
X157427336Y-83029842D01*
X157381698Y-83072392D01*
X157338422Y-83095812D01*
X157160760Y-83234094D01*
X157008279Y-83399730D01*
X156885138Y-83588211D01*
X156805437Y-83769915D01*
X156794704Y-83794384D01*
X156761359Y-83926061D01*
X156739435Y-84012636D01*
X156720843Y-84237000D01*
X151867161Y-84237000D01*
X151700749Y-84120477D01*
X151667708Y-84105070D01*
X151657655Y-84100382D01*
X151605479Y-84054625D01*
X151586059Y-83988000D01*
X151605479Y-83921375D01*
X151657655Y-83875618D01*
X151660882Y-83874112D01*
X151700749Y-83855523D01*
X151888300Y-83724198D01*
X152050198Y-83562300D01*
X152181523Y-83374749D01*
X152278284Y-83167243D01*
X152337543Y-82946087D01*
X152357498Y-82718000D01*
X152337543Y-82489913D01*
X152278284Y-82268757D01*
X152227800Y-82160492D01*
X152181525Y-82061255D01*
X152181524Y-82061254D01*
X152181523Y-82061251D01*
X152050198Y-81873700D01*
X151888300Y-81711802D01*
X151700749Y-81580477D01*
X151657655Y-81560382D01*
X151605479Y-81514625D01*
X151586059Y-81448000D01*
X151586350Y-81447000D01*
X156753364Y-81447000D01*
X157834000Y-81447000D01*
X157834000Y-80366364D01*
X158334000Y-80366364D01*
X158334000Y-81447000D01*
X159414636Y-81447000D01*
X159414635Y-81446999D01*
X159357430Y-81233507D01*
X159257599Y-81019421D01*
X159122109Y-80825921D01*
X158955081Y-80658893D01*
X158761576Y-80523399D01*
X158547492Y-80423569D01*
X158334000Y-80366364D01*
X157834000Y-80366364D01*
X157833999Y-80366364D01*
X157620507Y-80423569D01*
X157406421Y-80523400D01*
X157212921Y-80658890D01*
X157045890Y-80825921D01*
X156910400Y-81019421D01*
X156810569Y-81233507D01*
X156753364Y-81446999D01*
X156753364Y-81447000D01*
X151586350Y-81447000D01*
X151605479Y-81381375D01*
X151657655Y-81335618D01*
X151660882Y-81334112D01*
X151700749Y-81315523D01*
X151888300Y-81184198D01*
X152050198Y-81022300D01*
X152181523Y-80834749D01*
X152278284Y-80627243D01*
X152337543Y-80406087D01*
X152357498Y-80178000D01*
X152337543Y-79949913D01*
X152278284Y-79728757D01*
X152229903Y-79625004D01*
X152181525Y-79521255D01*
X152181524Y-79521254D01*
X152181523Y-79521251D01*
X152050198Y-79333700D01*
X151888300Y-79171802D01*
X151700749Y-79040477D01*
X151700746Y-79040476D01*
X151700744Y-79040474D01*
X151493246Y-78943717D01*
X151493243Y-78943716D01*
X151382664Y-78914086D01*
X151272084Y-78884456D01*
X151044000Y-78864501D01*
X150815915Y-78884456D01*
X150594753Y-78943717D01*
X150387255Y-79040474D01*
X150387250Y-79040477D01*
X150387251Y-79040477D01*
X150247322Y-79138457D01*
X150199696Y-79171805D01*
X150037805Y-79333696D01*
X149906474Y-79521255D01*
X149809717Y-79728753D01*
X149750456Y-79949915D01*
X149730501Y-80177999D01*
X149750456Y-80406084D01*
X149809717Y-80627246D01*
X149906474Y-80834744D01*
X149906476Y-80834746D01*
X149906477Y-80834749D01*
X150037802Y-81022300D01*
X150199700Y-81184198D01*
X150387251Y-81315523D01*
X150427334Y-81334214D01*
X150430345Y-81335618D01*
X150482521Y-81381375D01*
X150501940Y-81448000D01*
X150482521Y-81514625D01*
X150430344Y-81560382D01*
X150387251Y-81580477D01*
X150213699Y-81702000D01*
X150199696Y-81711805D01*
X150037805Y-81873696D01*
X149906474Y-82061255D01*
X149809717Y-82268753D01*
X149750456Y-82489915D01*
X149730501Y-82717999D01*
X149750456Y-82946084D01*
X149772899Y-83029842D01*
X149806295Y-83154477D01*
X149809717Y-83167246D01*
X149906474Y-83374744D01*
X149906476Y-83374746D01*
X149906477Y-83374749D01*
X150037802Y-83562300D01*
X150199700Y-83724198D01*
X150387251Y-83855523D01*
X150430345Y-83875618D01*
X150482520Y-83921372D01*
X150501940Y-83987997D01*
X150482522Y-84054622D01*
X150430347Y-84100380D01*
X150387254Y-84120475D01*
X150387251Y-84120476D01*
X150387251Y-84120477D01*
X150207007Y-84246686D01*
X150199696Y-84251805D01*
X150037805Y-84413696D01*
X150037802Y-84413699D01*
X150037802Y-84413700D01*
X149980039Y-84496194D01*
X149906474Y-84601255D01*
X149809717Y-84808753D01*
X149750456Y-85029915D01*
X149730501Y-85257999D01*
X138614599Y-85257999D01*
X138562284Y-85062757D01*
X138465523Y-84855251D01*
X138334198Y-84667700D01*
X138172300Y-84505802D01*
X137984749Y-84374477D01*
X137951708Y-84359070D01*
X137941655Y-84354382D01*
X137889479Y-84308625D01*
X137870059Y-84242000D01*
X137889479Y-84175375D01*
X137941655Y-84129618D01*
X137945416Y-84127864D01*
X137984749Y-84109523D01*
X138172300Y-83978198D01*
X138334198Y-83816300D01*
X138465523Y-83628749D01*
X138562284Y-83421243D01*
X138621543Y-83200087D01*
X138640623Y-82982000D01*
X139472496Y-82982000D01*
X139492458Y-83171929D01*
X139551472Y-83353556D01*
X139646957Y-83518941D01*
X139646960Y-83518944D01*
X139774747Y-83660866D01*
X139861916Y-83724198D01*
X139929248Y-83773118D01*
X140103714Y-83850795D01*
X140290511Y-83890500D01*
X140290513Y-83890500D01*
X140481487Y-83890500D01*
X140481489Y-83890500D01*
X140668285Y-83850795D01*
X140668286Y-83850794D01*
X140668288Y-83850794D01*
X140842752Y-83773118D01*
X140997253Y-83660866D01*
X141125040Y-83518944D01*
X141141752Y-83489999D01*
X141220527Y-83353556D01*
X141250304Y-83261913D01*
X141279542Y-83171928D01*
X141299504Y-82982000D01*
X141279542Y-82792072D01*
X141255474Y-82717999D01*
X142110501Y-82717999D01*
X142130456Y-82946084D01*
X142152899Y-83029842D01*
X142186295Y-83154477D01*
X142189717Y-83167246D01*
X142286474Y-83374744D01*
X142286476Y-83374746D01*
X142286477Y-83374749D01*
X142417802Y-83562300D01*
X142579700Y-83724198D01*
X142767251Y-83855523D01*
X142820401Y-83880307D01*
X142872576Y-83926061D01*
X142891996Y-83992686D01*
X142872578Y-84059311D01*
X142820403Y-84105069D01*
X142771520Y-84127864D01*
X142585180Y-84258341D01*
X142424341Y-84419180D01*
X142293865Y-84605519D01*
X142197733Y-84811673D01*
X142145128Y-85007999D01*
X142145128Y-85008000D01*
X144702872Y-85008000D01*
X144702871Y-85007999D01*
X144650266Y-84811673D01*
X144554134Y-84605519D01*
X144423658Y-84419180D01*
X144262819Y-84258341D01*
X144076482Y-84127866D01*
X144027597Y-84105070D01*
X143975422Y-84059312D01*
X143956003Y-83992686D01*
X143975424Y-83926061D01*
X144027596Y-83880308D01*
X144080749Y-83855523D01*
X144268300Y-83724198D01*
X144430198Y-83562300D01*
X144561523Y-83374749D01*
X144658284Y-83167243D01*
X144717543Y-82946087D01*
X144737498Y-82718000D01*
X144717543Y-82489913D01*
X144658284Y-82268757D01*
X144607800Y-82160492D01*
X144561525Y-82061255D01*
X144561524Y-82061254D01*
X144561523Y-82061251D01*
X144430198Y-81873700D01*
X144268300Y-81711802D01*
X144080749Y-81580477D01*
X144037655Y-81560382D01*
X143985479Y-81514625D01*
X143966059Y-81448000D01*
X143985479Y-81381375D01*
X144037655Y-81335618D01*
X144040882Y-81334112D01*
X144080749Y-81315523D01*
X144268300Y-81184198D01*
X144430198Y-81022300D01*
X144561523Y-80834749D01*
X144658284Y-80627243D01*
X144717543Y-80406087D01*
X144737498Y-80178000D01*
X144717543Y-79949913D01*
X144658284Y-79728757D01*
X144609903Y-79625004D01*
X144561525Y-79521255D01*
X144561524Y-79521254D01*
X144561523Y-79521251D01*
X144430198Y-79333700D01*
X144268300Y-79171802D01*
X144080749Y-79040477D01*
X144080746Y-79040476D01*
X144080744Y-79040474D01*
X143873246Y-78943717D01*
X143873243Y-78943716D01*
X143762664Y-78914086D01*
X143652084Y-78884456D01*
X143424000Y-78864501D01*
X143195915Y-78884456D01*
X142974753Y-78943717D01*
X142767255Y-79040474D01*
X142767250Y-79040477D01*
X142767251Y-79040477D01*
X142627322Y-79138457D01*
X142579696Y-79171805D01*
X142417805Y-79333696D01*
X142286474Y-79521255D01*
X142189717Y-79728753D01*
X142130456Y-79949915D01*
X142110501Y-80177999D01*
X142130456Y-80406084D01*
X142189717Y-80627246D01*
X142286474Y-80834744D01*
X142286476Y-80834746D01*
X142286477Y-80834749D01*
X142417802Y-81022300D01*
X142579700Y-81184198D01*
X142767251Y-81315523D01*
X142807334Y-81334214D01*
X142810345Y-81335618D01*
X142862521Y-81381375D01*
X142881940Y-81448000D01*
X142862521Y-81514625D01*
X142810344Y-81560382D01*
X142767251Y-81580477D01*
X142593699Y-81702000D01*
X142579696Y-81711805D01*
X142417805Y-81873696D01*
X142286474Y-82061255D01*
X142189717Y-82268753D01*
X142130456Y-82489915D01*
X142110501Y-82717999D01*
X141255474Y-82717999D01*
X141244590Y-82684501D01*
X141220527Y-82610443D01*
X141125042Y-82445058D01*
X141105442Y-82423291D01*
X140997253Y-82303134D01*
X140900901Y-82233130D01*
X140842751Y-82190881D01*
X140668285Y-82113204D01*
X140481489Y-82073500D01*
X140481487Y-82073500D01*
X140290513Y-82073500D01*
X140290511Y-82073500D01*
X140103714Y-82113204D01*
X139929248Y-82190881D01*
X139774748Y-82303133D01*
X139646957Y-82445058D01*
X139551472Y-82610443D01*
X139492458Y-82792070D01*
X139472496Y-82982000D01*
X138640623Y-82982000D01*
X138641498Y-82972000D01*
X138621543Y-82743913D01*
X138562284Y-82522757D01*
X138465523Y-82315251D01*
X138334198Y-82127700D01*
X138172300Y-81965802D01*
X137984749Y-81834477D01*
X137941655Y-81814382D01*
X137889479Y-81768625D01*
X137870059Y-81702000D01*
X137889479Y-81635375D01*
X137941655Y-81589618D01*
X137944882Y-81588112D01*
X137984749Y-81569523D01*
X138172300Y-81438198D01*
X138334198Y-81276300D01*
X138465523Y-81088749D01*
X138562284Y-80881243D01*
X138621543Y-80660087D01*
X138641498Y-80432000D01*
X138621543Y-80203913D01*
X138562284Y-79982757D01*
X138465523Y-79775251D01*
X138334198Y-79587700D01*
X138172300Y-79425802D01*
X137984749Y-79294477D01*
X137984746Y-79294476D01*
X137984744Y-79294474D01*
X137777246Y-79197717D01*
X137777243Y-79197716D01*
X137666664Y-79168086D01*
X137556084Y-79138456D01*
X137328000Y-79118501D01*
X137099915Y-79138456D01*
X136878753Y-79197717D01*
X136671255Y-79294474D01*
X136483696Y-79425805D01*
X136321805Y-79587696D01*
X136190474Y-79775255D01*
X136093717Y-79982753D01*
X136034456Y-80203915D01*
X136014501Y-80432000D01*
X136034456Y-80660084D01*
X136034457Y-80660087D01*
X136078892Y-80825921D01*
X136093717Y-80881246D01*
X136190474Y-81088744D01*
X136190476Y-81088746D01*
X136190477Y-81088749D01*
X136321802Y-81276300D01*
X136483700Y-81438198D01*
X136671251Y-81569523D01*
X136711334Y-81588214D01*
X136714345Y-81589618D01*
X136766521Y-81635375D01*
X136785940Y-81702000D01*
X136766521Y-81768625D01*
X136714344Y-81814382D01*
X136671251Y-81834477D01*
X136615241Y-81873696D01*
X136483696Y-81965805D01*
X136321805Y-82127696D01*
X136190474Y-82315255D01*
X136093717Y-82522753D01*
X136034456Y-82743915D01*
X136014501Y-82972000D01*
X136034456Y-83200084D01*
X136093717Y-83421246D01*
X136190474Y-83628744D01*
X136190476Y-83628746D01*
X136190477Y-83628749D01*
X136321802Y-83816300D01*
X136483700Y-83978198D01*
X136671251Y-84109523D01*
X136710584Y-84127864D01*
X136714345Y-84129618D01*
X136766521Y-84175375D01*
X136785940Y-84242000D01*
X136766521Y-84308625D01*
X136714345Y-84354382D01*
X136671255Y-84374475D01*
X136671251Y-84374477D01*
X136497422Y-84496194D01*
X136483696Y-84505805D01*
X136321805Y-84667696D01*
X136321802Y-84667699D01*
X136321802Y-84667700D01*
X136270304Y-84741246D01*
X136190474Y-84855255D01*
X136093717Y-85062753D01*
X136034456Y-85283915D01*
X136014501Y-85512000D01*
X108099875Y-85512000D01*
X108276749Y-85429523D01*
X108464300Y-85298198D01*
X108626198Y-85136300D01*
X108757523Y-84948749D01*
X108854284Y-84741243D01*
X108913543Y-84520087D01*
X108933498Y-84292000D01*
X108913543Y-84063913D01*
X108895882Y-83998000D01*
X110624501Y-83998000D01*
X110644456Y-84226084D01*
X110651347Y-84251802D01*
X110702934Y-84444326D01*
X110703717Y-84447246D01*
X110800474Y-84654744D01*
X110800476Y-84654746D01*
X110800477Y-84654749D01*
X110931802Y-84842300D01*
X111093700Y-85004198D01*
X111281251Y-85135523D01*
X111281254Y-85135524D01*
X111281255Y-85135525D01*
X111385004Y-85183903D01*
X111488757Y-85232284D01*
X111709913Y-85291543D01*
X111938000Y-85311498D01*
X112166087Y-85291543D01*
X112387243Y-85232284D01*
X112594749Y-85135523D01*
X112678291Y-85077026D01*
X115276526Y-85077026D01*
X115349515Y-85128133D01*
X115555673Y-85224266D01*
X115775397Y-85283141D01*
X116001999Y-85302966D01*
X116228602Y-85283141D01*
X116448326Y-85224266D01*
X116654480Y-85128134D01*
X116727472Y-85077025D01*
X116002001Y-84351553D01*
X116002000Y-84351553D01*
X115276526Y-85077025D01*
X115276526Y-85077026D01*
X112678291Y-85077026D01*
X112782300Y-85004198D01*
X112944198Y-84842300D01*
X113075523Y-84654749D01*
X113172284Y-84447243D01*
X113231543Y-84226087D01*
X113251498Y-83998000D01*
X114697033Y-83998000D01*
X114716858Y-84224602D01*
X114775733Y-84444326D01*
X114871866Y-84650484D01*
X114922972Y-84723471D01*
X114922974Y-84723472D01*
X115648446Y-83998001D01*
X116355553Y-83998001D01*
X117081025Y-84723472D01*
X117132134Y-84650480D01*
X117228266Y-84444326D01*
X117287141Y-84224602D01*
X117306966Y-83998000D01*
X117287141Y-83771397D01*
X117228266Y-83551673D01*
X117199507Y-83490000D01*
X119554501Y-83490000D01*
X119574456Y-83718084D01*
X119574457Y-83718087D01*
X119628927Y-83921372D01*
X119633717Y-83939246D01*
X119730474Y-84146744D01*
X119730476Y-84146746D01*
X119730477Y-84146749D01*
X119861802Y-84334300D01*
X120023700Y-84496198D01*
X120211251Y-84627523D01*
X120418757Y-84724284D01*
X120639913Y-84783543D01*
X120868000Y-84803498D01*
X121096087Y-84783543D01*
X121317243Y-84724284D01*
X121524749Y-84627523D01*
X121712300Y-84496198D01*
X121874198Y-84334300D01*
X122005523Y-84146749D01*
X122102284Y-83939243D01*
X122161543Y-83718087D01*
X122181498Y-83490000D01*
X124554501Y-83490000D01*
X124574456Y-83718084D01*
X124574457Y-83718087D01*
X124628927Y-83921372D01*
X124633717Y-83939246D01*
X124730474Y-84146744D01*
X124730476Y-84146746D01*
X124730477Y-84146749D01*
X124861802Y-84334300D01*
X125023700Y-84496198D01*
X125211251Y-84627523D01*
X125418757Y-84724284D01*
X125639913Y-84783543D01*
X125868000Y-84803498D01*
X126096087Y-84783543D01*
X126317243Y-84724284D01*
X126524749Y-84627523D01*
X126712300Y-84496198D01*
X126874198Y-84334300D01*
X127005523Y-84146749D01*
X127102284Y-83939243D01*
X127161543Y-83718087D01*
X127181498Y-83490000D01*
X127161543Y-83261913D01*
X127102284Y-83040757D01*
X127070222Y-82972000D01*
X128394501Y-82972000D01*
X128414456Y-83200084D01*
X128473717Y-83421246D01*
X128570474Y-83628744D01*
X128570476Y-83628746D01*
X128570477Y-83628749D01*
X128701802Y-83816300D01*
X128863700Y-83978198D01*
X129051251Y-84109523D01*
X129104401Y-84134307D01*
X129156576Y-84180061D01*
X129175996Y-84246686D01*
X129156578Y-84313311D01*
X129104403Y-84359069D01*
X129055520Y-84381864D01*
X128869180Y-84512341D01*
X128708341Y-84673180D01*
X128577865Y-84859519D01*
X128481733Y-85065673D01*
X128429128Y-85261999D01*
X128429128Y-85262000D01*
X130986872Y-85262000D01*
X130986871Y-85261999D01*
X130934266Y-85065673D01*
X130838134Y-84859519D01*
X130707658Y-84673180D01*
X130546819Y-84512341D01*
X130360482Y-84381866D01*
X130311597Y-84359070D01*
X130259422Y-84313312D01*
X130240003Y-84246686D01*
X130259424Y-84180061D01*
X130311596Y-84134308D01*
X130364749Y-84109523D01*
X130552300Y-83978198D01*
X130714198Y-83816300D01*
X130845523Y-83628749D01*
X130942284Y-83421243D01*
X131001543Y-83200087D01*
X131021498Y-82972000D01*
X131001543Y-82743913D01*
X130942284Y-82522757D01*
X130845523Y-82315251D01*
X130714198Y-82127700D01*
X130552300Y-81965802D01*
X130364749Y-81834477D01*
X130321655Y-81814382D01*
X130269479Y-81768625D01*
X130250059Y-81702000D01*
X130269479Y-81635375D01*
X130321655Y-81589618D01*
X130324882Y-81588112D01*
X130364749Y-81569523D01*
X130552300Y-81438198D01*
X130714198Y-81276300D01*
X130845523Y-81088749D01*
X130942284Y-80881243D01*
X131001543Y-80660087D01*
X131021498Y-80432000D01*
X131001543Y-80203913D01*
X130942284Y-79982757D01*
X130845523Y-79775251D01*
X130714198Y-79587700D01*
X130552300Y-79425802D01*
X130364749Y-79294477D01*
X130364746Y-79294476D01*
X130364744Y-79294474D01*
X130157246Y-79197717D01*
X130157243Y-79197716D01*
X130046664Y-79168086D01*
X129936084Y-79138456D01*
X129708000Y-79118501D01*
X129479915Y-79138456D01*
X129258753Y-79197717D01*
X129051255Y-79294474D01*
X128863696Y-79425805D01*
X128701805Y-79587696D01*
X128570474Y-79775255D01*
X128473717Y-79982753D01*
X128414456Y-80203915D01*
X128394501Y-80432000D01*
X128414456Y-80660084D01*
X128414457Y-80660087D01*
X128458892Y-80825921D01*
X128473717Y-80881246D01*
X128570474Y-81088744D01*
X128570476Y-81088746D01*
X128570477Y-81088749D01*
X128701802Y-81276300D01*
X128863700Y-81438198D01*
X129051251Y-81569523D01*
X129091334Y-81588214D01*
X129094345Y-81589618D01*
X129146521Y-81635375D01*
X129165940Y-81702000D01*
X129146521Y-81768625D01*
X129094344Y-81814382D01*
X129051251Y-81834477D01*
X128995241Y-81873696D01*
X128863696Y-81965805D01*
X128701805Y-82127696D01*
X128570474Y-82315255D01*
X128473717Y-82522753D01*
X128414456Y-82743915D01*
X128394501Y-82972000D01*
X127070222Y-82972000D01*
X127005523Y-82833251D01*
X126874198Y-82645700D01*
X126712300Y-82483802D01*
X126524749Y-82352477D01*
X126524746Y-82352476D01*
X126524744Y-82352474D01*
X126317246Y-82255717D01*
X126317243Y-82255716D01*
X126206664Y-82226086D01*
X126096084Y-82196456D01*
X125868000Y-82176501D01*
X125639915Y-82196456D01*
X125418753Y-82255717D01*
X125211255Y-82352474D01*
X125023696Y-82483805D01*
X124861805Y-82645696D01*
X124861802Y-82645699D01*
X124861802Y-82645700D01*
X124820660Y-82704457D01*
X124730474Y-82833255D01*
X124633717Y-83040753D01*
X124574456Y-83261915D01*
X124554501Y-83490000D01*
X122181498Y-83490000D01*
X122161543Y-83261913D01*
X122102284Y-83040757D01*
X122005523Y-82833251D01*
X121874198Y-82645700D01*
X121712300Y-82483802D01*
X121524749Y-82352477D01*
X121524746Y-82352476D01*
X121524744Y-82352474D01*
X121317246Y-82255717D01*
X121317243Y-82255716D01*
X121206664Y-82226086D01*
X121096084Y-82196456D01*
X120868000Y-82176501D01*
X120639915Y-82196456D01*
X120418753Y-82255717D01*
X120211255Y-82352474D01*
X120023696Y-82483805D01*
X119861805Y-82645696D01*
X119861802Y-82645699D01*
X119861802Y-82645700D01*
X119820660Y-82704457D01*
X119730474Y-82833255D01*
X119633717Y-83040753D01*
X119574456Y-83261915D01*
X119554501Y-83490000D01*
X117199507Y-83490000D01*
X117132133Y-83345515D01*
X117081025Y-83272526D01*
X116355553Y-83998000D01*
X116355553Y-83998001D01*
X115648446Y-83998001D01*
X115648446Y-83998000D01*
X114922973Y-83272526D01*
X114922973Y-83272527D01*
X114871865Y-83345516D01*
X114775733Y-83551672D01*
X114716858Y-83771397D01*
X114697033Y-83998000D01*
X113251498Y-83998000D01*
X113231543Y-83769913D01*
X113172284Y-83548757D01*
X113075523Y-83341251D01*
X112944198Y-83153700D01*
X112782300Y-82991802D01*
X112678290Y-82918973D01*
X115276526Y-82918973D01*
X116002000Y-83644446D01*
X116002001Y-83644446D01*
X116727472Y-82918974D01*
X116727471Y-82918972D01*
X116654484Y-82867866D01*
X116448326Y-82771733D01*
X116228602Y-82712858D01*
X116002000Y-82693033D01*
X115775397Y-82712858D01*
X115555672Y-82771733D01*
X115349516Y-82867865D01*
X115276527Y-82918973D01*
X115276526Y-82918973D01*
X112678290Y-82918973D01*
X112594749Y-82860477D01*
X112594746Y-82860476D01*
X112594744Y-82860474D01*
X112387246Y-82763717D01*
X112387243Y-82763716D01*
X112197440Y-82712858D01*
X112166084Y-82704456D01*
X111938000Y-82684501D01*
X111709915Y-82704456D01*
X111488753Y-82763717D01*
X111281255Y-82860474D01*
X111211580Y-82909261D01*
X111112695Y-82978502D01*
X111093696Y-82991805D01*
X110931805Y-83153696D01*
X110931802Y-83153699D01*
X110931802Y-83153700D01*
X110899321Y-83200087D01*
X110800474Y-83341255D01*
X110703717Y-83548753D01*
X110644456Y-83769915D01*
X110624501Y-83998000D01*
X108895882Y-83998000D01*
X108854284Y-83842757D01*
X108757523Y-83635251D01*
X108626198Y-83447700D01*
X108464300Y-83285802D01*
X108276749Y-83154477D01*
X108276746Y-83154476D01*
X108276744Y-83154474D01*
X108069246Y-83057717D01*
X108069243Y-83057716D01*
X107958664Y-83028086D01*
X107848084Y-82998456D01*
X107620000Y-82978501D01*
X107391915Y-82998456D01*
X107170753Y-83057717D01*
X106963255Y-83154474D01*
X106963250Y-83154477D01*
X106963251Y-83154477D01*
X106849547Y-83234094D01*
X106775696Y-83285805D01*
X106613805Y-83447696D01*
X106482474Y-83635255D01*
X106385717Y-83842753D01*
X106326456Y-84063915D01*
X106306501Y-84292000D01*
X100500500Y-84292000D01*
X100500500Y-76056634D01*
X102655500Y-76056634D01*
X102662011Y-76117205D01*
X102713110Y-76254203D01*
X102800738Y-76371261D01*
X102917796Y-76458889D01*
X103054794Y-76509988D01*
X103054797Y-76509988D01*
X103054799Y-76509989D01*
X103115362Y-76516500D01*
X105012634Y-76516500D01*
X105012638Y-76516500D01*
X105073201Y-76509989D01*
X105073203Y-76509988D01*
X105073205Y-76509988D01*
X105158751Y-76478080D01*
X105210204Y-76458889D01*
X105327261Y-76371261D01*
X105414889Y-76254204D01*
X105439397Y-76188494D01*
X105475348Y-76137284D01*
X105531730Y-76110146D01*
X105594184Y-76113994D01*
X105638097Y-76142244D01*
X105638672Y-76141507D01*
X105646779Y-76147817D01*
X105646780Y-76147818D01*
X105830983Y-76291190D01*
X106036273Y-76402287D01*
X106091466Y-76421235D01*
X106257046Y-76478080D01*
X106487288Y-76516500D01*
X106720712Y-76516500D01*
X106950953Y-76478080D01*
X107061339Y-76440183D01*
X107171727Y-76402287D01*
X107377017Y-76291190D01*
X107561220Y-76147818D01*
X107719314Y-75976083D01*
X107846984Y-75780669D01*
X107940749Y-75566907D01*
X107998051Y-75340626D01*
X108017327Y-75108000D01*
X107998051Y-74875374D01*
X107940749Y-74649093D01*
X107919215Y-74600000D01*
X112148501Y-74600000D01*
X112168456Y-74828084D01*
X112227717Y-75049246D01*
X112324474Y-75256744D01*
X112324476Y-75256746D01*
X112324477Y-75256749D01*
X112455802Y-75444300D01*
X112617700Y-75606198D01*
X112805251Y-75737523D01*
X112805254Y-75737524D01*
X112805255Y-75737525D01*
X112909004Y-75785903D01*
X113012757Y-75834284D01*
X113233913Y-75893543D01*
X113462000Y-75913498D01*
X113690087Y-75893543D01*
X113911243Y-75834284D01*
X114118749Y-75737523D01*
X114306300Y-75606198D01*
X114468198Y-75444300D01*
X114599523Y-75256749D01*
X114696284Y-75049243D01*
X114755543Y-74828087D01*
X114775498Y-74600000D01*
X116720501Y-74600000D01*
X116740456Y-74828084D01*
X116799717Y-75049246D01*
X116896474Y-75256744D01*
X116896476Y-75256746D01*
X116896477Y-75256749D01*
X117027802Y-75444300D01*
X117189700Y-75606198D01*
X117377251Y-75737523D01*
X117377254Y-75737524D01*
X117377255Y-75737525D01*
X117481004Y-75785903D01*
X117584757Y-75834284D01*
X117805913Y-75893543D01*
X118034000Y-75913498D01*
X118262087Y-75893543D01*
X118483243Y-75834284D01*
X118690749Y-75737523D01*
X118878300Y-75606198D01*
X119040198Y-75444300D01*
X119171523Y-75256749D01*
X119268284Y-75049243D01*
X119327543Y-74828087D01*
X119347498Y-74600000D01*
X121038501Y-74600000D01*
X121058456Y-74828084D01*
X121117717Y-75049246D01*
X121214474Y-75256744D01*
X121214476Y-75256746D01*
X121214477Y-75256749D01*
X121345802Y-75444300D01*
X121507700Y-75606198D01*
X121695251Y-75737523D01*
X121695254Y-75737524D01*
X121695255Y-75737525D01*
X121799004Y-75785903D01*
X121902757Y-75834284D01*
X122123913Y-75893543D01*
X122352000Y-75913498D01*
X122580087Y-75893543D01*
X122801243Y-75834284D01*
X123008749Y-75737523D01*
X123196300Y-75606198D01*
X123358198Y-75444300D01*
X123489523Y-75256749D01*
X123586284Y-75049243D01*
X123638600Y-74853999D01*
X125356501Y-74853999D01*
X125376456Y-75082084D01*
X125435717Y-75303246D01*
X125532474Y-75510744D01*
X125532476Y-75510746D01*
X125532477Y-75510749D01*
X125663802Y-75698300D01*
X125825700Y-75860198D01*
X126013251Y-75991523D01*
X126220757Y-76088284D01*
X126441913Y-76147543D01*
X126670000Y-76167498D01*
X126898087Y-76147543D01*
X127119243Y-76088284D01*
X127326749Y-75991523D01*
X127514300Y-75860198D01*
X127676198Y-75698300D01*
X127807523Y-75510749D01*
X127904284Y-75303243D01*
X127963543Y-75082087D01*
X127983498Y-74854000D01*
X127983498Y-74853999D01*
X135516501Y-74853999D01*
X135536456Y-75082084D01*
X135595717Y-75303246D01*
X135692474Y-75510744D01*
X135692476Y-75510746D01*
X135692477Y-75510749D01*
X135823802Y-75698300D01*
X135985700Y-75860198D01*
X136173251Y-75991523D01*
X136380757Y-76088284D01*
X136601913Y-76147543D01*
X136830000Y-76167498D01*
X137058087Y-76147543D01*
X137279243Y-76088284D01*
X137486749Y-75991523D01*
X137674300Y-75860198D01*
X137836198Y-75698300D01*
X137967523Y-75510749D01*
X138064284Y-75303243D01*
X138123543Y-75082087D01*
X138143498Y-74854000D01*
X138143498Y-74853999D01*
X140342501Y-74853999D01*
X140362456Y-75082084D01*
X140421717Y-75303246D01*
X140518474Y-75510744D01*
X140518476Y-75510746D01*
X140518477Y-75510749D01*
X140649802Y-75698300D01*
X140811700Y-75860198D01*
X140999251Y-75991523D01*
X141206757Y-76088284D01*
X141427913Y-76147543D01*
X141656000Y-76167498D01*
X141884087Y-76147543D01*
X142105243Y-76088284D01*
X142312749Y-75991523D01*
X142500300Y-75860198D01*
X142662198Y-75698300D01*
X142793523Y-75510749D01*
X142890284Y-75303243D01*
X142949543Y-75082087D01*
X142969498Y-74854000D01*
X142969498Y-74853999D01*
X145168501Y-74853999D01*
X145188456Y-75082084D01*
X145247717Y-75303246D01*
X145344474Y-75510744D01*
X145344476Y-75510746D01*
X145344477Y-75510749D01*
X145475802Y-75698300D01*
X145637700Y-75860198D01*
X145825251Y-75991523D01*
X146032757Y-76088284D01*
X146253913Y-76147543D01*
X146482000Y-76167498D01*
X146710087Y-76147543D01*
X146931243Y-76088284D01*
X147138749Y-75991523D01*
X147326300Y-75860198D01*
X147488198Y-75698300D01*
X147619523Y-75510749D01*
X147716284Y-75303243D01*
X147775543Y-75082087D01*
X147795498Y-74854000D01*
X147795498Y-74853999D01*
X155328501Y-74853999D01*
X155348456Y-75082084D01*
X155407717Y-75303246D01*
X155504474Y-75510744D01*
X155504476Y-75510746D01*
X155504477Y-75510749D01*
X155635802Y-75698300D01*
X155797700Y-75860198D01*
X155985251Y-75991523D01*
X156192757Y-76088284D01*
X156413913Y-76147543D01*
X156642000Y-76167498D01*
X156870087Y-76147543D01*
X157091243Y-76088284D01*
X157298749Y-75991523D01*
X157486300Y-75860198D01*
X157648198Y-75698300D01*
X157779523Y-75510749D01*
X157876284Y-75303243D01*
X157935543Y-75082087D01*
X157955498Y-74854000D01*
X157935543Y-74625913D01*
X157876284Y-74404757D01*
X157779523Y-74197251D01*
X157648198Y-74009700D01*
X157486300Y-73847802D01*
X157298749Y-73716477D01*
X157298746Y-73716476D01*
X157298744Y-73716474D01*
X157091246Y-73619717D01*
X157091243Y-73619716D01*
X156957946Y-73583999D01*
X160408501Y-73583999D01*
X160428456Y-73812084D01*
X160487717Y-74033246D01*
X160584474Y-74240744D01*
X160584476Y-74240746D01*
X160584477Y-74240749D01*
X160715802Y-74428300D01*
X160877700Y-74590198D01*
X161065251Y-74721523D01*
X161272757Y-74818284D01*
X161493913Y-74877543D01*
X161722000Y-74897498D01*
X161950087Y-74877543D01*
X162171243Y-74818284D01*
X162378749Y-74721523D01*
X162566300Y-74590198D01*
X162713840Y-74442657D01*
X162766583Y-74411364D01*
X162827875Y-74409175D01*
X162882720Y-74436627D01*
X162917699Y-74487006D01*
X162971110Y-74630204D01*
X163058738Y-74747261D01*
X163175796Y-74834889D01*
X163312794Y-74885988D01*
X163312797Y-74885988D01*
X163312799Y-74885989D01*
X163373362Y-74892500D01*
X165070634Y-74892500D01*
X165070638Y-74892500D01*
X165131201Y-74885989D01*
X165131203Y-74885988D01*
X165131205Y-74885988D01*
X165216966Y-74854000D01*
X165268204Y-74834889D01*
X165385261Y-74747261D01*
X165472889Y-74630204D01*
X165523989Y-74493201D01*
X165530500Y-74432638D01*
X165530500Y-72735362D01*
X165523989Y-72674799D01*
X165523988Y-72674797D01*
X165523988Y-72674794D01*
X165472889Y-72537796D01*
X165385261Y-72420738D01*
X165268203Y-72333110D01*
X165131205Y-72282011D01*
X165100919Y-72278755D01*
X165070638Y-72275500D01*
X163373362Y-72275500D01*
X163346445Y-72278393D01*
X163312794Y-72282011D01*
X163175796Y-72333110D01*
X163058738Y-72420738D01*
X162971110Y-72537796D01*
X162917699Y-72680993D01*
X162882720Y-72731372D01*
X162827875Y-72758824D01*
X162766583Y-72756635D01*
X162713837Y-72725339D01*
X162566303Y-72577805D01*
X162566303Y-72577804D01*
X162566300Y-72577802D01*
X162378749Y-72446477D01*
X162378746Y-72446476D01*
X162378744Y-72446474D01*
X162171246Y-72349717D01*
X162171243Y-72349716D01*
X162060664Y-72320086D01*
X161950084Y-72290456D01*
X161722000Y-72270501D01*
X161493915Y-72290456D01*
X161272753Y-72349717D01*
X161065255Y-72446474D01*
X160877696Y-72577805D01*
X160715805Y-72739696D01*
X160584474Y-72927255D01*
X160487717Y-73134753D01*
X160428456Y-73355915D01*
X160408501Y-73583999D01*
X156957946Y-73583999D01*
X156870084Y-73560456D01*
X156642000Y-73540501D01*
X156413915Y-73560456D01*
X156192753Y-73619717D01*
X155985255Y-73716474D01*
X155985250Y-73716477D01*
X155985251Y-73716477D01*
X155802075Y-73844739D01*
X155797696Y-73847805D01*
X155635805Y-74009696D01*
X155504474Y-74197255D01*
X155407717Y-74404753D01*
X155348456Y-74625915D01*
X155328501Y-74853999D01*
X147795498Y-74853999D01*
X147775543Y-74625913D01*
X147716284Y-74404757D01*
X147619523Y-74197251D01*
X147488198Y-74009700D01*
X147326300Y-73847802D01*
X147138749Y-73716477D01*
X147138746Y-73716476D01*
X147138744Y-73716474D01*
X146931246Y-73619717D01*
X146931243Y-73619716D01*
X146797946Y-73583999D01*
X146710084Y-73560456D01*
X146482000Y-73540501D01*
X146253915Y-73560456D01*
X146032753Y-73619717D01*
X145825255Y-73716474D01*
X145825250Y-73716477D01*
X145825251Y-73716477D01*
X145642075Y-73844739D01*
X145637696Y-73847805D01*
X145475805Y-74009696D01*
X145344474Y-74197255D01*
X145247717Y-74404753D01*
X145188456Y-74625915D01*
X145168501Y-74853999D01*
X142969498Y-74853999D01*
X142949543Y-74625913D01*
X142890284Y-74404757D01*
X142793523Y-74197251D01*
X142662198Y-74009700D01*
X142500300Y-73847802D01*
X142312749Y-73716477D01*
X142312746Y-73716476D01*
X142312744Y-73716474D01*
X142105246Y-73619717D01*
X142105243Y-73619716D01*
X141971946Y-73583999D01*
X141884084Y-73560456D01*
X141656000Y-73540501D01*
X141427915Y-73560456D01*
X141206753Y-73619717D01*
X140999255Y-73716474D01*
X140999250Y-73716477D01*
X140999251Y-73716477D01*
X140816075Y-73844739D01*
X140811696Y-73847805D01*
X140649805Y-74009696D01*
X140518474Y-74197255D01*
X140421717Y-74404753D01*
X140362456Y-74625915D01*
X140342501Y-74853999D01*
X138143498Y-74853999D01*
X138123543Y-74625913D01*
X138064284Y-74404757D01*
X137967523Y-74197251D01*
X137836198Y-74009700D01*
X137674300Y-73847802D01*
X137486749Y-73716477D01*
X137486746Y-73716476D01*
X137486744Y-73716474D01*
X137279246Y-73619717D01*
X137279243Y-73619716D01*
X137145946Y-73583999D01*
X137058084Y-73560456D01*
X136830000Y-73540501D01*
X136601915Y-73560456D01*
X136380753Y-73619717D01*
X136173255Y-73716474D01*
X136173250Y-73716477D01*
X136173251Y-73716477D01*
X135990075Y-73844739D01*
X135985696Y-73847805D01*
X135823805Y-74009696D01*
X135692474Y-74197255D01*
X135595717Y-74404753D01*
X135536456Y-74625915D01*
X135516501Y-74853999D01*
X127983498Y-74853999D01*
X127963543Y-74625913D01*
X127904284Y-74404757D01*
X127807523Y-74197251D01*
X127676198Y-74009700D01*
X127514300Y-73847802D01*
X127326749Y-73716477D01*
X127326746Y-73716476D01*
X127326744Y-73716474D01*
X127119246Y-73619717D01*
X127119243Y-73619716D01*
X126985946Y-73583999D01*
X126898084Y-73560456D01*
X126670000Y-73540501D01*
X126441915Y-73560456D01*
X126220753Y-73619717D01*
X126013255Y-73716474D01*
X126013250Y-73716477D01*
X126013251Y-73716477D01*
X125830075Y-73844739D01*
X125825696Y-73847805D01*
X125663805Y-74009696D01*
X125532474Y-74197255D01*
X125435717Y-74404753D01*
X125376456Y-74625915D01*
X125356501Y-74853999D01*
X123638600Y-74853999D01*
X123645543Y-74828087D01*
X123665498Y-74600000D01*
X123645543Y-74371913D01*
X123586284Y-74150757D01*
X123528810Y-74027502D01*
X123489525Y-73943255D01*
X123489524Y-73943254D01*
X123489523Y-73943251D01*
X123358198Y-73755700D01*
X123196300Y-73593802D01*
X123008749Y-73462477D01*
X123008746Y-73462476D01*
X123008744Y-73462474D01*
X122801246Y-73365717D01*
X122801243Y-73365716D01*
X122690664Y-73336086D01*
X122580084Y-73306456D01*
X122352000Y-73286501D01*
X122123915Y-73306456D01*
X121902753Y-73365717D01*
X121695255Y-73462474D01*
X121695250Y-73462477D01*
X121695251Y-73462477D01*
X121555322Y-73560457D01*
X121507696Y-73593805D01*
X121345805Y-73755696D01*
X121345802Y-73755699D01*
X121345802Y-73755700D01*
X121305181Y-73813713D01*
X121214474Y-73943255D01*
X121117717Y-74150753D01*
X121058456Y-74371915D01*
X121038501Y-74600000D01*
X119347498Y-74600000D01*
X119327543Y-74371913D01*
X119268284Y-74150757D01*
X119210810Y-74027502D01*
X119171525Y-73943255D01*
X119171524Y-73943254D01*
X119171523Y-73943251D01*
X119040198Y-73755700D01*
X118878300Y-73593802D01*
X118690749Y-73462477D01*
X118690746Y-73462476D01*
X118690744Y-73462474D01*
X118483246Y-73365717D01*
X118483243Y-73365716D01*
X118372664Y-73336086D01*
X118262084Y-73306456D01*
X118034000Y-73286501D01*
X117805915Y-73306456D01*
X117584753Y-73365717D01*
X117377255Y-73462474D01*
X117377250Y-73462477D01*
X117377251Y-73462477D01*
X117237322Y-73560457D01*
X117189696Y-73593805D01*
X117027805Y-73755696D01*
X117027802Y-73755699D01*
X117027802Y-73755700D01*
X116987181Y-73813713D01*
X116896474Y-73943255D01*
X116799717Y-74150753D01*
X116740456Y-74371915D01*
X116720501Y-74600000D01*
X114775498Y-74600000D01*
X114755543Y-74371913D01*
X114696284Y-74150757D01*
X114638810Y-74027502D01*
X114599525Y-73943255D01*
X114599524Y-73943254D01*
X114599523Y-73943251D01*
X114468198Y-73755700D01*
X114306300Y-73593802D01*
X114118749Y-73462477D01*
X114118746Y-73462476D01*
X114118744Y-73462474D01*
X113911246Y-73365717D01*
X113911243Y-73365716D01*
X113800664Y-73336086D01*
X113690084Y-73306456D01*
X113462000Y-73286501D01*
X113233915Y-73306456D01*
X113012753Y-73365717D01*
X112805255Y-73462474D01*
X112805250Y-73462477D01*
X112805251Y-73462477D01*
X112665322Y-73560457D01*
X112617696Y-73593805D01*
X112455805Y-73755696D01*
X112455802Y-73755699D01*
X112455802Y-73755700D01*
X112415181Y-73813713D01*
X112324474Y-73943255D01*
X112227717Y-74150753D01*
X112168456Y-74371915D01*
X112148501Y-74600000D01*
X107919215Y-74600000D01*
X107846984Y-74435331D01*
X107783148Y-74337623D01*
X107719315Y-74239918D01*
X107561219Y-74068181D01*
X107486083Y-74009700D01*
X107377017Y-73924810D01*
X107171727Y-73813713D01*
X107171726Y-73813712D01*
X107171725Y-73813712D01*
X106950953Y-73737919D01*
X106720712Y-73699500D01*
X106487288Y-73699500D01*
X106257046Y-73737919D01*
X106036274Y-73813712D01*
X105973276Y-73847805D01*
X105830983Y-73924810D01*
X105646782Y-74068181D01*
X105638672Y-74074493D01*
X105638098Y-74073755D01*
X105594178Y-74102007D01*
X105531726Y-74105852D01*
X105475347Y-74078714D01*
X105439397Y-74027502D01*
X105414889Y-73961796D01*
X105327261Y-73844738D01*
X105210203Y-73757110D01*
X105073205Y-73706011D01*
X105042919Y-73702755D01*
X105012638Y-73699500D01*
X103115362Y-73699500D01*
X103088445Y-73702393D01*
X103054794Y-73706011D01*
X102917796Y-73757110D01*
X102800738Y-73844738D01*
X102713110Y-73961796D01*
X102662011Y-74098794D01*
X102655500Y-74159366D01*
X102655500Y-76056634D01*
X100500500Y-76056634D01*
X100500500Y-70028000D01*
X125756496Y-70028000D01*
X125776458Y-70217929D01*
X125835472Y-70399556D01*
X125930957Y-70564941D01*
X125930960Y-70564944D01*
X126058747Y-70706866D01*
X126213247Y-70819117D01*
X126213248Y-70819118D01*
X126387714Y-70896795D01*
X126574511Y-70936500D01*
X126574513Y-70936500D01*
X126765487Y-70936500D01*
X126765489Y-70936500D01*
X126952285Y-70896795D01*
X126952286Y-70896794D01*
X126952288Y-70896794D01*
X127126752Y-70819118D01*
X127281253Y-70706866D01*
X127409040Y-70564944D01*
X127504527Y-70399556D01*
X127563542Y-70217928D01*
X127583504Y-70028000D01*
X127563542Y-69838072D01*
X127504527Y-69656444D01*
X127504527Y-69656443D01*
X127409042Y-69491058D01*
X127382196Y-69461243D01*
X127281253Y-69349134D01*
X127184901Y-69279129D01*
X127126751Y-69236881D01*
X126952285Y-69159204D01*
X126765489Y-69119500D01*
X126765487Y-69119500D01*
X126574513Y-69119500D01*
X126574511Y-69119500D01*
X126387714Y-69159204D01*
X126213248Y-69236881D01*
X126058748Y-69349133D01*
X125930957Y-69491058D01*
X125835472Y-69656443D01*
X125776458Y-69838070D01*
X125756496Y-70028000D01*
X100500500Y-70028000D01*
X100500500Y-69011999D01*
X129626881Y-69011999D01*
X129646836Y-69240084D01*
X129706097Y-69461246D01*
X129802854Y-69668744D01*
X129802856Y-69668746D01*
X129802857Y-69668749D01*
X129934182Y-69856300D01*
X130096080Y-70018198D01*
X130283631Y-70149523D01*
X130491137Y-70246284D01*
X130712293Y-70305543D01*
X130940380Y-70325498D01*
X131168467Y-70305543D01*
X131389623Y-70246284D01*
X131597129Y-70149523D01*
X131784680Y-70018198D01*
X131932220Y-69870657D01*
X131984963Y-69839364D01*
X132046255Y-69837175D01*
X132101100Y-69864627D01*
X132136079Y-69915006D01*
X132189490Y-70058204D01*
X132277118Y-70175261D01*
X132394176Y-70262889D01*
X132531174Y-70313988D01*
X132531177Y-70313988D01*
X132531179Y-70313989D01*
X132591742Y-70320500D01*
X134289014Y-70320500D01*
X134289018Y-70320500D01*
X134349581Y-70313989D01*
X134349583Y-70313988D01*
X134349585Y-70313988D01*
X134427504Y-70284924D01*
X134486584Y-70262889D01*
X134603641Y-70175261D01*
X134691269Y-70058204D01*
X134742369Y-69921201D01*
X134748880Y-69860638D01*
X134748880Y-68163362D01*
X134742369Y-68102799D01*
X134742368Y-68102797D01*
X134742368Y-68102794D01*
X134691269Y-67965796D01*
X134603641Y-67848738D01*
X134486583Y-67761110D01*
X134349585Y-67710011D01*
X134319299Y-67706755D01*
X134289018Y-67703500D01*
X132591742Y-67703500D01*
X132564825Y-67706393D01*
X132531174Y-67710011D01*
X132394176Y-67761110D01*
X132277118Y-67848738D01*
X132189490Y-67965796D01*
X132136079Y-68108993D01*
X132101100Y-68159372D01*
X132046255Y-68186824D01*
X131984963Y-68184635D01*
X131932217Y-68153339D01*
X131784683Y-68005805D01*
X131784680Y-68005802D01*
X131597129Y-67874477D01*
X131597126Y-67874476D01*
X131597124Y-67874474D01*
X131389626Y-67777717D01*
X131389623Y-67777716D01*
X131176562Y-67720626D01*
X131168464Y-67718456D01*
X130940379Y-67698501D01*
X130712295Y-67718456D01*
X130491133Y-67777717D01*
X130283635Y-67874474D01*
X130096076Y-68005805D01*
X129934185Y-68167696D01*
X129802854Y-68355255D01*
X129706097Y-68562753D01*
X129646836Y-68783915D01*
X129626881Y-69011999D01*
X100500500Y-69011999D01*
X100500500Y-68436634D01*
X102650500Y-68436634D01*
X102657011Y-68497205D01*
X102708110Y-68634203D01*
X102795738Y-68751261D01*
X102912796Y-68838889D01*
X103049794Y-68889988D01*
X103049797Y-68889988D01*
X103049799Y-68889989D01*
X103110362Y-68896500D01*
X105007634Y-68896500D01*
X105007638Y-68896500D01*
X105068201Y-68889989D01*
X105068203Y-68889988D01*
X105068205Y-68889988D01*
X105153751Y-68858080D01*
X105205204Y-68838889D01*
X105322261Y-68751261D01*
X105409889Y-68634204D01*
X105434397Y-68568494D01*
X105470348Y-68517284D01*
X105526730Y-68490146D01*
X105589184Y-68493994D01*
X105633097Y-68522244D01*
X105633672Y-68521507D01*
X105641779Y-68527817D01*
X105641780Y-68527818D01*
X105825983Y-68671190D01*
X106031273Y-68782287D01*
X106086466Y-68801235D01*
X106252046Y-68858080D01*
X106482288Y-68896500D01*
X106715712Y-68896500D01*
X106945953Y-68858080D01*
X107056339Y-68820183D01*
X107166727Y-68782287D01*
X107372017Y-68671190D01*
X107556220Y-68527818D01*
X107714314Y-68356083D01*
X107841984Y-68160669D01*
X107935749Y-67946907D01*
X107993051Y-67720626D01*
X108012327Y-67488000D01*
X107993051Y-67255374D01*
X107935749Y-67029093D01*
X107841984Y-66815331D01*
X107778149Y-66717624D01*
X107714315Y-66619918D01*
X107556219Y-66448181D01*
X107419536Y-66341796D01*
X107372017Y-66304810D01*
X107166727Y-66193713D01*
X107166726Y-66193712D01*
X107166725Y-66193712D01*
X106945953Y-66117919D01*
X106715712Y-66079500D01*
X106482288Y-66079500D01*
X106252046Y-66117919D01*
X106031274Y-66193712D01*
X105845794Y-66294089D01*
X105825983Y-66304810D01*
X105641782Y-66448181D01*
X105633672Y-66454493D01*
X105633098Y-66453755D01*
X105589178Y-66482007D01*
X105526726Y-66485852D01*
X105470347Y-66458714D01*
X105434397Y-66407502D01*
X105409889Y-66341796D01*
X105322261Y-66224738D01*
X105205203Y-66137110D01*
X105068205Y-66086011D01*
X105037919Y-66082755D01*
X105007638Y-66079500D01*
X103110362Y-66079500D01*
X103083445Y-66082393D01*
X103049794Y-66086011D01*
X102912796Y-66137110D01*
X102795738Y-66224738D01*
X102708110Y-66341796D01*
X102657011Y-66478794D01*
X102650500Y-66539366D01*
X102650500Y-68436634D01*
X100500500Y-68436634D01*
X100500500Y-64440000D01*
X112148501Y-64440000D01*
X112168456Y-64668084D01*
X112227717Y-64889246D01*
X112324474Y-65096744D01*
X112324476Y-65096746D01*
X112324477Y-65096749D01*
X112455802Y-65284300D01*
X112617700Y-65446198D01*
X112805251Y-65577523D01*
X113012757Y-65674284D01*
X113233913Y-65733543D01*
X113462000Y-65753498D01*
X113690087Y-65733543D01*
X113911243Y-65674284D01*
X114118749Y-65577523D01*
X114306300Y-65446198D01*
X114468198Y-65284300D01*
X114599523Y-65096749D01*
X114696284Y-64889243D01*
X114755543Y-64668087D01*
X114775498Y-64440000D01*
X116720501Y-64440000D01*
X116740456Y-64668084D01*
X116799717Y-64889246D01*
X116896474Y-65096744D01*
X116896476Y-65096746D01*
X116896477Y-65096749D01*
X117027802Y-65284300D01*
X117189700Y-65446198D01*
X117377251Y-65577523D01*
X117584757Y-65674284D01*
X117805913Y-65733543D01*
X118034000Y-65753498D01*
X118262087Y-65733543D01*
X118483243Y-65674284D01*
X118690749Y-65577523D01*
X118878300Y-65446198D01*
X119040198Y-65284300D01*
X119171523Y-65096749D01*
X119268284Y-64889243D01*
X119327543Y-64668087D01*
X119347498Y-64440000D01*
X121038501Y-64440000D01*
X121058456Y-64668084D01*
X121117717Y-64889246D01*
X121214474Y-65096744D01*
X121214476Y-65096746D01*
X121214477Y-65096749D01*
X121345802Y-65284300D01*
X121507700Y-65446198D01*
X121695251Y-65577523D01*
X121902757Y-65674284D01*
X122123913Y-65733543D01*
X122352000Y-65753498D01*
X122580087Y-65733543D01*
X122801243Y-65674284D01*
X123008749Y-65577523D01*
X123196300Y-65446198D01*
X123358198Y-65284300D01*
X123489523Y-65096749D01*
X123586284Y-64889243D01*
X123638600Y-64693999D01*
X140342501Y-64693999D01*
X140362456Y-64922084D01*
X140421717Y-65143246D01*
X140518474Y-65350744D01*
X140518476Y-65350746D01*
X140518477Y-65350749D01*
X140649802Y-65538300D01*
X140811700Y-65700198D01*
X140999251Y-65831523D01*
X141206757Y-65928284D01*
X141427913Y-65987543D01*
X141656000Y-66007498D01*
X141884087Y-65987543D01*
X142105243Y-65928284D01*
X142312749Y-65831523D01*
X142500300Y-65700198D01*
X142662198Y-65538300D01*
X142793523Y-65350749D01*
X142862885Y-65202000D01*
X146224501Y-65202000D01*
X146244456Y-65430084D01*
X146303717Y-65651246D01*
X146400474Y-65858744D01*
X146400476Y-65858746D01*
X146400477Y-65858749D01*
X146531802Y-66046300D01*
X146693700Y-66208198D01*
X146881251Y-66339523D01*
X147088757Y-66436284D01*
X147309913Y-66495543D01*
X147538000Y-66515498D01*
X147766087Y-66495543D01*
X147987243Y-66436284D01*
X148194749Y-66339523D01*
X148382300Y-66208198D01*
X148544198Y-66046300D01*
X148675523Y-65858749D01*
X148772284Y-65651243D01*
X148831543Y-65430087D01*
X148851498Y-65202000D01*
X151224501Y-65202000D01*
X151244456Y-65430084D01*
X151303717Y-65651246D01*
X151400474Y-65858744D01*
X151400476Y-65858746D01*
X151400477Y-65858749D01*
X151531802Y-66046300D01*
X151693700Y-66208198D01*
X151881251Y-66339523D01*
X152088757Y-66436284D01*
X152309913Y-66495543D01*
X152538000Y-66515498D01*
X152766087Y-66495543D01*
X152987243Y-66436284D01*
X153194749Y-66339523D01*
X153382300Y-66208198D01*
X153489864Y-66100634D01*
X157569500Y-66100634D01*
X157576011Y-66161205D01*
X157627110Y-66298203D01*
X157714738Y-66415261D01*
X157831796Y-66502889D01*
X157968794Y-66553988D01*
X157968797Y-66553988D01*
X157968799Y-66553989D01*
X158029362Y-66560500D01*
X159826634Y-66560500D01*
X159826638Y-66560500D01*
X159887201Y-66553989D01*
X159887203Y-66553988D01*
X159887205Y-66553988D01*
X159990398Y-66515498D01*
X160024204Y-66502889D01*
X160141261Y-66415261D01*
X160228889Y-66298204D01*
X160262460Y-66208198D01*
X160279988Y-66161205D01*
X160279988Y-66161203D01*
X160279989Y-66161201D01*
X160286500Y-66100638D01*
X160286500Y-65452000D01*
X163166000Y-65452000D01*
X163166000Y-66099824D01*
X163172402Y-66159375D01*
X163222647Y-66294089D01*
X163308811Y-66409188D01*
X163423910Y-66495352D01*
X163558624Y-66545597D01*
X163618176Y-66552000D01*
X164266000Y-66552000D01*
X164266000Y-65452000D01*
X164766000Y-65452000D01*
X164766000Y-66552000D01*
X165413824Y-66552000D01*
X165473375Y-66545597D01*
X165608089Y-66495352D01*
X165723188Y-66409188D01*
X165809352Y-66294089D01*
X165859597Y-66159375D01*
X165866000Y-66099824D01*
X165866000Y-65452000D01*
X164766000Y-65452000D01*
X164266000Y-65452000D01*
X163166000Y-65452000D01*
X160286500Y-65452000D01*
X160286500Y-64952000D01*
X163166000Y-64952000D01*
X164266000Y-64952000D01*
X164266000Y-63852000D01*
X164766000Y-63852000D01*
X164766000Y-64952000D01*
X165866000Y-64952000D01*
X165866000Y-64304176D01*
X165859597Y-64244624D01*
X165809352Y-64109910D01*
X165723188Y-63994811D01*
X165608089Y-63908647D01*
X165473375Y-63858402D01*
X165413824Y-63852000D01*
X164766000Y-63852000D01*
X164266000Y-63852000D01*
X163618176Y-63852000D01*
X163558624Y-63858402D01*
X163423910Y-63908647D01*
X163308811Y-63994811D01*
X163222647Y-64109910D01*
X163172402Y-64244624D01*
X163166000Y-64304176D01*
X163166000Y-64952000D01*
X160286500Y-64952000D01*
X160286500Y-64303362D01*
X160279989Y-64242799D01*
X160279988Y-64242797D01*
X160279988Y-64242794D01*
X160228889Y-64105796D01*
X160141261Y-63988738D01*
X160024203Y-63901110D01*
X159887205Y-63850011D01*
X159856919Y-63846755D01*
X159826638Y-63843500D01*
X158029362Y-63843500D01*
X158002445Y-63846393D01*
X157968794Y-63850011D01*
X157831796Y-63901110D01*
X157714738Y-63988738D01*
X157627110Y-64105796D01*
X157576011Y-64242794D01*
X157569500Y-64303366D01*
X157569500Y-66100634D01*
X153489864Y-66100634D01*
X153544198Y-66046300D01*
X153675523Y-65858749D01*
X153772284Y-65651243D01*
X153831543Y-65430087D01*
X153851498Y-65202000D01*
X153831543Y-64973913D01*
X153772284Y-64752757D01*
X153675523Y-64545251D01*
X153544198Y-64357700D01*
X153382300Y-64195802D01*
X153194749Y-64064477D01*
X153194746Y-64064476D01*
X153194744Y-64064474D01*
X152987246Y-63967717D01*
X152987243Y-63967716D01*
X152876664Y-63938086D01*
X152766084Y-63908456D01*
X152538000Y-63888501D01*
X152309915Y-63908456D01*
X152088753Y-63967717D01*
X151881255Y-64064474D01*
X151693696Y-64195805D01*
X151531805Y-64357696D01*
X151400474Y-64545255D01*
X151303717Y-64752753D01*
X151244456Y-64973915D01*
X151224501Y-65202000D01*
X148851498Y-65202000D01*
X148831543Y-64973913D01*
X148772284Y-64752757D01*
X148675523Y-64545251D01*
X148544198Y-64357700D01*
X148382300Y-64195802D01*
X148194749Y-64064477D01*
X148194746Y-64064476D01*
X148194744Y-64064474D01*
X147987246Y-63967717D01*
X147987243Y-63967716D01*
X147876664Y-63938086D01*
X147766084Y-63908456D01*
X147538000Y-63888501D01*
X147309915Y-63908456D01*
X147088753Y-63967717D01*
X146881255Y-64064474D01*
X146693696Y-64195805D01*
X146531805Y-64357696D01*
X146400474Y-64545255D01*
X146303717Y-64752753D01*
X146244456Y-64973915D01*
X146224501Y-65202000D01*
X142862885Y-65202000D01*
X142890284Y-65143243D01*
X142949543Y-64922087D01*
X142969498Y-64694000D01*
X142949543Y-64465913D01*
X142890284Y-64244757D01*
X142793523Y-64037251D01*
X142662198Y-63849700D01*
X142500300Y-63687802D01*
X142312749Y-63556477D01*
X142312746Y-63556476D01*
X142312744Y-63556474D01*
X142105246Y-63459717D01*
X142105243Y-63459716D01*
X141994664Y-63430086D01*
X141884084Y-63400456D01*
X141656000Y-63380501D01*
X141427915Y-63400456D01*
X141206753Y-63459717D01*
X140999255Y-63556474D01*
X140811696Y-63687805D01*
X140649805Y-63849696D01*
X140649802Y-63849699D01*
X140649802Y-63849700D01*
X140608660Y-63908457D01*
X140518474Y-64037255D01*
X140421717Y-64244753D01*
X140362456Y-64465915D01*
X140342501Y-64693999D01*
X123638600Y-64693999D01*
X123645543Y-64668087D01*
X123665498Y-64440000D01*
X123645543Y-64211913D01*
X123586284Y-63990757D01*
X123521581Y-63852000D01*
X123489525Y-63783255D01*
X123489524Y-63783254D01*
X123489523Y-63783251D01*
X123358198Y-63595700D01*
X123323132Y-63560634D01*
X129375500Y-63560634D01*
X129382011Y-63621205D01*
X129433110Y-63758203D01*
X129520738Y-63875261D01*
X129637796Y-63962889D01*
X129774794Y-64013988D01*
X129774797Y-64013988D01*
X129774799Y-64013989D01*
X129835362Y-64020500D01*
X131632634Y-64020500D01*
X131632638Y-64020500D01*
X131693201Y-64013989D01*
X131693203Y-64013988D01*
X131693205Y-64013988D01*
X131771124Y-63984924D01*
X131830204Y-63962889D01*
X131947261Y-63875261D01*
X132034889Y-63758204D01*
X132085989Y-63621201D01*
X132092500Y-63560638D01*
X132092500Y-63560634D01*
X134963500Y-63560634D01*
X134970011Y-63621205D01*
X135021110Y-63758203D01*
X135108738Y-63875261D01*
X135225796Y-63962889D01*
X135362794Y-64013988D01*
X135362797Y-64013988D01*
X135362799Y-64013989D01*
X135423362Y-64020500D01*
X137220634Y-64020500D01*
X137220638Y-64020500D01*
X137281201Y-64013989D01*
X137281203Y-64013988D01*
X137281205Y-64013988D01*
X137359124Y-63984924D01*
X137418204Y-63962889D01*
X137535261Y-63875261D01*
X137622889Y-63758204D01*
X137673989Y-63621201D01*
X137680500Y-63560638D01*
X137680500Y-61763362D01*
X137673989Y-61702799D01*
X137673988Y-61702797D01*
X137673988Y-61702794D01*
X137622889Y-61565796D01*
X137535261Y-61448738D01*
X137418203Y-61361110D01*
X137281205Y-61310011D01*
X137250919Y-61306755D01*
X137220638Y-61303500D01*
X135423362Y-61303500D01*
X135396445Y-61306393D01*
X135362794Y-61310011D01*
X135225796Y-61361110D01*
X135108738Y-61448738D01*
X135021110Y-61565796D01*
X134970011Y-61702794D01*
X134963500Y-61763366D01*
X134963500Y-63560634D01*
X132092500Y-63560634D01*
X132092500Y-61763362D01*
X132085989Y-61702799D01*
X132085988Y-61702797D01*
X132085988Y-61702794D01*
X132034889Y-61565796D01*
X131947261Y-61448738D01*
X131830203Y-61361110D01*
X131693205Y-61310011D01*
X131662919Y-61306755D01*
X131632638Y-61303500D01*
X129835362Y-61303500D01*
X129808445Y-61306393D01*
X129774794Y-61310011D01*
X129637796Y-61361110D01*
X129520738Y-61448738D01*
X129433110Y-61565796D01*
X129382011Y-61702794D01*
X129375500Y-61763366D01*
X129375500Y-63560634D01*
X123323132Y-63560634D01*
X123196300Y-63433802D01*
X123008749Y-63302477D01*
X123008746Y-63302476D01*
X123008744Y-63302474D01*
X122801246Y-63205717D01*
X122801243Y-63205716D01*
X122690665Y-63176086D01*
X122580084Y-63146456D01*
X122352000Y-63126501D01*
X122123915Y-63146456D01*
X121902753Y-63205717D01*
X121695255Y-63302474D01*
X121695250Y-63302477D01*
X121695251Y-63302477D01*
X121555322Y-63400457D01*
X121507696Y-63433805D01*
X121345805Y-63595696D01*
X121214474Y-63783255D01*
X121117717Y-63990753D01*
X121058456Y-64211915D01*
X121038501Y-64440000D01*
X119347498Y-64440000D01*
X119327543Y-64211913D01*
X119268284Y-63990757D01*
X119203581Y-63852000D01*
X119171525Y-63783255D01*
X119171524Y-63783254D01*
X119171523Y-63783251D01*
X119040198Y-63595700D01*
X118878300Y-63433802D01*
X118690749Y-63302477D01*
X118690746Y-63302476D01*
X118690744Y-63302474D01*
X118483246Y-63205717D01*
X118483243Y-63205716D01*
X118372665Y-63176086D01*
X118262084Y-63146456D01*
X118034000Y-63126501D01*
X117805915Y-63146456D01*
X117584753Y-63205717D01*
X117377255Y-63302474D01*
X117377250Y-63302477D01*
X117377251Y-63302477D01*
X117237322Y-63400457D01*
X117189696Y-63433805D01*
X117027805Y-63595696D01*
X116896474Y-63783255D01*
X116799717Y-63990753D01*
X116740456Y-64211915D01*
X116720501Y-64440000D01*
X114775498Y-64440000D01*
X114755543Y-64211913D01*
X114696284Y-63990757D01*
X114631581Y-63852000D01*
X114599525Y-63783255D01*
X114599524Y-63783254D01*
X114599523Y-63783251D01*
X114468198Y-63595700D01*
X114306300Y-63433802D01*
X114118749Y-63302477D01*
X114118746Y-63302476D01*
X114118744Y-63302474D01*
X113911246Y-63205717D01*
X113911243Y-63205716D01*
X113800665Y-63176086D01*
X113690084Y-63146456D01*
X113462000Y-63126501D01*
X113233915Y-63146456D01*
X113012753Y-63205717D01*
X112805255Y-63302474D01*
X112805250Y-63302477D01*
X112805251Y-63302477D01*
X112665322Y-63400457D01*
X112617696Y-63433805D01*
X112455805Y-63595696D01*
X112324474Y-63783255D01*
X112227717Y-63990753D01*
X112168456Y-64211915D01*
X112148501Y-64440000D01*
X100500500Y-64440000D01*
X100500500Y-60308634D01*
X102650500Y-60308634D01*
X102657011Y-60369205D01*
X102708110Y-60506203D01*
X102795738Y-60623261D01*
X102912796Y-60710889D01*
X103049794Y-60761988D01*
X103049797Y-60761988D01*
X103049799Y-60761989D01*
X103110362Y-60768500D01*
X105007634Y-60768500D01*
X105007638Y-60768500D01*
X105068201Y-60761989D01*
X105068203Y-60761988D01*
X105068205Y-60761988D01*
X105153751Y-60730080D01*
X105205204Y-60710889D01*
X105322261Y-60623261D01*
X105409889Y-60506204D01*
X105434397Y-60440494D01*
X105470348Y-60389284D01*
X105526730Y-60362146D01*
X105589184Y-60365994D01*
X105633097Y-60394244D01*
X105633672Y-60393507D01*
X105641779Y-60399817D01*
X105641780Y-60399818D01*
X105825983Y-60543190D01*
X106031273Y-60654287D01*
X106086466Y-60673235D01*
X106252046Y-60730080D01*
X106482288Y-60768500D01*
X106715712Y-60768500D01*
X106945953Y-60730080D01*
X107056339Y-60692183D01*
X107166727Y-60654287D01*
X107372017Y-60543190D01*
X107556220Y-60399818D01*
X107714314Y-60228083D01*
X107841984Y-60032669D01*
X107935749Y-59818907D01*
X107993051Y-59592626D01*
X108012327Y-59360000D01*
X107993051Y-59127374D01*
X107935749Y-58901093D01*
X107914215Y-58852000D01*
X113418501Y-58852000D01*
X113438456Y-59080084D01*
X113497717Y-59301246D01*
X113594474Y-59508744D01*
X113594476Y-59508746D01*
X113594477Y-59508749D01*
X113725802Y-59696300D01*
X113887700Y-59858198D01*
X114075251Y-59989523D01*
X114075254Y-59989524D01*
X114075255Y-59989525D01*
X114179003Y-60037903D01*
X114282757Y-60086284D01*
X114503913Y-60145543D01*
X114732000Y-60165498D01*
X114960087Y-60145543D01*
X115181243Y-60086284D01*
X115388749Y-59989523D01*
X115576300Y-59858198D01*
X115738198Y-59696300D01*
X115869523Y-59508749D01*
X115966284Y-59301243D01*
X116025543Y-59080087D01*
X116045498Y-58852000D01*
X123578501Y-58852000D01*
X123598456Y-59080084D01*
X123657717Y-59301246D01*
X123754474Y-59508744D01*
X123754476Y-59508746D01*
X123754477Y-59508749D01*
X123885802Y-59696300D01*
X124047700Y-59858198D01*
X124235251Y-59989523D01*
X124235254Y-59989524D01*
X124235255Y-59989525D01*
X124339003Y-60037903D01*
X124442757Y-60086284D01*
X124663913Y-60145543D01*
X124892000Y-60165498D01*
X125120087Y-60145543D01*
X125341243Y-60086284D01*
X125548749Y-59989523D01*
X125722301Y-59868000D01*
X156652835Y-59868000D01*
X156671465Y-60104712D01*
X156726894Y-60335593D01*
X156735646Y-60356721D01*
X156817760Y-60554963D01*
X156941824Y-60757416D01*
X157096031Y-60937969D01*
X157276584Y-61092176D01*
X157479037Y-61216240D01*
X157698406Y-61307105D01*
X157929289Y-61362535D01*
X158166000Y-61381165D01*
X158402711Y-61362535D01*
X158633594Y-61307105D01*
X158852963Y-61216240D01*
X159055416Y-61092176D01*
X159056079Y-61091610D01*
X161795942Y-61091610D01*
X161842766Y-61128055D01*
X162061393Y-61246368D01*
X162296506Y-61327083D01*
X162541707Y-61368000D01*
X162790293Y-61368000D01*
X163035493Y-61327083D01*
X163270606Y-61246368D01*
X163489233Y-61128053D01*
X163536056Y-61091609D01*
X162666000Y-60221553D01*
X161795942Y-61091609D01*
X161795942Y-61091610D01*
X159056079Y-61091610D01*
X159235969Y-60937969D01*
X159390176Y-60757416D01*
X159514240Y-60554963D01*
X159605105Y-60335594D01*
X159660535Y-60104711D01*
X159679165Y-59868000D01*
X159679165Y-59867999D01*
X161160858Y-59867999D01*
X161181386Y-60115732D01*
X161242413Y-60356721D01*
X161342268Y-60584370D01*
X161442563Y-60737882D01*
X161442564Y-60737882D01*
X162312447Y-59868001D01*
X162312447Y-59868000D01*
X163019553Y-59868000D01*
X163889434Y-60737882D01*
X163989730Y-60584369D01*
X164089586Y-60356721D01*
X164150613Y-60115732D01*
X164171141Y-59867999D01*
X164150613Y-59620267D01*
X164089586Y-59379278D01*
X163989730Y-59151630D01*
X163889434Y-58998116D01*
X163019553Y-59868000D01*
X162312447Y-59868000D01*
X161442564Y-58998116D01*
X161342266Y-59151634D01*
X161242413Y-59379278D01*
X161181386Y-59620267D01*
X161160858Y-59867999D01*
X159679165Y-59867999D01*
X159660535Y-59631289D01*
X159605105Y-59400406D01*
X159514240Y-59181037D01*
X159390176Y-58978584D01*
X159235969Y-58798031D01*
X159056079Y-58644390D01*
X161795942Y-58644390D01*
X162666000Y-59514447D01*
X162666001Y-59514447D01*
X163536057Y-58644390D01*
X163536056Y-58644388D01*
X163489235Y-58607947D01*
X163270606Y-58489631D01*
X163035493Y-58408916D01*
X162790293Y-58368000D01*
X162541707Y-58368000D01*
X162296506Y-58408916D01*
X162061393Y-58489631D01*
X161842764Y-58607946D01*
X161795942Y-58644388D01*
X161795942Y-58644390D01*
X159056079Y-58644390D01*
X159055416Y-58643824D01*
X158852963Y-58519760D01*
X158743278Y-58474327D01*
X158633593Y-58428894D01*
X158402712Y-58373465D01*
X158166000Y-58354835D01*
X157929287Y-58373465D01*
X157698406Y-58428894D01*
X157479035Y-58519761D01*
X157276585Y-58643823D01*
X157096031Y-58798031D01*
X156941823Y-58978585D01*
X156817761Y-59181035D01*
X156726894Y-59400406D01*
X156671465Y-59631287D01*
X156652835Y-59868000D01*
X125722301Y-59868000D01*
X125736300Y-59858198D01*
X125898198Y-59696300D01*
X126029523Y-59508749D01*
X126126284Y-59301243D01*
X126185543Y-59080087D01*
X126205498Y-58852000D01*
X126185543Y-58623913D01*
X126126284Y-58402757D01*
X126029523Y-58195251D01*
X125898198Y-58007700D01*
X125736300Y-57845802D01*
X125548749Y-57714477D01*
X125548746Y-57714476D01*
X125548744Y-57714474D01*
X125341246Y-57617717D01*
X125341243Y-57617716D01*
X125230664Y-57588086D01*
X125120084Y-57558456D01*
X124892000Y-57538501D01*
X124663915Y-57558456D01*
X124442753Y-57617717D01*
X124235255Y-57714474D01*
X124047696Y-57845805D01*
X123885805Y-58007696D01*
X123885802Y-58007699D01*
X123885802Y-58007700D01*
X123845181Y-58065713D01*
X123754474Y-58195255D01*
X123657717Y-58402753D01*
X123598456Y-58623915D01*
X123578501Y-58852000D01*
X116045498Y-58852000D01*
X116025543Y-58623913D01*
X115966284Y-58402757D01*
X115869523Y-58195251D01*
X115738198Y-58007700D01*
X115576300Y-57845802D01*
X115388749Y-57714477D01*
X115388746Y-57714476D01*
X115388744Y-57714474D01*
X115181246Y-57617717D01*
X115181243Y-57617716D01*
X115070664Y-57588086D01*
X114960084Y-57558456D01*
X114732000Y-57538501D01*
X114503915Y-57558456D01*
X114282753Y-57617717D01*
X114075255Y-57714474D01*
X113887696Y-57845805D01*
X113725805Y-58007696D01*
X113725802Y-58007699D01*
X113725802Y-58007700D01*
X113685181Y-58065713D01*
X113594474Y-58195255D01*
X113497717Y-58402753D01*
X113438456Y-58623915D01*
X113418501Y-58852000D01*
X107914215Y-58852000D01*
X107841984Y-58687331D01*
X107778149Y-58589624D01*
X107714315Y-58491918D01*
X107556219Y-58320181D01*
X107419536Y-58213796D01*
X107372017Y-58176810D01*
X107166727Y-58065713D01*
X107166726Y-58065712D01*
X107166725Y-58065712D01*
X106945953Y-57989919D01*
X106715712Y-57951500D01*
X106482288Y-57951500D01*
X106252046Y-57989919D01*
X106031274Y-58065712D01*
X105825982Y-58176810D01*
X105825983Y-58176810D01*
X105641782Y-58320181D01*
X105633672Y-58326493D01*
X105633098Y-58325755D01*
X105589178Y-58354007D01*
X105526726Y-58357852D01*
X105470347Y-58330714D01*
X105434397Y-58279502D01*
X105409889Y-58213796D01*
X105322261Y-58096738D01*
X105205203Y-58009110D01*
X105068205Y-57958011D01*
X105037919Y-57954755D01*
X105007638Y-57951500D01*
X103110362Y-57951500D01*
X103083445Y-57954393D01*
X103049794Y-57958011D01*
X102912796Y-58009110D01*
X102795738Y-58096738D01*
X102708110Y-58213796D01*
X102657011Y-58350794D01*
X102650500Y-58411366D01*
X102650500Y-60308634D01*
X100500500Y-60308634D01*
X100500500Y-54787999D01*
X113418501Y-54787999D01*
X113438456Y-55016084D01*
X113497717Y-55237246D01*
X113594474Y-55444744D01*
X113594476Y-55444746D01*
X113594477Y-55444749D01*
X113725802Y-55632300D01*
X113887700Y-55794198D01*
X114075251Y-55925523D01*
X114282757Y-56022284D01*
X114503913Y-56081543D01*
X114732000Y-56101498D01*
X114960087Y-56081543D01*
X115181243Y-56022284D01*
X115388749Y-55925523D01*
X115576300Y-55794198D01*
X115738198Y-55632300D01*
X115869523Y-55444749D01*
X115966284Y-55237243D01*
X116025543Y-55016087D01*
X116045498Y-54788000D01*
X116045498Y-54787999D01*
X123578501Y-54787999D01*
X123598456Y-55016084D01*
X123657717Y-55237246D01*
X123754474Y-55444744D01*
X123754476Y-55444746D01*
X123754477Y-55444749D01*
X123885802Y-55632300D01*
X124047700Y-55794198D01*
X124235251Y-55925523D01*
X124442757Y-56022284D01*
X124663913Y-56081543D01*
X124892000Y-56101498D01*
X125120087Y-56081543D01*
X125341243Y-56022284D01*
X125548749Y-55925523D01*
X125736300Y-55794198D01*
X125898198Y-55632300D01*
X126029523Y-55444749D01*
X126126284Y-55237243D01*
X126185543Y-55016087D01*
X126205498Y-54788000D01*
X126185543Y-54559913D01*
X126126284Y-54338757D01*
X126029523Y-54131251D01*
X125898198Y-53943700D01*
X125736300Y-53781802D01*
X125548749Y-53650477D01*
X125548746Y-53650476D01*
X125548744Y-53650474D01*
X125341246Y-53553717D01*
X125341243Y-53553716D01*
X125230665Y-53524086D01*
X125120084Y-53494456D01*
X124892000Y-53474501D01*
X124663915Y-53494456D01*
X124442753Y-53553717D01*
X124235255Y-53650474D01*
X124047696Y-53781805D01*
X123885805Y-53943696D01*
X123754474Y-54131255D01*
X123657717Y-54338753D01*
X123598456Y-54559915D01*
X123578501Y-54787999D01*
X116045498Y-54787999D01*
X116025543Y-54559913D01*
X115966284Y-54338757D01*
X115869523Y-54131251D01*
X115738198Y-53943700D01*
X115576300Y-53781802D01*
X115388749Y-53650477D01*
X115388746Y-53650476D01*
X115388744Y-53650474D01*
X115181246Y-53553717D01*
X115181243Y-53553716D01*
X115070665Y-53524086D01*
X114960084Y-53494456D01*
X114732000Y-53474501D01*
X114503915Y-53494456D01*
X114282753Y-53553717D01*
X114075255Y-53650474D01*
X113887696Y-53781805D01*
X113725805Y-53943696D01*
X113594474Y-54131255D01*
X113497717Y-54338753D01*
X113438456Y-54559915D01*
X113418501Y-54787999D01*
X100500500Y-54787999D01*
X100500500Y-53263999D01*
X152680496Y-53263999D01*
X152700458Y-53453929D01*
X152759472Y-53635556D01*
X152854957Y-53800941D01*
X152854960Y-53800944D01*
X152982747Y-53942866D01*
X153137035Y-54054963D01*
X153137248Y-54055118D01*
X153311714Y-54132795D01*
X153498511Y-54172500D01*
X153498513Y-54172500D01*
X153689487Y-54172500D01*
X153689489Y-54172500D01*
X153876285Y-54132795D01*
X153876286Y-54132794D01*
X153876288Y-54132794D01*
X154050752Y-54055118D01*
X154205253Y-53942866D01*
X154333040Y-53800944D01*
X154428527Y-53635556D01*
X154487542Y-53453928D01*
X154496573Y-53367999D01*
X156652835Y-53367999D01*
X156671465Y-53604712D01*
X156726894Y-53835593D01*
X156735646Y-53856721D01*
X156817760Y-54054963D01*
X156941824Y-54257416D01*
X157096031Y-54437969D01*
X157276584Y-54592176D01*
X157479037Y-54716240D01*
X157698406Y-54807105D01*
X157929289Y-54862535D01*
X158166000Y-54881165D01*
X158402711Y-54862535D01*
X158633594Y-54807105D01*
X158852963Y-54716240D01*
X159055416Y-54592176D01*
X159056079Y-54591610D01*
X161795942Y-54591610D01*
X161842766Y-54628055D01*
X162061393Y-54746368D01*
X162296506Y-54827083D01*
X162541707Y-54868000D01*
X162790293Y-54868000D01*
X163035493Y-54827083D01*
X163270606Y-54746368D01*
X163489233Y-54628053D01*
X163536056Y-54591609D01*
X162666000Y-53721553D01*
X161795942Y-54591609D01*
X161795942Y-54591610D01*
X159056079Y-54591610D01*
X159235969Y-54437969D01*
X159390176Y-54257416D01*
X159514240Y-54054963D01*
X159605105Y-53835594D01*
X159660535Y-53604711D01*
X159679165Y-53368000D01*
X159679165Y-53367999D01*
X161160858Y-53367999D01*
X161181386Y-53615732D01*
X161242413Y-53856721D01*
X161342268Y-54084370D01*
X161442563Y-54237882D01*
X161442564Y-54237882D01*
X162312447Y-53368001D01*
X162312447Y-53368000D01*
X163019553Y-53368000D01*
X163889434Y-54237882D01*
X163989730Y-54084369D01*
X164089586Y-53856721D01*
X164150613Y-53615732D01*
X164171141Y-53367999D01*
X164150613Y-53120267D01*
X164089586Y-52879278D01*
X163989730Y-52651630D01*
X163889434Y-52498116D01*
X163019553Y-53368000D01*
X162312447Y-53368000D01*
X161442564Y-52498116D01*
X161342266Y-52651634D01*
X161242413Y-52879278D01*
X161181386Y-53120267D01*
X161160858Y-53367999D01*
X159679165Y-53367999D01*
X159660535Y-53131289D01*
X159605105Y-52900406D01*
X159514240Y-52681037D01*
X159390176Y-52478584D01*
X159235969Y-52298031D01*
X159056079Y-52144390D01*
X161795942Y-52144390D01*
X162666000Y-53014447D01*
X162666001Y-53014447D01*
X163536057Y-52144390D01*
X163536056Y-52144388D01*
X163489235Y-52107947D01*
X163270606Y-51989631D01*
X163035493Y-51908916D01*
X162790293Y-51868000D01*
X162541707Y-51868000D01*
X162296506Y-51908916D01*
X162061393Y-51989631D01*
X161842764Y-52107946D01*
X161795942Y-52144388D01*
X161795942Y-52144390D01*
X159056079Y-52144390D01*
X159055416Y-52143824D01*
X158852963Y-52019760D01*
X158743278Y-51974327D01*
X158633593Y-51928894D01*
X158402712Y-51873465D01*
X158166000Y-51854835D01*
X157929287Y-51873465D01*
X157698406Y-51928894D01*
X157557632Y-51987205D01*
X157483726Y-52017818D01*
X157479035Y-52019761D01*
X157276585Y-52143823D01*
X157096031Y-52298031D01*
X156941823Y-52478585D01*
X156817761Y-52681035D01*
X156726894Y-52900406D01*
X156671465Y-53131287D01*
X156652835Y-53367999D01*
X154496573Y-53367999D01*
X154507504Y-53264000D01*
X154487542Y-53074072D01*
X154428527Y-52892444D01*
X154428527Y-52892443D01*
X154333042Y-52727058D01*
X154291604Y-52681037D01*
X154205253Y-52585134D01*
X154108901Y-52515130D01*
X154050751Y-52472881D01*
X153876285Y-52395204D01*
X153689489Y-52355500D01*
X153689487Y-52355500D01*
X153498513Y-52355500D01*
X153498511Y-52355500D01*
X153311714Y-52395204D01*
X153137248Y-52472881D01*
X152982748Y-52585133D01*
X152854957Y-52727058D01*
X152759472Y-52892443D01*
X152700458Y-53074070D01*
X152680496Y-53263999D01*
X100500500Y-53263999D01*
X100500500Y-51926634D01*
X102655500Y-51926634D01*
X102662011Y-51987205D01*
X102713110Y-52124203D01*
X102800738Y-52241261D01*
X102917796Y-52328889D01*
X103054794Y-52379988D01*
X103054797Y-52379988D01*
X103054799Y-52379989D01*
X103115362Y-52386500D01*
X105012634Y-52386500D01*
X105012638Y-52386500D01*
X105073201Y-52379989D01*
X105073203Y-52379988D01*
X105073205Y-52379988D01*
X105158751Y-52348080D01*
X105210204Y-52328889D01*
X105327261Y-52241261D01*
X105414889Y-52124204D01*
X105439397Y-52058494D01*
X105475348Y-52007284D01*
X105531730Y-51980146D01*
X105594184Y-51983994D01*
X105638097Y-52012244D01*
X105638672Y-52011507D01*
X105646779Y-52017817D01*
X105646780Y-52017818D01*
X105830983Y-52161190D01*
X106036273Y-52272287D01*
X106091466Y-52291235D01*
X106257046Y-52348080D01*
X106487288Y-52386500D01*
X106720712Y-52386500D01*
X106950953Y-52348080D01*
X107061339Y-52310183D01*
X107171727Y-52272287D01*
X107377017Y-52161190D01*
X107561220Y-52017818D01*
X107719314Y-51846083D01*
X107846984Y-51650669D01*
X107940749Y-51436907D01*
X107998051Y-51210626D01*
X108017327Y-50978000D01*
X107998051Y-50745374D01*
X107940749Y-50519093D01*
X107846984Y-50305331D01*
X107761763Y-50174890D01*
X107719315Y-50109918D01*
X107708927Y-50098634D01*
X117437500Y-50098634D01*
X117444011Y-50159205D01*
X117495110Y-50296203D01*
X117582738Y-50413261D01*
X117699796Y-50500889D01*
X117836794Y-50551988D01*
X117836797Y-50551988D01*
X117836799Y-50551989D01*
X117897362Y-50558500D01*
X119694634Y-50558500D01*
X119694638Y-50558500D01*
X119755201Y-50551989D01*
X119755203Y-50551988D01*
X119755205Y-50551988D01*
X119843403Y-50519091D01*
X119892204Y-50500889D01*
X120009261Y-50413261D01*
X120096889Y-50296204D01*
X120142137Y-50174889D01*
X120178089Y-50123677D01*
X120234471Y-50096539D01*
X120296925Y-50100387D01*
X120349548Y-50134241D01*
X120386969Y-50174890D01*
X120412760Y-50202906D01*
X120590424Y-50341189D01*
X120788426Y-50448342D01*
X121001365Y-50521444D01*
X121223431Y-50558500D01*
X121448569Y-50558500D01*
X121670635Y-50521444D01*
X121883574Y-50448342D01*
X122081576Y-50341189D01*
X122259240Y-50202906D01*
X122411722Y-50037268D01*
X122502190Y-49898795D01*
X122546982Y-49857561D01*
X122606000Y-49842616D01*
X122665018Y-49857561D01*
X122709809Y-49898795D01*
X122795112Y-50029362D01*
X122800278Y-50037268D01*
X122952760Y-50202906D01*
X123130424Y-50341189D01*
X123328426Y-50448342D01*
X123541365Y-50521444D01*
X123763431Y-50558500D01*
X123988569Y-50558500D01*
X124210635Y-50521444D01*
X124423574Y-50448342D01*
X124621576Y-50341189D01*
X124799240Y-50202906D01*
X124951722Y-50037268D01*
X125042190Y-49898795D01*
X125086982Y-49857561D01*
X125146000Y-49842616D01*
X125205018Y-49857561D01*
X125249809Y-49898795D01*
X125335112Y-50029362D01*
X125340278Y-50037268D01*
X125492760Y-50202906D01*
X125670424Y-50341189D01*
X125868426Y-50448342D01*
X126081365Y-50521444D01*
X126303431Y-50558500D01*
X126528569Y-50558500D01*
X126750635Y-50521444D01*
X126963574Y-50448342D01*
X127161576Y-50341189D01*
X127339240Y-50202906D01*
X127491722Y-50037268D01*
X127582190Y-49898795D01*
X127626982Y-49857561D01*
X127686000Y-49842616D01*
X127745018Y-49857561D01*
X127789809Y-49898795D01*
X127875112Y-50029362D01*
X127880278Y-50037268D01*
X128032760Y-50202906D01*
X128210424Y-50341189D01*
X128408426Y-50448342D01*
X128621365Y-50521444D01*
X128843431Y-50558500D01*
X129068569Y-50558500D01*
X129290635Y-50521444D01*
X129503574Y-50448342D01*
X129701576Y-50341189D01*
X129879240Y-50202906D01*
X130031722Y-50037268D01*
X130122190Y-49898795D01*
X130166982Y-49857561D01*
X130226000Y-49842616D01*
X130285018Y-49857561D01*
X130329809Y-49898795D01*
X130415112Y-50029362D01*
X130420278Y-50037268D01*
X130572760Y-50202906D01*
X130750424Y-50341189D01*
X130948426Y-50448342D01*
X131161365Y-50521444D01*
X131383431Y-50558500D01*
X131608569Y-50558500D01*
X131830635Y-50521444D01*
X132043574Y-50448342D01*
X132241576Y-50341189D01*
X132419240Y-50202906D01*
X132571722Y-50037268D01*
X132662190Y-49898795D01*
X132706982Y-49857561D01*
X132766000Y-49842616D01*
X132825018Y-49857561D01*
X132869809Y-49898795D01*
X132955112Y-50029362D01*
X132960278Y-50037268D01*
X133112760Y-50202906D01*
X133290424Y-50341189D01*
X133488426Y-50448342D01*
X133701365Y-50521444D01*
X133923431Y-50558500D01*
X134148569Y-50558500D01*
X134370635Y-50521444D01*
X134583574Y-50448342D01*
X134781576Y-50341189D01*
X134959240Y-50202906D01*
X135111722Y-50037268D01*
X135202190Y-49898795D01*
X135246982Y-49857561D01*
X135306000Y-49842616D01*
X135365018Y-49857561D01*
X135409809Y-49898795D01*
X135495112Y-50029362D01*
X135500278Y-50037268D01*
X135652760Y-50202906D01*
X135830424Y-50341189D01*
X136028426Y-50448342D01*
X136241365Y-50521444D01*
X136463431Y-50558500D01*
X136688569Y-50558500D01*
X136910635Y-50521444D01*
X137123574Y-50448342D01*
X137321576Y-50341189D01*
X137499240Y-50202906D01*
X137651722Y-50037268D01*
X137742190Y-49898795D01*
X137786982Y-49857561D01*
X137846000Y-49842616D01*
X137905018Y-49857561D01*
X137949809Y-49898795D01*
X138035112Y-50029362D01*
X138040278Y-50037268D01*
X138192760Y-50202906D01*
X138370424Y-50341189D01*
X138568426Y-50448342D01*
X138781365Y-50521444D01*
X139003431Y-50558500D01*
X139228569Y-50558500D01*
X139450635Y-50521444D01*
X139663574Y-50448342D01*
X139861576Y-50341189D01*
X140039240Y-50202906D01*
X140191722Y-50037268D01*
X140282190Y-49898795D01*
X140326982Y-49857561D01*
X140386000Y-49842616D01*
X140445018Y-49857561D01*
X140489809Y-49898795D01*
X140575112Y-50029362D01*
X140580278Y-50037268D01*
X140732760Y-50202906D01*
X140910424Y-50341189D01*
X141108426Y-50448342D01*
X141321365Y-50521444D01*
X141543431Y-50558500D01*
X141768569Y-50558500D01*
X141990635Y-50521444D01*
X142203574Y-50448342D01*
X142401576Y-50341189D01*
X142579240Y-50202906D01*
X142731722Y-50037268D01*
X142854860Y-49848791D01*
X142945296Y-49642616D01*
X143000564Y-49424368D01*
X143019156Y-49200000D01*
X143000564Y-48975632D01*
X142945296Y-48757384D01*
X142859712Y-48562270D01*
X142854861Y-48551211D01*
X142854860Y-48551209D01*
X142731722Y-48362732D01*
X142579240Y-48197094D01*
X142401576Y-48058811D01*
X142203574Y-47951658D01*
X142203573Y-47951657D01*
X142203572Y-47951657D01*
X141990636Y-47878556D01*
X141768569Y-47841500D01*
X141543431Y-47841500D01*
X141321363Y-47878556D01*
X141108427Y-47951657D01*
X140910424Y-48058811D01*
X140732760Y-48197094D01*
X140580279Y-48362730D01*
X140489809Y-48501205D01*
X140445017Y-48542438D01*
X140386000Y-48557383D01*
X140326983Y-48542438D01*
X140282191Y-48501205D01*
X140262043Y-48470367D01*
X140191722Y-48362732D01*
X140039240Y-48197094D01*
X139861576Y-48058811D01*
X139663574Y-47951658D01*
X139663573Y-47951657D01*
X139663572Y-47951657D01*
X139450636Y-47878556D01*
X139228569Y-47841500D01*
X139003431Y-47841500D01*
X138781363Y-47878556D01*
X138568427Y-47951657D01*
X138370424Y-48058811D01*
X138192760Y-48197094D01*
X138040279Y-48362730D01*
X137949809Y-48501205D01*
X137905017Y-48542438D01*
X137846000Y-48557383D01*
X137786983Y-48542438D01*
X137742191Y-48501205D01*
X137722043Y-48470367D01*
X137651722Y-48362732D01*
X137499240Y-48197094D01*
X137321576Y-48058811D01*
X137123574Y-47951658D01*
X137123573Y-47951657D01*
X137123572Y-47951657D01*
X136910636Y-47878556D01*
X136688569Y-47841500D01*
X136463431Y-47841500D01*
X136241363Y-47878556D01*
X136028427Y-47951657D01*
X135830424Y-48058811D01*
X135652760Y-48197094D01*
X135500279Y-48362730D01*
X135409809Y-48501205D01*
X135365017Y-48542438D01*
X135306000Y-48557383D01*
X135246983Y-48542438D01*
X135202191Y-48501205D01*
X135182043Y-48470367D01*
X135111722Y-48362732D01*
X134959240Y-48197094D01*
X134781576Y-48058811D01*
X134583574Y-47951658D01*
X134583573Y-47951657D01*
X134583572Y-47951657D01*
X134370636Y-47878556D01*
X134148569Y-47841500D01*
X133923431Y-47841500D01*
X133701363Y-47878556D01*
X133488427Y-47951657D01*
X133290424Y-48058811D01*
X133112760Y-48197094D01*
X132960279Y-48362730D01*
X132869809Y-48501205D01*
X132825017Y-48542438D01*
X132766000Y-48557383D01*
X132706983Y-48542438D01*
X132662191Y-48501205D01*
X132642043Y-48470367D01*
X132571722Y-48362732D01*
X132419240Y-48197094D01*
X132241576Y-48058811D01*
X132043574Y-47951658D01*
X132043573Y-47951657D01*
X132043572Y-47951657D01*
X131830636Y-47878556D01*
X131608569Y-47841500D01*
X131383431Y-47841500D01*
X131161363Y-47878556D01*
X130948427Y-47951657D01*
X130750424Y-48058811D01*
X130572760Y-48197094D01*
X130420279Y-48362730D01*
X130329809Y-48501205D01*
X130285017Y-48542438D01*
X130226000Y-48557383D01*
X130166983Y-48542438D01*
X130122191Y-48501205D01*
X130102043Y-48470367D01*
X130031722Y-48362732D01*
X129879240Y-48197094D01*
X129701576Y-48058811D01*
X129503574Y-47951658D01*
X129503573Y-47951657D01*
X129503572Y-47951657D01*
X129290636Y-47878556D01*
X129068569Y-47841500D01*
X128843431Y-47841500D01*
X128621363Y-47878556D01*
X128408427Y-47951657D01*
X128210424Y-48058811D01*
X128032760Y-48197094D01*
X127880279Y-48362730D01*
X127789809Y-48501205D01*
X127745017Y-48542438D01*
X127686000Y-48557383D01*
X127626983Y-48542438D01*
X127582191Y-48501205D01*
X127562043Y-48470367D01*
X127491722Y-48362732D01*
X127339240Y-48197094D01*
X127161576Y-48058811D01*
X126963574Y-47951658D01*
X126963573Y-47951657D01*
X126963572Y-47951657D01*
X126750636Y-47878556D01*
X126528569Y-47841500D01*
X126303431Y-47841500D01*
X126081363Y-47878556D01*
X125868427Y-47951657D01*
X125670424Y-48058811D01*
X125492760Y-48197094D01*
X125340279Y-48362730D01*
X125249809Y-48501205D01*
X125205017Y-48542438D01*
X125146000Y-48557383D01*
X125086983Y-48542438D01*
X125042191Y-48501205D01*
X125022043Y-48470367D01*
X124951722Y-48362732D01*
X124799240Y-48197094D01*
X124621576Y-48058811D01*
X124423574Y-47951658D01*
X124423573Y-47951657D01*
X124423572Y-47951657D01*
X124210636Y-47878556D01*
X123988569Y-47841500D01*
X123763431Y-47841500D01*
X123541363Y-47878556D01*
X123328427Y-47951657D01*
X123130424Y-48058811D01*
X122952760Y-48197094D01*
X122800279Y-48362730D01*
X122709809Y-48501205D01*
X122665017Y-48542438D01*
X122606000Y-48557383D01*
X122546983Y-48542438D01*
X122502191Y-48501205D01*
X122482043Y-48470367D01*
X122411722Y-48362732D01*
X122259240Y-48197094D01*
X122081576Y-48058811D01*
X121883574Y-47951658D01*
X121883573Y-47951657D01*
X121883572Y-47951657D01*
X121670636Y-47878556D01*
X121448569Y-47841500D01*
X121223431Y-47841500D01*
X121001363Y-47878556D01*
X120788427Y-47951657D01*
X120590424Y-48058811D01*
X120412759Y-48197094D01*
X120349548Y-48265759D01*
X120296924Y-48299612D01*
X120234470Y-48303460D01*
X120178089Y-48276322D01*
X120142138Y-48225110D01*
X120117427Y-48158861D01*
X120096889Y-48103796D01*
X120063214Y-48058811D01*
X120009261Y-47986738D01*
X119892203Y-47899110D01*
X119755205Y-47848011D01*
X119724919Y-47844755D01*
X119694638Y-47841500D01*
X117897362Y-47841500D01*
X117870445Y-47844393D01*
X117836794Y-47848011D01*
X117699796Y-47899110D01*
X117582738Y-47986738D01*
X117495110Y-48103796D01*
X117444011Y-48240794D01*
X117440393Y-48274445D01*
X117437689Y-48299612D01*
X117437500Y-48301366D01*
X117437500Y-50098634D01*
X107708927Y-50098634D01*
X107561219Y-49938181D01*
X107480509Y-49875362D01*
X107377017Y-49794810D01*
X107171727Y-49683713D01*
X107171726Y-49683712D01*
X107171725Y-49683712D01*
X106950953Y-49607919D01*
X106720712Y-49569500D01*
X106487288Y-49569500D01*
X106257046Y-49607919D01*
X106036274Y-49683712D01*
X105830982Y-49794810D01*
X105830983Y-49794810D01*
X105646782Y-49938181D01*
X105638672Y-49944493D01*
X105638098Y-49943755D01*
X105594178Y-49972007D01*
X105531726Y-49975852D01*
X105475347Y-49948714D01*
X105439397Y-49897502D01*
X105414889Y-49831796D01*
X105327261Y-49714738D01*
X105210203Y-49627110D01*
X105073205Y-49576011D01*
X105042919Y-49572755D01*
X105012638Y-49569500D01*
X103115362Y-49569500D01*
X103088445Y-49572393D01*
X103054794Y-49576011D01*
X102917796Y-49627110D01*
X102800738Y-49714738D01*
X102713110Y-49831796D01*
X102662011Y-49968794D01*
X102655500Y-50029366D01*
X102655500Y-51926634D01*
X100500500Y-51926634D01*
X100500500Y-47431757D01*
X100502025Y-47412370D01*
X100510228Y-47360580D01*
X100522211Y-47323700D01*
X100541529Y-47285785D01*
X100564326Y-47254409D01*
X100594409Y-47224326D01*
X100625785Y-47201529D01*
X100663700Y-47182211D01*
X100700580Y-47170228D01*
X100752370Y-47162025D01*
X100771757Y-47160500D01*
X100827892Y-47160500D01*
X163241324Y-47160500D01*
X163288777Y-47169939D01*
G37*
%TD.AperFunction*%
M02*
