%TF.GenerationSoftware,KiCad,Pcbnew,7.0.1*%
%TF.CreationDate,2023-05-02T20:05:28+02:00*%
%TF.ProjectId,Lab1_SDHD,4c616231-5f53-4444-9844-2e6b69636164,v 1.0*%
%TF.SameCoordinates,Original*%
%TF.FileFunction,Soldermask,Top*%
%TF.FilePolarity,Negative*%
%FSLAX46Y46*%
G04 Gerber Fmt 4.6, Leading zero omitted, Abs format (unit mm)*
G04 Created by KiCad (PCBNEW 7.0.1) date 2023-05-02 20:05:28*
%MOMM*%
%LPD*%
G01*
G04 APERTURE LIST*
%ADD10R,1.600000X1.600000*%
%ADD11C,1.600000*%
%ADD12O,1.600000X1.600000*%
%ADD13R,1.800000X1.800000*%
%ADD14C,1.800000*%
%ADD15R,1.700000X1.700000*%
%ADD16O,1.700000X1.700000*%
%ADD17C,2.000000*%
G04 APERTURE END LIST*
D10*
X133440380Y-69012000D03*
D11*
X130940380Y-69012000D03*
X107620000Y-84292000D03*
X107620000Y-89292000D03*
X141656000Y-74854000D03*
D12*
X141656000Y-64694000D03*
D11*
X113462000Y-74600000D03*
D12*
X113462000Y-64440000D03*
D13*
X104064000Y-50978000D03*
D14*
X106604000Y-50978000D03*
D15*
X103048000Y-94920000D03*
X158928000Y-65202000D03*
X107620000Y-94920000D03*
D11*
X114732000Y-54788000D03*
D12*
X124892000Y-54788000D03*
D15*
X136322000Y-62662000D03*
X129972000Y-93142000D03*
D11*
X116002000Y-83998000D03*
D12*
X116002000Y-94158000D03*
D10*
X123368000Y-94093113D03*
D11*
X123368000Y-91593113D03*
D10*
X137328000Y-88052000D03*
D12*
X137328000Y-85512000D03*
X137328000Y-82972000D03*
X137328000Y-80432000D03*
X129708000Y-80432000D03*
X129708000Y-82972000D03*
X129708000Y-85512000D03*
X129708000Y-88052000D03*
D11*
X122352000Y-64440000D03*
D12*
X122352000Y-74600000D03*
D11*
X156642000Y-74854000D03*
D12*
X146482000Y-74854000D03*
D11*
X152538000Y-65202000D03*
X147538000Y-65202000D03*
X135814000Y-92634000D03*
D12*
X145974000Y-92634000D03*
D13*
X104059000Y-67488000D03*
D14*
X106599000Y-67488000D03*
D15*
X158084000Y-86777000D03*
D16*
X158084000Y-84237000D03*
X158084000Y-81697000D03*
D10*
X164222000Y-73584000D03*
D11*
X161722000Y-73584000D03*
D15*
X150800000Y-92888000D03*
D17*
X162666000Y-53368000D03*
X162666000Y-59868000D03*
X158166000Y-53368000D03*
X158166000Y-59868000D03*
D15*
X162484000Y-93142000D03*
D11*
X136830000Y-74854000D03*
D12*
X126670000Y-74854000D03*
D10*
X151044000Y-87798000D03*
D12*
X151044000Y-85258000D03*
X151044000Y-82718000D03*
X151044000Y-80178000D03*
X143424000Y-80178000D03*
X143424000Y-82718000D03*
X143424000Y-85258000D03*
X143424000Y-87798000D03*
D15*
X130734000Y-62662000D03*
X156388000Y-92888000D03*
D11*
X111938000Y-94158000D03*
D12*
X111938000Y-83998000D03*
D11*
X118034000Y-74600000D03*
D12*
X118034000Y-64440000D03*
D13*
X104064000Y-75108000D03*
D14*
X106604000Y-75108000D03*
D11*
X114732000Y-58852000D03*
D12*
X124892000Y-58852000D03*
D15*
X164516000Y-65202000D03*
D11*
X125868000Y-83490000D03*
X120868000Y-83490000D03*
D13*
X104059000Y-59360000D03*
D14*
X106599000Y-59360000D03*
D15*
X127940000Y-97460000D03*
D16*
X130480000Y-97460000D03*
X133020000Y-97460000D03*
X135560000Y-97460000D03*
X138100000Y-97460000D03*
X140640000Y-97460000D03*
X143180000Y-97460000D03*
X145720000Y-97460000D03*
D15*
X150800000Y-97460000D03*
D16*
X153340000Y-97460000D03*
X155880000Y-97460000D03*
X158420000Y-97460000D03*
X160960000Y-97460000D03*
X163500000Y-97460000D03*
D15*
X118796000Y-49200000D03*
D16*
X121336000Y-49200000D03*
X123876000Y-49200000D03*
X126416000Y-49200000D03*
X128956000Y-49200000D03*
X131496000Y-49200000D03*
X134036000Y-49200000D03*
X136576000Y-49200000D03*
X139116000Y-49200000D03*
X141656000Y-49200000D03*
D15*
X145466000Y-49200000D03*
D16*
X148006000Y-49200000D03*
X150546000Y-49200000D03*
X153086000Y-49200000D03*
X155626000Y-49200000D03*
X158166000Y-49200000D03*
X160706000Y-49200000D03*
X163246000Y-49200000D03*
M02*
