M48
; DRILL file {KiCad 7.0.1} date Tue May  2 20:05:33 2023
; FORMAT={-:-/ absolute / inch / decimal}
; #@! TF.CreationDate,2023-05-02T20:05:33+02:00
; #@! TF.GenerationSoftware,Kicad,Pcbnew,7.0.1
; #@! TF.FileFunction,Plated,1,4,PTH
FMAT,2
INCH
; #@! TA.AperFunction,Plated,PTH,ViaDrill
T1C0.0157
; #@! TA.AperFunction,Plated,PTH,ComponentDrill
T2C0.0315
; #@! TA.AperFunction,Plated,PTH,ComponentDrill
T3C0.0354
; #@! TA.AperFunction,Plated,PTH,ComponentDrill
T4C0.0394
; #@! TA.AperFunction,Plated,PTH,ComponentDrill
T5C0.0433
%
G90
G05
T1
X4.987Y-2.757
X5.007Y-3.677
X5.527Y-3.267
X6.047Y-2.097
T2
X4.237Y-3.3186
X4.237Y-3.5154
X4.407Y-3.307
X4.407Y-3.707
X4.467Y-2.537
X4.467Y-2.937
X4.517Y-2.157
X4.517Y-2.317
X4.567Y-3.307
X4.567Y-3.707
X4.647Y-2.537
X4.647Y-2.937
X4.7586Y-3.287
X4.817Y-2.537
X4.817Y-2.937
X4.857Y-3.606
X4.857Y-3.7045
X4.917Y-2.157
X4.917Y-2.317
X4.9554Y-3.287
X4.987Y-2.947
X5.1066Y-3.1666
X5.1066Y-3.2666
X5.1066Y-3.3666
X5.1066Y-3.4666
X5.1551Y-2.717
X5.2536Y-2.717
X5.347Y-3.647
X5.387Y-2.947
X5.4066Y-3.1666
X5.4066Y-3.2666
X5.4066Y-3.3666
X5.4066Y-3.4666
X5.577Y-2.547
X5.577Y-2.947
X5.6466Y-3.1566
X5.6466Y-3.2566
X5.6466Y-3.3566
X5.6466Y-3.4566
X5.747Y-3.647
X5.767Y-2.947
X5.8086Y-2.567
X5.9466Y-3.1566
X5.9466Y-3.2566
X5.9466Y-3.3566
X5.9466Y-3.4566
X6.0054Y-2.567
X6.167Y-2.947
X6.367Y-2.897
X6.4654Y-2.897
T3
X4.0968Y-2.337
X4.0968Y-2.657
X4.097Y-2.007
X4.097Y-2.957
X4.1968Y-2.337
X4.1968Y-2.657
X4.197Y-2.007
X4.197Y-2.957
T4
X4.057Y-3.737
X4.237Y-3.737
X4.677Y-1.937
X4.777Y-1.937
X4.877Y-1.937
X4.977Y-1.937
X5.037Y-3.837
X5.077Y-1.937
X5.117Y-3.667
X5.137Y-3.837
X5.147Y-2.467
X5.177Y-1.937
X5.237Y-3.837
X5.277Y-1.937
X5.337Y-3.837
X5.367Y-2.467
X5.377Y-1.937
X5.437Y-3.837
X5.477Y-1.937
X5.537Y-3.837
X5.577Y-1.937
X5.637Y-3.837
X5.727Y-1.937
X5.737Y-3.837
X5.827Y-1.937
X5.927Y-1.937
X5.937Y-3.657
X5.937Y-3.837
X6.027Y-1.937
X6.037Y-3.837
X6.127Y-1.937
X6.137Y-3.837
X6.157Y-3.657
X6.2238Y-3.2164
X6.2238Y-3.3164
X6.2238Y-3.4164
X6.227Y-1.937
X6.237Y-3.837
X6.257Y-2.567
X6.327Y-1.937
X6.337Y-3.837
X6.397Y-3.667
X6.427Y-1.937
X6.437Y-3.837
X6.477Y-2.567
T5
X6.227Y-2.1011
X6.227Y-2.357
X6.4042Y-2.1011
X6.4042Y-2.357
T0
M30
